<svg fill="none" height="77" viewBox="0 0 78 77" width="78" xmlns="http://www.w3.org/2000/svg" xmlns:xlink="http://www.w3.org/1999/xlink"><mask id="a" height="7" maskUnits="userSpaceOnUse" width="6" x="27" y="42"><path clip-rule="evenodd" d="m30.2733 42.6054-1.9917.2548-.3983 5.478 1.8589-.2548c1.3278-.2548 1.8589-.3822 2.2572-.8918.1328-.1274.1328-.3822.2656-.5096.1328-.3821.1328-.6369.2655-1.5287l.1328-1.274v-.5096c-.2655-.6369-.6639-.8917-1.4605-.8917-.2656 0-.5312 0-.9295.1274z" fill="#fff" fill-rule="evenodd"/></mask><mask id="b" height="19" maskUnits="userSpaceOnUse" width="7" x="12" y="44"><path clip-rule="evenodd" d="m15.5356 44.7355-1.5625.2883-1.0937 17.8746 1.7187-.2883c1.25-.1441 1.7188-.4324 2.1875-.7207.625-.4325.9375-1.1532.9375-2.7389l.7813-11.9645c0-.5766 0-1.009 0-1.2973-.1563-.8649-.625-1.2974-1.7188-1.2974-.3125 0-.7812.1442-1.25.1442z" fill="#fff" fill-rule="evenodd"/></mask><mask id="c" height="77" maskUnits="userSpaceOnUse" width="78" x="0" y="0"><path clip-rule="evenodd" d="m32.0465.605463c2.2977-.48437 4.5954-.605463 7.014-.605463 1.8139 0 3.6279.121093 5.4418.242185h.2419c.1209.121093.1209.121093.3628.121093 0 0 .1209.121092.3628.121092.1209 0 .2418 0 .4837.121093h.2419s-.0001 0 .1209-.242185h.3628.2418s.121 0 .3628.121092c.121 0 .2419 0 .2419.121093 0 0 .1209 0 .2418.121093 0 0 .121 0 .2419.121092.1209 0 .2419 0 .3628.121093h.2419.6046.2419.2418.3628.3628.3628.2419.4837.2418c-.1209 0-.1209.121089-.2418.242189 0 0 0 .12109.1209.24218h.2419.3628.2418.2419.2418s.121 0 .2419.12109c-.1209 0-.1209 0-.3628.1211 0 0-.1209 0-.3628 0 0 0 .121.12109.2419.12109h.2418.2419c.1209 0 .1209 0 .2419.12109 0 0 0 0 .1209.12109.1209 0 .2419 0 .2419.1211 0 .12109.2418 0 .2418.12109s.1209 0 .2419.12109c.1209 0 .2418.1211.2418.24219.121 0 .121 0 .121.24218-.121 0-.121.1211-.3628.1211v.24218s-.121 0-.3628.12109c4.3535 1.81639 8.2232 4.48043 11.4884 7.62881l-3.3861.6055-4.7163 21.9178 3.8698-.7266.7256-3.5117 3.507-.6054.3627 3.3905 3.7489-.6054-2.9023-19.1327c2.9023 3.1485 5.4418 6.7812 7.1348 10.6562h.2419s0 0 .2419.1211h.2418v.2422s.121.1211.2419 0c0 0 0 0 .2418.4843 0 0 0 .1211-.1209.3633-.1209 0-.1209.1211-.2418.1211 0 .1211-.121.2422-.121.4844.121.1211.121.2422.121.3633.2418.8476.6046 1.5742.8465 2.5429.1209.1211.1209.2422.2418.3633.121 0 .2419.1211.2419.2422 0-.2422 0-.4844.2419-.3633.2418.3633.3627.7266.4837 1.2109v.3633c.1209.3633.1209.8476.1209 1.332 0 .1211.1209.2422.1209.3633.3628 1.4531.6047 3.1484.4837 5.207.2419.2422.2419.4844.3628.7265 0 .1211 0 .3633.121.4844 0 .1211 0 .1211.1209.3633v.2422.9687.3633c0 .1211 0 .2422-.1209.3633v.3632c0 .1211-.121.2422-.2419.2422 0 .1211 0 .2422-.1209.2422.2418 2.1797-.7256 3.9961-.7256 3.9961s-.1209 1.2109-.7256 2.664c-.4837 1.8164-1.0884 3.6328-1.8139 5.3281.1209 1.0898 0 2.7851-.7256 4.2382-1.2093 2.3008-2.6605 4.2383-5.5628 5.9336-.3628.3632-.7256.7265-1.0884 1.2109.4837.4844.3628 1.0898 0 1.5742-.2418.3633-.6046.8476-.9674 1.2109-.121.1211-.2419.2422-.2419.3633-.2418.2422-.4837.4844-.7256.6055 0 .1211-.1209.2421-.2418.2421-.121.2422-.3628.3633-.6047.4844-.1209.1211-.1209.1211-.3628.2422-.1209 0-.1209 0-.2418.1211-.121.1211-.2419.2422-.3628.2422-.2419.2422-.4837.3633-.9675.3633-.2418.1211-.3628.2421-.7255.3632-.3628.2422-.8466.3633-1.3303.4844-.1209.1211-.2418.1211-.3628.1211-.1209.2422-.2418.2422-.3628.3633-.1209 0-.2418.1211-.3627.2422-.121.1211-.3628.1211-.6047 0-.2419.2421-.6046.3632-1.0884.4843-.2418 0-.3628.1211-.6046.1211-.3628.1211-.7256.4844-1.0884.6055-.1209.1211-.2418.2422-.4837.1211 0 0-.1209 0-.2419.1211-.2418 0-.3628.1211-.7256.2422-.1209 0-.2418 0-.2418.1211-.1209.121-.2419.121-.3628.2421 0 0-.1209 0-.3628.2422.1209-.1211.1209-.1211.2419-.2422 0-.1211.1209-.1211.1209-.2421 0 0 0 0-.2419.121-.2418.1211-.7256.3633-1.2093.4844-4.1116 1.4531-8.586 2.3008-13.1814 2.3008-1.9348 0-3.7488-.1211-5.6837-.3633l-.1209.2422c-.1209 0-.1209 0-.2419.1211-.1209 0-.2418 0-.3628 0 0 0-.1209-.1211-.2418 0-.121 0-.121 0-.3628-.1211-.121.1211-.1209.2422-.3628.2422 0 0-.1209.1211-.2419 0 0 0 .121 0 .2419-.1211 0 0 .1209 0 .2419-.2422 0 0 0-.1211-.121-.2422-.1209 0-.1209 0-.2418-.1211 0 0-.121 0-.3628-.1211-.121 0-.121 0-.2419 0s-.1209.1211-.1209.2422-.121.1211-.121.3633c0 0 0 .1211.121.2422 0 0-.121 0-.2419-.1211v-.2422c.1209 0 .1209-.1211.2419-.2422 0 0 0-.1211 0-.2422-1.3303-.2422-2.6605-.6054-3.9907-1.0898-.3628 0-.8465-.1211-1.2093-.1211-.121 0-.2419-.1211-.3628-.1211-.3628-.1211-.7256-.3633-1.3302-.4844-.2419 0-.3628-.1211-.4838-.2422-.1209-.121-.3628-.121-.4837-.2421s-.3628-.1211-.4837-.2422-.1209-.2422-.2419-.2422c-.1209-.1211-.2418-.2422-.4837-.2422-.1209 0-.2418-.1211-.2418-.1211-.121-.1211-.3628-.2422-.6047-.3633 0 0 0 0-.2419.1211-.1209 0-.1209-.1211-.2418-.1211-.121-.2422-.2419-.2422-.4837-.3632-.121 0-.3628-.1211-.4838-.2422-.1209 0-.2418 0-.3628 0-.3627 0-.4837 0-.7255-.1211-.2419-.1211-.3628-.1211-.4838-.2422-.1209 0-.1209-.1211-.3627-.1211 0 0-.121 0-.2419-.1211-.2419-.2422-.4837-.3633-.8465-.4844-.1209-.1211-.2419-.1211-.2419-.2421-.1209 0-.2418 0-.3628-.2422-.1209 0-.2418-.1211-.3628-.2422-.1209-.1211-.1209-.2422-.1209-.3633-.1209-.1211-.1209-.1211-.1209-.2422s0-.2422-.121-.3633c-.1209-.1211-.2418-.2421-.4837-.3632-.2418-.1211-.2418-.1211-.2418-.3633 0-.1211.1209-.2422.1209-.2422-.1209-.2422-.3628-.2422-.6047-.4844.121 0 .2419 0 .4838-.1211 0-.1211.1209-.1211.1209-.2421-1.0884-.9688-2.1767-1.9375-3.1442-3.0274l3.7488-.6054c2.5396-.4844 3.2652-.6055 4.1117-1.211.6046-.3632.9674-.8476 1.3302-1.4531.4837-.7265.7256-1.5742.8465-3.0273 0-.4844 0-.8476.121-1.0898v-9.5663c.1209-1.3321 0-2.1797 0-2.6641-.3628-2.4218-2.1768-3.2695-5.2-2.7851l-5.8047.9687-.96744 19.8592c-1.2093-1.4531-2.29768-3.0273-3.26512-4.6015 0 .1211 0 .2422-.12093.3633 0 0 0 .1211-.12093.2422 0 0 0 0-.24186.2422 0 0-.12093 0-.24186 0-.12093-.1211-.24186-.2422-.24186-.2422 0-.1211-.12093-.2422-.12093-.3633-.12093-.1211-.24186-.2422-.24186-.4844 0 0 0-.1211-.12093-.3633 0-.121-.12093-.2421-.12093-.2421 0-.1211-.12093-.2422-.24186-.4844 0-.1211 0-.2422-.12093-.4844 0-.1211-.12093-.2422-.12093-.3633-.12093-.121-.12093-.3632-.24186-.7265 0-.1211 0-.2422 0-.4844 0 0 0 0-.12093-.2422s-.12093-.4843-.12093-.6054 0-.2422-.12093-.6055c0 0 0-.1211-.12093-.2422 0-.1211 0-.1211-.12093-.2422-.12093 0-.12093-.1211-.12093-.2421 0-.1211 0-.1211-.12093-.2422 0 0-.12093-.1211 0-.2422-1.45117-3.9961-2.297679-8.2343-2.418609-12.9569 0-.1211 0-.2422 0-.4844 0-.1211-.12093-.2422-.12093-.2422 0-.1211-.12093-.2422 0-.2422.12093.1211.12093.2422.24186.3633 0-.4844 0-.9687 0-1.5742 0-.1211 0-.1211-.24186-.2422 0 0 0-.1211-.241861-.2422 0 .1211 0 .1211-.24186.1211 0-.1211.12093-.1211.24186-.1211.120931-.1211.241861-.2422.362791-.2422-.12093-.121-.12093-.2421-.12093-.3632s0-.2422 0-.2422c0-.1211 0-.1211-.12093-.3633 0-.1211 0-.2422.12093-.2422v.2422c0 .2422.12093.2422.24186.6055 0-.2422 0-.3633-.12093-.6055 0-.1211 0-.2422 0-.3633 0-.2422.12093-.4843 0-.7265 0-.1211 0-.3633 0-.4844 0-.4844 0-.8476 0-1.4531v-.4844c0-.1211.241861-.2422.241861-.4844 0-.121 0-.121 0-.2421v.1211c0-.1211 0-.1211 0-.1211v-.1211c0-.1211 0-.2422.12093-.2422 0-.1211 0-.1211 0-.2422s0-.3633.120928-.4844c0-.2422 0-.4843.12093-.8476 0-.1211 0-.2422 0-.3633.12093-.2422.12093-.3633.12093-.7266 0-.2421.36279-.4843.60465-.6054 0 .1211.12093.2422.12093.4844.12093.121 0 .121 0 .2421v.2422s0 .1211.24186.2422c1.45117-4.9648 3.86977-9.4452 7.01396-13.4413l.24186-.2422c.12093-.121.24186-.2421.24186-.3632s.12093-.1211.12093-.2422c.12092-.1211.12092-.1211.24182-.3633 0-.1211.121-.1211.2419-.3633.3628-.6054.3628-.6054.4837-.8476 0-.1211.121-.2422.2419-.3633 0 0 0-.1211.1209-.2422s.2419-.3633.3628-.4844c.1209-.121.1209-.2421.2419-.3632l.2418-.2422c.121-.1211.121-.24221.3628-.60548 0-.1211.1209-.1211.2419-.36328.1209-.12109.1209-.24219.3628-.36328 0-.12109.1209-.24218.1209-.24218 0-.1211.1209-.1211.1209-.24219 0 0 0-.12109.2419-.12109.1209-.12109.2418-.24219.2418-.36328.121-.12109.2419-.12109.3628 0 0 0 0 0 .121.24219 0 .12109-.121.12109-.121.24218v.36328s0 .12109-.1209.24218v.24219c2.5395-2.30076 5.4419-4.11715 8.707-5.81245 0 0-.1209-.12109-.1209-.24218.1209-.12109.2418-.24219.3627-.36328.121-.24218.3628-.36328.6047-.48437.8465-.60546 1.9349-.96874 2.4186-1.08983 1.2093-.242189 2.4186-.605467 3.7488-.72656.6047 0 1.5721-.121092 2.2977.121093zm20.3162 1.453227c-.1209 0-.1209 0-.1209 0v.36349c0-.12116 0-.24233 0-.24233s0-.12116.1209-.12116zm-8.1022 30.63621c.3628 1.8164 1.4512 2.7851 3.2651 2.7851.3628 0 .6047 0 .9674-.1211 1.0884-.1211 2.0559-.6054 2.7814-1.332.2419-.2422.3628-.4844.7256-.9687l-.1209 1.2109 3.2651-.6055.6047-11.5038-6.1675 1.0899-.1209 3.1484 2.2977-.3633-.121 3.2695c-.1209 1.6953-.6046 2.5429-1.8139 2.7851-.9675.1211-1.693-.2422-1.814-1.0898 0-.2422 0-.6055 0-1.2109l.4837-10.6562c.121-2.0586.4838-2.7851 1.814-3.0273 1.0884-.1211 1.693.2422 1.8139 1.0898v.8477l-.1209 2.0586 3.7489-.6055.1209-2.3008c0-.7265 0-1.2109 0-1.6953-.3628-2.0585-2.2977-2.9062-5.6837-2.3007-3.9907.7265-5.4419 2.4218-5.6837 6.6601l-.6047 10.6561c.1209.7266.2419 1.4531.3628 2.1797zm-11.6095-16.1053-1.0884 21.3123 10.2791-1.8164.1209-3.2695-6.4093 1.0899.3628-6.539 5.8047-.9688.1209-3.2695-5.8047.9688.2419-4.9648 6.1675-1.0899.1209-3.2695zm-9.5534 1.5742-3.2651 15.2577-1.5721-14.2889-6.1674 1.0898-1.2093 21.1912 3.7488-.6055.6047-18.406 2.4186 17.8006 3.507-.6055 4.2325-19.0115-1.3302 18.5271 3.7488-.6054 1.0884-21.3123zm26.2421 17.8007-1.2093 21.1912 3.8698-.6055.4837-9.4452 5.9256-.9687.1209-3.1484-5.9256.9687.2419-5.3281 5.4419-.9687 3.7488-.6055-.9674 18.0428 3.8697-.6054.9675-17.9217 3.8697-.7266.121-3.2695-11.3675 1.9375zm-9.3116 1.6951-4.5954 21.0701-2.9023-8.5975c1.9349-.7266 2.6604-1.6953 2.7814-4.1172l.1209-3.0273c0-.4844 0-.8477-.1209-1.332-.2419-1.0899-.6047-1.8164-1.4512-2.3008-.6046-.3633-1.4511-.4844-2.4186-.3633-.4837 0-1.0884.1211-2.0558.3633l-5.0791.8476-1.0883 21.3124 3.7488-.6055.4837-9.4452 1.4512-.2422 2.7814 8.8398 3.8697-.7266 3.507-.6055.7256-3.5117 3.507-.6054.3628 3.3906 3.8697-.7266-3.0232-20.4646z" fill="#fff" fill-rule="evenodd"/></mask><path d="m61.6089 26.2985 2.1244-.4777-.7435-9.077z" fill="#000"/><g mask="url(#a)"><path d="m24.9624 50.6314h10.4895v-10.4466h-10.4895z" fill="#000"/></g><path d="m40.3647 51.7778 2.1245-.4777-.7436-9.077z" fill="#000"/><g mask="url(#b)"><path d="m10.2241 62.4758h10.0912v-20.2118h-10.0912z" fill="#000"/></g><g mask="url(#c)"><path d="m-2.29736 78.3469h82.95816v-80.76882h-82.95816z" fill="#000"/></g></svg>