<svg width="78" height="77" viewBox="0 0 78 77" fill="none" xmlns="http://www.w3.org/2000/svg">
<path d="M61.6089 26.2985L63.7333 25.8208L62.9898 16.7438L61.6089 26.2985Z" fill="black"/>
<mask id="mask0" mask-type="alpha" maskUnits="userSpaceOnUse" x="27" y="42" width="6" height="7">
<path fill-rule="evenodd" clip-rule="evenodd" d="M30.2733 42.6054L28.2816 42.8602L27.8833 48.3382L29.7422 48.0834C31.07 47.8286 31.6011 47.7012 31.9994 47.1916C32.1322 47.0642 32.1322 46.8094 32.265 46.682C32.3978 46.2999 32.3978 46.0451 32.5305 45.1533L32.6633 43.8793V43.3697C32.3978 42.7328 31.9994 42.478 31.2028 42.478C30.9372 42.478 30.6716 42.478 30.2733 42.6054Z" fill="white"/>
</mask>
<g mask="url(#mask0)">
<path d="M24.9624 50.6314H35.4519V40.1848H24.9624V50.6314Z" fill="black"/>
</g>
<path d="M40.3647 51.7778L42.4892 51.3001L41.7456 42.2231L40.3647 51.7778Z" fill="black"/>
<mask id="mask1" mask-type="alpha" maskUnits="userSpaceOnUse" x="12" y="44" width="7" height="19">
<path fill-rule="evenodd" clip-rule="evenodd" d="M15.5356 44.7355L13.9731 45.0238L12.8794 62.8984L14.5981 62.6101C15.8481 62.466 16.3169 62.1777 16.7856 61.8894C17.4106 61.4569 17.7231 60.7362 17.7231 59.1505L18.5044 47.186C18.5044 46.6094 18.5044 46.177 18.5044 45.8887C18.3481 45.0238 17.8794 44.5913 16.7856 44.5913C16.4731 44.5913 16.0044 44.7355 15.5356 44.7355Z" fill="white"/>
</mask>
<g mask="url(#mask1)">
<path d="M10.2241 62.4758H20.3153V42.264H10.2241V62.4758Z" fill="black"/>
</g>
<mask id="mask2" mask-type="alpha" maskUnits="userSpaceOnUse" x="0" y="0" width="78" height="77">
<path fill-rule="evenodd" clip-rule="evenodd" d="M32.0465 0.605463C34.3442 0.121093 36.6419 0 39.0605 0C40.8744 0 42.6884 0.121093 44.5023 0.242185C44.5023 0.242185 44.5023 0.242185 44.7442 0.242185C44.8651 0.363278 44.8651 0.363278 45.107 0.363278C45.107 0.363278 45.2279 0.48437 45.4698 0.48437C45.5907 0.48437 45.7116 0.48437 45.9535 0.605463C46.0744 0.605463 46.1954 0.605463 46.1954 0.605463C46.1954 0.605463 46.1953 0.605463 46.3163 0.363278C46.4372 0.363278 46.5581 0.363278 46.6791 0.363278C46.6791 0.363278 46.8 0.363278 46.9209 0.363278C46.9209 0.363278 47.0419 0.363278 47.2837 0.48437C47.4047 0.48437 47.5256 0.48437 47.5256 0.605463C47.5256 0.605463 47.6465 0.605463 47.7674 0.726556C47.7674 0.726556 47.8884 0.726556 48.0093 0.847648C48.1302 0.847648 48.2512 0.847648 48.3721 0.968741C48.3721 0.968741 48.3721 0.968741 48.614 0.968741C48.9767 0.968741 49.0977 0.968741 49.2186 0.968741C49.3395 0.968741 49.4605 0.968741 49.4605 0.968741C49.4605 0.968741 49.5814 0.968741 49.7023 0.968741C49.7023 0.968741 49.8233 0.968741 50.0651 0.968741H50.4279H50.7907C50.9116 0.968741 50.9116 0.968741 51.0326 0.968741C51.1535 0.968741 51.1535 0.968741 51.5163 0.968741C51.5163 0.968741 51.6372 0.968741 51.7581 0.968741C51.6372 0.968741 51.6372 1.08983 51.5163 1.21093C51.5163 1.21093 51.5163 1.33202 51.6372 1.45311H51.8791C51.8791 1.45311 52 1.45311 52.2419 1.45311H52.4837H52.7256C52.7256 1.45311 52.7256 1.45311 52.9674 1.45311C52.9674 1.45311 53.0884 1.45311 53.2093 1.5742C53.0884 1.5742 53.0884 1.5742 52.8465 1.6953C52.8465 1.6953 52.7256 1.6953 52.4837 1.6953C52.4837 1.6953 52.6047 1.81639 52.7256 1.81639C52.7256 1.81639 52.8465 1.81639 52.9674 1.81639H53.2093C53.3302 1.81639 53.3302 1.81639 53.4512 1.93748C53.4512 1.93748 53.4512 1.93748 53.5721 2.05857C53.693 2.05857 53.814 2.05857 53.814 2.17967C53.814 2.30076 54.0558 2.17967 54.0558 2.30076C54.0558 2.42185 54.1767 2.30076 54.2977 2.42185C54.4186 2.42185 54.5395 2.54295 54.5395 2.66404C54.6605 2.66404 54.6605 2.66404 54.6605 2.90622C54.5395 2.90622 54.5395 3.02732 54.2977 3.02732V3.2695C54.2977 3.2695 54.1767 3.2695 53.9349 3.39059C58.2884 5.20698 62.1581 7.87102 65.4233 11.0194L62.0372 11.6249L57.3209 33.5427L61.1907 32.8161L61.9163 29.3044L65.4233 28.699L65.786 32.0895L69.5349 31.4841L66.6326 12.3514C69.5349 15.4999 72.0744 19.1326 73.7674 23.0076C73.7674 23.0076 73.7674 23.0076 74.0093 23.0076C74.0093 23.0076 74.0093 23.0076 74.2512 23.1287C74.2512 23.1287 74.2512 23.1287 74.493 23.1287C74.493 23.1287 74.493 23.1287 74.493 23.3709C74.493 23.3709 74.614 23.492 74.7349 23.3709C74.7349 23.3709 74.7349 23.3709 74.9767 23.8552C74.9767 23.8552 74.9767 23.9763 74.8558 24.2185C74.7349 24.2185 74.7349 24.3396 74.614 24.3396C74.614 24.4607 74.493 24.5818 74.493 24.824C74.614 24.9451 74.614 25.0662 74.614 25.1873C74.8558 26.0349 75.2186 26.7615 75.4605 27.7302C75.5814 27.8513 75.5814 27.9724 75.7023 28.0935C75.8233 28.0935 75.9442 28.2146 75.9442 28.3357C75.9442 28.0935 75.9442 27.8513 76.1861 27.9724C76.4279 28.3357 76.5488 28.699 76.6698 29.1833C76.6698 29.3044 76.6698 29.4255 76.6698 29.5466C76.7907 29.9099 76.7907 30.3942 76.7907 30.8786C76.7907 30.9997 76.9116 31.1208 76.9116 31.2419C77.2744 32.695 77.5163 34.3903 77.3953 36.4489C77.6372 36.6911 77.6372 36.9333 77.7581 37.1754C77.7581 37.2965 77.7581 37.5387 77.8791 37.6598C77.8791 37.7809 77.8791 37.7809 78 38.0231C78 38.0231 78 38.1442 78 38.2653C78 38.6285 78 38.8707 78 39.234C78 39.3551 78 39.4762 78 39.5973C78 39.7184 78 39.8395 77.8791 39.9606C77.8791 40.0817 77.8791 40.3238 77.8791 40.3238C77.8791 40.4449 77.7581 40.566 77.6372 40.566C77.6372 40.6871 77.6372 40.8082 77.5163 40.8082C77.7581 42.9879 76.7907 44.8043 76.7907 44.8043C76.7907 44.8043 76.6698 46.0152 76.0651 47.4683C75.5814 49.2847 74.9767 51.1011 74.2512 52.7964C74.3721 53.8862 74.2512 55.5815 73.5256 57.0346C72.3163 59.3354 70.8651 61.2729 67.9628 62.9682C67.6 63.3314 67.2372 63.6947 66.8744 64.1791C67.3581 64.6635 67.2372 65.2689 66.8744 65.7533C66.6326 66.1166 66.2698 66.6009 65.907 66.9642C65.786 67.0853 65.6651 67.2064 65.6651 67.3275C65.4233 67.5697 65.1814 67.8119 64.9395 67.933C64.9395 68.0541 64.8186 68.1751 64.6977 68.1751C64.5767 68.4173 64.3349 68.5384 64.093 68.6595C63.9721 68.7806 63.9721 68.7806 63.7302 68.9017C63.6093 68.9017 63.6093 68.9017 63.4884 69.0228C63.3674 69.1439 63.2465 69.265 63.1256 69.265C62.8837 69.5072 62.6419 69.6283 62.1581 69.6283C61.9163 69.7494 61.7953 69.8704 61.4326 69.9915C61.0698 70.2337 60.586 70.3548 60.1023 70.4759C59.9814 70.597 59.8605 70.597 59.7395 70.597C59.6186 70.8392 59.4977 70.8392 59.3767 70.9603C59.2558 70.9603 59.1349 71.0814 59.014 71.2025C58.893 71.3236 58.6512 71.3236 58.4093 71.2025C58.1674 71.4446 57.8047 71.5657 57.3209 71.6868C57.0791 71.6868 56.9581 71.8079 56.7163 71.8079C56.3535 71.929 55.9907 72.2923 55.6279 72.4134C55.507 72.5345 55.3861 72.6556 55.1442 72.5345C55.1442 72.5345 55.0233 72.5345 54.9023 72.6556C54.6605 72.6556 54.5395 72.7767 54.1767 72.8978C54.0558 72.8978 53.9349 72.8978 53.9349 73.0189C53.814 73.1399 53.693 73.1399 53.5721 73.261C53.5721 73.261 53.4512 73.261 53.2093 73.5032C53.3302 73.3821 53.3302 73.3821 53.4512 73.261C53.4512 73.1399 53.5721 73.1399 53.5721 73.0189C53.5721 73.0189 53.5721 73.0189 53.3302 73.1399C53.0884 73.261 52.6046 73.5032 52.1209 73.6243C48.0093 75.0774 43.5349 75.9251 38.9395 75.9251C37.0047 75.9251 35.1907 75.804 33.2558 75.5618L33.1349 75.804C33.014 75.804 33.014 75.804 32.893 75.9251C32.7721 75.9251 32.6512 75.9251 32.5302 75.9251C32.5302 75.9251 32.4093 75.804 32.2884 75.9251C32.1674 75.9251 32.1674 75.9251 31.9256 75.804C31.8046 75.9251 31.8047 76.0462 31.5628 76.0462C31.5628 76.0462 31.4419 76.1673 31.3209 76.0462C31.3209 76.0462 31.4419 76.0462 31.5628 75.9251C31.5628 75.9251 31.6837 75.9251 31.8047 75.6829C31.8047 75.6829 31.8047 75.5618 31.6837 75.4407C31.5628 75.4407 31.5628 75.4407 31.4419 75.3196C31.4419 75.3196 31.3209 75.3196 31.0791 75.1985C30.9581 75.1985 30.9581 75.1985 30.8372 75.1985C30.7163 75.1985 30.7163 75.3196 30.7163 75.4407C30.7163 75.5618 30.5953 75.5618 30.5953 75.804C30.5953 75.804 30.5953 75.9251 30.7163 76.0462C30.7163 76.0462 30.5953 76.0462 30.4744 75.9251V75.6829C30.5953 75.6829 30.5953 75.5618 30.7163 75.4407C30.7163 75.4407 30.7163 75.3196 30.7163 75.1985C29.386 74.9563 28.0558 74.5931 26.7256 74.1087C26.3628 74.1087 25.8791 73.9876 25.5163 73.9876C25.3953 73.9876 25.2744 73.8665 25.1535 73.8665C24.7907 73.7454 24.4279 73.5032 23.8233 73.3821C23.5814 73.3821 23.4605 73.261 23.3395 73.1399C23.2186 73.0189 22.9767 73.0189 22.8558 72.8978C22.7349 72.7767 22.493 72.7767 22.3721 72.6556C22.2512 72.5345 22.2512 72.4134 22.1302 72.4134C22.0093 72.2923 21.8884 72.1712 21.6465 72.1712C21.5256 72.1712 21.4047 72.0501 21.4047 72.0501C21.2837 71.929 21.0419 71.8079 20.8 71.6868C20.8 71.6868 20.8 71.6868 20.5581 71.8079C20.4372 71.8079 20.4372 71.6868 20.3163 71.6868C20.1953 71.4446 20.0744 71.4446 19.8326 71.3236C19.7116 71.3236 19.4698 71.2025 19.3488 71.0814C19.2279 71.0814 19.107 71.0814 18.986 71.0814C18.6233 71.0814 18.5023 71.0814 18.2605 70.9603C18.0186 70.8392 17.8977 70.8392 17.7767 70.7181C17.6558 70.7181 17.6558 70.597 17.414 70.597C17.414 70.597 17.293 70.597 17.1721 70.4759C16.9302 70.2337 16.6884 70.1126 16.3256 69.9915C16.2047 69.8704 16.0837 69.8704 16.0837 69.7494C15.9628 69.7494 15.8419 69.7494 15.7209 69.5072C15.6 69.5072 15.4791 69.3861 15.3581 69.265C15.2372 69.1439 15.2372 69.0228 15.2372 68.9017C15.1163 68.7806 15.1163 68.7806 15.1163 68.6595C15.1163 68.5384 15.1163 68.4173 14.9953 68.2962C14.8744 68.1751 14.7535 68.0541 14.5116 67.933C14.2698 67.8119 14.2698 67.8119 14.2698 67.5697C14.2698 67.4486 14.3907 67.3275 14.3907 67.3275C14.2698 67.0853 14.0279 67.0853 13.786 66.8431C13.907 66.8431 14.0279 66.8431 14.2698 66.722C14.2698 66.6009 14.3907 66.6009 14.3907 66.4799C13.3023 65.5111 12.214 64.5424 11.2465 63.4525L14.9953 62.8471C17.5349 62.3627 18.2605 62.2416 19.107 61.6361C19.7116 61.2729 20.0744 60.7885 20.4372 60.183C20.9209 59.4565 21.1628 58.6088 21.2837 57.1557C21.2837 56.6713 21.2837 56.3081 21.4047 56.0659V46.4996C21.5256 45.1675 21.4047 44.3199 21.4047 43.8355C21.0419 41.4137 19.2279 40.566 16.2047 41.0504L10.4 42.0191L9.43256 61.8783C8.22326 60.4252 7.13488 58.851 6.16744 57.2768C6.16744 57.3979 6.16744 57.519 6.04651 57.6401C6.04651 57.6401 6.04651 57.7612 5.92558 57.8823C5.92558 57.8823 5.92558 57.8823 5.68372 58.1245C5.68372 58.1245 5.56279 58.1245 5.44186 58.1245C5.32093 58.0034 5.2 57.8823 5.2 57.8823C5.2 57.7612 5.07907 57.6401 5.07907 57.519C4.95814 57.3979 4.83721 57.2768 4.83721 57.0346C4.83721 57.0346 4.83721 56.9135 4.71628 56.6713C4.71628 56.5503 4.59535 56.4292 4.59535 56.4292C4.59535 56.3081 4.47442 56.187 4.35349 55.9448C4.35349 55.8237 4.35349 55.7026 4.23256 55.4604C4.23256 55.3393 4.11163 55.2182 4.11163 55.0971C3.9907 54.9761 3.9907 54.7339 3.86977 54.3706C3.86977 54.2495 3.86977 54.1284 3.86977 53.8862C3.86977 53.8862 3.86977 53.8862 3.74884 53.644C3.62791 53.4018 3.62791 53.1597 3.62791 53.0386C3.62791 52.9175 3.62791 52.7964 3.50698 52.4331C3.50698 52.4331 3.50698 52.312 3.38605 52.1909C3.38605 52.0698 3.38605 52.0698 3.26512 51.9487C3.14419 51.9487 3.14419 51.8276 3.14419 51.7066C3.14419 51.5855 3.14419 51.5855 3.02326 51.4644C3.02326 51.4644 2.90233 51.3433 3.02326 51.2222C1.57209 47.2261 0.725581 42.9879 0.604651 38.2653C0.604651 38.1442 0.604651 38.0231 0.604651 37.7809C0.604651 37.6598 0.483721 37.5387 0.483721 37.5387C0.483721 37.4176 0.362791 37.2965 0.483721 37.2965C0.604651 37.4176 0.604651 37.5387 0.725581 37.6598C0.725581 37.1754 0.725581 36.6911 0.725581 36.0856C0.725581 35.9645 0.725581 35.9645 0.483721 35.8434C0.483721 35.8434 0.483721 35.7223 0.24186 35.6012C0.24186 35.7223 0.24186 35.7223 0 35.7223C0 35.6012 0.12093 35.6012 0.24186 35.6012C0.362791 35.4801 0.483721 35.359 0.604651 35.359C0.483721 35.238 0.483721 35.1169 0.483721 34.9958C0.483721 34.8747 0.483721 34.7536 0.483721 34.7536C0.483721 34.6325 0.483721 34.6325 0.362791 34.3903C0.362791 34.2692 0.362791 34.1481 0.483721 34.1481C0.483721 34.2692 0.483721 34.3903 0.483721 34.3903C0.483721 34.6325 0.604651 34.6325 0.725581 34.9958C0.725581 34.7536 0.725581 34.6325 0.604651 34.3903C0.604651 34.2692 0.604651 34.1481 0.604651 34.027C0.604651 33.7848 0.725581 33.5427 0.604651 33.3005C0.604651 33.1794 0.604651 32.9372 0.604651 32.8161C0.604651 32.3317 0.604651 31.9685 0.604651 31.363V30.8786C0.604651 30.7575 0.846512 30.6364 0.846512 30.3942C0.846512 30.2732 0.846512 30.2732 0.846512 30.1521V30.2732C0.846512 30.1521 0.846512 30.1521 0.846512 30.1521V30.031C0.846512 29.9099 0.846512 29.7888 0.967442 29.7888C0.967442 29.6677 0.967442 29.6677 0.967442 29.5466C0.967442 29.4255 0.967442 29.1833 1.08837 29.0622C1.08837 28.82 1.08837 28.5779 1.2093 28.2146C1.2093 28.0935 1.2093 27.9724 1.2093 27.8513C1.33023 27.6091 1.33023 27.488 1.33023 27.1247C1.33023 26.8826 1.69302 26.6404 1.93488 26.5193C1.93488 26.6404 2.05581 26.7615 2.05581 27.0037C2.17674 27.1247 2.05581 27.1247 2.05581 27.2458C2.05581 27.3669 2.05581 27.3669 2.05581 27.488C2.05581 27.488 2.05581 27.6091 2.29767 27.7302C3.74884 22.7654 6.16744 18.285 9.31163 14.2889C9.43256 14.1678 9.43256 14.1678 9.55349 14.0467C9.67442 13.9257 9.79535 13.8046 9.79535 13.6835C9.79535 13.5624 9.91628 13.5624 9.91628 13.4413C10.0372 13.3202 10.0372 13.3202 10.1581 13.078C10.1581 12.9569 10.2791 12.9569 10.4 12.7147C10.7628 12.1093 10.7628 12.1093 10.8837 11.8671C10.8837 11.746 11.0047 11.6249 11.1256 11.5038C11.1256 11.5038 11.1256 11.3827 11.2465 11.2616C11.3674 11.1405 11.4884 10.8983 11.6093 10.7772C11.7302 10.6562 11.7302 10.5351 11.8512 10.414C11.9721 10.2929 11.9721 10.2929 12.093 10.1718C12.214 10.0507 12.214 9.92959 12.4558 9.56632C12.4558 9.44522 12.5767 9.44522 12.6977 9.20304C12.8186 9.08195 12.8186 8.96085 13.0605 8.83976C13.0605 8.71867 13.1814 8.59758 13.1814 8.59758C13.1814 8.47648 13.3023 8.47648 13.3023 8.35539C13.3023 8.35539 13.3023 8.2343 13.5442 8.2343C13.6651 8.11321 13.786 7.99211 13.786 7.87102C13.907 7.74993 14.0279 7.74993 14.1488 7.87102C14.1488 7.87102 14.1488 7.87102 14.2698 8.11321C14.2698 8.2343 14.1488 8.2343 14.1488 8.35539C14.1488 8.47648 14.1488 8.59758 14.1488 8.71867C14.1488 8.71867 14.1488 8.83976 14.0279 8.96085C14.0279 9.08195 14.0279 9.08195 14.0279 9.20304C16.5674 6.90228 19.4698 5.08589 22.7349 3.39059C22.7349 3.39059 22.614 3.2695 22.614 3.14841C22.7349 3.02732 22.8558 2.90622 22.9767 2.78513C23.0977 2.54295 23.3395 2.42185 23.5814 2.30076C24.4279 1.6953 25.5163 1.33202 26 1.21093C27.2093 0.968741 28.4186 0.605463 29.7488 0.48437C30.3535 0.48437 31.3209 0.363278 32.0465 0.605463ZM52.3627 2.05869C52.2418 2.05869 52.2418 2.05869 52.2418 2.05869C52.2418 2.05869 52.2418 2.17985 52.2418 2.42218C52.2418 2.30102 52.2418 2.17985 52.2418 2.17985C52.2418 2.17985 52.2418 2.05869 52.3627 2.05869ZM44.2605 32.6949C44.6233 34.5113 45.7117 35.48 47.5256 35.48C47.8884 35.48 48.1303 35.48 48.493 35.3589C49.5814 35.2378 50.5489 34.7535 51.2744 34.0269C51.5163 33.7847 51.6372 33.5425 52 33.0582L51.8791 34.2691L55.1442 33.6636L55.7489 22.1598L49.5814 23.2497L49.4605 26.3981L51.7582 26.0348L51.6372 29.3043C51.5163 30.9996 51.0326 31.8472 49.8233 32.0894C48.8558 32.2105 48.1303 31.8472 48.0093 30.9996C48.0093 30.7574 48.0093 30.3941 48.0093 29.7887L48.493 19.1325C48.614 17.0739 48.9768 16.3474 50.307 16.1052C51.3954 15.9841 52 16.3474 52.1209 17.195C52.1209 17.4372 52.1209 17.6794 52.1209 18.0427L52 20.1013L55.7489 19.4958L55.8698 17.195C55.8698 16.4685 55.8698 15.9841 55.8698 15.4997C55.507 13.4412 53.5721 12.5935 50.1861 13.199C46.1954 13.9255 44.7442 15.6208 44.5024 19.8591L43.8977 30.5152C44.0186 31.2418 44.1396 31.9683 44.2605 32.6949ZM32.651 16.5896L31.5626 37.9019L41.8417 36.0855L41.9626 32.816L35.5533 33.9059L35.9161 27.3669L41.7208 26.3981L41.8417 23.1286L36.037 24.0974L36.2789 19.1326L42.4464 18.0427L42.5673 14.7732L32.651 16.5896ZM23.0976 18.1638L19.8325 33.4215L18.2604 19.1326L12.093 20.2224L10.8837 41.4136L14.6325 40.8081L15.2372 22.4021L17.6558 40.2027L21.1628 39.5972L25.3953 20.5857L24.0651 39.1128L27.8139 38.5074L28.9023 17.1951L23.0976 18.1638ZM49.3397 35.9645L48.1304 57.1557L52.0002 56.5502L52.4839 47.105L58.4095 46.1363L58.5304 42.9879L52.6048 43.9566L52.8467 38.6285L58.2886 37.6598L62.0374 37.0543L61.07 55.0971L64.9397 54.4917L65.9072 36.57L69.7769 35.8434L69.8979 32.5739L58.5304 34.5114L49.3397 35.9645ZM40.0281 37.6596L35.4327 58.7297L32.5304 50.1322C34.4653 49.4056 35.1908 48.4369 35.3118 46.015L35.4327 42.9877C35.4327 42.5033 35.4327 42.14 35.3118 41.6557C35.0699 40.5658 34.7071 39.8393 33.8606 39.3549C33.256 38.9916 32.4095 38.8705 31.442 38.9916C30.9583 38.9916 30.3536 39.1127 29.3862 39.3549L24.3071 40.2025L23.2188 61.5149L26.9676 60.9094L27.4513 51.4642L28.9025 51.222L31.6839 60.0618L35.5536 59.3352L39.0606 58.7297L39.7862 55.218L43.2932 54.6126L43.656 58.0032L47.5257 57.2766L44.5025 36.812L40.0281 37.6596Z" fill="white"/>
</mask>
<g mask="url(#mask2)">
<path d="M-2.29736 78.3469H80.6608V-2.42192H-2.29736V78.3469Z" fill="black"/>
</g>
</svg>
