<svg fill="none" height="25" viewBox="0 0 129 25" width="129" xmlns="http://www.w3.org/2000/svg" xmlns:xlink="http://www.w3.org/1999/xlink"><mask id="a" height="18" maskUnits="userSpaceOnUse" width="18" x="29" y="7"><path clip-rule="evenodd" d="m29 24.4528h17.856v-16.76872h-17.856z" fill="#fff" fill-rule="evenodd"/></mask><mask id="b" height="25" maskUnits="userSpaceOnUse" width="129" x="0" y="0"><path clip-rule="evenodd" d="m0 24.4529h129v-23.986591h-129z" fill="#fff" fill-rule="evenodd"/></mask><path d="m6.69067 3.46472v4.04773h2.80576v3.14825h-2.80576v8.4702c0 .6746.14388 1.1244.35971 1.3493.28777.2998.57554.4497 1.07914.4497.28777 0 .57554 0 .79137-.0749.21583 0 .5036-.075.71943-.15l.35968 3.2232c-.50357.15-1.00717.2999-1.43882.3748-.5036.075-1.0072.1499-1.58274.1499-1.5108 0-2.66188-.4497-3.45325-1.2742-.79137-.8246-1.22302-2.1738-1.22302-4.0478v-8.4702h-2.30217v-3.14825h2.37411v-4.04773z" fill="#fff"/><path d="m11.2169 20.8674 2.0241-.431v-16.95302l-2.241-.43101v-2.586061h6.506v9.051201c.506-.71835 1.0844-1.29303 1.8073-1.72404.7228-.43101 1.518-.64651 2.3855-.64651 1.6626 0 2.9639.57468 3.9036 1.6522.9398 1.07753 1.3735 2.80154 1.3735 5.10024v6.4652l2.0241.431v2.6579h-8.0964v-2.5861l1.8072-.431v-6.4651c0-1.2212-.2168-2.0832-.6506-2.6579-.4337-.5029-1.0843-.7902-1.9518-.7902-.5783 0-1.0843.1437-1.518.3592-.4338.2155-.7952.5028-1.0844.9338v8.6202l1.8073.431v2.5861h-8.0964z" fill="#fff"/><g mask="url(#a)"><path d="m40.736 22.0151c-.504.7387-1.152 1.3297-1.944 1.7729s-1.656.591-2.592.591c-1.728 0-3.024-.591-4.032-1.6991-.936-1.108-1.44-2.8071-1.44-5.171v-6.7222l-1.728-.4433v-2.65932h1.8 4.32v9.97262c0 1.1819.216 2.0684.576 2.5855s1.008.8126 1.728.8126 1.296-.1478 1.8-.3694.936-.591 1.224-.9603v-8.8646l-1.944-.4432v-2.73322h2.016 4.3199v13.37072l1.944.4432v2.6594h-5.7599z" fill="#fff"/></g><g fill="#fff"><path d="m47 9.49169v-2.73325h6.4672l.147 2.21615c.5144-.81259 1.1758-1.40356 1.9842-1.84679s1.7638-.66485 2.7927-.66485c1.0288 0 1.9842.22162 2.7191.73872.7349.44323 1.3228 1.18194 1.6903 2.14228.5144-.88646 1.1758-1.62518 1.9842-2.06841.8084-.5171 1.7638-.73872 2.8662-.73872 1.6168 0 2.8661.59098 3.8215 1.69905.9554 1.10808 1.3963 2.88103 1.3963 5.17103v6.9439l2.1312.4433v2.6593h-8.5249v-2.7332l1.9108-.4433v-6.9439c0-1.2558-.2205-2.1423-.5879-2.6594-.3675-.5171-1.0289-.73868-1.8373-.73868-.6614 0-1.1759.14778-1.6168.44318-.441.2955-.8084.6649-1.1024 1.182v.5171.4432 7.8304l1.7638.4433v2.6593h-7.937v-2.7332l1.7638-.4433v-6.9439c0-1.2558-.2205-2.0684-.5879-2.5855-.3675-.5171-1.0289-.7387-1.8373-.7387-.5879 0-1.1024.1477-1.5433.3693-.4409.2217-.8084.591-1.1024.9604v9.0123l1.9108.4433v2.6593h-8.4514v-2.7332l2.1312-.4433v-10.34198z"/><path clip-rule="evenodd" d="m90.3074 22.2723c1.1039-1.4537 1.619-3.4162 1.619-5.8876h.0736v-.2907c0-2.6894-.5152-4.7974-1.619-6.32379-1.1039-1.52642-2.6494-2.32597-4.71-2.32597-.8831 0-1.6191.14537-2.2814.50881-.6623.36343-1.2511.87224-1.6926 1.52642v-9.013161h-6.697v2.689411l2.355.43612v20.57036h3.7532l.2944-2.0352c.4416.7995 1.1039 1.3083 1.7662 1.7444.736.3635 1.5455.5815 2.5022.5815 1.987 0 3.5325-.7268 4.6364-2.1806zm-3.3853-9.9581c.4415.9449.6623 2.1806.6623 3.7797h.0736v.2908c0 1.4537-.2208 2.6167-.6623 3.4163-.4416.7996-1.2511 1.2357-2.355 1.2357-.7359 0-1.3247-.0727-1.7662-.3635-.4416-.2907-.8096-.6541-1.1039-1.163v-6.9053c.2943-.5088.6623-.9449 1.1039-1.2357.4415-.2907 1.0303-.4361 1.6926-.4361 1.1039 0 1.9134.4361 2.355 1.3811z" fill-rule="evenodd"/><path clip-rule="evenodd" d="m95.1091 9.69696c-1.3818 1.46644-2.1091 3.35184-2.1091 5.65624h.0727v.2793c0 2.3044.7273 4.1898 2.1091 5.6563 1.3818 1.4664 3.3455 2.1647 5.8912 2.1647 2.472 0 4.436-.6983 5.818-2.1647 1.382-1.4665 2.109-3.3519 2.109-5.6563v-.2793c0-2.3044-.727-4.1898-2.109-5.65624-1.455-1.46643-3.418-2.23456-5.891-2.23456-2.5455 0-4.5091.76813-5.8909 2.23456zm3.2728 9.35734c-.5091-.9078-.8-2.0251-.8-3.4217v-.2793c0-1.3966.2909-2.5139.8-3.3519.5818-.9078 1.4545-1.3268 2.6181-1.3268 1.164 0 2.036.4888 2.618 1.3268.509.838.8 1.9553.8 3.3519v.2793c0 1.4664-.218 2.5837-.8 3.4217-.582.8379-1.454 1.2569-2.618 1.2569-1.1636 0-2.109-.419-2.6181-1.2569z" fill-rule="evenodd"/><path d="m109.225 20.7202 2.175-.4433v-10.34198l-2.4-.44323v-2.73325h6.675l.225 2.43776c.375-.88646.9-1.5513 1.5-1.99453s1.35-.73872 2.175-.73872c.225 0 .525 0 .75.07387.3 0 .45.07387.675.14775l-.45 4.13683-1.875-.0739c-.675 0-1.2.1478-1.65.3694s-.75.5909-.975 1.108v8.1259l2.175.4433v2.6593h-8.925v-2.7332z"/></g><g mask="url(#b)"><path d="m122.441 23.7261h6.559v-4.3612h-6.559z" fill="#0067b0"/></g></svg>