
<svg fill="none" height="27" viewBox="0 0 126 27" width="126" xmlns="http://www.w3.org/2000/svg"><g fill="#fff"><path d="m8.69427 10.9167h3.56053l.7452-4.50003h-3.56051l1.15921-6.41667h-5.96176l-1.15923 6.41667h-2.732487l-.745223 4.50003h2.73248l-1.40764 8.1666c-.1656.8334-.24841 1.6667-.24841 2.4167 0 3.6667 2.48408 4.5 5.21656 4.5 1.32484 0 2.48408-.1667 3.39491-.4167l.828-4.5c-.57959.1667-1.15921.25-1.82163.25-1.15924 0-1.49045-.4166-1.49045-1.4166 0-.25 0-.4167 0-.6667z"/><path d="m66.0588 12.4772c-.4278-.083-1.0267-.083-1.4545-.083-2.6524 0-4.6203 1.7427-5.3904 2.5726l-2.139 12.0332h-6.0749l3.4225-19.50207h6.0748l-.5133 3.23647c1.1978-2.15764 3.0802-3.7344 5.5615-3.7344.5989 0 1.0267.08299 1.4545.24896z"/><path d="m47.6116 26.5021h-6.0331l.4132-2.5726c-1.7355 1.9087-3.8843 3.0705-6.281 3.0705-2.314 0-4.7107-.9958-4.7107-4.7303 0-.4979.0826-1.2448.1653-1.9087l2.2314-13.361h6.0331l-2.2315 12.7801v.4979c0 1.3278.6612 1.7427 1.5703 1.7427 1.405 0 2.6446-.9128 3.9669-2.1576l2.2314-12.8631h6.0331z"/><path d="m27.1914 12.0331c-1.5503-.9091-3.2727-1.4876-4.7369-1.4876-1.3779 0-2.6698.5785-2.6698 1.5702 0 2.4793 7.8373 1.2397 7.8373 7.1901 0 4.1322-3.7033 6.6942-9.2153 6.6942-2.6699 0-5.3397-.5785-7.4067-1.6529l1.8947-4.1322c1.7225.9091 3.7895 1.4876 5.512 1.4876s3.2727-.6612 3.2727-1.8182c0-2.6446-7.8373-1.5703-7.8373-7.3554 0-3.96692 3.5311-6.5289 8.5263-6.5289 2.4976 0 4.823.66116 6.6316 1.57025z"/><path d="m83.8908 26.4979h-6.1345l.4202-2.5941c-1.7647 1.9247-3.9496 3.0962-6.3866 3.0962-2.3529 0-4.7899-1.0042-4.7899-4.7699 0-.5021.084-1.2552.1681-1.9247l2.3529-13.3054h6.0504l-2.1848 12.887c-.0841.2511-.0841.4184-.0841.5021 0 1.3389.6723 1.7573 1.5126 1.7573 1.3446 0 2.6891-.9205 3.9496-2.1757l2.1849-12.9707h6.0504z"/></g><path clip-rule="evenodd" d="m108.5 27c.085 0 .085-.0836.085-.0836l.425-3.6785v-.0836l-17.8401-22.1543h-.0849l-.085.0836 1.8689 18.4759-1.3592 7.3569zm17.5-16.7203-2.888-4.93243c0-.0836-.085-.0836-.085-.0836-.043 0-.064 0-.075.01061-.01.01051-.01.03141-.01.07299l-1.869 3.42765v.0836c0 .0836.085.0836.085.0836l4.757 1.50478h.085c-.042-.0418-.064-.0627-.064-.0836s.022-.0418.064-.0836zm-4.248-4.99513c.022 0 .043.0209.085.0627 0 0 .085.0836.17.0836l-12.148 21.40193c0 .0416 0 .0625-.01.073-.011.0106-.032.0106-.075.0106h-.085c-.042 0-.064 0-.074-.0106-.011-.0105-.011-.0314-.011-.073l.51-3.8457-2.803-3.4276c-.043-.0418-.064-.0627-.064-.0836s.021-.0418.064-.0836l14.356-14.04503c.043-.0418.064-.0627.085-.0627z" fill="#009e85" fill-rule="evenodd"/></svg>