<?xml version="1.0" encoding="utf-8"?>
<!-- Generator: Adobe Illustrator 16.0.4, SVG Export Plug-In . SVG Version: 6.00 Build 0)  -->
<!DOCTYPE svg PUBLIC "-//W3C//DTD SVG 1.1//EN" "http://www.w3.org/Graphics/SVG/1.1/DTD/svg11.dtd">
<svg version="1.1" id="Layer_1" xmlns="http://www.w3.org/2000/svg" xmlns:xlink="http://www.w3.org/1999/xlink" x="0px" y="0px"
	 width="150px" height="32px" viewBox="0 0 150 32" enable-background="new 0 0 150 32" xml:space="preserve">
<g>
	<polygon id="path-1" fill="#FFFFFF" points="0.3,31.3 0.3,31.9 149.8,31.9 149.8,0.2 0.3,0.2 0.3,31.3 16,31.3 16,0.2 0.3,0.2 
		0.3,31.3 	"/>
</g>
<title>tsuru</title>
<desc>Created with Sketch.</desc>
<g id="Proposta-V00">
	<g id="Landing-Page" transform="translate(-200.000000, -901.000000)">
		<g id="NOSSOS-PROJETOS" transform="translate(168.000000, 766.000000)">
			<g id="tsuru" transform="translate(32.000000, 135.000000)">
				<g id="Clip-13">
				</g>
				<path id="Fill-12" fill="#212333" d="M10.8,13.2h4.3L16,7.8h-4.3l1.4-7.7H5.9L4.5,7.8H1.2l-0.9,5.4h3.3L1.9,23
					c-0.2,1-0.3,2-0.3,2.9c0,4.4,3,5.4,6.3,5.4c1.6,0,3-0.2,4.1-0.5l1-5.4c-0.7,0.2-1.4,0.3-2.2,0.3C9.4,25.7,9,25.2,9,24
					C9,23.7,9,23.5,9,23.2L10.8,13.2z"/>
				<path id="Fill-6" fill="#212333" d="M78.2,14.3c-0.5-0.1-1.2-0.1-1.7-0.1c-3.1,0-5.4,2.1-6.3,3.1l-2.5,14.5h-7.1l4-23.5h7.1
					l-0.6,3.9c1.4-2.6,3.6-4.5,6.5-4.5c0.7,0,1.2,0.1,1.7,0.3L78.2,14.3z"/>
				<path id="Fill-8" fill="#212333" d="M56.6,31.3h-7.3l0.5-3.1c-2.1,2.3-4.7,3.7-7.6,3.7c-2.8,0-5.7-1.2-5.7-5.7
					c0-0.6,0.1-1.5,0.2-2.3l2.7-16.1h7.3l-2.7,15.4C44,23.5,44,23.7,44,23.8c0,1.6,0.8,2.1,1.9,2.1c1.7,0,3.2-1.1,4.8-2.6l2.7-15.5
					h7.3L56.6,31.3z"/>
				<path id="Fill-10" fill="#212333" d="M32.7,14.1c-1.8-1.1-3.8-1.8-5.5-1.8c-1.6,0-3.1,0.7-3.1,1.9c0,3,9.1,1.5,9.1,8.7
					c0,5-4.3,8.1-10.7,8.1c-3.1,0-6.2-0.7-8.6-2l2.2-5c2,1.1,4.4,1.8,6.4,1.8s3.8-0.8,3.8-2.2c0-3.2-9.1-1.9-9.1-8.9
					c0-4.8,4.1-7.9,9.9-7.9c2.9,0,5.6,0.8,7.7,1.9L32.7,14.1z"/>
				<g id="Clip-4">
				</g>
				<defs>
					<filter id="Adobe_OpacityMaskFilter" filterUnits="userSpaceOnUse" x="79.3" y="7.9" width="23.9" height="23.9">
						<feColorMatrix  type="matrix" values="1 0 0 0 0  0 1 0 0 0  0 0 1 0 0  0 0 0 1 0"/>
					</filter>
				</defs>
				<mask maskUnits="userSpaceOnUse" x="79.3" y="7.9" width="23.9" height="23.9" id="mask-4">
					<g filter="url(#Adobe_OpacityMaskFilter)">
						<polygon id="path-3" fill="#FFFFFF" points="79.3,31.9 103.3,31.9 103.3,7.9 79.3,7.9 						"/>
					</g>
				</mask>
				<path id="Fill-3" mask="url(#mask-4)" fill="#212333" d="M99.3,31.3H92l0.5-3.1c-2.1,2.3-4.7,3.7-7.6,3.7
					c-2.8,0-5.7-1.2-5.7-5.7c0-0.6,0.1-1.5,0.2-2.3l2.8-15.9h7.2l-2.6,15.4c-0.1,0.3-0.1,0.5-0.1,0.6c0,1.6,0.8,2.1,1.8,2.1
					c1.6,0,3.2-1.1,4.7-2.6l2.6-15.5h7.2L99.3,31.3z"/>
				<path id="Fill-1" fill="#009E85" d="M129.4,31.9c0.1,0,0.1-0.1,0.1-0.1l0.5-4.4v-0.1L109,0.8h-0.1c0,0-0.1,0.1-0.1,0.1L111,23
					l-1.6,8.8L129.4,31.9L129.4,31.9z M150,11.9L146.6,6c0-0.1-0.1-0.1-0.1-0.1c-0.1,0-0.1,0-0.1,0.1l-2.2,4.1v0.1
					c0,0.1,0.1,0.1,0.1,0.1l5.6,1.8h0.1C149.9,12,149.9,12,150,11.9L150,11.9z M145.1,6c-0.1-0.1-0.1-0.1-0.2,0l-16.9,16.8
					c-0.1,0.1-0.1,0.1,0,0.2l3.3,4.1l-0.6,4.6c0,0.1,0,0.1,0.1,0.1h0.1c0.1,0,0.1,0,0.1-0.1l14.3-25.6C145.2,6.1,145.1,6,145.1,6
					L145.1,6z"/>
			</g>
		</g>
	</g>
</g>
</svg>
