<?xml version="1.0" encoding="UTF-8"?>
<svg width="52px" height="51px" viewBox="0 0 52 51" version="1.1" xmlns="http://www.w3.org/2000/svg" xmlns:xlink="http://www.w3.org/1999/xlink">
    <!-- Generator: Sketch 51.3 (57544) - http://www.bohemiancoding.com/sketch -->
    <title>Asteroid</title>
    <desc>Created with Sketch.</desc>
    <defs></defs>
    <g id="Proposta-V01" stroke="none" stroke-width="1" fill="none" fill-rule="evenodd">
        <g id="Asteroid" fill-rule="nonzero">
            <polygon id="XMLID_55_" fill="#FFFFFF" points="29.4215069 27.1 27.7202634 22.5 22.916752 21.4 27.520117 19.7 28.6209217 14.9 30.3221653 19.5 35.1256767 20.6 30.5223116 22.3"></polygon>
            <path d="M51.3375274,25.4 C51.3375274,39.3 40.0292612,50.6 26.1190929,50.6 C12.2089247,50.6 0.900658376,39.3 0.900658376,25.4 C0.900658376,11.5 12.2089247,0.2 26.1190929,0.2 C40.0292612,0.2 51.3375274,11.5 51.3375274,25.4 Z" id="XMLID_54_" fill="#6A37A1" opacity="0.18"></path>
            <ellipse id="XMLID_53_" fill="#6A37A1" opacity="0.18" cx="26.1190929" cy="25.4" rx="22.1161668" ry="22.1"></ellipse>
            <path d="M44.1322604,25.4 C44.1322604,35.3 36.1264082,43.4 26.1190929,43.4 C16.2118508,43.4 8.10592538,35.4 8.10592538,25.4 C8.10592538,15.5 16.1117776,7.4 26.1190929,7.4 C36.1264082,7.5 44.1322604,15.5 44.1322604,25.4 Z" id="XMLID_52_" fill="#6A37A1"></path>
            <path d="M33.2242868,36.3 C23.3170446,36.3 15.2111192,28.3 15.2111192,18.3 C15.2111192,15.2 16.0117045,12.2 17.4127286,9.7 C11.808632,12.8 8.10592538,18.7 8.10592538,25.5 C8.10592538,35.4 16.1117776,43.5 26.1190929,43.5 C32.9240673,43.5 38.8283833,39.7 41.9306511,34.2 C39.3287491,35.5 36.4266277,36.3 33.2242868,36.3 Z" id="XMLID_51_" fill="#5B2D8C"></path>
        </g>
    </g>
</svg>