<?xml version="1.0" encoding="UTF-8"?>
<svg width="305px" height="326px" viewBox="0 0 305 326" version="1.1" xmlns="http://www.w3.org/2000/svg" xmlns:xlink="http://www.w3.org/1999/xlink">
    <!-- Generator: Sketch 51.3 (57544) - http://www.bohemiancoding.com/sketch -->
    <title>Page 1</title>
    <desc>Created with Sketch.</desc>
    <defs>
        <polygon id="path-1" points="0.540267857 0.852876543 97.424302 0.852876543 97.424302 141.386049 0.540267857 141.386049 0.540267857 0.852876543"></polygon>
    </defs>
    <g id="Proposta-V01" stroke="none" stroke-width="1" fill="none" fill-rule="evenodd">
        <g id="Page-1" transform="translate(158.991684, 166.991684) rotate(45.000000) translate(-158.991684, -166.991684) translate(-7.008316, 3.491684)">
            <path d="M236.518267,231.471149 L186.399505,259.912027 C164.081624,272.57821 135.674736,264.840965 122.950352,242.635437 L79.7660235,167.282383 C65.64721,142.645549 74.3523062,110.994055 99.1082455,96.9464077 L140.017637,73.7329265 C164.773576,59.6826616 196.580591,68.3467008 210.700282,92.9809168 L253.884609,168.333971 C266.608994,190.539498 258.835271,218.808457 236.518267,231.471149" id="Fill-1" fill="#91B7C9"></path>
            <path d="M98,298.989053 L173.008955,309 L177,279.302769 L131.785609,273.268726 C115.332038,271.071604 100.20358,282.588453 98,298.989053" id="Fill-3" fill="#D5E0DE"></path>
            <polygon id="Fill-5" fill="#6E98AD" points="170.527337 327 95 317.09604 97.472663 299 173 308.90482"></polygon>
            <path d="M142.482394,193 L132,271.919377 L177.032625,278 L182.538232,236.553302 C183.823622,226.877883 190.011607,219.38213 198,215.822995 C193.684025,210.087674 189.316289,204.338436 184.600894,198.687483 L142.482394,193 Z" id="Fill-7" fill="#D5E0DE"></path>
            <path d="M202.642386,160 L185.645007,199.899571 L185,199.812903 C189.757908,205.443755 194.165023,211.172542 198.520781,216.887462 C204.910793,214.073336 212.444583,213.721462 219.57274,216.731458 L258.099959,233 L276,190.976184 L202.642386,160 Z" id="Fill-9" fill="#EEEEEE"></path>
            <path d="M315,175.391707 L285.567191,245 L258,233.273113 L275.740323,191.316044 C282.199171,176.044508 299.775264,168.915118 315,175.391707" id="Fill-11" fill="#EEEEEE"></path>
            <polygon id="Fill-13" fill="#ADCEDE" points="301.77741 252 331.585786 182.239413 314.391523 175 284.585786 244.76146"></polygon>
            <g id="Group-17" transform="translate(150.000000, 0.000000)">
                <mask id="mask-2" fill="white">
                    <use xlink:href="#path-1"></use>
                </mask>
                <g id="Clip-16"></g>
                <path d="M74.739875,112.540785 L28.571375,138.9186 C19.579,144.052514 8.13225,140.917119 3.005625,131.907131 C-2.123625,122.899773 1.00975,111.432835 10.00125,106.295415 L56.170625,79.9211062 C59.754625,77.8752543 61.009375,73.2874272 58.9645,69.6971062 L35.76125,28.9334642 C30.632875,19.9269827 33.76625,8.46004444 42.756875,3.32174815 C51.7475,-1.8156716 63.195125,1.32322963 68.3235,10.3305877 L91.5285,51.0933531 C103.81,72.6720938 96.27975,100.237625 74.739875,112.540785" id="Fill-15" fill="#EEEEEE" mask="url(#mask-2)"></path>
            </g>
            <path d="M87.2277742,190.130052 L133.516371,163.91846 C142.528994,158.812736 145.670341,147.416544 140.528918,138.464757 C135.389249,129.510357 123.912499,126.395177 114.899876,131.496545 L68.6112788,157.711621 C65.0190373,159.745722 60.4276352,158.499127 58.3793119,154.931828 L35.1161491,114.418808 C29.9756033,105.467022 18.4979751,102.348357 9.48447545,107.454081 C0.470975779,112.559805 -2.6703714,123.956869 2.47105162,132.906914 L25.7333372,173.415578 C38.0478392,194.861188 65.6339729,202.357307 87.2277742,190.130052" id="Fill-18" fill="#D5E0DE"></path>
            <polygon id="Fill-20" fill="#FFFFFF" points="151.022287 40 148.92032 33.0939988 142 31.0209749 148.908958 28.9182366 150.980335 22 153.082302 28.9077491 160 30.980773 153.093664 33.0826374"></polygon>
            <path d="M238,174.3137 L136.116328,232 L101.405781,171.569223 C92.2120152,155.560793 97.8806555,134.996829 114.001784,125.870943 L157.263569,101.375466 C173.384698,92.2452221 194.095687,97.8744931 203.289453,113.882051 L238,174.3137 Z" id="Fill-22" fill="#EEEEEE"></path>
            <path d="M163,231 L119.610191,156.84569 C112.804715,144.884641 114.210431,130.395823 121.991105,120 L113.881007,124.638029 C97.874326,133.783069 92.2462352,154.393038 101.374235,170.435727 L135.836487,231 L163,231 Z" id="Fill-24" fill="#D5E0DE"></path>
            <path d="M170.832884,110.382683 L118.255828,140.155386 C111.46126,144.003913 102.73163,141.632651 98.8571355,134.88254 C94.9817671,128.135901 97.3713154,119.46847 104.165883,115.618207 L156.742939,85.8429005 C163.538381,81.9969776 172.268886,84.3682395 176.142506,91.1157466 C180.018749,97.8615179 177.628326,106.533288 170.832884,110.382683" id="Fill-26" fill="#ADCEDE"></path>
            <path d="M169.651954,36.0297881 C186.284152,65.0244969 173.727759,103.289593 141.611713,121.498068 C109.496544,139.705671 69.9772009,130.962951 53.3476352,101.972603 C36.7163149,72.9778945 49.2718301,34.7127983 81.3887535,16.5043235 C113.503922,-1.70676783 153.023266,7.03595148 169.651954,36.0297881" id="Fill-28" fill="#EEEEEE"></path>
            <path d="M176.709693,58 C174.708105,78.4158917 162.179975,98.3064419 141.614783,109.970422 C109.48847,128.188082 69.961286,119.440533 53.3273132,90.4306811 C49.3434433,83.4869218 47.0531569,76.0134575 46.2835856,68.4090941 C45.16038,79.8793434 47.3462434,91.5188887 53.3317007,101.956781 C69.9656736,130.962269 109.49549,139.710691 141.620048,121.493031 C166.05679,107.633437 179.153542,82.1683318 176.709693,58" id="Fill-30" fill="#DFE8E6"></path>
            <path d="M147.455563,37.8591144 L157.395797,55.2201177 C164.91892,68.3602342 160.27645,85.2534181 147.084377,92.7446599 L114.235253,111.403993 C101.029106,118.906624 84.0662357,114.280995 76.5422329,101.141754 L66.6028792,83.7833791 C59.0815152,70.6441387 63.7222258,53.7474504 76.9301316,46.248324 L109.779256,27.5889907 C122.96957,20.0977488 139.93244,24.719874 147.455563,37.8591144" id="Fill-32" fill="#1990C7"></path>
            <path d="M146.613138,37.8015437 L152,47.2665043 C141.991722,57.069094 129.314395,66.6361285 114.729984,74.9695512 C100.149055,83.301229 85.4740791,89.361107 71.9538036,93 L66.5669413,83.5350395 C59.1206012,70.4503793 63.7150218,53.6238798 76.7911816,46.1559047 L109.312643,27.574082 C122.371386,20.1139588 139.165056,24.7168836 146.613138,37.8015437" id="Fill-34" fill="#19ADC7"></path>
            <path d="M65.4606481,123.802247 C61.1562719,126.302849 55.6263861,124.75854 53.173642,120.375235 L42.1759651,100.720237 C39.7214961,96.3378103 41.235919,90.7002484 45.5394328,88.1996461 C49.8429465,85.6964069 55.3745572,87.2398367 57.8273013,91.6275368 L68.8232533,111.27814 C71.2785847,115.664083 69.7650243,121.298129 65.4606481,123.802247" id="Fill-36" fill="#6E98AD"></path>
            <path d="M180.461728,56.7999886 C176.157299,59.3039914 170.628208,57.7597538 168.172847,53.3731347 L157.176761,33.7225576 C154.7214,29.3359385 156.234979,23.7030309 160.539407,21.1990281 C164.844698,18.697662 170.373789,20.238384 172.828288,24.625882 L183.824374,44.2790958 C186.278011,48.6621993 184.764432,54.2986225 180.461728,56.7999886" id="Fill-38" fill="#ADCEDE"></path>
            <path d="M90,125 L92,124 L90,125 Z" id="Fill-40" fill="#ADCEDE"></path>
            <polygon id="Fill-42" fill="#ADCEDE" points="204 159.421334 142.386882 195 123 160.575132 184.61399 125"></polygon>
            <path d="M193.211934,151.030798 C194.851937,153.907954 193.849665,157.570102 190.972119,159.209882 C188.094573,160.853972 184.429343,159.848389 182.788478,156.972095 C181.147614,154.0958 182.150747,150.432791 185.027432,148.78784 C187.906701,147.148059 191.570208,148.150195 193.211934,151.030798" id="Fill-44" fill="#FFFFFF"></path>
            <path d="M181.671723,139.008651 C182.354138,139.967646 181.938908,141.190224 180.738769,141.736318 C179.539506,142.284515 178.01349,141.950129 177.328447,140.991134 C176.645157,140.03214 177.062139,138.809562 178.262278,138.264169 C179.461541,137.715271 180.987557,138.049657 181.671723,139.008651" id="Fill-46" fill="#FFFFFF"></path>
            <polygon id="Fill-48" fill="#FFFFFF" points="163 149.78149 137.615923 164 136 161.217651 161.383202 147"></polygon>
            <polygon id="Fill-50" fill="#FFFFFF" points="168 157.782349 142.614996 172 141 169.217651 166.38238 155"></polygon>
            <polygon id="Fill-52" fill="#FFFFFF" points="173 166.78149 147.6151 181 146 178.217651 171.384025 164"></polygon>
            <path d="M46.7688274,141.363166 L19.6877444,156.191327 C16.6172424,157.873249 12.7077181,156.847064 10.9560597,153.897101 L9.84120667,152.020162 C8.09043514,149.073606 9.16094235,145.32143 12.2314444,143.64036 L39.3125274,128.807942 C42.3848033,127.12602 46.2925537,128.155612 48.0433253,131.102168 L49.1581783,132.979959 C50.9098367,135.929921 49.8393295,139.681245 46.7688274,141.363166" id="Fill-54" fill="#6E98AD"></path>
            <path d="M229.647585,36.0702731 L202.565379,50.8984338 C199.494064,52.5803554 195.585521,51.5541703 193.833904,48.6042077 L192.719078,46.7298233 C190.970122,43.7807123 192.03883,40.0276854 195.109258,38.3466155 L222.191464,23.5150484 C225.261892,21.8331269 229.170436,22.8627183 230.922052,25.8092745 L232.036878,27.6862137 C233.788494,30.6370279 232.718013,34.3883516 229.647585,36.0702731" id="Fill-56" fill="#ADCEDE"></path>
            <path d="M183.368714,239.994057 L133.126333,237.654204 C130.158617,237.516514 127.867089,235.019921 128.005996,232.078218 C128.144029,229.140845 130.6627,226.865074 133.630417,227.006227 L183.873671,229.342616 C186.83964,229.48377 189.132915,231.980363 188.994008,234.918602 C188.852481,237.860305 186.335557,240.131746 183.368714,239.994057" id="Fill-58" fill="#6E98AD"></path>
            <path d="M224.334622,217.150756 L248.360402,172.870263 C249.779135,170.255544 248.758752,167.011517 246.079913,165.624079 C243.402857,164.240124 240.083271,165.234135 238.664538,167.852335 L214.639649,212.128476 C213.220916,214.747547 214.241299,217.988963 216.918355,219.3764 C219.597194,220.759486 222.915889,219.765475 224.334622,217.150756" id="Fill-60" fill="#ADCEDE"></path>
        </g>
    </g>
</svg>