<?xml version="1.0" encoding="UTF-8"?>
<svg width="440px" height="561px" viewBox="0 0 440 561" version="1.1" xmlns="http://www.w3.org/2000/svg" xmlns:xlink="http://www.w3.org/1999/xlink">
    <!-- Generator: Sketch 51.3 (57544) - http://www.bohemiancoding.com/sketch -->
    <title>Page 1</title>
    <desc>Created with Sketch.</desc>
    <defs>
        <polygon id="path-1" points="0.109 0.69 168.636 0.69 168.636 127.2866 0.109 127.2866 0.109 0.69"></polygon>
        <polygon id="path-3" points="0.9973 142 88.065 142 88.065 0.7766 0.9973 0.7766"></polygon>
    </defs>
    <g id="Proposta-V01" stroke="none" stroke-width="1" fill="none" fill-rule="evenodd">
        <g id="Hacktober-Desktop" transform="translate(-793.000000, -316.000000)">
            <g id="Page-1" transform="translate(793.000000, 315.000000)">
                <g id="Group-3" transform="translate(218.000000, 0.310000)">
                    <mask id="mask-2" fill="white">
                        <use xlink:href="#path-1"></use>
                    </mask>
                    <g id="Clip-2"></g>
                    <path d="M109.293,28.0276 C107.128,25.4806 104.927,22.9656 102.685,20.4726 L84.86,0.6896 L66.874,20.1956 C64.615,22.6426 62.396,25.1236 60.213,27.6436 C35.073,56.5626 14.991,89.9106 0.109,125.9456 L168.636,127.2866 C154.029,91.0096 134.204,57.3486 109.293,28.0276" id="Fill-1" fill="#CF6F60" mask="url(#mask-2)"></path>
                </g>
                <polygon id="Fill-4" fill="#CF6F60" points="207.0108 418.5973 163.0318 471.2783 162.6948 559.1263 249.8868 500.2163"></polygon>
                <g id="Group-8" transform="translate(351.000000, 419.310000)">
                    <mask id="mask-4" fill="white">
                        <use xlink:href="#path-3"></use>
                    </mask>
                    <g id="Clip-7"></g>
                    <polygon id="Fill-6" fill="#CF6F60" mask="url(#mask-4)" points="44.4893 0.7766 88.0653 54.1636 87.7273 142.0006 0.9973 81.7166"></polygon>
                </g>
                <path d="M236.3662,142.5925 C206.8622,232.1295 203.0072,338.2815 227.3112,434.9465 L249.2872,522.4095 L302.0082,522.8315 L354.7322,523.2505 L377.3842,436.1275 C402.4282,339.8665 399.3792,233.6735 370.5662,143.6505 L236.3662,142.5925 Z" id="Fill-9" fill="#CF6F60"></path>
                <path d="M218.1094,126.2556 C181.1534,215.7366 176.4014,321.8746 207.0104,418.5976 L234.7094,506.1096 L300.9204,506.6316 L367.1254,507.1566 L395.4894,420.0866 C426.8404,323.8646 422.9124,217.6606 386.6354,127.5966 L218.1094,126.2556 Z" id="Fill-11" fill="#E9F8FF"></path>
                <polygon id="Fill-13" fill="#CF6F60" points="307.3789 560.2702 294.0389 560.1662 294.6019 412.4992 307.9499 412.6092"></polygon>
                <path d="M370.876,225.0905 C370.726,263.1625 339.776,293.7905 301.73,293.4875 C263.701,293.1815 232.977,262.0675 233.12,223.9905 C233.269,185.9155 264.221,155.2905 302.267,155.5935 C340.301,155.8975 371.012,187.0095 370.876,225.0905" id="Fill-15" fill="#CF6F60"></path>
                <path d="M263.8174,190.5915 C255.6894,199.6055 250.6754,211.5135 250.6284,224.6545 C250.5184,253.0405 273.4324,276.2575 301.7984,276.4745 C321.9954,276.6395 339.4764,265.0855 347.9274,248.1695 C333.0194,244.6755 318.2274,239.2005 303.6854,231.3055 C287.8154,222.3225 273.5794,207.7835 263.8174,190.5915" id="Fill-17" fill="#1DAAEB"></path>
                <path d="M302.1953,173.6374 C286.9453,173.5134 273.2613,180.0984 263.8173,190.5914 C273.5793,207.7834 287.8153,222.3234 303.6853,231.3054 C318.2273,239.2004 333.0193,244.6754 347.9273,248.1694 C351.3453,241.3354 353.3283,233.6454 353.3553,225.4654 C353.4683,197.0674 330.5573,173.8614 302.1953,173.6374" id="Fill-19" fill="#1DCCEB"></path>
                <path d="M170.4014,495.5358 L107.7154,495.1588 C79.8044,494.9908 57.3264,472.2208 57.5134,444.3018 L58.1404,349.5568 C58.3464,318.5808 83.8474,293.3928 114.8134,293.5798 L165.9764,293.8908 C196.9404,294.0778 222.1064,319.5748 221.9014,350.5478 L221.2754,445.2908 C221.0894,473.2098 198.3124,495.7088 170.4014,495.5358" id="Fill-21" fill="#91B7C9"></path>
                <path d="M224.5899,375.2028 L166.7119,374.8538 C155.4419,374.7838 146.3639,365.5908 146.4389,354.3128 C146.5129,343.0388 155.7119,333.9528 166.9839,334.0188 L224.8589,334.3708 C229.3519,334.3998 233.0329,330.7638 233.0619,326.2698 L233.4009,275.2438 C233.4759,263.9688 242.6739,254.8838 253.9449,254.9498 C265.2169,255.0158 274.2949,264.2158 274.2199,275.4898 L273.8829,326.5158 C273.7019,353.5268 251.5899,375.3698 224.5899,375.2028" id="Fill-23" fill="#FFFFFF"></path>
                <path d="M52.4004,333.9206 L110.2794,333.5676 C121.5484,333.5006 130.7484,342.5866 130.8234,353.8606 C130.8984,365.1386 121.8214,374.3336 110.5484,374.4026 L52.6714,374.7506 C48.1794,374.7786 44.5464,378.4586 44.5784,382.9506 L44.9174,433.9786 C44.9914,445.2536 35.9124,454.4516 24.6414,454.5186 C13.3694,454.5846 4.1714,445.4996 4.0964,434.2246 L3.7584,383.2016 C3.5784,356.1916 25.4014,334.0866 52.4004,333.9206" id="Fill-25" fill="#DFE8E6"></path>
                <polygon id="Fill-27" fill="#FFFFFF" points="195.2266 267.4225 197.0186 259.7545 191.6226 254.0205 199.2886 255.8065 205.0226 250.4065 203.2326 258.0745 208.6266 263.8095 200.9606 262.0245"></polygon>
                <path d="M203.0821,440.7956 L75.7671,440.0236 L76.2691,363.9396 C76.4031,343.7866 92.9951,327.3986 113.1391,327.5236 L167.1981,327.8516 C187.3461,327.9706 203.7161,344.5586 203.5851,364.7106 L203.0821,440.7956 Z" id="Fill-29" fill="#FFFFFF"></path>
                <path d="M101.4678,454.8962 L100.9538,361.0852 C101.0528,346.0612 110.3028,333.1422 123.3478,327.5812 L113.1388,327.5232 C92.9948,327.3982 76.4038,343.7872 76.2698,363.9392 L75.7668,440.0232 L101.4678,454.8962 Z" id="Fill-31" fill="#DFE8E6"></path>
                <path d="M174.628,345.0876 L108.646,344.6866 C100.116,344.6356 93.187,337.6136 93.244,329.0826 C93.3,320.5526 100.323,313.6166 108.85,313.6676 L174.836,314.0646 C183.36,314.1196 190.294,321.1416 190.236,329.6706 C190.183,338.1996 183.157,345.1386 174.628,345.0876" id="Fill-33" fill="#ADCEDE"></path>
                <path d="M214.1416,273.4987 C213.9016,309.9767 181.1506,339.3467 140.9956,339.1027 C100.8396,338.8597 68.4806,309.0947 68.7226,272.6217 C68.9636,236.1447 101.7156,206.7737 141.8696,207.0187 C182.0266,207.2567 214.3846,237.0227 214.1416,273.4987" id="Fill-35" fill="#FFFFFF"></path>
                <path d="M208.709,298.1511 C195.658,316.3691 173.003,328.3611 147.295,328.2061 C107.137,327.9621 74.78,298.1981 75.024,261.7201 C75.08,252.9901 77.018,244.6761 80.456,237.0681 C73.124,247.3021 68.809,259.4971 68.723,272.6221 C68.48,309.0941 100.84,338.8601 140.995,339.1031 C171.542,339.2891 197.781,322.3321 208.709,298.1511" id="Fill-37" fill="#DFE8E6"></path>
                <path d="M191.9092,262.4948 L191.7652,284.2378 C191.6552,300.6948 178.0952,314.0878 161.6462,313.9858 L120.6802,313.7398 C104.2112,313.6408 90.8302,300.0838 90.9402,283.6268 L91.0822,261.8848 C91.1942,245.4288 104.7532,232.0318 121.2222,232.1348 L162.1872,232.3818 C178.6372,232.4828 192.0172,246.0368 191.9092,262.4948" id="Fill-39" fill="#1990C7"></path>
                <path d="M191.9092,262.4948 L191.8302,274.3958 C176.9882,278.1838 159.7462,280.2868 141.3782,280.1748 C123.0092,280.0648 105.7972,277.7548 91.0052,273.7868 L91.0822,261.8848 C91.1942,245.4288 104.7532,232.0318 121.2222,232.1348 L162.1872,232.3818 C178.6372,232.4828 192.0172,246.0368 191.9092,262.4948" id="Fill-41" fill="#19ADC7"></path>
                <path d="M68.5537,298.112 C63.0787,298.077 58.6327,293.569 58.6667,288.097 L58.8297,263.56 C58.8657,258.087 63.3727,253.634 68.8487,253.669 C74.3247,253.697 78.7717,258.209 78.7347,263.684 L78.5737,288.216 C78.5367,293.692 74.0287,298.143 68.5537,298.112" id="Fill-43" fill="#6E98AD"></path>
                <path d="M213.9756,298.9909 C208.4976,298.9589 204.0506,294.4499 204.0866,288.9739 L204.2486,264.4419 C204.2866,258.9649 208.7916,254.5129 214.2686,254.5449 C219.7446,254.5789 224.1916,259.0859 224.1576,264.5629 L223.9916,289.0959 C223.9566,294.5699 219.4486,299.0239 213.9756,298.9909" id="Fill-45" fill="#ADCEDE"></path>
                <path d="M90.7412,313.5573 L93.9992,313.5793 L90.7412,313.5573 Z" id="Fill-47" fill="#ADCEDE"></path>
                <polygon id="Fill-49" fill="#ADCEDE" points="180.1524 408.1208 102.6924 407.6508 102.9784 364.8968 180.4334 365.3698"></polygon>
                <path d="M173.6983,395.6716 C173.6733,399.3346 170.6843,402.2876 167.0223,402.2666 C163.3583,402.2446 160.4073,399.2526 160.4323,395.5896 C160.4593,391.9266 163.4473,388.9756 167.1083,388.9926 C170.7743,389.0166 173.7233,392.0046 173.6983,395.6716" id="Fill-51" fill="#FFFFFF"></path>
                <path d="M169.9043,377.5915 C169.8943,379.0935 168.6703,380.3075 167.1683,380.2945 C165.6673,380.2865 164.4563,379.0635 164.4663,377.5605 C164.4753,376.0595 165.7023,374.8475 167.2033,374.8605 C168.7063,374.8655 169.9143,376.0915 169.9043,377.5915" id="Fill-53" fill="#FFFFFF"></path>
                <polygon id="Fill-55" fill="#FFFFFF" points="146.2862 377.4489 114.4612 377.2559 114.4842 373.7039 146.3082 373.8939"></polygon>
                <polygon id="Fill-57" fill="#FFFFFF" points="146.2149 388.3151 114.3859 388.1211 114.4099 384.5681 146.2359 384.7601"></polygon>
                <polygon id="Fill-59" fill="#FFFFFF" points="146.1407 399.1794 114.3167 398.9884 114.3397 395.4344 146.1627 395.6264"></polygon>
                <path d="M40.3223,402.0544 L6.8313,402.2564 C3.0343,402.2814 -0.0267,405.3764 0.0003,409.1774 L0.0163,411.5954 C0.0393,415.3924 3.1393,418.4524 6.9363,418.4294 L40.4303,418.2304 C44.2303,418.2064 47.2863,415.1064 47.2603,411.3104 L47.2453,408.8934 C47.2193,405.0894 44.1203,402.0324 40.3223,402.0544" id="Fill-61" fill="#6E98AD"></path>
                <path d="M272.0362,307.4323 L238.5422,307.2283 C234.7462,307.2033 231.6872,304.1073 231.7122,300.3053 L231.7252,297.8923 C231.7532,294.0893 234.8512,291.0323 238.6472,291.0543 L272.1432,291.2553 C275.9402,291.2783 278.9992,294.3763 278.9732,298.1743 L278.9582,300.5943 C278.9312,304.3943 275.8342,307.4543 272.0362,307.4323" id="Fill-63" fill="#ADCEDE"></path>
                <path d="M42.916,540.6227 L125.565,541.0557 L125.732,508.2037 L75.915,507.9427 C57.784,507.8477 43.01,522.4777 42.916,540.6227" id="Fill-65" fill="#DFE8E6"></path>
                <polygon id="Fill-67" fill="#6E98AD" points="125.4629 561.2858 42.8169 560.8548 42.9159 540.6228 125.5659 541.0558"></polygon>
                <path d="M76,423.6716 L75.556,510.9426 L125.732,511.2036 L125.967,465.3726 C126.021,454.6726 131.748,445.6516 140.002,440.6586 C134.471,435.0326 128.884,429.3966 122.93,423.9186 L76,423.6716 Z" id="Fill-69" fill="#DFE8E6"></path>
                <path d="M127.834,468.2526 L73.163,472.6886 C69.934,472.9516 67.105,470.5456 66.84,467.3146 C66.578,464.0856 68.982,461.2516 72.212,460.9926 L126.883,456.5526 C130.109,456.2936 132.94,458.7006 133.204,461.9276 C133.467,465.1596 131.061,467.9916 127.834,468.2526" id="Fill-71" fill="#6E98AD"></path>
                <path d="M203.3955,420.9177 L155.7265,420.8317 L155.5425,420.1467 C151.8595,427.3507 147.9255,434.2427 143.9875,441.0787 C149.5565,446.3207 153.1205,453.7677 153.1005,462.2407 L152.9995,508.0487 L203.2035,508.1357 L203.3955,420.9177 Z" id="Fill-73" fill="#FFFFFF"></path>
                <path d="M235.621174,541.027 L152.9271,540.884 L152.9991,508.049 L202.8451,508.136 C220.9871,508.17 235.6591,522.897 235.621174,541.027" id="Fill-75" fill="#FFFFFF"></path>
                <polygon id="Fill-77" fill="#ADCEDE" points="152.8809 561.1052 235.5769 561.2512 235.6209 541.0272 152.9269 540.8842"></polygon>
                <path d="M153.6582,466.9841 L208.3282,471.8011 C211.5542,472.0861 214.4062,469.7011 214.6922,466.4711 C214.9792,463.2471 212.5952,460.3981 209.3642,460.1161 L154.6992,455.2961 C151.4672,455.0141 148.6212,457.3981 148.3322,460.6261 C148.0492,463.8521 150.4302,466.7001 153.6582,466.9841" id="Fill-79" fill="#ADCEDE"></path>
            </g>
        </g>
    </g>
</svg>