<?xml version="1.0" encoding="UTF-8"?>
<svg width="563px" height="627px" viewBox="0 0 563 627" version="1.1" xmlns="http://www.w3.org/2000/svg" xmlns:xlink="http://www.w3.org/1999/xlink">
    <!-- Generator: Sketch 51.3 (57544) - http://www.bohemiancoding.com/sketch -->
    <title>ASTRONAUT</title>
    <desc>Created with Sketch.</desc>
    <defs></defs>
    <g id="Proposta-V01" stroke="none" stroke-width="1" fill="none" fill-rule="evenodd">
        <g id="Landing-Page-Desktop-2" transform="translate(-731.000000, -139.000000)" fill-rule="nonzero">
            <g id="LANDING_BG" transform="translate(-4.000000, -17.000000)">
                <g id="ASTRONAUT" transform="translate(735.000000, 156.000000)">
                    <g id="Group">
                        <g transform="translate(0.000000, 113.000000)">
                            <path d="M236.3,311 L236.3,294 C237.2,294 328,293.1 342.4,226.1 C352.2,180.5 333.4,154.8 315.2,129.9 C296.7,104.5 277.5,78.2 295.5,35.8 C316.1,-12.9 374.6,2.2 377.1,2.8 L374,19.4 C373.5,19.3 323.8,6.6 308.1,43.5 C294.5,75.6 307.6,93.7 325.9,118.7 C344.5,144.3 367.8,176.1 356.1,230.4 C348.9,263.8 325.7,288.4 288.8,301.4 C261.9,310.9 237.4,311 236.3,311 Z" id="Shape" fill="#CFDDE3"></path>
                            <g id="XMLID_146_" transform="translate(0.000000, 156.000000)">
                                <path d="M258.4,253.4 L204,284.5 C179.8,298.3 148.9,289.9 135.1,265.6 L88.2,183.3 C72.9,156.4 82.3,121.8 109.2,106.5 L153.6,81.1 C180.5,65.8 215,75.2 230.4,102.1 L277.3,184.4 C291.1,208.7 282.7,239.6 258.4,253.4 Z" id="XMLID_198_" fill="#91B7C9"></path>
                                <g id="XMLID_147_">
                                    <g id="XMLID_194_" transform="translate(104.000000, 297.000000)">
                                        <path d="M3.4,29.2 L85.3,40.2 L89.7,7.6 L40.3,1 C22.3,-1.4 5.8,11.2 3.4,29.2 Z" id="XMLID_196_" fill="#DFE8E6"></path>
                                        <polygon id="XMLID_195_" fill="#6E98AD" points="82.6 60.2 0.7 49.2 3.4 29.2 85.3 40.2"></polygon>
                                    </g>
                                    <g id="XMLID_188_" transform="translate(143.000000, 173.000000)">
                                        <path d="M12.5,38.4 L0.9,124.9 L50.6,131.6 L56.7,86.2 C58.1,75.6 65,67.4 73.8,63.5 C69,57.2 64.2,50.9 59,44.7 L12.5,38.4 Z" id="XMLID_192_" fill="#DFE8E6"></path>
                                        <path d="M78.3,0.9 L59.7,44.8 L59,44.7 C64.2,50.9 69,57.2 73.8,63.5 C80.8,60.4 89,60 96.8,63.3 L139,81.2 L158.6,35 L78.3,0.9 Z" id="XMLID_191_" fill="#FFFFFF"></path>
                                        <path d="M201.5,17.9 L169.2,94 L139,81.2 L158.5,35.3 C165.5,18.6 184.8,10.8 201.5,17.9 Z" id="XMLID_190_" fill="#FFFFFF"></path>
                                        <polygon id="XMLID_189_" fill="#ADCEDE" points="187.8 101.9 220.1 25.8 201.5 17.9 169.2 94"></polygon>
                                    </g>
                                    <g id="XMLID_162_">
                                        <g id="XMLID_186_" transform="translate(164.000000, 0.000000)" fill="#FFFFFF">
                                            <path d="M81,122.1 L30.7,150.8 C20.9,156.4 8.4,153 2.9,143.2 C-2.7,133.4 0.7,120.9 10.5,115.3 L60.8,86.6 C64.7,84.4 66.1,79.4 63.8,75.5 L38.5,31.2 C32.9,21.4 36.3,8.9 46.1,3.3 C55.9,-2.3 68.4,1.1 73.9,10.9 L99.2,55.2 C112.7,78.7 104.5,108.7 81,122.1 Z" id="XMLID_187_"></path>
                                        </g>
                                        <g id="XMLID_182_" transform="translate(0.000000, 114.000000)" fill="#DFE8E6">
                                            <path d="M95.5,93.5 L145.8,64.8 C155.6,59.2 159,46.7 153.4,36.9 C147.8,27.1 135.4,23.7 125.6,29.3 L75.3,58 C71.4,60.2 66.4,58.9 64.2,55 L38.9,10.7 C33.3,0.9 20.9,-2.5 11.1,3.1 C1.3,8.7 -2.1,21.2 3.5,31 L28.8,75.3 C42.1,98.6 72,106.8 95.5,93.5 Z" id="XMLID_21_"></path>
                                        </g>
                                        <polygon id="XMLID_181_" fill="#FFFFFF" points="165.6 43.5 163.4 36 155.8 33.7 163.3 31.4 165.6 23.9 167.9 31.4 175.4 33.7 167.9 36"></polygon>
                                        <path d="M259.3,189.7 L148.7,252.8 L111,186.6 C101,169.1 107.2,146.6 124.7,136.6 L171.7,109.8 C189.2,99.8 211.7,106 221.7,123.5 L259.3,189.7 Z" id="XMLID_178_" fill="#FFFFFF"></path>
                                        <path d="M178.4,252.8 L131,171.8 C123.6,158.7 125.1,142.9 133.6,131.6 L124.7,136.7 C107.2,146.7 101.1,169.2 111,186.7 L148.7,252.8 L178.4,252.8 Z" id="XMLID_176_" fill="#DFE8E6"></path>
                                        <path d="M186.7,121.1 L129.4,153.8 C122,158 112.5,155.4 108.3,148 C104.1,140.6 106.7,131.1 114.1,126.8 L171.4,94.1 C178.8,89.9 188.3,92.5 192.5,99.9 C196.7,107.3 194.1,116.8 186.7,121.1 Z" id="XMLID_175_" fill="#ADCEDE"></path>
                                        <path d="M185.1,39.3 C203.2,71 189.5,112.8 154.6,132.7 C119.7,152.6 76.8,143 58.7,111.4 C40.6,79.7 54.3,37.9 89.2,18 C124.1,-1.9 167,7.6 185.1,39.3 Z" id="XMLID_173_" fill="#FFFFFF"></path>
                                        <path d="M192.7,63.4 C190.5,85.7 176.9,107.4 154.6,120.2 C119.7,140.1 76.8,130.5 58.7,98.9 C54.4,91.3 51.9,83.1 51.1,74.8 C49.9,87.3 52.3,100 58.8,111.4 C76.9,143.1 119.8,152.6 154.7,132.7 C181.1,117.6 195.4,89.8 192.7,63.4 Z" id="XMLID_171_" fill="#DFE8E6"></path>
                                        <path d="M160.3,40.9 L171.1,59.8 C179.2,74.1 174.2,92.5 159.9,100.6 L124.3,121 C110,129.2 91.6,124.1 83.5,109.8 L72.7,90.9 C64.6,76.6 69.6,58.2 83.9,50.1 L119.5,29.8 C133.8,21.6 152.2,26.6 160.3,40.9 Z" id="XMLID_169_" fill="#1990C7"></path>
                                        <path d="M160.3,40.9 L166.2,51.2 C155.3,61.9 141.4,72.4 125.4,81.5 C109.4,90.6 93.4,97.2 78.6,101.2 L72.7,90.9 C64.6,76.6 69.6,58.2 83.9,50.1 L119.5,29.8 C133.8,21.6 152.2,26.6 160.3,40.9 Z" id="XMLID_168_" fill="#19ADC7"></path>
                                        <path d="M71.4,133.5 C66.6,136.2 60.5,134.5 57.8,129.8 L45.7,108.5 C43,103.7 44.7,97.6 49.4,94.9 C54.2,92.2 60.3,93.9 63,98.6 L75.1,119.9 C77.8,124.7 76.1,130.8 71.4,133.5 Z" id="XMLID_166_" fill="#6E98AD"></path>
                                        <path d="M197.7,61.5 C192.9,64.2 186.8,62.5 184.1,57.8 L172,36.4 C169.3,31.6 171,25.5 175.7,22.8 C180.5,20.1 186.6,21.8 189.3,26.5 L201.4,47.8 C204.1,52.6 202.4,58.7 197.7,61.5 Z" id="XMLID_164_" fill="#ADCEDE"></path>
                                        <rect id="XMLID_163_" fill="#ADCEDE" transform="translate(99.509627, 134.624393) rotate(150.330449) translate(-99.509627, -134.624393) " x="97.8596164" y="134.224393" width="3.30002015" height="1"></rect>
                                    </g>
                                    <polygon id="XMLID_161_" fill="#ADCEDE" points="223.1 172.9 155.8 211.2 134.6 174.1 201.9 135.7"></polygon>
                                    <path d="M211.2,165.3 C213,168.5 211.9,172.5 208.7,174.4 C205.5,176.2 201.5,175.1 199.7,171.9 C197.9,168.7 199,164.7 202.2,162.8 C205.4,161 209.4,162.1 211.2,165.3 Z" id="XMLID_160_" fill="#FFFFFF"></path>
                                    <path d="M198.9,151.6 C199.6,152.9 199.2,154.6 197.9,155.3 C196.6,156 194.9,155.6 194.2,154.3 C193.5,153 193.9,151.3 195.2,150.6 C196.5,149.8 198.2,150.3 198.9,151.6 Z" id="XMLID_159_" fill="#FFFFFF"></path>
                                    <rect id="XMLID_158_" fill="#FFFFFF" transform="translate(163.644110, 169.598780) rotate(-29.710768) translate(-163.644110, -169.598780) " x="147.744813" y="167.79886" width="31.7985946" height="3.59984089"></rect>
                                    <rect id="XMLID_157_" fill="#FFFFFF" transform="translate(169.162820, 179.101900) rotate(-29.707928) translate(-169.162820, -179.101900) " x="153.262142" y="177.301823" width="31.8013566" height="3.60015357"></rect>
                                    <rect id="XMLID_156_" fill="#FFFFFF" transform="translate(174.417250, 188.479270) rotate(-29.715744) translate(-174.417250, -188.479270) " x="158.517165" y="186.67926" width="31.8001708" height="3.60001933"></rect>
                                    <path d="M50.9,154.5 L21.8,171.1 C18.5,173 14.3,171.8 12.4,168.5 L11.2,166.4 C9.3,163.1 10.5,158.9 13.8,157 L42.9,140.4 C46.2,138.5 50.4,139.7 52.3,143 L53.5,145.1 C55.4,148.4 54.2,152.6 50.9,154.5 Z" id="XMLID_154_" fill="#6E98AD"></path>
                                    <path d="M252.2,39.7 L223.1,56.3 C219.8,58.2 215.6,57 213.7,53.7 L212.5,51.6 C210.6,48.3 211.8,44.1 215.1,42.2 L244.2,25.6 C247.5,23.7 251.7,24.9 253.6,28.2 L254.8,30.3 C256.6,33.6 255.5,37.8 252.2,39.7 Z" id="XMLID_152_" fill="#ADCEDE"></path>
                                    <path d="M201.2,262.3 L146.4,259.7 C143.2,259.5 140.7,256.8 140.8,253.6 C141,250.4 143.7,247.9 146.9,248 L201.7,250.6 C204.9,250.8 207.4,253.5 207.3,256.7 C207.2,259.9 204.4,262.4 201.2,262.3 Z" id="XMLID_150_" fill="#6E98AD"></path>
                                    <path d="M244.4,237.6 L270.1,189.1 C271.6,186.2 270.5,182.7 267.7,181.2 C264.8,179.7 261.3,180.8 259.8,183.6 L234,232.1 C232.5,235 233.6,238.5 236.4,240 C239.3,241.6 242.9,240.5 244.4,237.6 Z" id="XMLID_148_" fill="#ADCEDE"></path>
                                </g>
                            </g>
                        </g>
                        <g transform="translate(355.000000, 0.000000)">
                            <path d="M203.1,162.2 L5.2,162.2 C3,162.2 0.7,161.1 0.4,157.9 L0.4,154.9 L22.1,114.9 C23.3,112.6 25.7,111.1 28.3,111.1 L179.7,111.1 C182.5,111.1 188.8,116.7 190,119.2 L207.9,155.6 L207.9,156.9 C207.9,160.7 205.5,162.2 203.1,162.2 Z" id="Shape" fill="#3D4D5C"></path>
                            <path d="M203.1,158 L5.2,158 C3,158 -0.6,156.1 0.7,153.7 L22.1,110.7 C23.3,108.4 25.7,106.9 28.3,106.9 L179.7,106.9 C182.5,106.9 185.1,108.5 186.4,111 L207.5,153.3 C209,156 205.5,158 203.1,158 Z" id="Shape" fill="#B7CDD8"></path>
                            <rect id="Rectangle-path" fill="#3D4D5C" x="22.1" y="0.2" width="162.1" height="102.4"></rect>
                            <rect id="Rectangle-path" fill="#231F20" x="28.3" y="5.8" width="149.5" height="88.7"></rect>
                            <path d="M132.8,156.1 L74.5,156.1 C73.9,156.1 73.4,155.5 73.5,154.9 L76,139.5 C76.1,138.7 76.8,138.1 77.7,138.1 L130.3,138.1 C131,138.1 131.7,138.6 131.8,139.4 L134.1,154.8 C134.1,155.5 133.5,156.1 132.8,156.1 Z" id="Shape" fill="#52677A"></path>
                            <path d="M37.1,116.1 L30.8,116.1 C29.9,116.1 29.3,115.8 29.4,115.5 L29.8,114.6 C29.9,114.3 30.7,114 31.6,114 L37.9,114 C38.8,114 39.4,114.3 39.3,114.6 L39,115.5 C38.8,115.8 38,116.1 37.1,116.1 Z" id="Shape" fill="#52677A"></path>
                            <path d="M47.8,116.1 L41.5,116.1 C40.6,116.1 40,115.8 40.1,115.5 L40.4,114.6 C40.5,114.3 41.3,114 42.2,114 L48.5,114 C49.4,114 50,114.3 49.9,114.6 L49.6,115.5 C49.4,115.8 48.6,116.1 47.8,116.1 Z" id="Shape" fill="#52677A"></path>
                            <path d="M58.4,116.1 L52.1,116.1 C51.2,116.1 50.6,115.8 50.7,115.5 L51,114.6 C51.1,114.3 51.9,114 52.7,114 L59,114 C59.9,114 60.5,114.3 60.4,114.6 L60.2,115.5 C60.1,115.8 59.3,116.1 58.4,116.1 Z" id="Shape" fill="#52677A"></path>
                            <path d="M69.1,116.1 L62.8,116.1 C61.9,116.1 61.3,115.8 61.3,115.5 L61.5,114.6 C61.6,114.3 62.3,114 63.2,114 L69.5,114 C70.4,114 71,114.3 71,114.6 L70.8,115.5 C70.7,115.8 70,116.1 69.1,116.1 Z" id="Shape" fill="#52677A"></path>
                            <path d="M79.8,116.1 L73.5,116.1 C72.6,116.1 71.9,115.8 72,115.5 L72.2,114.6 C72.3,114.3 73,114 73.9,114 L80.2,114 C81.1,114 81.7,114.3 81.7,114.6 L81.6,115.5 C81.4,115.8 80.6,116.1 79.8,116.1 Z" id="Shape" fill="#52677A"></path>
                            <path d="M90.4,116.1 L84.1,116.1 C83.2,116.1 82.5,115.8 82.6,115.5 L82.7,114.6 C82.7,114.3 83.5,114 84.3,114 L90.6,114 C91.5,114 92.2,114.3 92.1,114.6 L92,115.5 C92,115.8 91.3,116.1 90.4,116.1 Z" id="Shape" fill="#52677A"></path>
                            <path d="M101.1,116.1 L94.8,116.1 C93.9,116.1 93.2,115.8 93.2,115.5 L93.3,114.6 C93.3,114.3 94,114 94.9,114 L101.2,114 C102.1,114 102.8,114.3 102.8,114.6 L102.8,115.5 C102.7,115.8 102,116.1 101.1,116.1 Z" id="Shape" fill="#52677A"></path>
                            <path d="M111.8,116.1 L105.5,116.1 C104.6,116.1 103.9,115.8 103.9,115.5 L103.9,114.6 C103.9,114.3 104.6,114 105.5,114 L111.8,114 C112.7,114 113.4,114.3 113.4,114.6 L113.5,115.5 C113.4,115.8 112.7,116.1 111.8,116.1 Z" id="Shape" fill="#52677A"></path>
                            <path d="M122.4,116.1 L116.1,116.1 C115.2,116.1 114.5,115.8 114.5,115.5 L114.4,114.6 C114.4,114.3 115.1,114 115.9,114 L122.2,114 C123.1,114 123.8,114.3 123.8,114.6 L123.9,115.5 C124,115.8 123.3,116.1 122.4,116.1 Z" id="Shape" fill="#52677A"></path>
                            <path d="M133.1,116.1 L126.8,116.1 C125.9,116.1 125.2,115.8 125.1,115.5 L125,114.6 C125,114.3 125.6,114 126.5,114 L132.8,114 C133.7,114 134.4,114.3 134.5,114.6 L134.7,115.5 C134.7,115.8 134,116.1 133.1,116.1 Z" id="Shape" fill="#52677A"></path>
                            <path d="M143.8,116.1 L137.5,116.1 C136.6,116.1 135.9,115.8 135.8,115.5 L135.6,114.6 C135.5,114.3 136.2,114 137.1,114 L143.4,114 C144.3,114 145,114.3 145.1,114.6 L145.3,115.5 C145.3,115.8 144.7,116.1 143.8,116.1 Z" id="Shape" fill="#52677A"></path>
                            <path d="M154.5,116.1 L148.2,116.1 C147.3,116.1 146.5,115.8 146.5,115.5 L146.3,114.6 C146.2,114.3 146.9,114 147.7,114 L154,114 C154.9,114 155.7,114.3 155.7,114.6 L156,115.5 C156,115.8 155.3,116.1 154.5,116.1 Z" id="Shape" fill="#52677A"></path>
                            <path d="M165.1,116.1 L158.8,116.1 C157.9,116.1 157.1,115.8 157,115.5 L156.7,114.6 C156.6,114.3 157.2,114 158.1,114 L164.4,114 C165.3,114 166.1,114.3 166.2,114.6 L166.5,115.5 C166.6,115.8 166,116.1 165.1,116.1 Z" id="Shape" fill="#52677A"></path>
                            <path d="M175.8,116.1 L169.5,116.1 C168.6,116.1 167.8,115.8 167.7,115.5 L167.4,114.6 C167.3,114.3 167.9,114 168.8,114 L175.1,114 C176,114 176.8,114.3 176.9,114.6 L177.3,115.5 C177.3,115.8 176.7,116.1 175.8,116.1 Z" id="Shape" fill="#52677A"></path>
                            <path d="M36.5,119.6 L28.4,119.6 C28.2,119.6 28.1,119.5 28.1,119.5 L29.3,116.5 C29.3,116.4 29.5,116.4 29.7,116.4 L37.6,116.4 C37.8,116.4 37.9,116.5 37.9,116.5 L36.8,119.5 C36.9,119.5 36.7,119.6 36.5,119.6 Z" id="Shape" fill="#52677A"></path>
                            <path d="M51.4,123.5 L43.2,123.5 C43,123.5 42.9,123.4 42.9,123.4 L43.9,120.3 C43.9,120.2 44.1,120.2 44.3,120.2 L52.4,120.2 C52.6,120.2 52.7,120.3 52.7,120.3 L51.9,123.4 C51.8,123.4 51.6,123.5 51.4,123.5 Z" id="Shape" fill="#52677A"></path>
                            <path d="M52.8,127.5 L44.4,127.5 C44.2,127.5 44,127.4 44.1,127.4 L45.1,124.2 C45.1,124.1 45.3,124.1 45.5,124.1 L53.8,124.1 C54,124.1 54.2,124.2 54.1,124.2 L53.3,127.4 C53.2,127.4 53,127.5 52.8,127.5 Z" id="Shape" fill="#52677A"></path>
                            <path d="M57.5,131.7 L48.9,131.7 C48.7,131.7 48.5,131.6 48.6,131.5 L49.5,128.1 C49.5,128 49.7,128 49.9,128 L58.3,128 C58.5,128 58.7,128.1 58.6,128.1 L57.8,131.5 C57.9,131.7 57.7,131.7 57.5,131.7 Z" id="Shape" fill="#52677A"></path>
                            <path d="M30.4,136.6 L21.6,136.6 C21.4,136.6 21.2,136.5 21.2,136.4 L22.8,132.4 C22.8,132.3 23.1,132.2 23.3,132.2 L31.9,132.2 C32.1,132.2 32.3,132.3 32.3,132.4 L30.9,136.4 C30.8,136.6 30.6,136.6 30.4,136.6 Z" id="Shape" fill="#52677A"></path>
                            <path d="M42.1,136.6 L33.3,136.6 C33.1,136.6 32.9,136.5 32.9,136.4 L34.3,132.4 C34.3,132.3 34.5,132.2 34.8,132.2 L43.4,132.2 C43.6,132.2 43.8,132.3 43.8,132.4 L42.6,136.4 C42.5,136.6 42.3,136.6 42.1,136.6 Z" id="Shape" fill="#52677A"></path>
                            <path d="M53.4,136.6 L44.6,136.6 C44.4,136.6 44.2,136.5 44.2,136.4 L45.4,132.4 C45.4,132.3 45.6,132.2 45.9,132.2 L54.5,132.2 C54.7,132.2 54.9,132.3 54.9,132.4 L53.9,136.4 C53.9,136.6 53.7,136.6 53.4,136.6 Z" id="Shape" fill="#52677A"></path>
                            <path d="M67.7,136.6 L56.1,136.6 C55.8,136.6 55.6,136.5 55.7,136.4 L56.6,132.5 C56.6,132.4 56.9,132.3 57.1,132.3 L68.4,132.3 C68.7,132.3 68.9,132.4 68.8,132.5 L68.1,136.4 C68.2,136.5 68,136.6 67.7,136.6 Z" id="Shape" fill="#52677A"></path>
                            <path d="M138.9,136.6 L127.3,136.6 C127,136.6 126.8,136.5 126.8,136.4 L126.3,132.5 C126.3,132.4 126.5,132.3 126.8,132.3 L138.1,132.3 C138.4,132.3 138.6,132.4 138.6,132.5 L139.3,136.4 C139.4,136.5 139.2,136.6 138.9,136.6 Z" id="Shape" fill="#52677A"></path>
                            <path d="M150.6,136.6 L142,136.6 C141.8,136.6 141.6,136.5 141.5,136.4 L140.7,132.4 C140.7,132.3 140.9,132.2 141.1,132.2 L149.6,132.2 C149.8,132.2 150,132.3 150,132.4 L150.9,136.4 C151,136.6 150.8,136.6 150.6,136.6 Z" id="Shape" fill="#52677A"></path>
                            <path d="M124.4,136.6 L71,136.6 C70.4,136.6 70,136.4 70.1,136.2 L70.7,132.7 C70.7,132.5 71.2,132.3 71.8,132.3 L124,132.3 C124.5,132.3 125,132.5 125,132.7 L125.4,136.2 C125.4,136.4 125,136.6 124.4,136.6 Z" id="Shape" fill="#52677A"></path>
                            <path d="M68.7,131.7 L60.1,131.7 C59.9,131.7 59.7,131.6 59.7,131.5 L60.4,128.1 C60.4,128 60.6,128 60.8,128 L69.2,128 C69.4,128 69.6,128.1 69.6,128.1 L69,131.5 C69.1,131.7 68.9,131.7 68.7,131.7 Z" id="Shape" fill="#52677A"></path>
                            <path d="M79.8,131.7 L71.2,131.7 C71,131.7 70.8,131.6 70.8,131.5 L71.3,128.1 C71.3,128 71.5,128 71.7,128 L80.1,128 C80.3,128 80.5,128.1 80.5,128.1 L80.1,131.5 C80.2,131.7 80.1,131.7 79.8,131.7 Z" id="Shape" fill="#52677A"></path>
                            <path d="M91,131.7 L82.4,131.7 C82.2,131.7 82,131.6 82,131.5 L82.4,128.1 C82.4,128 82.6,128 82.8,128 L91.2,128 C91.4,128 91.6,128.1 91.6,128.1 L91.4,131.5 C91.4,131.7 91.2,131.7 91,131.7 Z" id="Shape" fill="#52677A"></path>
                            <path d="M102.2,131.7 L93.6,131.7 C93.4,131.7 93.2,131.6 93.2,131.5 L93.4,128.1 C93.4,128 93.6,128 93.8,128 L102.2,128 C102.4,128 102.6,128.1 102.6,128.1 L102.6,131.5 C102.6,131.7 102.4,131.7 102.2,131.7 Z" id="Shape" fill="#52677A"></path>
                            <path d="M113.4,131.7 L104.8,131.7 C104.6,131.7 104.4,131.6 104.4,131.5 L104.4,128.1 C104.4,128 104.6,128 104.8,128 L113.2,128 C113.4,128 113.6,128.1 113.6,128.1 L113.8,131.5 C113.7,131.7 113.6,131.7 113.4,131.7 Z" id="Shape" fill="#52677A"></path>
                            <path d="M124.5,131.7 L115.9,131.7 C115.7,131.7 115.5,131.6 115.5,131.5 L115.3,128.1 C115.3,128 115.5,128 115.7,128 L124.1,128 C124.3,128 124.5,128.1 124.5,128.1 L124.9,131.5 C124.9,131.7 124.7,131.7 124.5,131.7 Z" id="Shape" fill="#52677A"></path>
                            <path d="M135.7,131.7 L127.1,131.7 C126.9,131.7 126.7,131.6 126.7,131.5 L126.3,128.1 C126.3,128 126.5,128 126.7,128 L135.1,128 C135.3,128 135.5,128.1 135.5,128.1 L136.1,131.5 C136.1,131.7 135.9,131.7 135.7,131.7 Z" id="Shape" fill="#52677A"></path>
                            <path d="M146.9,131.7 L138.3,131.7 C138.1,131.7 137.9,131.6 137.9,131.5 L137.3,128.1 C137.3,128 137.4,128 137.7,128 L146.1,128 C146.3,128 146.5,128.1 146.5,128.1 L147.3,131.5 C147.2,131.7 147.1,131.7 146.9,131.7 Z" id="Shape" fill="#52677A"></path>
                            <path d="M161,136.7 L154.3,136.7 C153.4,136.7 152.7,136.4 152.6,136.1 L152.4,135.1 C152.3,134.8 152.9,134.5 153.8,134.5 L160.4,134.5 C161.2,134.5 162,134.8 162.1,135.1 L162.4,136.1 C162.4,136.4 161.8,136.7 161,136.7 Z" id="Shape" fill="#52677A"></path>
                            <path d="M172.5,136.7 L165.8,136.7 C164.9,136.7 164.2,136.4 164.1,136.1 L163.8,135.1 C163.7,134.8 164.3,134.5 165.1,134.5 L171.7,134.5 C172.5,134.5 173.3,134.8 173.4,135.1 L173.8,136.1 C173.9,136.4 173.3,136.7 172.5,136.7 Z" id="Shape" fill="#52677A"></path>
                            <path d="M171.6,134.2 L165,134.2 C164.2,134.2 163.4,133.9 163.3,133.6 L163,132.6 C162.9,132.3 163.5,132 164.3,132 L170.8,132 C171.6,132 172.4,132.3 172.5,132.6 L172.8,133.6 C173,133.9 172.4,134.2 171.6,134.2 Z" id="Shape" fill="#52677A"></path>
                            <path d="M184,136.7 L177.3,136.7 C176.4,136.7 175.7,136.4 175.5,136.1 L175.1,135.1 C175,134.8 175.6,134.5 176.4,134.5 L183,134.5 C183.8,134.5 184.6,134.8 184.8,135.1 L185.2,136.1 C185.4,136.4 184.8,136.7 184,136.7 Z" id="Shape" fill="#52677A"></path>
                            <path d="M63.8,127.5 L55.4,127.5 C55.2,127.5 55,127.4 55.1,127.4 L55.9,124.2 C55.9,124.1 56.1,124.1 56.3,124.1 L64.6,124.1 C64.8,124.1 65,124.2 64.9,124.2 L64.3,127.4 C64.2,127.4 64,127.5 63.8,127.5 Z" id="Shape" fill="#52677A"></path>
                            <path d="M74.8,127.5 L66.4,127.5 C66.2,127.5 66,127.4 66,127.4 L66.6,124.2 C66.6,124.1 66.8,124.1 67,124.1 L75.3,124.1 C75.5,124.1 75.7,124.2 75.7,124.2 L75.2,127.4 C75.2,127.4 75,127.5 74.8,127.5 Z" id="Shape" fill="#52677A"></path>
                            <path d="M85.9,127.5 L77.5,127.5 C77.3,127.5 77.1,127.4 77.1,127.4 L77.5,124.2 C77.5,124.1 77.7,124.1 77.9,124.1 L86.2,124.1 C86.4,124.1 86.6,124.2 86.6,124.2 L86.3,127.4 C86.2,127.4 86.1,127.5 85.9,127.5 Z" id="Shape" fill="#52677A"></path>
                            <path d="M96.8,127.5 L88.4,127.5 C88.2,127.5 88,127.4 88,127.4 L88.2,124.2 C88.2,124.1 88.4,124.1 88.6,124.1 L96.9,124.1 C97.1,124.1 97.3,124.2 97.3,124.2 L97.2,127.4 C97.2,127.4 97,127.5 96.8,127.5 Z" id="Shape" fill="#52677A"></path>
                            <path d="M107.9,127.5 L99.5,127.5 C99.3,127.5 99.1,127.4 99.1,127.4 L99.2,124.2 C99.2,124.1 99.4,124.1 99.6,124.1 L107.9,124.1 C108.1,124.1 108.3,124.2 108.3,124.2 L108.4,127.4 C108.2,127.4 108.1,127.5 107.9,127.5 Z" id="Shape" fill="#52677A"></path>
                            <path d="M118.4,127.5 L110,127.5 C109.8,127.5 109.6,127.4 109.6,127.4 L109.5,124.2 C109.5,124.1 109.7,124.1 109.9,124.1 L118.2,124.1 C118.4,124.1 118.6,124.2 118.6,124.2 L118.9,127.4 C118.8,127.4 118.6,127.5 118.4,127.5 Z" id="Shape" fill="#52677A"></path>
                            <path d="M129.4,127.5 L121,127.5 C120.8,127.5 120.6,127.4 120.6,127.4 L120.3,124.2 C120.3,124.1 120.5,124.1 120.7,124.1 L129,124.1 C129.2,124.1 129.4,124.2 129.4,124.2 L129.8,127.4 C129.7,127.4 129.6,127.5 129.4,127.5 Z" id="Shape" fill="#52677A"></path>
                            <path d="M140.3,127.5 L131.9,127.5 C131.7,127.5 131.5,127.4 131.5,127.4 L131,124.2 C131,124.1 131.1,124.1 131.4,124.1 L139.7,124.1 C139.9,124.1 140.1,124.2 140.1,124.2 L140.7,127.4 C140.7,127.4 140.5,127.5 140.3,127.5 Z" id="Shape" fill="#52677A"></path>
                            <path d="M151.2,127.5 L142.8,127.5 C142.6,127.5 142.4,127.4 142.4,127.4 L141.7,124.2 C141.7,124.1 141.8,124.1 142,124.1 L150.3,124.1 C150.5,124.1 150.7,124.2 150.7,124.2 L151.5,127.4 C151.5,127.4 151.4,127.5 151.2,127.5 Z" id="Shape" fill="#52677A"></path>
                            <path d="M162,127.5 L153.6,127.5 C153.4,127.5 153.2,127.4 153.2,127.4 L152.4,124.2 C152.4,124.1 152.5,124.1 152.7,124.1 L161,124.1 C161.2,124.1 161.4,124.2 161.4,124.2 L162.4,127.4 C162.4,127.4 162.2,127.5 162,127.5 Z" id="Shape" fill="#52677A"></path>
                            <path d="M157.9,131.7 L149.3,131.7 C149.1,131.7 148.9,131.6 148.9,131.5 L148.1,128.1 C148.1,128 148.2,128 148.4,128 L156.8,128 C157,128 157.2,128.1 157.2,128.1 L158.1,131.5 C158.3,131.7 158.2,131.7 157.9,131.7 Z" id="Shape" fill="#52677A"></path>
                            <path d="M181.3,127.5 L165,127.5 C164.7,127.5 164.5,127.4 164.4,127.3 L163.4,124.2 C163.4,124.1 163.6,124 163.8,124 L179.8,124 C180.1,124 180.3,124.1 180.4,124.2 L181.7,127.3 C181.8,127.4 181.6,127.5 181.3,127.5 Z" id="Shape" fill="#52677A"></path>
                            <path d="M182.9,131.7 L160.6,131.7 C160.3,131.7 160,131.6 159.9,131.5 L159,128.3 C159,128.2 159.2,128.1 159.5,128.1 L181.4,128.1 C181.7,128.1 182,128.2 182.1,128.3 L183.4,131.5 C183.5,131.6 183.2,131.7 182.9,131.7 Z" id="Shape" fill="#52677A"></path>
                            <path d="M41.8,127.5 L25.4,127.5 C25.1,127.5 24.9,127.4 25,127.3 L26.3,124.2 C26.3,124.1 26.6,124 26.9,124 L43,124 C43.3,124 43.5,124.1 43.5,124.2 L42.5,127.3 C42.4,127.4 42.1,127.5 41.8,127.5 Z" id="Shape" fill="#52677A"></path>
                            <path d="M46.2,131.7 L23.6,131.7 C23.3,131.7 23,131.6 23.1,131.5 L24.4,128.3 C24.5,128.2 24.8,128.1 25.1,128.1 L47.3,128.1 C47.6,128.1 47.9,128.2 47.8,128.3 L46.9,131.5 C46.8,131.6 46.5,131.7 46.2,131.7 Z" id="Shape" fill="#52677A"></path>
                            <path d="M62.2,123.5 L54,123.5 C53.8,123.5 53.6,123.4 53.7,123.4 L54.5,120.3 C54.5,120.2 54.7,120.2 54.9,120.2 L63,120.2 C63.2,120.2 63.4,120.3 63.3,120.3 L62.6,123.4 C62.5,123.4 62.4,123.5 62.2,123.5 Z" id="Shape" fill="#52677A"></path>
                            <path d="M72.8,123.5 L64.6,123.5 C64.4,123.5 64.2,123.4 64.3,123.4 L64.9,120.3 C64.9,120.2 65.1,120.2 65.3,120.2 L73.4,120.2 C73.6,120.2 73.8,120.3 73.7,120.3 L73.2,123.4 C73.2,123.4 73,123.5 72.8,123.5 Z" id="Shape" fill="#52677A"></path>
                            <path d="M83.6,123.5 L75.4,123.5 C75.2,123.5 75,123.4 75,123.4 L75.5,120.3 C75.5,120.2 75.7,120.2 75.9,120.2 L84,120.2 C84.2,120.2 84.4,120.3 84.4,120.3 L84.1,123.4 C84,123.4 83.8,123.5 83.6,123.5 Z" id="Shape" fill="#52677A"></path>
                            <path d="M94.3,123.5 L86.1,123.5 C85.9,123.5 85.7,123.4 85.7,123.4 L86,120.3 C86,120.2 86.2,120.2 86.4,120.2 L94.5,120.2 C94.7,120.2 94.9,120.3 94.9,120.3 L94.8,123.4 C94.7,123.4 94.5,123.5 94.3,123.5 Z" id="Shape" fill="#52677A"></path>
                            <path d="M105,123.5 L96.8,123.5 C96.6,123.5 96.4,123.4 96.4,123.4 L96.5,120.3 C96.5,120.2 96.7,120.2 96.9,120.2 L105,120.2 C105.2,120.2 105.4,120.3 105.4,120.3 L105.4,123.4 C105.4,123.4 105.2,123.5 105,123.5 Z" id="Shape" fill="#52677A"></path>
                            <path d="M115.5,123.5 L107.3,123.5 C107.1,123.5 106.9,123.4 106.9,123.4 L106.8,120.3 C106.8,120.2 107,120.2 107.2,120.2 L115.3,120.2 C115.5,120.2 115.7,120.3 115.7,120.3 L115.9,123.4 C115.8,123.4 115.7,123.5 115.5,123.5 Z" id="Shape" fill="#52677A"></path>
                            <path d="M126.3,123.5 L118.1,123.5 C117.9,123.5 117.7,123.4 117.7,123.4 L117.5,120.3 C117.5,120.2 117.7,120.2 117.9,120.2 L126,120.2 C126.2,120.2 126.4,120.3 126.4,120.3 L126.8,123.4 C126.7,123.4 126.5,123.5 126.3,123.5 Z" id="Shape" fill="#52677A"></path>
                            <path d="M137,123.5 L128.8,123.5 C128.6,123.5 128.4,123.4 128.4,123.4 L128,120.3 C128,120.2 128.1,120.2 128.3,120.2 L136.4,120.2 C136.6,120.2 136.8,120.3 136.8,120.3 L137.4,123.4 C137.4,123.4 137.2,123.5 137,123.5 Z" id="Shape" fill="#52677A"></path>
                            <path d="M147.5,123.5 L139.3,123.5 C139.1,123.5 138.9,123.4 138.9,123.4 L138.3,120.3 C138.3,120.2 138.4,120.2 138.6,120.2 L146.7,120.2 C146.9,120.2 147.1,120.3 147.1,120.3 L147.8,123.4 C147.9,123.4 147.7,123.5 147.5,123.5 Z" id="Shape" fill="#52677A"></path>
                            <path d="M158.5,123.5 L150.3,123.5 C150.1,123.5 149.9,123.4 149.9,123.4 L149.1,120.3 C149.1,120.2 149.2,120.2 149.4,120.2 L157.5,120.2 C157.7,120.2 157.9,120.3 157.9,120.3 L158.8,123.4 C158.8,123.4 158.7,123.5 158.5,123.5 Z" id="Shape" fill="#52677A"></path>
                            <path d="M169,123.5 L160.8,123.5 C160.6,123.5 160.4,123.4 160.4,123.4 L159.5,120.3 C159.5,120.2 159.6,120.2 159.8,120.2 L167.9,120.2 C168.1,120.2 168.3,120.3 168.3,120.3 L169.4,123.4 C169.3,123.4 169.2,123.5 169,123.5 Z" id="Shape" fill="#52677A"></path>
                            <path d="M179.8,123.5 L171.6,123.5 C171.4,123.5 171.2,123.4 171.2,123.4 L170.1,120.3 C170.1,120.2 170.2,120.2 170.4,120.2 L178.5,120.2 C178.7,120.2 178.9,120.3 178.9,120.3 L180.2,123.4 C180.1,123.4 180,123.5 179.8,123.5 Z" id="Shape" fill="#52677A"></path>
                            <path d="M47.2,119.6 L39.1,119.6 C38.9,119.6 38.8,119.5 38.8,119.5 L39.8,116.5 C39.8,116.4 40,116.4 40.2,116.4 L48.1,116.4 C48.3,116.4 48.4,116.5 48.4,116.5 L47.5,119.5 C47.6,119.5 47.4,119.6 47.2,119.6 Z" id="Shape" fill="#52677A"></path>
                            <path d="M57.5,119.6 L49.4,119.6 C49.2,119.6 49.1,119.5 49.1,119.5 L50,116.5 C50,116.4 50.2,116.4 50.4,116.4 L58.3,116.4 C58.5,116.4 58.6,116.5 58.6,116.5 L57.9,119.5 C57.9,119.5 57.7,119.6 57.5,119.6 Z" id="Shape" fill="#52677A"></path>
                            <path d="M68.2,119.6 L60.1,119.6 C59.9,119.6 59.7,119.5 59.8,119.5 L60.5,116.5 C60.5,116.4 60.7,116.4 60.9,116.4 L68.8,116.4 C69,116.4 69.1,116.5 69.1,116.5 L68.5,119.5 C68.5,119.5 68.4,119.6 68.2,119.6 Z" id="Shape" fill="#52677A"></path>
                            <path d="M78.5,119.6 L70.4,119.6 C70.2,119.6 70,119.5 70.1,119.5 L70.6,116.5 C70.6,116.4 70.8,116.4 71,116.4 L78.9,116.4 C79.1,116.4 79.3,116.5 79.2,116.5 L78.8,119.5 C78.9,119.5 78.7,119.6 78.5,119.6 Z" id="Shape" fill="#52677A"></path>
                            <path d="M89.2,119.6 L81.1,119.6 C80.9,119.6 80.7,119.5 80.8,119.5 L81.2,116.5 C81.2,116.4 81.4,116.4 81.6,116.4 L89.5,116.4 C89.7,116.4 89.9,116.5 89.8,116.5 L89.6,119.5 C89.5,119.5 89.4,119.6 89.2,119.6 Z" id="Shape" fill="#52677A"></path>
                            <path d="M99.4,119.6 L91.3,119.6 C91.1,119.6 90.9,119.5 90.9,119.5 L91.1,116.5 C91.1,116.4 91.3,116.4 91.5,116.4 L99.4,116.4 C99.6,116.4 99.8,116.5 99.8,116.5 L99.7,119.5 C99.8,119.5 99.6,119.6 99.4,119.6 Z" id="Shape" fill="#52677A"></path>
                            <path d="M110.1,119.6 L102,119.6 C101.8,119.6 101.6,119.5 101.6,119.5 L101.6,116.5 C101.6,116.4 101.8,116.4 102,116.4 L109.9,116.4 C110.1,116.4 110.3,116.5 110.3,116.5 L110.4,119.5 C110.4,119.5 110.3,119.6 110.1,119.6 Z" id="Shape" fill="#52677A"></path>
                            <path d="M120.4,119.6 L112.3,119.6 C112.1,119.6 111.9,119.5 111.9,119.5 L111.8,116.5 C111.8,116.4 112,116.4 112.2,116.4 L120.1,116.4 C120.3,116.4 120.5,116.5 120.5,116.5 L120.8,119.5 C120.8,119.5 120.6,119.6 120.4,119.6 Z" id="Shape" fill="#52677A"></path>
                            <path d="M131.1,119.6 L123,119.6 C122.8,119.6 122.6,119.5 122.6,119.5 L122.3,116.5 C122.3,116.4 122.4,116.4 122.6,116.4 L130.5,116.4 C130.7,116.4 130.9,116.5 130.9,116.5 L131.4,119.5 C131.4,119.5 131.3,119.6 131.1,119.6 Z" id="Shape" fill="#52677A"></path>
                            <path d="M141.7,119.6 L133.6,119.6 C133.4,119.6 133.2,119.5 133.2,119.5 L132.7,116.5 C132.7,116.4 132.8,116.4 133,116.4 L140.9,116.4 C141.1,116.4 141.3,116.5 141.3,116.5 L141.9,119.5 C142,119.5 141.9,119.6 141.7,119.6 Z" id="Shape" fill="#52677A"></path>
                            <path d="M152.2,119.6 L144.1,119.6 C143.9,119.6 143.7,119.5 143.7,119.5 L143,116.5 C143,116.4 143.1,116.4 143.3,116.4 L151.2,116.4 C151.4,116.4 151.6,116.5 151.6,116.5 L152.4,119.5 C152.5,119.5 152.4,119.6 152.2,119.6 Z" id="Shape" fill="#52677A"></path>
                            <path d="M162.3,119.6 L154.2,119.6 C154,119.6 153.8,119.5 153.8,119.5 L153,116.5 C153,116.4 153.1,116.4 153.3,116.4 L161.2,116.4 C161.4,116.4 161.6,116.5 161.6,116.5 L162.6,119.5 C162.6,119.5 162.5,119.6 162.3,119.6 Z" id="Shape" fill="#52677A"></path>
                            <path d="M177.4,119.6 L165.3,119.6 C164.7,119.6 164.2,119.4 164.2,119.2 L163.4,116.7 C163.3,116.5 163.7,116.3 164.3,116.3 L176.2,116.3 C176.7,116.3 177.3,116.5 177.3,116.7 L178.3,119.2 C178.4,119.4 178,119.6 177.4,119.6 Z" id="Shape" fill="#52677A"></path>
                            <path d="M39.9,123.5 L27.6,123.5 C27,123.5 26.6,123.3 26.7,123.1 L27.7,120.5 C27.8,120.3 28.3,120.1 28.9,120.1 L41,120.1 C41.6,120.1 42,120.3 41.9,120.5 L41.1,123.1 C40.9,123.3 40.4,123.5 39.9,123.5 Z" id="Shape" fill="#52677A"></path>
                            <rect id="Rectangle-path" fill="#52677A" x="33" y="102.6" width="24.1" height="4.2"></rect>
                            <rect id="Rectangle-path" fill="#52677A" x="148.8" y="102.6" width="24.1" height="4.3"></rect>
                        </g>
                    </g>
                </g>
            </g>
        </g>
    </g>
</svg>