<?xml version="1.0" encoding="utf-8"?>
<!-- Generator: Adobe Illustrator 16.0.4, SVG Export Plug-In . SVG Version: 6.00 Build 0)  -->
<!DOCTYPE svg PUBLIC "-//W3C//DTD SVG 1.1//EN" "http://www.w3.org/Graphics/SVG/1.1/DTD/svg11.dtd">
<svg version="1.1" id="Layer_1" xmlns="http://www.w3.org/2000/svg" xmlns:xlink="http://www.w3.org/1999/xlink" x="0px" y="0px"
	 width="375px" height="573.5px" viewBox="0 0 375 573.5" enable-background="new 0 0 375 573.5" xml:space="preserve">
<g>
	<rect id="XMLID_113_" x="0" y="-1.7" fill="#102037" width="375" height="544.7"/>
	<g id="XMLID_106_">
		<path id="XMLID_111_" fill="#142946" d="M374.9-1.5v112.8c-18.5-1-38.2-3.6-58.7-7.8c-92.6-19-166-65.1-169.5-105H374.9z"/>
		<path id="XMLID_107_" fill="#1B3556" d="M374.9-1.5v65c-16.5,2.4-34.3,3.7-52.8,3.6c-88.9-0.2-161-30.9-161.5-68.6H374.9z"/>
	</g>
	<g id="XMLID_76_">
		<path id="XMLID_103_" fill="#1B3556" d="M0,543v-69.1c17.7-2.6,36.8-4,56.6-3.9c95.3,0.3,172.6,33.8,173.2,73.1H0z"/>
	</g>
</g>
<g>
	<polygon id="XMLID_212_" fill="#FFFFFF" points="297.9,239.9 296.8,236.4 293.2,235.3 296.8,234.2 297.9,230.6 299,234.2 
		302.5,235.3 299,236.4 	"/>
	<polygon id="XMLID_209_" fill="#FFFFFF" points="192.8,143.7 189.3,142.3 186.3,144.5 187.6,141 185.5,138 188.9,139.3 192,137.2 
		190.6,140.6 	"/>
	<polygon id="XMLID_208_" fill="#FFFFFF" points="349.3,319.7 345.8,318.3 342.7,320.5 344.1,317 341.9,313.9 345.4,315.3 
		348.5,313.1 347.1,316.6 	"/>
	<polygon id="XMLID_203_" fill="#FFFFFF" points="330,145.4 326.2,143.2 322.3,145.2 324.5,141.4 322.5,137.5 326.3,139.7 
		330.2,137.7 328.1,141.5 	"/>
	<polygon id="XMLID_201_" fill="#FFFFFF" points="284.6,509.7 283.5,506.1 279.9,505 283.5,504 284.6,500.4 285.7,504 289.2,505 
		285.7,506.1 	"/>
	<polygon id="XMLID_200_" fill="#FFFFFF" points="234.9,479.2 231.4,477.9 228.4,480 229.7,476.5 227.6,473.5 231,474.8 
		234.1,472.7 232.7,476.2 	"/>
	<polygon id="XMLID_199_" fill="#FFFFFF" points="375.9,456.2 367.9,456.2 363.5,462.9 363.5,454.9 356.8,450.5 364.8,450.4 
		369.2,443.7 369.2,451.7 	"/>
	<polygon id="XMLID_144_" fill="#FFFFFF" points="127.6,430.4 126.5,426.9 123,425.8 126.5,424.7 127.6,421.2 128.7,424.7 
		132.2,425.8 128.7,426.9 	"/>
	<polygon id="XMLID_143_" fill="#FFFFFF" points="188,360.6 193,366 199.4,362.4 194,367.4 197.6,373.8 192.6,368.4 186.2,371.9 
		191.6,367 	"/>
	<polygon id="XMLID_139_" fill="#FFFFFF" points="62,477.3 54,477.9 50,484.8 49.5,476.8 42.5,472.9 50.5,472.3 54.5,465.4 
		55,473.4 	"/>
	<polygon id="XMLID_137_" fill="#FFFFFF" points="188,246.6 193,252 199.4,248.4 194,253.4 197.6,259.8 192.6,254.4 186.2,258 
		191.6,253 	"/>
	<polygon id="XMLID_135_" fill="#FFFFFF" points="78.9,86.3 70.9,86.8 66.9,93.8 66.3,85.8 59.4,81.8 67.4,81.3 71.4,74.3 
		71.9,82.3 	"/>
	<polygon id="XMLID_131_" fill="#FFFFFF" points="70.3,336.3 69.2,332.7 65.6,331.6 69.2,330.5 70.3,327 71.4,330.5 74.9,331.6 
		71.4,332.7 	"/>
</g>
<g>
	<defs>
		<rect id="SVGID_1_" y="-2" width="375" height="545"/>
	</defs>
	<clipPath id="SVGID_2_">
		<use xlink:href="#SVGID_1_"  overflow="visible"/>
	</clipPath>
	<g clip-path="url(#SVGID_2_)">
		<g>
			<defs>
				<filter id="Adobe_OpacityMaskFilter" filterUnits="userSpaceOnUse" x="31.8" y="513.2" width="72.3" height="65.1">
					<feFlood  style="flood-color:white;flood-opacity:1" result="back"/>
					<feBlend  in="SourceGraphic" in2="back" mode="normal"/>
				</filter>
			</defs>
			<mask maskUnits="userSpaceOnUse" x="31.8" y="513.2" width="72.3" height="65.1" id="SVGID_3_">
				<g filter="url(#Adobe_OpacityMaskFilter)">
					<g>
						<path fill="#231F20" d="M103.3,585.2c-0.7,0-1.4-0.3-2-0.8l-75.6-66.3c-1.3-1.1-1.4-3.1-0.3-4.3s3.1-1.4,4.3-0.3l75.6,66.3
							c1.3,1.1,1.4,3.1,0.3,4.3C105,584.8,104.1,585.2,103.3,585.2z"/>
					</g>
				</g>
			</mask>
			<g mask="url(#SVGID_3_)">
				
					<rect x="24.4" y="540.6" transform="matrix(0.7525 0.6586 -0.6586 0.7525 376.2732 90.3631)" fill="#9286C4" width="87" height="10.4"/>
			</g>
			<g>
				<g>
					<g>
						<g>
							<circle fill="#939598" cx="43.5" cy="552.4" r="0.3"/>
						</g>
					</g>
					<circle opacity="0.3" fill="#231F20" cx="32.3" cy="546.7" r="0.3"/>
					<g>
						<path fill="#F7941E" d="M93.6,547.4c0,6.6-2.3,12.7-6.2,17.5c-1.8,2.2-4,4.2-6.4,5.8c-0.9,0.6-1.8,1.1-2.7,1.6
							c-2.1,1-4.3,1.8-6.6,2.3c-1.8,0.4-3.7,0.6-5.7,0.6c-11,0-20.5-6.4-25-15.7c-1.3-2.8-2.2-5.8-2.6-9c0-0.1,0-0.1,0-0.2v0
							c-0.1-0.9-0.1-1.9-0.1-2.8c0-1.1,0.1-2.3,0.2-3.3c0.4-3.5,1.5-6.7,3-9.6c0.5-0.9,1.1-1.9,1.7-2.7c0.6-0.9,1.2-1.7,1.9-2.4
							c0,0,0,0,0,0c0.2-0.2,0.3-0.4,0.5-0.5c2.2-2.4,4.9-4.5,7.9-6c0.1,0,0.2-0.1,0.2-0.1c3.7-1.8,7.9-2.9,12.3-2.9
							c3.4,0,6.7,0.6,9.7,1.8C86.1,525.4,93.6,535.5,93.6,547.4z"/>
						<g opacity="0.4">
							<path fill="#7A5593" d="M65.9,519.7c3.4,0,6.7,0.6,9.7,1.8c10.5,3.9,18,14.1,18,25.9c0,6.6-2.3,12.7-6.2,17.5
								c-1.8,2.2-4,4.2-6.4,5.8c-0.9,0.6-1.8,1.1-2.7,1.6c-2.1,1-4.3,1.8-6.6,2.3c-1.8,0.4-3.7,0.6-5.7,0.6c-11,0-20.5-6.4-25-15.7
								c-1.3-2.8-2.2-5.8-2.6-9c0-0.1,0-0.1,0-0.2v0c-0.1-0.9-0.1-1.9-0.1-2.8c0-1.1,0.1-2.3,0.2-3.3c0.4-3.5,1.5-6.7,3-9.6
								c0.5-0.9,1.1-1.9,1.7-2.7c0.6-0.9,1.2-1.7,1.9-2.4c0,0,0,0,0,0c0.2-0.2,0.3-0.4,0.5-0.5c2.2-2.4,4.9-4.5,7.9-6
								c0.1,0,0.2-0.1,0.2-0.1C57.3,520.7,61.5,519.7,65.9,519.7L65.9,519.7z M65.9,505.5c-6.5,0-12.8,1.5-18.6,4.4l-0.1,0.1L47,510
								l0,0h0c-4.5,2.3-8.5,5.3-11.9,9l0,0l0,0c-0.1,0.2-0.3,0.3-0.4,0.5c-0.2,0.2-0.3,0.3-0.5,0.5c-1,1.1-1.8,2.3-2.7,3.5
								c-0.9,1.3-1.8,2.7-2.5,4.2c-2.4,4.6-4,9.5-4.6,14.6c-0.2,1.7-0.3,3.4-0.3,5.1c0,1.1,0,2.3,0.1,3.4v0.2l0.1,0.9l0,0
								c0.5,4.7,1.8,9.3,3.9,13.6c3.4,7,8.6,12.9,15.1,17.1c6.7,4.3,14.5,6.6,22.6,6.6c2.9,0,5.7-0.3,8.5-0.9l0,0
								c3.5-0.7,6.9-1.9,10-3.5l0,0l0,0c1.4-0.7,2.8-1.5,4.1-2.3l0,0l0,0c3.7-2.4,6.9-5.3,9.7-8.7c6.1-7.4,9.4-16.8,9.4-26.5
								c0-8.7-2.6-17-7.6-24.1c-4.9-6.9-11.6-12.1-19.5-15.1C75.9,506.4,70.9,505.5,65.9,505.5L65.9,505.5z"/>
						</g>
						<g opacity="0.6">
							<path fill="#CC4B2E" d="M65.9,519.7c3.4,0,6.7,0.6,9.7,1.8c10.5,3.9,18,14.1,18,25.9c0,6.6-2.3,12.7-6.2,17.5
								c-1.8,2.2-4,4.2-6.4,5.8c-0.9,0.6-1.8,1.1-2.7,1.6c-2.1,1-4.3,1.8-6.6,2.3c-1.8,0.4-3.7,0.6-5.7,0.6c-11,0-20.5-6.4-25-15.7
								c-1.3-2.8-2.2-5.8-2.6-9c0-0.1,0-0.1,0-0.2v0c-0.1-0.9-0.1-1.9-0.1-2.8c0-1.1,0.1-2.3,0.2-3.3c0.4-3.5,1.5-6.7,3-9.6
								c0.5-0.9,1.1-1.9,1.7-2.7c0.6-0.9,1.2-1.7,1.9-2.4c0,0,0,0,0,0c0.2-0.2,0.3-0.4,0.5-0.5c2.2-2.4,4.9-4.5,7.9-6
								c0.1,0,0.2-0.1,0.2-0.1C57.3,520.7,61.5,519.7,65.9,519.7L65.9,519.7z M65.9,514.2c-5.2,0-10.2,1.2-14.8,3.5l-0.1,0l-0.1,0
								c0,0-0.1,0-0.1,0.1l0,0l0,0c-3.6,1.8-6.7,4.2-9.5,7.2l0,0l0,0c-0.1,0.2-0.3,0.3-0.4,0.5c-0.1,0.1-0.1,0.2-0.2,0.2
								c-0.8,0.9-1.5,1.9-2.2,2.8c-0.7,1.1-1.4,2.2-2,3.3c-1.9,3.6-3.1,7.5-3.6,11.6c-0.2,1.3-0.2,2.7-0.2,4c0,1,0,2,0.1,3.1v0.1
								l0,0.3l0,0l0,0c0.4,3.8,1.4,7.4,3.1,10.8c2.7,5.6,6.8,10.3,12,13.6c5.3,3.4,11.5,5.2,17.9,5.2c2.3,0,4.6-0.2,6.8-0.7
								c2.8-0.6,5.4-1.5,8-2.8c1.1-0.6,2.2-1.2,3.3-1.9c2.9-1.9,5.5-4.2,7.7-6.9c4.8-5.9,7.5-13.4,7.5-21c0-6.9-2.1-13.5-6.1-19.1
								c-3.9-5.5-9.2-9.6-15.5-12C73.8,514.9,69.9,514.2,65.9,514.2L65.9,514.2z"/>
						</g>
					</g>
				</g>
				<g>
					<path fill="#8E3925" d="M101.1,576.1c0.2-0.1,0.4-0.1,0.5-0.3L101.1,576.1z"/>
				</g>
			</g>
			<defs>
				<filter id="Adobe_OpacityMaskFilter_1_" filterUnits="userSpaceOnUse" x="15.9" y="505.3" width="98.6" height="88.2">
					<feFlood  style="flood-color:white;flood-opacity:1" result="back"/>
					<feBlend  in="SourceGraphic" in2="back" mode="normal"/>
				</filter>
			</defs>
			<mask maskUnits="userSpaceOnUse" x="15.9" y="505.3" width="98.6" height="88.2" id="SVGID_4_">
				<g filter="url(#Adobe_OpacityMaskFilter_1_)">
					<g>
						<path fill="#231F20" d="M103.3,585.2c-0.7,0-1.4-0.3-2-0.8l-75.6-66.3c-1.3-1.1-1.4-3.1-0.3-4.3s3.1-1.4,4.3-0.3l75.6,66.3
							c1.3,1.1,1.4,3.1,0.3,4.3C105,584.8,104.1,585.2,103.3,585.2z"/>
					</g>
				</g>
			</mask>
			<g mask="url(#SVGID_4_)">
				<path fill="#9286C4" d="M106.3,593.5c-3.4,0-7.4-1.7-10.9-4.7l-73.3-63.3c-6.2-5.3-8-12.6-4.3-17c1.6-1.8,3.8-2.9,6.3-3.1
					c3.2-0.2,6.6,1,9.3,3.4l5.2,4.5l-6.3,7.2l65.8,56.8l6-6.7l5.4,4.8c5.2,4.6,6.5,11.2,3.1,15.4c-1.3,1.6-3.2,2.6-5.5,2.8
					C106.9,593.5,106.6,593.5,106.3,593.5z"/>
			</g>
		</g>
		<g id="XMLID_50_">
			<polygon id="XMLID_55_" fill="#FFFFFF" points="118.4,138.1 117.4,135.5 114.7,134.8 117.3,133.8 118,131.1 119,133.7 
				121.7,134.4 119.1,135.4 			"/>
			<circle id="XMLID_54_" opacity="0.18" fill="#6A37A1" cx="116.5" cy="137.2" r="14.5"/>
			<circle id="XMLID_53_" opacity="0.18" fill="#6A37A1" cx="116.5" cy="137.2" r="12.7"/>
			<circle id="XMLID_52_" fill="#6A37A1" cx="116.5" cy="137.2" r="10.3"/>
			<path id="XMLID_51_" fill="#5B2D8C" d="M120.6,143.4c-5.7,0-10.3-4.6-10.3-10.3c0-1.8,0.5-3.5,1.3-5c-3.2,1.8-5.4,5.2-5.4,9.1
				c0,5.7,4.6,10.3,10.3,10.3c3.9,0,7.3-2.2,9.1-5.4C124.1,142.9,122.4,143.4,120.6,143.4z"/>
		</g>
		<g id="XMLID_20_">
			<path id="XMLID_49_" fill="#CF6F60" d="M258.5,154.7c0-0.4,0-0.8-0.1-1.2l-0.3-3.2l-3.1,0.5c-0.4,0.1-0.8,0.1-1.2,0.2
				c-4.5,0.9-8.9,2.6-12.9,5l16,12.4C258.2,163.9,258.7,159.3,258.5,154.7z"/>
			<polygon id="XMLID_48_" fill="#CF6F60" points="218.4,183.1 210.4,184.9 203.9,193.2 216.5,194 			"/>
			<polygon id="XMLID_47_" fill="#CF6F60" points="236.3,196.9 236.6,205.2 230.1,213.5 226.2,201.5 			"/>
			<path id="XMLID_46_" fill="#CF6F60" d="M241.4,158.9c-9.4,6.4-17.5,16.2-22.3,27.2l-4.3,9.9l5,3.9l5,3.9l8.5-6.6
				c9.4-7.3,16.9-17.7,20.8-28.3L241.4,158.9z"/>
			<path id="XMLID_45_" fill="#E9F8FF" d="M240.9,156c-10.1,5.8-18.3,15.6-22.5,27l-3.8,10.3l6.3,4.9l6.3,4.9l9.1-6.2
				c10-6.9,17.4-17.3,20.6-28.5L240.9,156z"/>
			
				<rect id="XMLID_44_" x="221.6" y="187.5" transform="matrix(0.7909 0.612 -0.612 0.7909 166.6972 -95.0672)" fill="#CF6F60" width="1.6" height="17.7"/>
			<g id="XMLID_29_">
				<circle id="XMLID_43_" fill="#CF6F60" cx="241.7" cy="171.5" r="8.3"/>
				<path id="XMLID_42_" fill="#1DAAEB" d="M240.5,165.5c-1.4,0.3-2.8,1-3.8,2.3c-2.1,2.7-1.6,6.6,1.1,8.7c1.9,1.5,4.4,1.7,6.5,0.7
					c-1.2-1.4-2.2-3-3-4.8C240.5,170.3,240.2,167.8,240.5,165.5z"/>
				<path id="XMLID_41_" fill="#1DCCEB" d="M245.4,166.7c-1.4-1.1-3.2-1.5-4.9-1.2c-0.3,2.3,0,4.8,0.8,6.8c0.8,1.8,1.8,3.4,3,4.8
					c0.8-0.4,1.6-1,2.2-1.8C248.6,172.6,248.1,168.8,245.4,166.7z"/>
			</g>
		</g>
	</g>
</g>
<g>
	<defs>
		<rect id="SVGID_5_" x="-1" y="-1" width="375" height="575"/>
	</defs>
	<clipPath id="SVGID_6_">
		<use xlink:href="#SVGID_5_"  overflow="visible"/>
	</clipPath>
	<g clip-path="url(#SVGID_6_)">
		<g>
			<g>
				<g>
					<path fill="#CFDDE3" d="M258.7,469.5c22.6-1.3,39.5-20.3,47.1-40.3c8.1-21.1,0.8-43.9-8.9-63.1c-9.3-18.3-22.7-36.1-23.2-57.4
						c-0.6-21.6,15-36.8,34-44.2c5.4-2.1,11.2-3.8,17-4.3c5.8-0.4,5.8-9.4,0-9c-17,1.3-34.4,9.6-46.3,21.7
						c-15.1,15.4-16.5,37.7-9.7,57.3c7,20.2,20.8,37.1,27.7,57.4c3.5,10.5,5.2,22,2.6,32.9c-2.6,11.1-9,21.2-17.1,29
						c-6.3,6-14.4,10.4-23.2,10.9C252.9,460.8,252.9,469.8,258.7,469.5L258.7,469.5z"/>
				</g>
			</g>
			<g id="XMLID_146_">
				<path id="XMLID_198_" fill="#91B7C9" d="M264.1,519.6l-27.9,15.9c-12.4,7.1-28.2,2.8-35.3-9.7l-24-42.2
					c-7.9-13.8-3-31.5,10.8-39.4l22.8-13c13.8-7.9,31.5-3,39.4,10.8l24,42.2C280.9,496.7,276.6,512.5,264.1,519.6z"/>
				<g id="XMLID_147_">
					<g id="XMLID_194_">
						<path id="XMLID_196_" fill="#DFE8E6" d="M186.7,556.9l42,5.6l2.2-16.7l-25.3-3.4C196.4,541.2,187.9,547.7,186.7,556.9
							L186.7,556.9z"/>
						
							<rect id="XMLID_195_" x="185.8" y="559.6" transform="matrix(0.9911 0.1328 -0.1328 0.9911 76.8198 -22.4836)" fill="#6E98AD" width="42.4" height="10.4"/>
					</g>
					<g id="XMLID_188_">
						<path id="XMLID_192_" fill="#DFE8E6" d="M211.4,498.1l-5.9,44.3l25.5,3.4l3.1-23.3c0.7-5.4,4.2-9.6,8.8-11.6
							c-2.4-3.2-4.9-6.5-7.6-9.6L211.4,498.1z"/>
						<path id="XMLID_191_" fill="#FFFFFF" d="M245.1,478.8l-9.5,22.5l-0.4,0c2.7,3.2,5.1,6.4,7.6,9.6c3.6-1.6,7.8-1.8,11.8-0.1
							l21.6,9.2l10-23.7L245.1,478.8z"/>
						<path id="XMLID_190_" fill="#FFFFFF" d="M308.3,487.5l-16.5,39l-15.5-6.6l10-23.5C289.8,487.9,299.7,483.9,308.3,487.5
							L308.3,487.5z"/>
						<polygon id="XMLID_189_" fill="#ADCEDE" points="301.3,530.6 317.8,491.6 308.3,487.5 291.7,526.5 						"/>
					</g>
					<g id="XMLID_162_">
						<g id="XMLID_186_">
							<path id="XMLID_187_" fill="#FFFFFF" d="M257.3,452.3L231.5,467c-5,2.9-11.4,1.1-14.3-3.9c-2.9-5-1.1-11.4,3.9-14.3
								l25.8-14.7c2-1.1,2.7-3.7,1.6-5.7l-13-22.7c-2.9-5-1.1-11.4,3.9-14.3c5-2.9,11.4-1.1,14.3,3.9l12.9,22.7
								C273.5,430.1,269.3,445.4,257.3,452.3z"/>
						</g>
						<g id="XMLID_182_">
							<g>
								<path id="XMLID_25_" fill="#DFE8E6" d="M180.6,496l25.8-14.7c5-2.9,6.8-9.3,3.9-14.3c-2.9-5-9.2-6.8-14.3-3.9l-25.8,14.7
									c-2,1.1-4.6,0.4-5.7-1.6l-13-22.7c-2.9-5-9.2-6.8-14.3-3.9s-6.8,9.3-3.9,14.3l12.9,22.7C153.2,498.7,168.6,502.9,180.6,496z
									"/>
							</g>
						</g>
						<polygon id="XMLID_181_" fill="#FFFFFF" points="216.6,412 215.4,408.1 211.5,407 215.4,405.8 216.6,401.9 217.7,405.8 
							221.6,407 217.7,408.1 						"/>
						<path id="XMLID_178_" fill="#FFFFFF" d="M264.6,486.9l-56.7,32.3l-19.3-33.9c-5.1-9-2-20.5,7-25.6l24.1-13.7
							c9-5.1,20.5-2,25.6,7L264.6,486.9z"/>
						<path id="XMLID_176_" fill="#DFE8E6" d="M223.1,519.2l-24.3-41.5c-3.8-6.7-3-14.8,1.3-20.6l-4.5,2.6c-9,5.1-12.1,16.6-7,25.6
							l19.3,33.9H223.1z"/>
						<path id="XMLID_175_" fill="#ADCEDE" d="M227.4,451.7L198,468.5c-3.8,2.2-8.7,0.8-10.8-3l0,0c-2.2-3.8-0.8-8.7,3-10.8
							l29.4-16.8c3.8-2.2,8.7-0.8,10.8,3l0,0C232.5,444.7,231.2,449.6,227.4,451.7z"/>
						<path id="XMLID_173_" fill="#FFFFFF" d="M226.5,409.8c9.3,16.2,2.3,37.7-15.6,47.9c-17.9,10.2-39.9,5.3-49.1-10.9
							c-9.3-16.2-2.3-37.7,15.6-47.9C195.3,388.7,217.3,393.6,226.5,409.8z"/>
						<path id="XMLID_171_" fill="#DFE8E6" d="M230.5,422.2c-1.1,11.4-8.1,22.6-19.5,29.1c-17.9,10.2-39.9,5.3-49.1-10.9
							c-2.2-3.9-3.5-8.1-3.9-12.3c-0.6,6.4,0.6,12.9,3.9,18.8c9.3,16.2,31.3,21.1,49.1,10.9C224.5,450,231.8,435.7,230.5,422.2z"/>
						<path id="XMLID_169_" fill="#1990C7" d="M213.8,410.7l5.5,9.7c4.2,7.3,1.6,16.8-5.7,20.9l-18.2,10.4
							c-7.3,4.2-16.7,1.6-20.9-5.7l-5.5-9.7c-4.2-7.3-1.6-16.8,5.7-20.9l18.2-10.4C200.3,400.8,209.7,403.3,213.8,410.7z"/>
						<path id="XMLID_168_" fill="#19ADC7" d="M213.8,410.7l3,5.3c-5.6,5.5-12.7,10.9-20.9,15.5c-8.2,4.7-16.4,8.1-24,10.1l-3-5.3
							c-4.2-7.3-1.6-16.8,5.7-20.9l18.2-10.4C200.3,400.8,209.7,403.3,213.8,410.7z"/>
						<path id="XMLID_166_" fill="#6E98AD" d="M168.3,458.1L168.3,458.1c-2.4,1.4-5.6,0.5-7-1.9l-6.2-10.9c-1.4-2.4-0.5-5.6,1.9-7
							l0,0c2.4-1.4,5.6-0.5,7,1.9l6.2,10.9C171.6,453.6,170.7,456.7,168.3,458.1z"/>
						<path id="XMLID_164_" fill="#ADCEDE" d="M233,421.2L233,421.2c-2.4,1.4-5.6,0.5-7-1.9l-6.2-10.9c-1.4-2.4-0.5-5.6,1.9-7l0,0
							c2.4-1.4,5.6-0.5,7,1.9l6.2,10.9C236.3,416.7,235.4,419.8,233,421.2z"/>
						
							<rect id="XMLID_163_" x="182" y="458.9" transform="matrix(-0.8686 0.4954 -0.4954 -0.8686 568.9437 766.9203)" fill="#ADCEDE" width="1.7" height="0"/>
					</g>
					<polygon id="XMLID_161_" fill="#ADCEDE" points="246,478.3 211.5,498 200.7,478.9 235.2,459.3 					"/>
					<circle id="XMLID_160_" fill="#FFFFFF" cx="237" cy="476.1" r="3.4"/>
					<circle id="XMLID_159_" fill="#FFFFFF" cx="232.4" cy="468.1" r="1.4"/>
					<polygon id="XMLID_158_" fill="#FFFFFF" points="223.1,473.4 209,481.5 208.1,479.9 222.2,471.8 					"/>
					
						<rect id="XMLID_157_" x="210.2" y="480.6" transform="matrix(0.8685 -0.4956 0.4956 0.8685 -209.9337 171.5243)" fill="#FFFFFF" width="16.3" height="1.8"/>
					
						<rect id="XMLID_156_" x="212.9" y="485.4" transform="matrix(0.8685 -0.4956 0.4956 0.8685 -211.956 173.5082)" fill="#FFFFFF" width="16.3" height="1.8"/>
					<path id="XMLID_154_" fill="#6E98AD" d="M157.8,468.9l-14.9,8.5c-1.7,1-3.8,0.4-4.8-1.3l-0.6-1.1c-1-1.7-0.4-3.8,1.3-4.8
						l14.9-8.5c1.7-1,3.8-0.4,4.8,1.3l0.6,1.1C160.1,465.8,159.5,467.9,157.8,468.9z"/>
					<path id="XMLID_152_" fill="#ADCEDE" d="M260.9,410l-14.9,8.5c-1.7,1-3.8,0.4-4.8-1.3l-0.6-1.1c-1-1.7-0.4-3.8,1.3-4.8
						l14.9-8.5c1.7-1,3.8-0.4,4.8,1.3l0.6,1.1C263.2,406.9,262.6,409.1,260.9,410z"/>
					<path id="XMLID_150_" fill="#6E98AD" d="M234.8,524.1l-28.1-1.3c-1.7-0.1-2.9-1.5-2.9-3.1l0,0c0.1-1.7,1.5-2.9,3.1-2.9
						l28.1,1.3c1.7,0.1,2.9,1.5,2.9,3.1l0,0C237.9,522.9,236.5,524.2,234.8,524.1z"/>
					<path id="XMLID_148_" fill="#ADCEDE" d="M257,511.5l13.2-24.9c0.8-1.5,0.2-3.3-1.3-4.1l0,0c-1.5-0.8-3.3-0.2-4.1,1.2
						l-13.2,24.9c-0.8,1.5-0.2,3.3,1.2,4.1l0,0C254.4,513.5,256.2,512.9,257,511.5z"/>
				</g>
			</g>
		</g>
		<g>
			<path fill="#3D4D5C" d="M447.6,273.8H321.8c-1.4,0-2.9-0.7-3-2.8v-1.9l13.8-25.4c0.7-1.5,2.3-2.4,3.9-2.4h96.3
				c1.8,0,5.8,3.5,6.6,5.1l11.4,23.2v0.8C450.7,272.9,449.2,273.8,447.6,273.8z"/>
			<path fill="#B7CDD8" d="M447.6,271.2H321.8c-1.4,0-3.7-1.2-2.8-2.7l13.6-27.4c0.7-1.5,2.3-2.4,3.9-2.4h96.3c1.8,0,3.4,1,4.2,2.6
				l13.4,26.9C451.4,269.9,449.2,271.2,447.6,271.2z"/>
			<rect x="332.6" y="170.9" fill="#3D4D5C" width="103" height="65.1"/>
			<rect x="336.5" y="174.4" fill="#231F20" width="95.1" height="56.4"/>
			<path fill="#52677A" d="M403,270h-37.1c-0.4,0-0.7-0.4-0.7-0.8l1.6-9.8c0.1-0.5,0.5-0.9,1.1-0.9h33.4c0.5,0,0.9,0.3,0.9,0.8
				l1.4,9.8C403.8,269.6,403.4,270,403,270z"/>
			<path fill="#52677A" d="M342.1,244.5h-4c-0.6,0-0.9-0.2-0.9-0.4l0.2-0.6c0.1-0.2,0.6-0.4,1.2-0.4h4c0.6,0,0.9,0.2,0.9,0.4
				l-0.2,0.6C343.2,244.3,342.7,244.5,342.1,244.5z"/>
			<path fill="#52677A" d="M348.9,244.5h-4c-0.6,0-1-0.2-0.9-0.4l0.2-0.6c0.1-0.2,0.6-0.4,1.1-0.4h4c0.6,0,1,0.2,0.9,0.4l-0.2,0.6
				C349.9,244.3,349.4,244.5,348.9,244.5z"/>
			<path fill="#52677A" d="M355.7,244.5h-4c-0.6,0-1-0.2-0.9-0.4l0.2-0.6c0.1-0.2,0.6-0.4,1.1-0.4h4c0.6,0,1,0.2,0.9,0.4l-0.1,0.6
				C356.7,244.3,356.2,244.5,355.7,244.5z"/>
			<path fill="#52677A" d="M362.5,244.5h-4c-0.6,0-1-0.2-0.9-0.4l0.1-0.6c0-0.2,0.5-0.4,1.1-0.4h4c0.6,0,1,0.2,0.9,0.4l-0.1,0.6
				C363.5,244.3,363,244.5,362.5,244.5z"/>
			<path fill="#52677A" d="M369.2,244.5h-4c-0.6,0-1-0.2-1-0.4l0.1-0.6c0-0.2,0.5-0.4,1.1-0.4h4c0.6,0,1,0.2,1,0.4l-0.1,0.6
				C370.3,244.3,369.8,244.5,369.2,244.5z"/>
			<path fill="#52677A" d="M376,244.5h-4c-0.6,0-1-0.2-1-0.4l0.1-0.6c0-0.2,0.5-0.4,1-0.4h4c0.6,0,1,0.2,1,0.4l0,0.6
				C377,244.3,376.6,244.5,376,244.5z"/>
			<path fill="#52677A" d="M382.8,244.5h-4c-0.6,0-1-0.2-1-0.4l0-0.6c0-0.2,0.5-0.4,1-0.4h4c0.6,0,1,0.2,1,0.4v0.6
				C383.8,244.3,383.4,244.5,382.8,244.5z"/>
			<path fill="#52677A" d="M389.6,244.5h-4c-0.6,0-1-0.2-1-0.4l0-0.6c0-0.2,0.4-0.4,1-0.4h4c0.6,0,1,0.2,1,0.4l0,0.6
				C390.6,244.3,390.1,244.5,389.6,244.5z"/>
			<path fill="#52677A" d="M396.4,244.5h-4c-0.6,0-1-0.2-1-0.4l0-0.6c0-0.2,0.4-0.4,1-0.4h4c0.6,0,1,0.2,1,0.4l0.1,0.6
				C397.4,244.3,396.9,244.5,396.4,244.5z"/>
			<path fill="#52677A" d="M403.2,244.5h-4c-0.6,0-1-0.2-1.1-0.4l-0.1-0.6c0-0.2,0.4-0.4,1-0.4h4c0.6,0,1,0.2,1.1,0.4l0.1,0.6
				C404.1,244.3,403.7,244.5,403.2,244.5z"/>
			<path fill="#52677A" d="M409.9,244.5h-4c-0.6,0-1-0.2-1.1-0.4l-0.1-0.6c0-0.2,0.4-0.4,0.9-0.4h4c0.6,0,1,0.2,1.1,0.4l0.1,0.6
				C410.9,244.3,410.5,244.5,409.9,244.5z"/>
			<path fill="#52677A" d="M416.7,244.5h-4c-0.6,0-1.1-0.2-1.1-0.4l-0.1-0.6c0-0.2,0.4-0.4,0.9-0.4h4c0.6,0,1.1,0.2,1.1,0.4l0.2,0.6
				C417.7,244.3,417.3,244.5,416.7,244.5z"/>
			<path fill="#52677A" d="M423.5,244.5h-4c-0.6,0-1.1-0.2-1.1-0.4l-0.2-0.6c-0.1-0.2,0.3-0.4,0.9-0.4h4c0.6,0,1.1,0.2,1.1,0.4
				l0.2,0.6C424.5,244.3,424.1,244.5,423.5,244.5z"/>
			<path fill="#52677A" d="M430.3,244.5h-4c-0.6,0-1.1-0.2-1.1-0.4l-0.2-0.6c-0.1-0.2,0.3-0.4,0.9-0.4h4c0.6,0,1.1,0.2,1.2,0.4
				l0.2,0.6C431.2,244.3,430.8,244.5,430.3,244.5z"/>
			<path fill="#52677A" d="M341.7,246.8h-5.1c-0.1,0-0.2,0-0.2-0.1l0.8-1.9c0,0,0.1-0.1,0.3-0.1h5c0.1,0,0.2,0,0.2,0.1l-0.7,1.9
				C342,246.7,341.9,246.8,341.7,246.8z"/>
			<path fill="#52677A" d="M351.2,249.2H346c-0.1,0-0.2,0-0.2-0.1l0.6-2c0,0,0.1-0.1,0.3-0.1h5.1c0.1,0,0.2,0,0.2,0.1l-0.5,2
				C351.5,249.2,351.3,249.2,351.2,249.2z"/>
			<path fill="#52677A" d="M352.1,251.8h-5.4c-0.1,0-0.2,0-0.2-0.1l0.6-2c0-0.1,0.1-0.1,0.3-0.1h5.3c0.1,0,0.2,0,0.2,0.1l-0.5,2
				C352.3,251.8,352.2,251.8,352.1,251.8z"/>
			<path fill="#52677A" d="M355.1,254.5h-5.5c-0.1,0-0.2,0-0.2-0.1l0.6-2.1c0-0.1,0.1-0.1,0.3-0.1h5.4c0.1,0,0.2,0,0.2,0.1l-0.5,2.1
				C355.3,254.4,355.2,254.5,355.1,254.5z"/>
			<path fill="#52677A" d="M337.8,257.6h-5.6c-0.2,0-0.2-0.1-0.2-0.1l1-2.5c0-0.1,0.2-0.1,0.3-0.1h5.5c0.1,0,0.2,0,0.2,0.1l-0.9,2.5
				C338.1,257.5,338,257.6,337.8,257.6z"/>
			<path fill="#52677A" d="M345.3,257.6h-5.6c-0.1,0-0.2-0.1-0.2-0.1l0.9-2.5c0-0.1,0.2-0.1,0.3-0.1h5.5c0.1,0,0.2,0,0.2,0.1
				l-0.8,2.5C345.5,257.5,345.4,257.6,345.3,257.6z"/>
			<path fill="#52677A" d="M352.5,257.6h-5.6c-0.1,0-0.3-0.1-0.2-0.1l0.7-2.5c0-0.1,0.1-0.1,0.3-0.1h5.5c0.1,0,0.3,0,0.2,0.1
				l-0.6,2.5C352.8,257.5,352.6,257.6,352.5,257.6z"/>
			<path fill="#52677A" d="M361.6,257.6h-7.4c-0.2,0-0.3-0.1-0.3-0.1l0.6-2.5c0-0.1,0.2-0.1,0.3-0.1h7.2c0.2,0,0.3,0.1,0.3,0.1
				l-0.4,2.5C361.9,257.5,361.8,257.6,361.6,257.6z"/>
			<path fill="#52677A" d="M406.8,257.6h-7.4c-0.2,0-0.3-0.1-0.3-0.1l-0.3-2.5c0-0.1,0.1-0.1,0.3-0.1h7.2c0.2,0,0.3,0.1,0.3,0.1
				l0.5,2.5C407.1,257.5,407,257.6,406.8,257.6z"/>
			<path fill="#52677A" d="M414.3,257.6h-5.5c-0.1,0-0.3-0.1-0.3-0.1L408,255c0-0.1,0.1-0.1,0.2-0.1h5.4c0.1,0,0.3,0,0.3,0.1
				l0.6,2.5C414.5,257.5,414.4,257.6,414.3,257.6z"/>
			<path fill="#52677A" d="M397.6,257.6h-33.9c-0.4,0-0.6-0.1-0.6-0.3l0.4-2.2c0-0.1,0.3-0.3,0.7-0.3h33.2c0.3,0,0.6,0.1,0.7,0.3
				l0.2,2.2C398.3,257.5,398,257.6,397.6,257.6z"/>
			<path fill="#52677A" d="M362.2,254.5h-5.5c-0.1,0-0.2,0-0.2-0.1l0.5-2.1c0-0.1,0.1-0.1,0.3-0.1h5.4c0.1,0,0.2,0,0.2,0.1l-0.4,2.1
				C362.4,254.4,362.3,254.5,362.2,254.5z"/>
			<path fill="#52677A" d="M369.3,254.5h-5.5c-0.1,0-0.2,0-0.2-0.1l0.3-2.1c0-0.1,0.1-0.1,0.3-0.1h5.4c0.1,0,0.2,0,0.2,0.1l-0.2,2.1
				C369.5,254.4,369.4,254.5,369.3,254.5z"/>
			<path fill="#52677A" d="M376.4,254.5h-5.5c-0.1,0-0.2,0-0.2-0.1l0.2-2.1c0-0.1,0.1-0.1,0.3-0.1h5.4c0.1,0,0.2,0,0.2,0.1l-0.1,2.1
				C376.6,254.4,376.5,254.5,376.4,254.5z"/>
			<path fill="#52677A" d="M383.5,254.5H378c-0.1,0-0.2,0-0.2-0.1l0.1-2.1c0-0.1,0.1-0.1,0.2-0.1h5.4c0.1,0,0.2,0,0.2,0.1l0,2.1
				C383.7,254.4,383.6,254.5,383.5,254.5z"/>
			<path fill="#52677A" d="M390.6,254.5h-5.5c-0.1,0-0.2,0-0.2-0.1l0-2.1c0-0.1,0.1-0.1,0.2-0.1h5.4c0.1,0,0.2,0,0.2,0.1l0.1,2.1
				C390.8,254.4,390.7,254.5,390.6,254.5z"/>
			<path fill="#52677A" d="M397.7,254.5h-5.5c-0.1,0-0.3,0-0.3-0.1l-0.1-2.1c0-0.1,0.1-0.1,0.2-0.1h5.4c0.1,0,0.2,0,0.3,0.1l0.2,2.1
				C397.9,254.4,397.8,254.5,397.7,254.5z"/>
			<path fill="#52677A" d="M404.8,254.5h-5.5c-0.1,0-0.3,0-0.3-0.1l-0.3-2.1c0-0.1,0.1-0.1,0.2-0.1h5.4c0.1,0,0.2,0,0.3,0.1l0.4,2.1
				C405,254.4,404.9,254.5,404.8,254.5z"/>
			<path fill="#52677A" d="M411.9,254.5h-5.5c-0.1,0-0.3,0-0.3-0.1l-0.4-2.1c0-0.1,0.1-0.1,0.2-0.1h5.4c0.1,0,0.2,0,0.3,0.1l0.5,2.1
				C412.1,254.4,412,254.5,411.9,254.5z"/>
			<path fill="#52677A" d="M420.9,257.6h-4.3c-0.5,0-1-0.2-1.1-0.4l-0.2-0.6c-0.1-0.2,0.3-0.4,0.9-0.4h4.2c0.5,0,1,0.2,1.1,0.4
				l0.2,0.6C421.8,257.5,421.4,257.6,420.9,257.6z"/>
			<path fill="#52677A" d="M428.2,257.6h-4.3c-0.5,0-1-0.2-1.1-0.4l-0.2-0.6c-0.1-0.2,0.3-0.4,0.9-0.4h4.2c0.5,0,1,0.2,1.1,0.4
				l0.2,0.6C429.1,257.5,428.7,257.6,428.2,257.6z"/>
			<path fill="#52677A" d="M427.6,256h-4.2c-0.5,0-1-0.2-1.1-0.4l-0.2-0.6c-0.1-0.2,0.3-0.4,0.8-0.4h4.2c0.5,0,1,0.2,1.1,0.4
				l0.2,0.6C428.5,255.9,428.2,256,427.6,256z"/>
			<path fill="#52677A" d="M435.5,257.6h-4.3c-0.5,0-1-0.2-1.1-0.4l-0.2-0.6c-0.1-0.2,0.3-0.4,0.8-0.4h4.2c0.5,0,1,0.2,1.1,0.4
				l0.3,0.6C436.4,257.5,436,257.6,435.5,257.6z"/>
			<path fill="#52677A" d="M359.1,251.8h-5.4c-0.1,0-0.2,0-0.2-0.1l0.5-2c0-0.1,0.1-0.1,0.3-0.1h5.3c0.1,0,0.2,0,0.2,0.1l-0.4,2
				C359.3,251.8,359.2,251.8,359.1,251.8z"/>
			<path fill="#52677A" d="M366.1,251.8h-5.4c-0.1,0-0.2,0-0.2-0.1l0.4-2c0-0.1,0.1-0.1,0.3-0.1h5.3c0.1,0,0.2,0,0.2,0.1l-0.3,2
				C366.3,251.8,366.2,251.8,366.1,251.8z"/>
			<path fill="#52677A" d="M373.1,251.8h-5.4c-0.1,0-0.2,0-0.2-0.1l0.3-2c0-0.1,0.1-0.1,0.2-0.1h5.3c0.1,0,0.2,0,0.2,0.1l-0.2,2
				C373.4,251.8,373.2,251.8,373.1,251.8z"/>
			<path fill="#52677A" d="M380.1,251.8h-5.4c-0.1,0-0.2,0-0.2-0.1l0.2-2c0-0.1,0.1-0.1,0.2-0.1h5.3c0.1,0,0.2,0,0.2,0.1l-0.1,2
				C380.3,251.8,380.2,251.8,380.1,251.8z"/>
			<path fill="#52677A" d="M387.1,251.8h-5.4c-0.1,0-0.2,0-0.2-0.1l0-2c0-0.1,0.1-0.1,0.2-0.1h5.3c0.1,0,0.2,0,0.2,0.1l0.1,2
				C387.3,251.8,387.2,251.8,387.1,251.8z"/>
			<path fill="#52677A" d="M393.8,251.8h-5.4c-0.1,0-0.2,0-0.2-0.1l-0.1-2c0-0.1,0.1-0.1,0.2-0.1h5.3c0.1,0,0.2,0,0.2,0.1l0.2,2
				C394,251.8,393.9,251.8,393.8,251.8z"/>
			<path fill="#52677A" d="M400.8,251.8h-5.4c-0.1,0-0.2,0-0.2-0.1l-0.2-2c0-0.1,0.1-0.1,0.2-0.1h5.3c0.1,0,0.2,0,0.2,0.1l0.3,2
				C401,251.8,400.9,251.8,400.8,251.8z"/>
			<path fill="#52677A" d="M407.7,251.8h-5.4c-0.1,0-0.2,0-0.3-0.1l-0.3-2c0-0.1,0.1-0.1,0.2-0.1h5.3c0.1,0,0.2,0,0.3,0.1l0.4,2
				C407.9,251.8,407.8,251.8,407.7,251.8z"/>
			<path fill="#52677A" d="M414.6,251.8h-5.4c-0.1,0-0.2,0-0.3-0.1l-0.4-2c0-0.1,0.1-0.1,0.2-0.1h5.3c0.1,0,0.2,0,0.3,0.1l0.5,2
				C414.9,251.8,414.8,251.8,414.6,251.8z"/>
			<path fill="#52677A" d="M421.5,251.8h-5.4c-0.1,0-0.3,0-0.3-0.1l-0.5-2c0-0.1,0.1-0.1,0.2-0.1h5.3c0.1,0,0.2,0,0.3,0.1l0.6,2
				C421.8,251.8,421.7,251.8,421.5,251.8z"/>
			<path fill="#52677A" d="M418.9,254.5h-5.5c-0.1,0-0.3,0-0.3-0.1l-0.5-2.1c0-0.1,0.1-0.1,0.2-0.1h5.4c0.1,0,0.3,0,0.3,0.1l0.6,2.1
				C419.2,254.4,419.1,254.5,418.9,254.5z"/>
			<path fill="#52677A" d="M433.8,251.8h-10.3c-0.2,0-0.3-0.1-0.4-0.1l-0.6-2c0-0.1,0.1-0.1,0.3-0.1h10.1c0.2,0,0.3,0.1,0.4,0.1
				l0.8,2C434.1,251.7,434,251.8,433.8,251.8z"/>
			<path fill="#52677A" d="M434.8,254.5h-14.2c-0.2,0-0.4-0.1-0.4-0.2l-0.6-2c0-0.1,0.1-0.1,0.3-0.1h13.9c0.2,0,0.4,0.1,0.4,0.1
				l0.8,2C435.2,254.4,435,254.5,434.8,254.5z"/>
			<path fill="#52677A" d="M345.1,251.8h-10.4c-0.2,0-0.3-0.1-0.3-0.1l0.8-2c0-0.1,0.2-0.1,0.4-0.1h10.3c0.2,0,0.3,0.1,0.3,0.1
				l-0.6,2C345.5,251.7,345.3,251.8,345.1,251.8z"/>
			<path fill="#52677A" d="M347.9,254.5h-14.4c-0.2,0-0.4-0.1-0.3-0.2l0.8-2c0-0.1,0.2-0.2,0.4-0.2h14.1c0.2,0,0.4,0.1,0.3,0.2
				l-0.6,2C348.3,254.4,348.1,254.5,347.9,254.5z"/>
			<path fill="#52677A" d="M358,249.2h-5.2c-0.1,0-0.2,0-0.2-0.1l0.5-2c0,0,0.1-0.1,0.3-0.1h5.1c0.1,0,0.2,0,0.2,0.1l-0.4,2
				C358.3,249.2,358.2,249.2,358,249.2z"/>
			<path fill="#52677A" d="M364.8,249.2h-5.2c-0.1,0-0.2,0-0.2-0.1l0.4-2c0,0,0.1-0.1,0.3-0.1h5.1c0.1,0,0.2,0,0.2,0.1l-0.3,2
				C365.1,249.2,365,249.2,364.8,249.2z"/>
			<path fill="#52677A" d="M371.7,249.2h-5.2c-0.1,0-0.2,0-0.2-0.1l0.3-2c0,0,0.1-0.1,0.2-0.1h5.1c0.1,0,0.2,0,0.2,0.1l-0.2,2
				C371.9,249.2,371.8,249.2,371.7,249.2z"/>
			<path fill="#52677A" d="M378.5,249.2h-5.2c-0.1,0-0.2,0-0.2-0.1l0.2-2c0,0,0.1-0.1,0.2-0.1h5.1c0.1,0,0.2,0,0.2,0.1l-0.1,2
				C378.7,249.2,378.6,249.2,378.5,249.2z"/>
			<path fill="#52677A" d="M385.3,249.2H380c-0.1,0-0.2,0-0.2-0.1l0.1-2c0,0,0.1-0.1,0.2-0.1h5.1c0.1,0,0.2,0,0.2,0.1l0,2
				C385.5,249.2,385.4,249.2,385.3,249.2z"/>
			<path fill="#52677A" d="M391.9,249.2h-5.2c-0.1,0-0.2,0-0.2-0.1l0-2c0,0,0.1-0.1,0.2-0.1h5.1c0.1,0,0.2,0,0.2,0.1l0.1,2
				C392.2,249.2,392.1,249.2,391.9,249.2z"/>
			<path fill="#52677A" d="M398.8,249.2h-5.2c-0.1,0-0.2,0-0.2-0.1l-0.2-2c0,0,0.1-0.1,0.2-0.1h5.1c0.1,0,0.2,0,0.2,0.1l0.2,2
				C399,249.2,398.9,249.2,398.8,249.2z"/>
			<path fill="#52677A" d="M405.6,249.2h-5.2c-0.1,0-0.2,0-0.2-0.1l-0.3-2c0,0,0.1-0.1,0.2-0.1h5.1c0.1,0,0.2,0,0.2,0.1l0.4,2
				C405.8,249.2,405.8,249.2,405.6,249.2z"/>
			<path fill="#52677A" d="M412.3,249.2h-5.2c-0.1,0-0.2,0-0.3-0.1l-0.4-2c0,0,0.1-0.1,0.2-0.1h5.1c0.1,0,0.2,0,0.3,0.1l0.5,2
				C412.5,249.2,412.4,249.2,412.3,249.2z"/>
			<path fill="#52677A" d="M419.3,249.2H414c-0.1,0-0.2,0-0.3-0.1l-0.5-2c0,0,0.1-0.1,0.2-0.1h5.1c0.1,0,0.2,0,0.3,0.1l0.6,2
				C419.5,249.2,419.4,249.2,419.3,249.2z"/>
			<path fill="#52677A" d="M426,249.2h-5.2c-0.1,0-0.2,0-0.3-0.1l-0.6-2c0,0,0.1-0.1,0.2-0.1h5.1c0.1,0,0.2,0,0.3,0.1l0.7,2
				C426.2,249.2,426.1,249.2,426,249.2z"/>
			<path fill="#52677A" d="M432.8,249.2h-5.2c-0.1,0-0.2,0-0.3-0.1l-0.7-2c0,0,0.1-0.1,0.2-0.1h5.1c0.1,0,0.2,0,0.3,0.1l0.8,2
				C433,249.2,432.9,249.2,432.8,249.2z"/>
			<path fill="#52677A" d="M348.5,246.8h-5.1c-0.1,0-0.2,0-0.2-0.1l0.7-1.9c0,0,0.1-0.1,0.3-0.1h5c0.1,0,0.2,0,0.2,0.1l-0.6,1.9
				C348.8,246.7,348.6,246.8,348.5,246.8z"/>
			<path fill="#52677A" d="M355.1,246.8H350c-0.1,0-0.2,0-0.2-0.1l0.5-1.9c0,0,0.1-0.1,0.3-0.1h5c0.1,0,0.2,0,0.2,0.1l-0.5,1.9
				C355.3,246.7,355.2,246.8,355.1,246.8z"/>
			<path fill="#52677A" d="M361.9,246.8h-5.1c-0.1,0-0.2,0-0.2-0.1l0.4-1.9c0,0,0.1-0.1,0.2-0.1h5c0.1,0,0.2,0,0.2,0.1l-0.4,1.9
				C362.1,246.7,362,246.8,361.9,246.8z"/>
			<path fill="#52677A" d="M368.4,246.8h-5.1c-0.1,0-0.2,0-0.2-0.1l0.3-1.9c0,0,0.1-0.1,0.2-0.1h5c0.1,0,0.2,0,0.2,0.1l-0.2,1.9
				C368.7,246.7,368.6,246.8,368.4,246.8z"/>
			<path fill="#52677A" d="M375.2,246.8h-5.1c-0.1,0-0.2,0-0.2-0.1l0.2-1.9c0,0,0.1-0.1,0.2-0.1h5c0.1,0,0.2,0,0.2,0.1l-0.1,1.9
				C375.4,246.7,375.3,246.8,375.2,246.8z"/>
			<path fill="#52677A" d="M381.7,246.8h-5.1c-0.1,0-0.2,0-0.2-0.1l0.1-1.9c0,0,0.1-0.1,0.2-0.1h5c0.1,0,0.2,0,0.2,0.1l0,1.9
				C382,246.7,381.9,246.8,381.7,246.8z"/>
			<path fill="#52677A" d="M388.5,246.8h-5.1c-0.1,0-0.2,0-0.2-0.1l0-1.9c0,0,0.1-0.1,0.2-0.1h5c0.1,0,0.2,0,0.2,0.1l0.1,1.9
				C388.7,246.7,388.6,246.8,388.5,246.8z"/>
			<path fill="#52677A" d="M395.1,246.8H390c-0.1,0-0.2,0-0.2-0.1l-0.1-1.9c0,0,0.1-0.1,0.2-0.1h5c0.1,0,0.2,0,0.2,0.1l0.2,1.9
				C395.3,246.7,395.2,246.8,395.1,246.8z"/>
			<path fill="#52677A" d="M401.9,246.8h-5.1c-0.1,0-0.2,0-0.2-0.1l-0.2-1.9c0,0,0.1-0.1,0.2-0.1h5c0.1,0,0.2,0,0.2,0.1l0.3,1.9
				C402.1,246.7,402,246.8,401.9,246.8z"/>
			<path fill="#52677A" d="M408.6,246.8h-5.1c-0.1,0-0.2,0-0.2-0.1l-0.3-1.9c0,0,0.1-0.1,0.2-0.1h5c0.1,0,0.2,0,0.2,0.1l0.4,1.9
				C408.8,246.7,408.7,246.8,408.6,246.8z"/>
			<path fill="#52677A" d="M415.3,246.8h-5.1c-0.1,0-0.2,0-0.2-0.1l-0.4-1.9c0,0,0.1-0.1,0.2-0.1h5c0.1,0,0.2,0,0.2,0.1l0.5,1.9
				C415.5,246.7,415.4,246.8,415.3,246.8z"/>
			<path fill="#52677A" d="M421.7,246.8h-5.1c-0.1,0-0.2,0-0.3-0.1l-0.5-1.9c0,0,0.1-0.1,0.2-0.1h5c0.1,0,0.2,0,0.3,0.1l0.6,1.9
				C421.9,246.7,421.8,246.8,421.7,246.8z"/>
			<path fill="#52677A" d="M431.3,246.8h-7.7c-0.4,0-0.7-0.1-0.7-0.2l-0.5-1.6c0-0.1,0.2-0.2,0.6-0.2h7.5c0.3,0,0.7,0.1,0.7,0.2
				l0.6,1.6C431.9,246.7,431.7,246.8,431.3,246.8z"/>
			<path fill="#52677A" d="M343.9,249.2H336c-0.4,0-0.6-0.1-0.6-0.2l0.7-1.6c0.1-0.1,0.4-0.2,0.7-0.2h7.7c0.4,0,0.6,0.1,0.6,0.2
				l-0.5,1.6C344.6,249.1,344.2,249.2,343.9,249.2z"/>
			<rect x="339.5" y="236" fill="#52677A" width="15.3" height="2.7"/>
			<rect x="413.2" y="235.9" fill="#52677A" width="15.3" height="2.7"/>
		</g>
	</g>
</g>
</svg>
