<?xml version="1.0" encoding="UTF-8"?>
<svg width="749px" height="618px" viewBox="0 0 749 618" version="1.1" xmlns="http://www.w3.org/2000/svg" xmlns:xlink="http://www.w3.org/1999/xlink">
    <!-- Generator: Sketch 51.3 (57544) - http://www.bohemiancoding.com/sketch -->
    <title>MASK</title>
    <desc>Created with Sketch.</desc>
    <defs>
        <rect id="path-1" x="0.300219459" y="0" width="1366.99927" height="701"></rect>
        <path d="M206.95128,190.2 C205.04989,190.2 203.1485,189.5 201.647403,188.2 L3.70270666,14.8 C0.400292612,11.9 3.44169138e-15,6.8 3.00219459,3.5 C6.00438917,0.2 11.0080468,-0.2 14.3104609,2.8 L212.35523,176.3 C215.657644,179.2 216.057937,184.3 213.055743,187.6 C211.354499,189.3 209.15289,190.2 206.95128,190.2 Z" id="path-3"></path>
        <path d="M206.95128,190.2 C205.04989,190.2 203.1485,189.5 201.647403,188.2 L3.70270666,14.8 C0.400292612,11.9 3.44169138e-15,6.8 3.00219459,3.5 C6.00438917,0.2 11.0080468,-0.2 14.3104609,2.8 L212.35523,176.3 C215.657644,179.2 216.057937,184.3 213.055743,187.6 C211.354499,189.3 209.15289,190.2 206.95128,190.2 Z" id="path-5"></path>
        <rect id="path-7" x="0.300219459" y="0" width="1366.99927" height="701"></rect>
        <rect id="path-9" x="0.300219459" y="0" width="1366.99927" height="701"></rect>
        <rect id="path-11" x="0.300219459" y="0" width="1366.99927" height="701"></rect>
        <polygon id="path-13" points="0.300219459 0 1367.29949 0 1367.29949 701 495.518471 701 0.300219459 701"></polygon>
    </defs>
    <g id="Proposta-V01" stroke="none" stroke-width="1" fill="none" fill-rule="evenodd">
        <g id="Landing-Page-Desktop-2" transform="translate(-134.000000, -83.000000)">
            <g id="LANDING_BG" transform="translate(-4.000000, -17.000000)">
                <g id="MASK" transform="translate(0.000000, 17.000000)">
                    <g id="Group">
                        <g id="Clipped">
                            <mask id="mask-2" fill="white">
                                <use xlink:href="#path-1"></use>
                            </mask>
                            <g id="XMLID_1_"></g>
                            <g id="Group" mask="url(#mask-2)">
                                <g transform="translate(399.291880, 623.000000)">
                                    <g id="Clipped" transform="translate(1.000732, 19.000000)">
                                        <mask id="mask-4" fill="white">
                                            <use xlink:href="#path-3"></use>
                                        </mask>
                                        <g id="Shape"></g>
                                        <polygon id="Shape" fill="#9286C4" fill-rule="nonzero" mask="url(#mask-4)" points="191.139722 172.4 19.7144111 22.5 37.6275055 2.1 209.052816 151.9"></polygon>
                                    </g>
                                    <g id="Group">
                                        <g fill-rule="nonzero" id="Shape">
                                            <g>
                                                <path d="M182.633504,110.4 C182.633504,127.8 176.529042,143.7 166.32158,156.2 C161.518069,162 155.913972,167.1 149.50929,171.3 C147.207608,172.8 144.805852,174.1 142.404097,175.4 C137.000146,178.1 131.195903,180.1 125.091441,181.4 C120.28793,182.4 115.284272,182.9 110.280614,182.9 C81.4595465,182.9 56.6414045,166.1 44.9328456,141.8 C41.4302853,134.5 39.1286028,126.6 38.2279444,118.2 C38.2279444,118.1 38.2279444,117.9 38.2279444,117.8 C38.0277981,115.4 37.8276518,112.9 37.8276518,110.5 C37.8276518,107.5 38.0277981,104.6 38.3280176,101.7 C39.4288222,92.7 42.1307974,84.2 46.2337966,76.5 C47.5347476,74 49.0358449,71.6 50.6370154,69.3 C52.1381127,67.1 53.8393563,64.9 55.640673,62.9 C55.640673,62.9 55.640673,62.9 55.640673,62.9 C56.0409656,62.4 56.4412582,62 56.8415508,61.5 C62.6457937,55.1 69.6509144,49.8 77.4566203,45.9 C77.6567666,45.8 77.9569861,45.6 77.9569861,45.6 C87.6640819,40.8 98.6721287,38.1 110.180541,38.1 C119.087052,38.1 127.693343,39.7 135.599122,42.7 C163.019166,52.8 182.633504,79.3 182.633504,110.4 Z" fill="#F7941E"></path>
                                                <g opacity="0.4" fill="#7A5593">
                                                    <path d="M110.080468,37.9 C118.986979,37.9 127.59327,39.5 135.499049,42.5 C163.019166,52.8 182.633504,79.3 182.633504,110.4 C182.633504,127.8 176.529042,143.7 166.32158,156.2 C161.518069,162 155.913972,167.1 149.50929,171.3 C147.207608,172.8 144.805852,174.1 142.404097,175.4 C137.000146,178.1 131.195903,180.1 125.091441,181.4 C120.28793,182.4 115.284272,182.9 110.280614,182.9 C81.4595465,182.9 56.6414045,166.1 44.9328456,141.8 C41.4302853,134.5 39.1286028,126.6 38.2279444,118.2 C38.2279444,118.1 38.2279444,117.9 38.2279444,117.8 C38.0277981,115.4 37.8276518,112.9 37.8276518,110.5 C37.8276518,107.5 38.0277981,104.6 38.3280176,101.7 C39.4288222,92.7 42.1307974,84.2 46.2337966,76.5 C47.5347476,74 49.0358449,71.6 50.6370154,69.3 C52.1381127,67.1 53.8393563,64.9 55.640673,62.9 C55.640673,62.9 55.640673,62.9 55.640673,62.9 C56.0409656,62.4 56.4412582,62 56.8415508,61.5 C62.6457937,55.1 69.6509144,49.8 77.4566203,45.9 C77.6567666,45.8 77.9569861,45.6 77.9569861,45.6 C87.5640088,40.7 98.5720556,37.9 110.080468,37.9 Z M110.080468,0.9 C92.967959,0.9 76.555962,4.7 61.3448427,12.3 L61.0446233,12.5 L60.7444038,12.7 L60.6443307,12.7 C48.8356986,18.7 38.4280907,26.6 29.4215069,36.3 C29.0212143,36.7 28.6209217,37.1 28.3207023,37.6 C27.9204097,38.1 27.520117,38.5 27.1198244,39 C24.6179956,41.9 22.3163131,44.9 20.1147037,48 C17.7129481,51.5 15.4112655,55.2 13.4098025,58.9 C7.10519386,70.8 3.00219459,83.6 1.40102414,97.1 C0.900658376,101.4 0.600438917,105.9 0.600438917,110.3 C0.600438917,113.3 0.70051207,116.3 1.00073153,119.3 L1.00073153,120 L1.30095099,122.2 C2.60190198,134.6 6.00438917,146.5 11.4083394,157.7 C20.2147769,176 33.9247988,191.5 51.037308,202.5 C68.6501829,213.8 89.1651792,219.8 110.180541,219.8 C117.686028,219.8 125.191514,219 132.596928,217.5 C141.703584,215.6 150.610095,212.6 158.916167,208.4 C162.5188,206.6 166.121434,204.5 169.623994,202.3 C179.231017,196.1 187.837308,188.4 195.042575,179.6 C210.954206,160.1 219.760644,135.5 219.760644,110.4 C219.760644,87.7 212.855596,65.8 199.746013,47.3 C186.93665,29.2 169.323775,15.6 148.608632,7.8 C136.199561,3.2 123.290124,0.9 110.080468,0.9 Z"></path>
                                                </g>
                                                <g opacity="0.6" transform="translate(23.016825, 23.000000)" fill="#CC4B2E">
                                                    <path d="M87.063643,14.9 C95.9701536,14.9 104.576445,16.5 112.482224,19.5 C140.002341,29.8 159.616679,56.3 159.616679,87.4 C159.616679,104.8 153.512217,120.7 143.304755,133.2 C138.501244,139 132.897147,144.1 126.492465,148.3 C124.190783,149.8 121.789027,151.1 119.387271,152.4 C113.983321,155.1 108.179078,157.1 102.074616,158.4 C97.2711046,159.4 92.267447,159.9 87.2637893,159.9 C58.4427213,159.9 33.6245794,143.1 21.9160205,118.8 C18.4134601,111.5 16.1117776,103.6 15.2111192,95.2 C15.2111192,95.1 15.2111192,94.9 15.2111192,94.8 C15.0109729,92.4 14.8108266,89.9 14.8108266,87.5 C14.8108266,84.5 15.0109729,81.6 15.3111924,78.7 C16.4119971,69.7 19.1139722,61.2 23.2169715,53.5 C24.5179225,51 26.0190198,48.6 27.6201902,46.3 C29.1212875,44.1 30.8225311,41.9 32.6238478,39.9 C32.6238478,39.9 32.6238478,39.9 32.6238478,39.9 C33.0241405,39.4 33.4244331,39 33.8247257,38.5 C39.6289685,32.1 46.6340892,26.8 54.4397952,22.9 C54.6399415,22.8 54.9401609,22.6 54.9401609,22.6 C64.5471836,17.7 75.5552304,14.9 87.063643,14.9 Z M87.063643,0.4 C73.4536942,0.4 60.4441843,3.4 48.3353328,9.5 L48.2352597,9.6 L48.1351865,9.7 C48.1351865,9.7 47.9350402,9.8 47.8349671,9.8 C38.5281639,14.5 30.122019,20.8 23.1168983,28.6 C22.7166057,29 22.3163131,29.5 21.9160205,29.9 C21.7158742,30.1 21.5157279,30.3 21.4156547,30.5 C19.3141185,32.9 17.4127286,35.4 15.6114119,37.9 C13.7100219,40.7 11.9087052,43.6 10.3075347,46.5 C5.3038771,55.9 2.10153621,66.1 0.800585223,76.8 C0.400292612,80.2 0.200146306,83.8 0.200146306,87.3 C0.200146306,90 0.300219459,92.7 0.600438917,95.3 L0.600438917,95.5 L0.70051207,96.4 L0.70051207,96.5 L0.70051207,96.6 C1.80131675,106.4 4.50329188,116 8.80643745,124.9 C15.8115582,139.4 26.7195318,151.7 40.3294806,160.5 C54.339722,169.5 70.5515728,174.2 87.2637893,174.2 C93.2681785,174.2 99.2725677,173.6 105.076811,172.4 C112.282078,170.9 119.287198,168.5 125.892026,165.2 C128.794148,163.7 131.696269,162.1 134.398244,160.3 C142.103877,155.3 148.808778,149.3 154.613021,142.2 C167.222238,126.8 174.227359,107.2 174.227359,87.2 C174.227359,69.1 168.723336,51.8 158.315728,37.1 C148.208339,22.7 134.098025,11.9 117.686028,5.7 C107.878859,2.3 97.5713241,0.4 87.063643,0.4 Z"></path>
                                                </g>
                                            </g>
                                        </g>
                                    </g>
                                    <g id="Clipped" transform="translate(1.000732, 19.000000)">
                                        <mask id="mask-6" fill="white">
                                            <use xlink:href="#path-5"></use>
                                        </mask>
                                        <g id="Shape"></g>
                                        <path d="M214.957132,212 C206.050622,212 195.643014,207.5 186.536357,199.6 L-5.50402341,33.8 C-21.7158742,19.8 -26.5193855,0.7 -16.8122897,-10.6 C-12.7092904,-15.3 -6.90504755,-18.2 -0.200146306,-18.7 C8.20599854,-19.3 17.1125091,-16.1 24.217703,-9.8 L37.7275786,2 L21.2155084,20.9 L193.541478,169.6 L209.252963,152 L223.263204,164.5 C236.873153,176.6 240.375713,193.8 231.469203,204.7 C228.066715,208.9 222.962985,211.4 217.158742,211.9 C216.358157,211.9 215.657644,212 214.957132,212 Z" id="Shape" fill="#9286C4" fill-rule="nonzero" mask="url(#mask-6)"></path>
                                    </g>
                                </g>
                            </g>
                        </g>
                        <g id="XMLID_50_-Clipped">
                            <mask id="mask-8" fill="white">
                                <use xlink:href="#path-7"></use>
                            </mask>
                            <g id="XMLID_1_"></g>
                            <g id="XMLID_50_" mask="url(#mask-8)" fill-rule="nonzero">
                                <g transform="translate(137.100219, 565.000000)">
                                    <polygon id="XMLID_55_" fill="#FFFFFF" points="29.4215069 27.1 27.7202634 22.5 22.916752 21.4 27.520117 19.7 28.6209217 14.9 30.3221653 19.5 35.1256767 20.6 30.5223116 22.3"></polygon>
                                    <path d="M51.3375274,25.4 C51.3375274,39.3 40.0292612,50.6 26.1190929,50.6 C12.2089247,50.6 0.900658376,39.3 0.900658376,25.4 C0.900658376,11.5 12.2089247,0.2 26.1190929,0.2 C40.0292612,0.2 51.3375274,11.5 51.3375274,25.4 Z" id="XMLID_54_" fill="#6A37A1" opacity="0.18"></path>
                                    <ellipse id="XMLID_53_" fill="#6A37A1" opacity="0.18" cx="26.1190929" cy="25.4" rx="22.1161668" ry="22.1"></ellipse>
                                    <path d="M44.1322604,25.4 C44.1322604,35.3 36.1264082,43.4 26.1190929,43.4 C16.2118508,43.4 8.10592538,35.4 8.10592538,25.4 C8.10592538,15.5 16.1117776,7.4 26.1190929,7.4 C36.1264082,7.5 44.1322604,15.5 44.1322604,25.4 Z" id="XMLID_52_" fill="#6A37A1"></path>
                                    <path d="M33.2242868,36.3 C23.3170446,36.3 15.2111192,28.3 15.2111192,18.3 C15.2111192,15.2 16.0117045,12.2 17.4127286,9.7 C11.808632,12.8 8.10592538,18.7 8.10592538,25.5 C8.10592538,35.4 16.1117776,43.5 26.1190929,43.5 C32.9240673,43.5 38.8283833,39.7 41.9306511,34.2 C39.3287491,35.5 36.4266277,36.3 33.2242868,36.3 Z" id="XMLID_51_" fill="#5B2D8C"></path>
                                </g>
                            </g>
                        </g>
                        <g id="Clipped">
                            <mask id="mask-10" fill="white">
                                <use xlink:href="#path-9"></use>
                            </mask>
                            <g id="XMLID_1_"></g>
                        </g>
                        <g id="Clipped">
                            <mask id="mask-12" fill="white">
                                <use xlink:href="#path-11"></use>
                            </mask>
                            <g id="XMLID_1_"></g>
                            <g id="Group" mask="url(#mask-12)">
                                <g transform="translate(311.227505, 83.000000)">
                                    <g id="Group" stroke="none" stroke-width="1" fill="none" fill-rule="evenodd">
                                        <path d="M106.077542,66 C106.077542,88.3 87.9643014,106.4 65.6479883,106.4 C49.5362107,106.4 35.6260424,97 29.1212875,83.3 C28.821068,82.6 28.4207754,81.9 28.2206291,81.2 C26.9196781,77.9 25.9189466,74.4 25.518654,70.7 C25.518654,70.4 25.4185808,70.2 25.4185808,69.9 C25.3185077,68.6 25.2184345,67.2 25.2184345,65.9 C25.2184345,65.1 25.2184345,64.4 25.3185077,63.6 L25.4185808,62.3 C25.6187271,60.2 25.9189466,58.2 26.4193124,56.3 C26.9196781,54.1 27.6201902,52 28.5208486,50 L28.6209217,49.9 C29.4215069,48 30.4222385,46.1 31.6231163,44.3 C32.723921,42.5 34.024872,40.8 35.4258961,39.2 C35.4258961,39.2 35.5259693,39.1 35.5259693,39.1 C36.9269934,37.5 38.4280907,36 40.1293343,34.7 C41.7305048,33.4 43.3316752,32.3 45.0329188,31.2 C45.2330651,31.1 45.3331383,31 45.5332846,30.9 C47.3346013,29.8 49.3360644,28.9 51.3375274,28.1 C53.7392831,27.2 56.1410388,26.5 58.7429407,26 C61.0446233,25.6 63.4463789,25.4 65.9482078,25.4 C66.5486467,25.4 67.0490124,25.4 67.6494514,25.4 C72.1527432,25.6 76.555962,26.5 80.5588881,28.1 C95.3697147,34.2 106.077542,48.9 106.077542,66 Z" id="Shape" fill="#008ECE" fill-rule="nonzero"></path>
                                        <g opacity="0.2" fill="#3D6181" fill-rule="nonzero" id="Shape">
                                            <path d="M65.6479883,25.6 C66.2484272,25.6 66.748793,25.6 67.3492319,25.6 C71.8525238,25.8 76.2557425,26.7 80.2586686,28.3 C95.3697147,34.2 106.077542,48.8 106.077542,66 C106.077542,88.3 87.9643014,106.4 65.6479883,106.4 C49.5362107,106.4 35.6260424,97 29.1212875,83.3 C28.821068,82.6 28.4207754,81.9 28.2206291,81.2 C26.9196781,77.9 25.9189466,74.4 25.518654,70.7 C25.518654,70.4 25.4185808,70.2 25.4185808,69.9 C25.3185077,68.6 25.2184345,67.2 25.2184345,65.9 C25.2184345,65.1 25.2184345,64.4 25.3185077,63.6 L25.4185808,62.3 C25.6187271,60.2 25.9189466,58.2 26.4193124,56.3 C26.9196781,54.1 27.6201902,52 28.5208486,50 L28.6209217,49.9 C29.4215069,48 30.4222385,46.1 31.6231163,44.3 C32.723921,42.5 34.024872,40.8 35.4258961,39.2 C35.4258961,39.2 35.5259693,39.1 35.5259693,39.1 C36.9269934,37.5 38.4280907,36 40.1293343,34.7 C41.7305048,33.4 43.3316752,32.3 45.0329188,31.2 C45.2330651,31.1 45.3331383,31 45.5332846,30.9 C47.3346013,29.8 49.3360644,28.9 51.3375274,28.1 C53.7392831,27.2 56.1410388,26.5 58.7429407,26 C60.844477,25.8 63.2462326,25.6 65.6479883,25.6 Z M65.6479883,0.4 C62.6457937,0.4 59.543526,0.6 56.5413314,1 L56.2411119,1 L54.0395026,1.4 C51.6377469,1.8 49.2359912,2.4 46.9343087,3.1 L46.3338698,3.1 L41.9306511,4.8 C38.8283833,6 35.7261156,7.5 32.8239941,9.2 C32.4237015,9.4 32.1234821,9.6 32.0234089,9.7 L31.9233358,9.7 L31.8232626,9.8 C29.0212143,11.5 26.3192392,13.4 23.8174104,15.5 C21.3155816,17.6 18.9138259,19.9 16.7122165,22.3 C16.4119971,22.6 16.2118508,22.9 16.0117045,23.1 C13.9101683,25.6 11.9087052,28.2 10.1073884,31 C8.30607169,33.9 6.70490124,36.9 5.3038771,40.1 L5.20380395,40.2 C3.80277981,43.5 2.60190198,46.9 1.80131675,50.4 C1.00073153,53.6 0.500365764,56.9 0.200146306,60.2 L0.200146306,60.4 L0.200146306,60.6 L0.100073153,61.9 L0.100073153,62.1 L0.100073153,62.3 C-1.70530257e-13,63.5 -1.70530257e-13,64.7 -1.70530257e-13,66.1 C-1.70530257e-13,68.2 0.100073153,70.3 0.300219459,72.4 C0.300219459,72.9 0.400292612,73.4 0.500365764,73.9 C1.20087783,79.7 2.70197513,85.4 4.90358449,90.8 C5.40395026,92.1 5.90431602,93.2 6.50475494,94.4 C11.7085589,105.4 19.9145574,114.7 30.2220922,121.3 C40.8298464,128.1 53.1388442,131.8 65.8481346,131.8 C102.074616,131.8 131.596196,102.3 131.596196,66.1 C131.596196,52.6 127.493197,39.6 119.787564,28.6 C112.282078,17.8 101.87447,9.6 89.5654718,4.9 C82.8605706,2.3 75.7553767,0.8 68.5501097,0.5 C67.449305,0.4 66.5486467,0.4 65.6479883,0.4 Z"></path>
                                        </g>
                                        <path d="M65.6479883,25.6 C66.2484272,25.6 66.748793,25.6 67.3492319,25.6 C71.8525238,25.8 76.2557425,26.7 80.2586686,28.3 C95.3697147,34.2 106.077542,48.8 106.077542,66 C106.077542,88.3 87.9643014,106.4 65.6479883,106.4 C49.5362107,106.4 35.6260424,97 29.1212875,83.3 C28.821068,82.6 28.4207754,81.9 28.2206291,81.2 C26.9196781,77.9 25.9189466,74.4 25.518654,70.7 C25.518654,70.4 25.4185808,70.2 25.4185808,69.9 C25.3185077,68.6 25.2184345,67.2 25.2184345,65.9 C25.2184345,65.1 25.2184345,64.4 25.3185077,63.6 L25.4185808,62.3 C25.6187271,60.2 25.9189466,58.2 26.4193124,56.3 C26.9196781,54.1 27.6201902,52 28.5208486,50 L28.6209217,49.9 C29.4215069,48 30.4222385,46.1 31.6231163,44.3 C32.723921,42.5 34.024872,40.8 35.4258961,39.2 C35.4258961,39.2 35.5259693,39.1 35.5259693,39.1 C36.9269934,37.5 38.4280907,36 40.1293343,34.7 C41.7305048,33.4 43.3316752,32.3 45.0329188,31.2 C45.2330651,31.1 45.3331383,31 45.5332846,30.9 C47.3346013,29.8 49.3360644,28.9 51.3375274,28.1 C53.7392831,27.2 56.1410388,26.5 58.7429407,26 C60.844477,25.8 63.2462326,25.6 65.6479883,25.6 Z M65.6479883,16.2 C62.9460132,16.2 60.3441112,16.4 57.6421361,16.8 L56.8415508,16.9 C54.339722,17.3 51.8378932,18 49.4361375,18.8 L49.3360644,18.8 L47.7348939,19.4 C45.3331383,20.3 42.9313826,21.5 40.7297732,22.8 C40.5296269,22.9 40.3294806,23 40.2294075,23.1 L40.1293343,23.1 L40.0292612,23.1 C37.9277249,24.4 35.8261887,25.8 33.9247988,27.4 C31.9233358,29 30.122019,30.8 28.4207754,32.7 C28.3207023,32.8 28.2206291,33 28.0204828,33.1 C26.3192392,35 24.8181419,37 23.5171909,39.2 C22.1161668,41.4 20.915289,43.7 19.9145574,46.1 L19.8144843,46.3 C18.7136796,48.8 17.9130944,51.4 17.2125823,54.1 C16.6121434,56.5 16.2118508,59 16.0117045,61.5 L16.0117045,61.6 L16.0117045,61.7 L15.9116313,63 L15.9116313,63.1 L15.9116313,63.2 C15.8115582,64.1 15.8115582,65 15.8115582,66 C15.8115582,67.6 15.9116313,69.2 16.0117045,70.8 C16.0117045,71.1 16.1117776,71.5 16.1117776,71.8 C16.6121434,76.2 17.7129481,80.6 19.4141917,84.7 C19.8144843,85.7 20.2147769,86.5 20.6150695,87.4 C28.821068,104.7 46.5340161,115.8 65.6479883,115.8 C93.1681053,115.8 115.584492,93.4 115.584492,65.9 C115.584492,55.6 112.482224,45.8 106.677981,37.4 C100.973811,29.2 93.0680322,23 83.761229,19.4 C78.6574982,17.4 73.2535479,16.3 67.7495245,16.1 C67.0490124,16.2 66.3485004,16.2 65.6479883,16.2 Z" id="Shape" fill="#3D4A81" fill-rule="nonzero"></path>
                                    </g>
                                    <path d="M28.4207754,50.2 C27.520117,52.2 26.819605,54.3 26.3192392,56.5 C25.8188734,58.5 25.518654,60.5 25.3185077,62.5 L25.2184345,63.8 L39.4288222,75.6 L41.3302121,77.2 C42.53109,78.2 43.9321141,78.7 45.3331383,78.7 C47.134455,78.7 48.9357718,77.9 50.2367228,76.4 C52.4383321,73.7 52.1381127,69.7 49.4361375,67.5 L40.0292612,59.1 L39.4288222,58.5 L28.5208486,50.1 L28.4207754,50.2 Z" id="Shape" stroke="none" fill="#32D5FC" fill-rule="nonzero"></path>
                                    <path d="M72.4529627,46.1 C71.1520117,47.6 69.4507681,48.4 67.5493782,48.4 C67.2491587,48.4 67.0490124,48.4 66.748793,48.3 C65.5479151,48.2 64.4471105,47.7 63.4463789,46.9 L44.8327725,31.4 C45.0329188,31.3 45.132992,31.2 45.3331383,31.1 C47.134455,30 49.1359181,29.1 51.1373811,28.3 C53.5391368,27.4 55.9408925,26.7 58.5427944,26.2 C58.5427944,26.2 58.5427944,26.2 58.6428676,26.2 L74.4544257,36.3 C76.9562546,38.6 74.6545721,43.4 72.4529627,46.1 Z" id="Shape" stroke="none" fill="#32D5FC" fill-rule="nonzero"></path>
                                    <path d="M25.4185808,62.5 L37.5274323,72.6 C38.5281639,73.4 39.2286759,74.5 39.5288954,75.7 C40.1293343,77.7 39.7290417,79.8 38.3280176,81.5 C37.1271397,83 35.325823,83.8 33.4244331,83.8 C32.0234089,83.8 30.5223116,83.3 29.4215069,82.3 L28.2206291,81.3 C26.9196781,78 25.9189466,74.5 25.518654,70.8 C25.3185077,69.2 25.2184345,67.7 25.2184345,66 C25.2184345,65.2 25.2184345,64.5 25.3185077,63.7 L25.4185808,62.5 Z" id="Shape" stroke="none" fill="#32D5FC" fill-rule="nonzero"></path>
                                    <path d="M56.4412582,97.8 C55.2403804,99.3 53.4390636,100.1 51.5376737,100.1 C50.1366496,100.1 48.6355523,99.6 47.5347476,98.6 L29.1212875,83.3 C28.821068,82.6 28.4207754,81.9 28.2206291,81.2 C26.9196781,77.9 25.9189466,74.4 25.518654,70.7 C25.518654,70.4 25.4185808,70.2 25.4185808,69.9 C27.7202634,68.2 30.9226042,68.3 33.1242136,70.2 L55.5405999,88.9 C58.242575,91.2 58.6428676,95.2 56.4412582,97.8 Z" id="Shape" stroke="none" fill="#008ECE" fill-rule="nonzero"></path>
                                    <path d="M90.3660571,44.1 C89.1651792,45.6 87.4639356,46.3 85.6626189,46.3 C84.3616679,46.3 83.0607169,45.9 81.8598391,45 L58.4427213,26.3 C58.4427213,26.3 58.4427213,26.3 58.3426481,26.3 C60.6443307,25.9 63.0460863,25.7 65.5479151,25.7 C66.1483541,25.7 66.6487198,25.7 67.2491587,25.7 C71.7524506,25.9 76.1556693,26.8 80.1585955,28.4 L89.2652524,35.7 C91.9672275,37.7 92.4675933,41.5 90.3660571,44.1 Z" id="Shape" stroke="none" fill="#32D5FC" fill-rule="nonzero"></path>
                                    <path d="M83.5610827,61.7 L66.8488661,48.3 L45.4332114,31.1 C45.2330651,31.2 45.132992,31.3 44.9328456,31.4 C43.231602,32.4 41.5303584,33.6 40.0292612,34.9 C38.4280907,36.3 36.8269203,37.7 35.4258961,39.3 L35.9262619,39.7 L35.325823,39.4 C33.9247988,41 32.6238478,42.7 31.5230432,44.5 C30.4222385,46.3 29.4215069,48.1 28.5208486,50.1 L28.4207754,50.2 L37.5274323,57.8 C37.8276518,58.1 38.2279444,58.3 38.628237,58.5 C39.5288954,59 40.5296269,59.2 41.6304316,59.2 C43.4317484,59.2 45.2330651,58.4 46.5340161,56.9 C47.7348939,55.4 49.0358449,52.9 49.5362107,50.6 L75.6553036,71.5 C76.8561814,72.4 78.2572056,72.9 79.5581565,72.9 C81.3594733,72.9 83.2608632,72.1 84.461741,70.5 C86.6633504,67.9 86.2630578,63.9 83.5610827,61.7 Z" id="Shape" stroke="none" fill="#32D5FC" fill-rule="nonzero"></path>
                                    <path d="M64.7473299,38.5 L90.3660571,59.5 L64.7473299,38.5 Z" id="Shape" stroke="#008ECE" stroke-width="12.5602" fill="#D30079" fill-rule="nonzero" stroke-linecap="round" stroke-linejoin="round"></path>
                                    <path d="M43.9321141,54 L61.2447696,68.9 L43.9321141,54 Z" id="Shape" stroke="#008ECE" stroke-width="12.5602" fill="#D30079" fill-rule="nonzero" stroke-linecap="round" stroke-linejoin="round"></path>
                                </g>
                            </g>
                        </g>
                        <g id="XMLID_20_-Clipped">
                            <mask id="mask-14" fill="white">
                                <use xlink:href="#path-13"></use>
                            </mask>
                            <g id="XMLID_1_"></g>
                            <g id="XMLID_20_" mask="url(#mask-14)">
                                <g transform="translate(753.550841, 129.000000)">
                                    <path d="M132.697001,11.3 C132.697001,10.3 132.596928,9.4 132.496854,8.4 L131.896416,0.7 L124.290856,2 C123.290124,2.2 122.389466,2.3 121.388734,2.5 C110.480761,4.7 99.9730797,8.9 90.0658376,14.5 L128.794148,44.5 C131.896416,33.7 133.29744,22.5 132.697001,11.3 Z" id="XMLID_49_" fill="#CF6F60" fill-rule="nonzero"></path>
                                    <polygon id="XMLID_48_" fill="#CF6F60" fill-rule="nonzero" points="35.8261887 79.9 16.4119971 84.3 0.800585223 104.4 31.3228969 106.2"></polygon>
                                    <polygon id="XMLID_47_" fill="#CF6F60" fill-rule="nonzero" points="79.1578639 113.4 79.7583029 133.4 64.146891 153.5 54.7400146 124.4"></polygon>
                                    <path d="M91.4668617,21.6 C68.8503292,37 49.1359181,60.7 37.6275055,87.2 L27.2198976,111.2 L39.3287491,120.6 L51.4376006,130 L72.0526701,114 C94.8693489,96.3 112.98259,71.3 122.18932,45.6 L91.4668617,21.6 Z" id="XMLID_46_" fill="#CF6F60" fill-rule="nonzero"></path>
                                    <path d="M90.1659108,14.6 C65.8481346,28.7 45.9335772,52.2 35.9262619,79.9 L26.819605,104.9 L42.0307242,116.7 L57.2418435,128.5 L79.1578639,113.5 C103.375567,96.9 121.288661,71.8 128.894221,44.7 L90.1659108,14.6 Z" id="XMLID_45_" fill="#E9F8FF" fill-rule="nonzero"></path>
                                    <rect id="XMLID_44_" fill="#CF6F60" fill-rule="nonzero" transform="translate(45.593904, 112.027375) rotate(37.769457) translate(-45.593904, -112.027375) " x="43.642432" y="90.6268775" width="3.9029437" height="42.8009951"></rect>
                                    <g id="XMLID_29_" stroke-width="1" fill="none" fill-rule="evenodd" transform="translate(72.052670, 31.000000)">
                                        <path d="M35.9262619,33.2 C29.1212875,41.9 16.6121434,43.5 7.80570593,36.8 C-0.900658376,30 -2.50182882,17.5 4.20307242,8.7 C11.0080468,0 23.5171909,-1.6 32.3236284,5.1 C41.0299927,12 42.6311631,24.5 35.9262619,33.2 Z" id="XMLID_43_" fill="#CF6F60" fill-rule="nonzero"></path>
                                        <path d="M17.3126554,6.5 C13.8100951,7.1 10.6077542,9 8.20599854,12 C3.20234089,18.5 4.30314557,27.9 10.9079737,32.9 C15.5113387,36.5 21.615801,36.9 26.6194587,34.5 C23.8174104,31.1 21.3155816,27.2 19.4141917,22.8 C17.2125823,18 16.5120702,12.1 17.3126554,6.5 Z" id="XMLID_42_" fill="#1DAAEB" fill-rule="nonzero"></path>
                                        <path d="M29.1212875,9.3 C25.6187271,6.6 21.3155816,5.7 17.2125823,6.4 C16.4119971,12.1 17.1125091,17.9 19.2140454,22.8 C21.2155084,27.2 23.6172641,31 26.4193124,34.5 C28.4207754,33.5 30.2220922,32.1 31.7231895,30.2 C36.8269203,23.7 35.6260424,14.4 29.1212875,9.3 Z" id="XMLID_41_" fill="#1DCCEB" fill-rule="nonzero"></path>
                                    </g>
                                </g>
                            </g>
                        </g>
                    </g>
                </g>
            </g>
        </g>
    </g>
</svg>