
<svg width="1357px" height="766px" viewBox="0 0 1357 766" version="1.1" xmlns="http://www.w3.org/2000/svg" xmlns:xlink="http://www.w3.org/1999/xlink">
    <!-- Generator: Sketch 48.2 (47327) - http://www.bohemiancoding.com/sketch -->
    <desc>Created with Sketch.</desc>
    <defs>
        <rect id="path-1" x="0.289530106" y="0" width="1318.32708" height="701"></rect>
        <rect id="path-3" x="0.289530106" y="0" width="1318.32708" height="701"></rect>
        <rect id="path-5" x="0.289530106" y="0" width="1318.32708" height="701"></rect>
        <rect id="path-7" x="0.289530106" y="0" width="1318.32708" height="701"></rect>
    </defs>
    <g id="Page-1" stroke="none" stroke-width="1" fill="none" fill-rule="evenodd">
        <g id="LANDING_BG" transform="translate(-1.000000, -2.000000)">
            <g id="BG" transform="translate(0.985391, 2.000000)">
                <g id="Group">
                    <rect id="XMLID_113_" fill="#102037" fill-rule="nonzero" x="0.297808619" y="0" width="1356.02191" height="701"></rect>
                    <g id="XMLID_76_" transform="translate(0.000000, 534.000000)"></g>
                </g>
            </g>
            <g id="STARS" transform="translate(36.722425, 6.000000)" fill="#FFFFFF" fill-rule="nonzero">
                <g id="Group">
                    <polygon id="XMLID_214_" points="125.17889 202.9 123.689847 197.8 118.6271 196.3 123.689847 194.8 125.17889 189.7 126.767202 194.8 131.730679 196.3 126.767202 197.8"></polygon>
                    <polygon id="XMLID_213_" points="56.5836377 47.2 55.0945946 42.1 50.0318481 40.6 55.0945946 39.1 56.5836377 34 58.1719503 39.1 63.1354273 40.6 58.1719503 42.1"></polygon>
                    <polygon id="XMLID_212_" points="865.332579 316.2 863.843535 311.2 858.780789 309.6 863.843535 308.1 865.332579 303 866.920891 308.1 871.884368 309.6 866.920891 311.2"></polygon>
                    <polygon id="XMLID_211_" points="1114.49912 47.2 1112.91081 42.1 1107.94733 40.6 1112.91081 39.1 1114.49912 34 1115.98817 39.1 1121.05091 40.6 1115.98817 42.1"></polygon>
                    <polygon id="XMLID_210_" points="11.1181885 182.2 6.25398101 180.3 1.88612126 183.3 3.87151205 178.4 0.794156318 174.1 5.65836377 176 10.0262235 173 8.14010226 177.9"></polygon>
                    <polygon id="XMLID_209_" points="717.123156 179.4 712.258948 177.5 707.891088 180.6 709.77721 175.6 706.799123 171.3 711.663331 173.2 716.031191 170.2 714.0458 175.1"></polygon>
                    <polygon id="XMLID_208_" points="980.187436 429.5 975.223959 427.6 970.955369 430.7 972.84149 425.7 969.863404 421.4 974.727611 423.3 978.996202 420.3 977.11008 425.2"></polygon>
                    <polygon id="XMLID_207_" points="1275.9114 534.5 1277.10263 529.4 1273.42966 525.5 1278.59167 526.7 1282.36392 523 1281.17268 528.2 1284.84565 532 1279.68364 530.9"></polygon>
                    <polygon id="XMLID_206_" points="285.499196 611.5 284.010153 606.4 278.947407 604.9 284.010153 603.3 285.499196 598.3 286.98824 603.3 292.050986 604.9 286.98824 606.4"></polygon>
                    <polygon id="XMLID_204_" points="1137.62893 614.2 1136.04061 609.1 1131.07714 607.6 1136.04061 606 1137.62893 601 1139.11797 606 1144.18072 607.6 1139.11797 609.1"></polygon>
                    <polygon id="XMLID_203_" points="910.698758 181.9 905.338203 178.8 899.878378 181.6 902.955734 176.2 900.176187 170.7 905.536742 173.8 910.996567 171 907.919211 176.4"></polygon>
                    <polygon id="XMLID_202_" points="254.130022 126.8 242.813294 126.9 236.559313 136.4 236.559313 125 227.128707 118.8 238.346165 118.7 244.600146 109.2 244.600146 120.6"></polygon>
                    <polygon id="XMLID_201_" points="846.570636 699.6 845.081592 694.5 840.018846 693 845.081592 691.4 846.570636 686.4 848.158948 691.4 853.122425 693 848.158948 694.5"></polygon>
                    <polygon id="XMLID_200_" points="776.48634 656.3 771.622133 654.4 767.254273 657.4 769.140394 652.5 766.162308 648.2 771.026516 650.1 775.394375 647 773.408985 652"></polygon>
                    <polygon id="XMLID_199_" points="975.422498 623.5 964.20504 623.6 957.951059 633.1 957.951059 621.7 948.421183 615.4 959.737911 615.4 965.991892 605.9 965.991892 617.3"></polygon>
                    <polygon id="XMLID_197_" points="1001.72893 326.6 990.412199 327.4 984.853104 337.3 984.058948 325.9 974.231264 320.3 985.547991 319.5 991.206355 309.6 991.901242 321"></polygon>
                    <polygon id="XMLID_149_" points="68.0989043 481.7 69.2901388 492 79.5149014 493.3 69.2901388 494.5 68.0989043 504.8 66.8084003 494.5 56.5836377 493.3 66.8084003 492"></polygon>
                    <polygon id="XMLID_145_" points="1033.69372 205.7 1040.74186 213.3 1049.77538 208.3 1042.13163 215.3 1047.09511 224.4 1040.14624 216.8 1031.11271 221.8 1038.6572 214.7"></polygon>
                    <polygon id="XMLID_144_" points="625.100292 587 623.611249 581.9 618.548503 580.4 623.611249 578.8 625.100292 573.8 626.688605 578.8 631.652082 580.4 626.688605 581.9"></polygon>
                    <polygon id="XMLID_143_" points="710.372827 487.7 717.420964 495.3 726.454492 490.3 718.810738 497.4 723.873484 506.4 716.825347 498.8 707.791819 503.8 715.336304 496.8"></polygon>
                    <polygon id="XMLID_142_" points="1287.42666 325.7 1294.37553 333.3 1303.40906 328.3 1295.86457 335.4 1300.82805 344.4 1293.87918 336.8 1284.84565 341.8 1292.39014 334.8"></polygon>
                    <polygon id="XMLID_141_" points="428.447334 412.3 423.483857 410.4 419.215267 413.5 421.101388 408.5 418.123302 404.2 422.987509 406.1 427.256099 403.1 425.369978 408"></polygon>
                    <polygon id="XMLID_139_" points="544.294887 264.9 532.978159 265.7 527.419065 275.6 526.624909 264.2 516.797224 258.6 528.113952 257.8 533.772316 247.9 534.467202 259.3"></polygon>
                    <polygon id="XMLID_139_" points="236.294887 357.9 224.978159 358.7 219.419065 368.6 218.624909 357.2 208.797224 351.6 220.113952 350.8 225.772316 340.9 226.467202 352.3"></polygon>
                    <polygon id="XMLID_138_" points="1175.94697 380 1177.1382 390.3 1187.36297 391.5 1177.1382 392.8 1175.94697 403.1 1174.65646 392.8 1164.4317 391.5 1174.65646 390.3"></polygon>
                    <polygon id="XMLID_137_" points="710.372827 325.7 717.420964 333.3 726.454492 328.3 718.810738 335.4 723.873484 344.4 716.825347 336.8 707.791819 341.8 715.336304 334.8"></polygon>
                    <polygon id="XMLID_135_" points="485.825128 97.9 474.60767 98.6 468.949306 108.5 468.15515 97.2 458.426735 91.5 469.644193 90.7 475.302557 80.9 475.997443 92.2"></polygon>
                    <polygon id="XMLID_134_" points="980.187436 0.2 981.378671 10.5 991.603433 11.7 981.378671 13 980.187436 23.3 978.896932 13 968.672169 11.7 978.896932 10.5"></polygon>
                    <polygon id="XMLID_133_" points="689.625493 65 696.574361 72.6 705.607889 67.6 698.063404 74.7 703.026881 83.8 696.078013 76.1 687.044485 81.2 694.58897 74.1"></polygon>
                    <polygon id="XMLID_132_" points="1197.09138 664.3 1198.28262 674.6 1208.50738 675.8 1198.28262 677.1 1197.09138 687.4 1195.80088 677.1 1185.57611 675.8 1195.80088 674.6"></polygon>
                    <polygon id="XMLID_131_" points="544.294887 453.1 542.805844 448.1 537.743097 446.5 542.805844 445 544.294887 439.9 545.78393 445 550.846676 446.5 545.78393 448.1"></polygon>
                    <polygon id="XMLID_130_" points="439.863331 576.1 441.153835 586.4 451.378598 587.6 441.153835 588.9 439.863331 599.2 438.672096 588.9 428.447334 587.6 438.672096 586.4"></polygon>
                    <polygon id="XMLID_129_" points="103.339591 652.7 104.530825 663 114.755588 664.3 104.530825 665.5 103.339591 675.8 102.049087 665.5 91.8243243 664.3 102.049087 663"></polygon>
                </g>
            </g>
            <g id="ASTRONAUT" transform="translate(729.623813, 141.000000)" fill-rule="nonzero">
                <g id="Group">
                    <g transform="translate(0.000000, 113.000000)">
                        <path d="M234.573923,311 L234.573923,294 C235.467348,294 325.604091,293.1 339.898904,226.1 C349.627319,180.5 330.964646,154.8 312.897589,129.9 C294.532725,104.5 275.472973,78.2 293.34149,35.8 C313.791015,-12.9 371.863696,2.2 374.345435,2.8 L371.268079,19.4 C370.771731,19.3 321.43477,6.6 305.849452,43.5 C292.348795,75.6 305.353104,93.7 323.51943,118.7 C341.983565,144.3 365.113367,176.1 353.498831,230.4 C346.351424,263.8 323.320891,288.4 286.690431,301.4 C259.986925,310.9 235.665888,311 234.573923,311 Z" id="Shape" fill="#CFDDE3"></path>
                        <g id="XMLID_146_" transform="translate(0.000000, 156.000000)">
                            <path d="M256.512491,253.4 L202.509861,284.5 C178.486633,298.3 147.812345,289.9 134.113148,265.6 L87.5557341,183.3 C72.3674945,156.4 81.6988313,121.8 108.402337,106.5 L152.478013,81.1 C179.181519,65.8 213.429511,75.2 228.71702,102.1 L275.274434,184.4 C288.97363,208.7 280.634989,239.6 256.512491,253.4 Z" id="XMLID_198_" fill="#91B7C9"></path>
                            <g id="XMLID_147_">
                                <g id="XMLID_194_" transform="translate(103.240321, 297.000000)">
                                    <path d="M3.37516435,29.2 L84.6769175,40.2 L89.0447772,7.6 L40.0056245,1 C22.1371074,-1.4 5.75763331,11.2 3.37516435,29.2 Z" id="XMLID_196_" fill="#DFE8E6"></path>
                                    <polygon id="XMLID_195_" fill="#6E98AD" points="81.9966399 60.2 0.694886779 49.2 3.37516435 29.2 84.6769175 40.2"></polygon>
                                </g>
                                <g id="XMLID_188_" transform="translate(141.955442, 173.000000)">
                                    <path d="M12.4086925,38.4 L0.893425858,124.9 L50.2303871,131.6 L56.2858291,86.2 C57.6756026,75.6 64.5252009,67.4 73.2609204,63.5 C68.4959825,57.2 63.7310446,50.9 58.5690285,44.7 L12.4086925,38.4 Z" id="XMLID_192_" fill="#DFE8E6"></path>
                                    <path d="M77.7280497,0.9 L59.2639153,44.8 L58.5690285,44.7 C63.7310446,50.9 68.4959825,57.2 73.2609204,63.5 C80.2097882,60.4 88.3498904,60 96.0929145,63.3 L137.98466,81.2 L157.44149,35 L77.7280497,0.9 Z" id="XMLID_191_" fill="#FFFFFF"></path>
                                    <path d="M200.028123,17.9 L167.964061,94 L137.98466,81.2 L157.342221,35.3 C164.291088,18.6 183.45011,10.8 200.028123,17.9 Z" id="XMLID_190_" fill="#FFFFFF"></path>
                                    <polygon id="XMLID_189_" fill="#ADCEDE" points="186.428196 101.9 218.492257 25.8 200.028123 17.9 167.964061 94"></polygon>
                                </g>
                                <g id="XMLID_162_">
                                    <g id="XMLID_186_" transform="translate(162.802045, 0.000000)" fill="#FFFFFF">
                                        <path d="M80.4083272,122.1 L30.4757487,150.8 C20.7473338,156.4 8.33864134,153 2.87881665,143.2 C-2.68027757,133.4 0.694886779,120.9 10.4233017,115.3 L60.3558802,86.6 C64.2273923,84.4 65.6171658,79.4 63.3339664,75.5 L38.2187728,31.2 C32.6596786,21.4 36.034843,8.9 45.7632579,3.3 C55.4916728,-2.3 67.9003652,1.1 73.3601899,10.9 L98.4753835,55.2 C111.876771,78.7 103.736669,108.7 80.4083272,122.1 Z" id="XMLID_187_"></path>
                                    </g>
                                    <g id="XMLID_182_" transform="translate(0.000000, 114.000000)" fill="#DFE8E6">
                                        <path d="M94.8024105,93.5 L144.734989,64.8 C154.463404,59.2 157.838568,46.7 152.279474,36.9 C146.72038,27.1 134.410957,23.7 124.682542,29.3 L74.7499635,58 C70.8784514,60.2 65.9149744,58.9 63.7310446,55 L38.615851,10.7 C33.0567568,0.9 20.7473338,-2.5 11.0189189,3.1 C1.29050402,8.7 -2.08466034,21.2 3.47443389,31 L28.5896275,75.3 C41.7924763,98.6 71.4740687,106.8 94.8024105,93.5 Z" id="XMLID_21_"></path>
                                    </g>
                                    <polygon id="XMLID_181_" fill="#FFFFFF" points="164.390358 43.5 162.206428 36 154.661943 33.7 162.107159 31.4 164.390358 23.9 166.673557 31.4 174.118773 33.7 166.673557 36"></polygon>
                                    <path d="M257.405917,189.7 L147.613806,252.8 L110.189189,186.6 C100.262235,169.1 106.416947,146.6 123.789116,136.6 L170.4458,109.8 C187.817969,99.8 210.153616,106 220.08057,123.5 L257.405917,189.7 Z" id="XMLID_178_" fill="#FFFFFF"></path>
                                    <path d="M177.096859,252.8 L130.043097,171.8 C122.697151,158.7 124.186194,142.9 132.624105,131.6 L123.789116,136.7 C106.416947,146.7 100.361505,169.2 110.189189,186.7 L147.613806,252.8 L177.096859,252.8 Z" id="XMLID_176_" fill="#DFE8E6"></path>
                                    <path d="M185.336231,121.1 L128.454785,153.8 C121.108839,158 111.678232,155.4 107.508912,148 C103.339591,140.6 105.920599,131.1 113.266545,126.8 L170.147991,94.1 C177.493937,89.9 186.924543,92.5 191.093864,99.9 C195.263185,107.3 192.682177,116.8 185.336231,121.1 Z" id="XMLID_175_" fill="#ADCEDE"></path>
                                    <path d="M183.747918,39.3 C201.715705,71 188.115778,112.8 153.470709,132.7 C118.825639,152.6 76.2390066,143 58.2712199,111.4 C40.3034332,79.7 53.9033601,37.9 88.5484295,18 C123.193499,-1.9 165.780131,7.6 183.747918,39.3 Z" id="XMLID_173_" fill="#FFFFFF"></path>
                                    <path d="M191.292403,63.4 C189.108473,85.7 175.607816,107.4 153.470709,120.2 C118.825639,140.1 76.2390066,130.5 58.2712199,98.9 C54.0026297,91.3 51.5208912,83.1 50.7267348,74.8 C49.5355004,87.3 51.9179693,100 58.3704894,111.4 C76.3382761,143.1 118.924909,152.6 153.569978,132.7 C179.777137,117.6 193.972681,89.8 191.292403,63.4 Z" id="XMLID_171_" fill="#DFE8E6"></path>
                                    <path d="M159.129072,40.9 L169.850183,59.8 C177.891015,74.1 172.927538,92.5 158.731994,100.6 L123.392038,121 C109.196494,129.2 90.9308985,124.1 82.8900657,109.8 L72.1689554,90.9 C64.1281227,76.6 69.0915997,58.2 83.2871439,50.1 L118.6271,29.8 C132.822644,21.6 151.08824,26.6 159.129072,40.9 Z" id="XMLID_169_" fill="#1990C7"></path>
                                    <path d="M159.129072,40.9 L164.985975,51.2 C154.165595,61.9 140.367129,72.4 124.484003,81.5 C108.600877,90.6 92.7177502,97.2 78.0258583,101.2 L72.1689554,90.9 C64.1281227,76.6 69.0915997,58.2 83.2871439,50.1 L118.6271,29.8 C132.822644,21.6 151.08824,26.6 159.129072,40.9 Z" id="XMLID_168_" fill="#19ADC7"></path>
                                    <path d="M70.8784514,133.5 C66.1135135,136.2 60.0580716,134.5 57.377794,129.8 L45.3661797,108.5 C42.6859021,103.7 44.3734843,97.6 49.0391527,94.9 C53.8040906,92.2 59.8595325,93.9 62.5398101,98.6 L74.5514244,119.9 C77.231702,124.7 75.5441198,130.8 70.8784514,133.5 Z" id="XMLID_166_" fill="#6E98AD"></path>
                                    <path d="M196.25588,61.5 C191.490942,64.2 185.4355,62.5 182.755223,57.8 L170.743608,36.4 C168.063331,31.6 169.750913,25.5 174.416581,22.8 C179.181519,20.1 185.236961,21.8 187.917239,26.5 L199.928853,47.8 C202.609131,52.6 200.921549,58.7 196.25588,61.5 Z" id="XMLID_164_" fill="#ADCEDE"></path>
                                    <rect id="XMLID_163_" fill="#ADCEDE" transform="translate(98.733610, 134.537503) rotate(150.330449) translate(-98.733610, -134.537503) " x="97.0956525" y="134.037503" width="3.27591481" height="1"></rect>
                                </g>
                                <polygon id="XMLID_161_" fill="#ADCEDE" points="221.470343 172.9 154.661943 211.2 133.616801 174.1 200.425201 135.7"></polygon>
                                <path d="M209.657268,165.3 C211.44412,168.5 210.352155,172.5 207.17553,174.4 C203.998904,176.2 200.028123,175.1 198.241271,171.9 C196.454419,168.7 197.546384,164.7 200.723009,162.8 C203.899635,161 207.870416,162.1 209.657268,165.3 Z" id="XMLID_160_" fill="#FFFFFF"></path>
                                <path d="M197.447115,151.6 C198.142001,152.9 197.744923,154.6 196.454419,155.3 C195.163915,156 193.476333,155.6 192.781446,154.3 C192.08656,153 192.483638,151.3 193.774142,150.6 C195.064646,149.8 196.752228,150.3 197.447115,151.6 Z" id="XMLID_159_" fill="#FFFFFF"></path>
                                <rect id="XMLID_158_" fill="#FFFFFF" transform="translate(162.448755, 169.598780) rotate(-29.710768) translate(-162.448755, -169.598780) " x="146.665596" y="167.79886" width="31.5663185" height="3.59984089"></rect>
                                <rect id="XMLID_157_" fill="#FFFFFF" transform="translate(167.927153, 179.101900) rotate(-29.707928) translate(-167.927153, -179.101900) " x="152.142623" y="177.301823" width="31.5690603" height="3.60015357"></rect>
                                <rect id="XMLID_156_" fill="#FFFFFF" transform="translate(173.143201, 188.479270) rotate(-29.715744) translate(-173.143201, -188.479270) " x="157.35926" y="186.67926" width="31.5678832" height="3.60001933"></rect>
                                <path d="M50.5281958,154.5 L21.6407597,171.1 C18.3648649,173 14.1955442,171.8 12.3094229,168.5 L11.1181885,166.4 C9.2320672,163.1 10.4233017,158.9 13.6991965,157 L42.5866326,140.4 C45.8625274,138.5 50.0318481,139.7 51.9179693,143 L53.1092038,145.1 C54.9953251,148.4 53.8040906,152.6 50.5281958,154.5 Z" id="XMLID_154_" fill="#6E98AD"></path>
                                <path d="M250.357779,39.7 L221.470343,56.3 C218.194449,58.2 214.025128,57 212.139007,53.7 L210.947772,51.6 C209.061651,48.3 210.252885,44.1 213.52878,42.2 L242.416216,25.6 C245.692111,23.7 249.861432,24.9 251.747553,28.2 L252.938787,30.3 C254.725639,33.6 253.633674,37.8 250.357779,39.7 Z" id="XMLID_152_" fill="#ADCEDE"></path>
                                <path d="M199.730314,262.3 L145.330606,259.7 C142.153981,259.5 139.672243,256.8 139.771512,253.6 C139.970051,250.4 142.650329,247.9 145.826954,248 L200.226662,250.6 C203.403287,250.8 205.885026,253.5 205.785756,256.7 C205.686486,259.9 202.906939,262.4 199.730314,262.3 Z" id="XMLID_150_" fill="#6E98AD"></path>
                                <path d="M242.614755,237.6 L268.127027,189.1 C269.61607,186.2 268.524105,182.7 265.744558,181.2 C262.865741,179.7 259.391308,180.8 257.902264,183.6 L232.290723,232.1 C230.80168,235 231.893645,238.5 234.673192,240 C237.552009,241.6 241.125712,240.5 242.614755,237.6 Z" id="XMLID_148_" fill="#ADCEDE"></path>
                            </g>
                        </g>
                    </g>
                    <g transform="translate(352.406866, 0.000000)">
                        <path d="M201.616435,162.2 L5.16201607,162.2 C2.97808619,162.2 0.694886779,161.1 0.397078159,157.9 L0.397078159,154.9 L21.9385683,114.9 C23.1298028,112.6 25.5122717,111.1 28.0932798,111.1 L178.387363,111.1 C181.16691,111.1 187.420891,116.7 188.612126,119.2 L206.381373,155.6 L206.381373,156.9 C206.381373,160.7 203.998904,162.2 201.616435,162.2 Z" id="Shape" fill="#3D4D5C"></path>
                        <path d="M201.616435,158 L5.16201607,158 C2.97808619,158 -0.595617239,156.1 0.694886779,153.7 L21.9385683,110.7 C23.1298028,108.4 25.5122717,106.9 28.0932798,106.9 L178.387363,106.9 C181.16691,106.9 183.747918,108.5 185.038422,111 L205.984295,153.3 C207.473338,156 203.998904,158 201.616435,158 Z" id="Shape" fill="#B7CDD8"></path>
                        <rect id="Rectangle-path" fill="#3D4D5C" x="21.9385683" y="0.2" width="160.915924" height="102.4"></rect>
                        <rect id="Rectangle-path" fill="#231F20" x="28.0932798" y="5.8" width="148.407962" height="88.7"></rect>
                        <path d="M131.829949,156.1 L73.9558072,156.1 C73.3601899,156.1 72.8638422,155.5 72.9631118,154.9 L75.4448503,139.5 C75.5441198,138.7 76.2390066,138.1 77.1324324,138.1 L129.34821,138.1 C130.043097,138.1 130.737984,138.6 130.837253,139.4 L133.120453,154.8 C133.120453,155.5 132.524836,156.1 131.829949,156.1 Z" id="Shape" fill="#52677A"></path>
                        <path d="M36.8289993,116.1 L30.5750183,116.1 C29.6815924,116.1 29.0859752,115.8 29.1852447,115.5 L29.5823229,114.6 C29.6815924,114.3 30.4757487,114 31.3691746,114 L37.6231556,114 C38.5165814,114 39.1121987,114.3 39.0129291,114.6 L38.7151205,115.5 C38.5165814,115.8 37.7224251,116.1 36.8289993,116.1 Z" id="Shape" fill="#52677A"></path>
                        <path d="M47.45084,116.1 L41.196859,116.1 C40.3034332,116.1 39.7078159,115.8 39.8070855,115.5 L40.1048941,114.6 C40.2041636,114.3 40.9983199,114 41.8917458,114 L48.1457268,114 C49.0391527,114 49.6347699,114.3 49.5355004,114.6 L49.2376917,115.5 C49.0391527,115.8 48.2449963,116.1 47.45084,116.1 Z" id="Shape" fill="#52677A"></path>
                        <path d="M57.9734112,116.1 L51.7194302,116.1 C50.8260044,116.1 50.2303871,115.8 50.3296567,115.5 L50.6274653,114.6 C50.7267348,114.3 51.5208912,114 52.3150475,114 L58.5690285,114 C59.4624543,114 60.0580716,114.3 59.958802,114.6 L59.760263,115.5 C59.6609934,115.8 58.8668371,116.1 57.9734112,116.1 Z" id="Shape" fill="#52677A"></path>
                        <path d="M68.595252,116.1 L62.341271,116.1 C61.4478451,116.1 60.8522279,115.8 60.8522279,115.5 L61.050767,114.6 C61.1500365,114.3 61.8449233,114 62.7383492,114 L68.9923302,114 C69.885756,114 70.4813733,114.3 70.4813733,114.6 L70.2828342,115.5 C70.1835646,115.8 69.4886779,116.1 68.595252,116.1 Z" id="Shape" fill="#52677A"></path>
                        <path d="M79.2170928,116.1 L72.9631118,116.1 C72.0696859,116.1 71.3747991,115.8 71.4740687,115.5 L71.6726077,114.6 C71.7718773,114.3 72.4667641,114 73.3601899,114 L79.6141709,114 C80.5075968,114 81.103214,114.3 81.103214,114.6 L81.0039445,115.5 C80.8054054,115.8 80.0112491,116.1 79.2170928,116.1 Z" id="Shape" fill="#52677A"></path>
                        <path d="M89.739664,116.1 L83.485683,116.1 C82.5922571,116.1 81.8973703,115.8 81.9966399,115.5 L82.0959094,114.6 C82.0959094,114.3 82.8900657,114 83.6842221,114 L89.9382031,114 C90.8316289,114 91.5265157,114.3 91.4272462,114.6 L91.3279766,115.5 C91.3279766,115.8 90.6330898,116.1 89.739664,116.1 Z" id="Shape" fill="#52677A"></path>
                        <path d="M100.361505,116.1 L94.1075237,116.1 C93.2140979,116.1 92.5192111,115.8 92.5192111,115.5 L92.6184806,114.6 C92.6184806,114.3 93.3133674,114 94.2067933,114 L100.460774,114 C101.3542,114 102.049087,114.3 102.049087,114.6 L102.049087,115.5 C101.949817,115.8 101.254931,116.1 100.361505,116.1 Z" id="Shape" fill="#52677A"></path>
                        <path d="M110.983346,116.1 L104.729364,116.1 C103.835939,116.1 103.141052,115.8 103.141052,115.5 L103.141052,114.6 C103.141052,114.3 103.835939,114 104.729364,114 L110.983346,114 C111.876771,114 112.571658,114.3 112.571658,114.6 L112.670928,115.5 C112.571658,115.8 111.876771,116.1 110.983346,116.1 Z" id="Shape" fill="#52677A"></path>
                        <path d="M121.505917,116.1 L115.251936,116.1 C114.35851,116.1 113.663623,115.8 113.663623,115.5 L113.564354,114.6 C113.564354,114.3 114.25924,114 115.053397,114 L121.307378,114 C122.200804,114 122.89569,114.3 122.89569,114.6 L122.99496,115.5 C123.094229,115.8 122.399343,116.1 121.505917,116.1 Z" id="Shape" fill="#52677A"></path>
                        <path d="M132.127757,116.1 L125.873776,116.1 C124.980351,116.1 124.285464,115.8 124.186194,115.5 L124.086925,114.6 C124.086925,114.3 124.682542,114 125.575968,114 L131.829949,114 C132.723375,114 133.418262,114.3 133.517531,114.6 L133.71607,115.5 C133.71607,115.8 133.021183,116.1 132.127757,116.1 Z" id="Shape" fill="#52677A"></path>
                        <path d="M142.749598,116.1 L136.495617,116.1 C135.602191,116.1 134.907305,115.8 134.808035,115.5 L134.609496,114.6 C134.510226,114.3 135.205113,114 136.098539,114 L142.35252,114 C143.245946,114 143.940833,114.3 144.040102,114.6 L144.238641,115.5 C144.238641,115.8 143.643024,116.1 142.749598,116.1 Z" id="Shape" fill="#52677A"></path>
                        <path d="M153.371439,116.1 L147.117458,116.1 C146.224032,116.1 145.429876,115.8 145.429876,115.5 L145.231337,114.6 C145.132067,114.3 145.826954,114 146.62111,114 L152.875091,114 C153.768517,114 154.562673,114.3 154.562673,114.6 L154.860482,115.5 C154.860482,115.8 154.165595,116.1 153.371439,116.1 Z" id="Shape" fill="#52677A"></path>
                        <path d="M163.89401,116.1 L157.640029,116.1 C156.746603,116.1 155.952447,115.8 155.853178,115.5 L155.555369,114.6 C155.456099,114.3 156.051717,114 156.945142,114 L163.199123,114 C164.092549,114 164.886706,114.3 164.985975,114.6 L165.283784,115.5 C165.383053,115.8 164.787436,116.1 163.89401,116.1 Z" id="Shape" fill="#52677A"></path>
                        <path d="M174.515851,116.1 L168.26187,116.1 C167.368444,116.1 166.574288,115.8 166.475018,115.5 L166.17721,114.6 C166.07794,114.3 166.673557,114 167.566983,114 L173.820964,114 C174.71439,114 175.508546,114.3 175.607816,114.6 L176.004894,115.5 C176.004894,115.8 175.409277,116.1 174.515851,116.1 Z" id="Shape" fill="#52677A"></path>
                        <path d="M36.233382,119.6 L28.1925493,119.6 C27.9940102,119.6 27.8947407,119.5 27.8947407,119.5 L29.0859752,116.5 C29.0859752,116.4 29.2845142,116.4 29.4830533,116.4 L37.325347,116.4 C37.523886,116.4 37.6231556,116.5 37.6231556,116.5 L36.5311907,119.5 C36.6304602,119.5 36.4319211,119.6 36.233382,119.6 Z" id="Shape" fill="#52677A"></path>
                        <path d="M51.0245435,123.5 L42.8844412,123.5 C42.6859021,123.5 42.5866326,123.4 42.5866326,123.4 L43.579328,120.3 C43.579328,120.2 43.7778671,120.2 43.9764061,120.2 L52.0172389,120.2 C52.2157779,120.2 52.3150475,120.3 52.3150475,120.3 L51.5208912,123.4 C51.4216216,123.4 51.2230825,123.5 51.0245435,123.5 Z" id="Shape" fill="#52677A"></path>
                        <path d="M52.414317,127.5 L44.0756757,127.5 C43.8771366,127.5 43.6785975,127.4 43.7778671,127.4 L44.7705625,124.2 C44.7705625,124.1 44.9691015,124.1 45.1676406,124.1 L53.4070124,124.1 C53.6055515,124.1 53.8040906,124.2 53.704821,124.2 L52.9106647,127.4 C52.8113952,127.4 52.6128561,127.5 52.414317,127.5 Z" id="Shape" fill="#52677A"></path>
                        <path d="M57.0799854,131.7 L48.542805,131.7 C48.3442659,131.7 48.1457268,131.6 48.2449963,131.5 L49.1384222,128.1 C49.1384222,128 49.3369613,128 49.5355004,128 L57.8741417,128 C58.0726808,128 58.2712199,128.1 58.1719503,128.1 L57.377794,131.5 C57.4770636,131.7 57.2785245,131.7 57.0799854,131.7 Z" id="Shape" fill="#52677A"></path>
                        <path d="M30.1779401,136.6 L21.4422206,136.6 C21.2436815,136.6 21.0451424,136.5 21.0451424,136.4 L22.6334551,132.4 C22.6334551,132.3 22.9312637,132.2 23.1298028,132.2 L31.6669832,132.2 C31.8655223,132.2 32.0640614,132.3 32.0640614,132.4 L30.6742878,136.4 C30.5750183,136.6 30.3764792,136.6 30.1779401,136.6 Z" id="Shape" fill="#52677A"></path>
                        <path d="M41.7924763,136.6 L33.0567568,136.6 C32.8582177,136.6 32.6596786,136.5 32.6596786,136.4 L34.0494522,132.4 C34.0494522,132.3 34.2479912,132.2 34.5457999,132.2 L43.0829803,132.2 C43.2815194,132.2 43.4800584,132.3 43.4800584,132.4 L42.288824,136.4 C42.1895544,136.6 41.9910153,136.6 41.7924763,136.6 Z" id="Shape" fill="#52677A"></path>
                        <path d="M53.0099343,136.6 L44.2742148,136.6 C44.0756757,136.6 43.8771366,136.5 43.8771366,136.4 L45.0683711,132.4 C45.0683711,132.3 45.2669102,132.2 45.5647188,132.2 L54.1018992,132.2 C54.3004383,132.2 54.4989774,132.3 54.4989774,132.4 L53.506282,136.4 C53.506282,136.6 53.3077429,136.6 53.0099343,136.6 Z" id="Shape" fill="#52677A"></path>
                        <path d="M67.2054785,136.6 L55.6902118,136.6 C55.3924032,136.6 55.1938641,136.5 55.2931337,136.4 L56.1865595,132.5 C56.1865595,132.4 56.4843682,132.3 56.6829072,132.3 L67.9003652,132.3 C68.1981738,132.3 68.3967129,132.4 68.2974434,132.5 L67.6025566,136.4 C67.7018262,136.5 67.5032871,136.6 67.2054785,136.6 Z" id="Shape" fill="#52677A"></path>
                        <path d="M137.885391,136.6 L126.370124,136.6 C126.072316,136.6 125.873776,136.5 125.873776,136.4 L125.377429,132.5 C125.377429,132.4 125.575968,132.3 125.873776,132.3 L137.091234,132.3 C137.389043,132.3 137.587582,132.4 137.587582,132.5 L138.282469,136.4 C138.381738,136.5 138.183199,136.6 137.885391,136.6 Z" id="Shape" fill="#52677A"></path>
                        <path d="M149.499927,136.6 L140.962747,136.6 C140.764207,136.6 140.565668,136.5 140.466399,136.4 L139.672243,132.4 C139.672243,132.3 139.870782,132.2 140.069321,132.2 L148.507232,132.2 C148.705771,132.2 148.90431,132.3 148.90431,132.4 L149.797736,136.4 C149.897005,136.6 149.698466,136.6 149.499927,136.6 Z" id="Shape" fill="#52677A"></path>
                        <path d="M123.491308,136.6 L70.4813733,136.6 C69.885756,136.6 69.4886779,136.4 69.5879474,136.2 L70.1835646,132.7 C70.1835646,132.5 70.6799123,132.3 71.2755296,132.3 L123.094229,132.3 C123.590577,132.3 124.086925,132.5 124.086925,132.7 L124.484003,136.2 C124.484003,136.4 124.086925,136.6 123.491308,136.6 Z" id="Shape" fill="#52677A"></path>
                        <path d="M68.1981738,131.7 L59.6609934,131.7 C59.4624543,131.7 59.2639153,131.6 59.2639153,131.5 L59.958802,128.1 C59.958802,128 60.1573411,128 60.3558802,128 L68.6945215,128 C68.8930606,128 69.0915997,128.1 69.0915997,128.1 L68.4959825,131.5 C68.595252,131.7 68.3967129,131.7 68.1981738,131.7 Z" id="Shape" fill="#52677A"></path>
                        <path d="M79.2170928,131.7 L70.6799123,131.7 C70.4813733,131.7 70.2828342,131.6 70.2828342,131.5 L70.7791819,128.1 C70.7791819,128 70.977721,128 71.17626,128 L79.5149014,128 C79.7134405,128 79.9119795,128.1 79.9119795,128.1 L79.5149014,131.5 C79.6141709,131.7 79.5149014,131.7 79.2170928,131.7 Z" id="Shape" fill="#52677A"></path>
                        <path d="M90.3352812,131.7 L81.7981008,131.7 C81.5995617,131.7 81.4010226,131.6 81.4010226,131.5 L81.7981008,128.1 C81.7981008,128 81.9966399,128 82.195179,128 L90.5338203,128 C90.7323594,128 90.9308985,128.1 90.9308985,128.1 L90.7323594,131.5 C90.7323594,131.7 90.5338203,131.7 90.3352812,131.7 Z" id="Shape" fill="#52677A"></path>
                        <path d="M101.45347,131.7 L92.9162893,131.7 C92.7177502,131.7 92.5192111,131.6 92.5192111,131.5 L92.7177502,128.1 C92.7177502,128 92.9162893,128 93.1148283,128 L101.45347,128 C101.652009,128 101.850548,128.1 101.850548,128.1 L101.850548,131.5 C101.850548,131.7 101.652009,131.7 101.45347,131.7 Z" id="Shape" fill="#52677A"></path>
                        <path d="M112.571658,131.7 L104.034478,131.7 C103.835939,131.7 103.6374,131.6 103.6374,131.5 L103.6374,128.1 C103.6374,128 103.835939,128 104.034478,128 L112.373119,128 C112.571658,128 112.770197,128.1 112.770197,128.1 L112.968736,131.5 C112.869467,131.7 112.770197,131.7 112.571658,131.7 Z" id="Shape" fill="#52677A"></path>
                        <path d="M123.590577,131.7 L115.053397,131.7 C114.854858,131.7 114.656318,131.6 114.656318,131.5 L114.457779,128.1 C114.457779,128 114.656318,128 114.854858,128 L123.193499,128 C123.392038,128 123.590577,128.1 123.590577,128.1 L123.987655,131.5 C123.987655,131.7 123.789116,131.7 123.590577,131.7 Z" id="Shape" fill="#52677A"></path>
                        <path d="M134.708766,131.7 L126.171585,131.7 C125.973046,131.7 125.774507,131.6 125.774507,131.5 L125.377429,128.1 C125.377429,128 125.575968,128 125.774507,128 L134.113148,128 C134.311687,128 134.510226,128.1 134.510226,128.1 L135.105844,131.5 C135.105844,131.7 134.907305,131.7 134.708766,131.7 Z" id="Shape" fill="#52677A"></path>
                        <path d="M145.826954,131.7 L137.289774,131.7 C137.091234,131.7 136.892695,131.6 136.892695,131.5 L136.297078,128.1 C136.297078,128 136.396348,128 136.694156,128 L145.032798,128 C145.231337,128 145.429876,128.1 145.429876,128.1 L146.224032,131.5 C146.124763,131.7 146.025493,131.7 145.826954,131.7 Z" id="Shape" fill="#52677A"></path>
                        <path d="M159.823959,136.7 L153.1729,136.7 C152.279474,136.7 151.584587,136.4 151.485318,136.1 L151.286779,135.1 C151.187509,134.8 151.783126,134.5 152.676552,134.5 L159.228342,134.5 C160.022498,134.5 160.816654,134.8 160.915924,135.1 L161.213733,136.1 C161.213733,136.4 160.618115,136.7 159.823959,136.7 Z" id="Shape" fill="#52677A"></path>
                        <path d="M171.239956,136.7 L164.588897,136.7 C163.695471,136.7 163.000584,136.4 162.901315,136.1 L162.603506,135.1 C162.504237,134.8 163.099854,134.5 163.89401,134.5 L170.4458,134.5 C171.239956,134.5 172.034112,134.8 172.133382,135.1 L172.53046,136.1 C172.62973,136.4 172.034112,136.7 171.239956,136.7 Z" id="Shape" fill="#52677A"></path>
                        <path d="M170.34653,134.2 L163.794741,134.2 C163.000584,134.2 162.206428,133.9 162.107159,133.6 L161.80935,132.6 C161.71008,132.3 162.305698,132 163.099854,132 L169.552374,132 C170.34653,132 171.140687,132.3 171.239956,132.6 L171.537765,133.6 C171.736304,133.9 171.140687,134.2 170.34653,134.2 Z" id="Shape" fill="#52677A"></path>
                        <path d="M182.655953,136.7 L176.004894,136.7 C175.111468,136.7 174.416581,136.4 174.218042,136.1 L173.820964,135.1 C173.721695,134.8 174.317312,134.5 175.111468,134.5 L181.663258,134.5 C182.457414,134.5 183.25157,134.8 183.45011,135.1 L183.847188,136.1 C184.045727,136.4 183.45011,136.7 182.655953,136.7 Z" id="Shape" fill="#52677A"></path>
                        <path d="M63.3339664,127.5 L54.9953251,127.5 C54.796786,127.5 54.5982469,127.4 54.6975164,127.4 L55.4916728,124.2 C55.4916728,124.1 55.6902118,124.1 55.8887509,124.1 L64.1281227,124.1 C64.3266618,124.1 64.5252009,124.2 64.4259313,124.2 L63.8303141,127.4 C63.7310446,127.4 63.5325055,127.5 63.3339664,127.5 Z" id="Shape" fill="#52677A"></path>
                        <path d="M74.2536158,127.5 L65.9149744,127.5 C65.7164354,127.5 65.5178963,127.4 65.5178963,127.4 L66.1135135,124.2 C66.1135135,124.1 66.3120526,124.1 66.5105917,124.1 L74.7499635,124.1 C74.9485026,124.1 75.1470416,124.2 75.1470416,124.2 L74.6506939,127.4 C74.6506939,127.4 74.4521549,127.5 74.2536158,127.5 Z" id="Shape" fill="#52677A"></path>
                        <path d="M85.2725347,127.5 L76.9338934,127.5 C76.7353543,127.5 76.5368152,127.4 76.5368152,127.4 L76.9338934,124.2 C76.9338934,124.1 77.1324324,124.1 77.3309715,124.1 L85.5703433,124.1 C85.7688824,124.1 85.9674215,124.2 85.9674215,124.2 L85.6696129,127.4 C85.5703433,127.4 85.4710738,127.5 85.2725347,127.5 Z" id="Shape" fill="#52677A"></path>
                        <path d="M96.0929145,127.5 L87.7542732,127.5 C87.5557341,127.5 87.357195,127.4 87.357195,127.4 L87.5557341,124.2 C87.5557341,124.1 87.7542732,124.1 87.9528123,124.1 L96.1921841,124.1 C96.3907232,124.1 96.5892622,124.2 96.5892622,124.2 L96.4899927,127.4 C96.4899927,127.4 96.2914536,127.5 96.0929145,127.5 Z" id="Shape" fill="#52677A"></path>
                        <path d="M107.111833,127.5 L98.7731921,127.5 C98.574653,127.5 98.376114,127.4 98.376114,127.4 L98.4753835,124.2 C98.4753835,124.1 98.6739226,124.1 98.8724617,124.1 L107.111833,124.1 C107.310373,124.1 107.508912,124.2 107.508912,124.2 L107.608181,127.4 C107.409642,127.4 107.310373,127.5 107.111833,127.5 Z" id="Shape" fill="#52677A"></path>
                        <path d="M117.535135,127.5 L109.196494,127.5 C108.997955,127.5 108.799416,127.4 108.799416,127.4 L108.700146,124.2 C108.700146,124.1 108.898685,124.1 109.097224,124.1 L117.336596,124.1 C117.535135,124.1 117.733674,124.2 117.733674,124.2 L118.031483,127.4 C117.932213,127.4 117.733674,127.5 117.535135,127.5 Z" id="Shape" fill="#52677A"></path>
                        <path d="M128.454785,127.5 L120.116143,127.5 C119.917604,127.5 119.719065,127.4 119.719065,127.4 L119.421256,124.2 C119.421256,124.1 119.619795,124.1 119.818335,124.1 L128.057706,124.1 C128.256245,124.1 128.454785,124.2 128.454785,124.2 L128.851863,127.4 C128.752593,127.4 128.653324,127.5 128.454785,127.5 Z" id="Shape" fill="#52677A"></path>
                        <path d="M139.275164,127.5 L130.936523,127.5 C130.737984,127.5 130.539445,127.4 130.539445,127.4 L130.043097,124.2 C130.043097,124.1 130.142367,124.1 130.440175,124.1 L138.679547,124.1 C138.878086,124.1 139.076625,124.2 139.076625,124.2 L139.672243,127.4 C139.672243,127.4 139.473703,127.5 139.275164,127.5 Z" id="Shape" fill="#52677A"></path>
                        <path d="M150.095544,127.5 L141.756903,127.5 C141.558364,127.5 141.359825,127.4 141.359825,127.4 L140.664938,124.2 C140.664938,124.1 140.764207,124.1 140.962747,124.1 L149.202118,124.1 C149.400657,124.1 149.599196,124.2 149.599196,124.2 L150.393353,127.4 C150.393353,127.4 150.294083,127.5 150.095544,127.5 Z" id="Shape" fill="#52677A"></path>
                        <path d="M160.816654,127.5 L152.478013,127.5 C152.279474,127.5 152.080935,127.4 152.080935,127.4 L151.286779,124.2 C151.286779,124.1 151.386048,124.1 151.584587,124.1 L159.823959,124.1 C160.022498,124.1 160.221037,124.2 160.221037,124.2 L161.213733,127.4 C161.213733,127.4 161.015194,127.5 160.816654,127.5 Z" id="Shape" fill="#52677A"></path>
                        <path d="M156.746603,131.7 L148.209423,131.7 C148.010884,131.7 147.812345,131.6 147.812345,131.5 L147.018188,128.1 C147.018188,128 147.117458,128 147.315997,128 L155.654638,128 C155.853178,128 156.051717,128.1 156.051717,128.1 L156.945142,131.5 C157.143682,131.7 157.044412,131.7 156.746603,131.7 Z" id="Shape" fill="#52677A"></path>
                        <path d="M179.975676,127.5 L163.794741,127.5 C163.496932,127.5 163.298393,127.4 163.199123,127.3 L162.206428,124.2 C162.206428,124.1 162.404967,124 162.603506,124 L178.486633,124 C178.784441,124 178.98298,124.1 179.08225,124.2 L180.372754,127.3 C180.472023,127.4 180.273484,127.5 179.975676,127.5 Z" id="Shape" fill="#52677A"></path>
                        <path d="M181.563988,131.7 L159.426881,131.7 C159.129072,131.7 158.831264,131.6 158.731994,131.5 L157.838568,128.3 C157.838568,128.2 158.037107,128.1 158.334916,128.1 L180.074945,128.1 C180.372754,128.1 180.670562,128.2 180.769832,128.3 L182.060336,131.5 C182.159606,131.6 181.861797,131.7 181.563988,131.7 Z" id="Shape" fill="#52677A"></path>
                        <path d="M41.4946676,127.5 L25.2144631,127.5 C24.9166545,127.5 24.7181154,127.4 24.817385,127.3 L26.107889,124.2 C26.107889,124.1 26.4056976,124 26.7035062,124 L42.6859021,124 C42.9837107,124 43.1822498,124.1 43.1822498,124.2 L42.1895544,127.3 C42.0902849,127.4 41.7924763,127.5 41.4946676,127.5 Z" id="Shape" fill="#52677A"></path>
                        <path d="M45.8625274,131.7 L23.4276114,131.7 C23.1298028,131.7 22.8319942,131.6 22.9312637,131.5 L24.2217677,128.3 C24.3210373,128.2 24.6188459,128.1 24.9166545,128.1 L46.9544923,128.1 C47.2523009,128.1 47.5501096,128.2 47.45084,128.3 L46.5574142,131.5 C46.4581446,131.6 46.160336,131.7 45.8625274,131.7 Z" id="Shape" fill="#52677A"></path>
                        <path d="M61.7456538,123.5 L53.6055515,123.5 C53.4070124,123.5 53.2084733,123.4 53.3077429,123.4 L54.1018992,120.3 C54.1018992,120.2 54.3004383,120.2 54.4989774,120.2 L62.5398101,120.2 C62.7383492,120.2 62.9368882,120.3 62.8376187,120.3 L62.1427319,123.4 C62.0434624,123.4 61.9441928,123.5 61.7456538,123.5 Z" id="Shape" fill="#52677A"></path>
                        <path d="M72.268225,123.5 L64.1281227,123.5 C63.9295836,123.5 63.7310446,123.4 63.8303141,123.4 L64.4259313,120.3 C64.4259313,120.2 64.6244704,120.2 64.8230095,120.2 L72.8638422,120.2 C73.0623813,120.2 73.2609204,120.3 73.1616508,120.3 L72.6653031,123.4 C72.6653031,123.4 72.4667641,123.5 72.268225,123.5 Z" id="Shape" fill="#52677A"></path>
                        <path d="M82.9893353,123.5 L74.849233,123.5 C74.6506939,123.5 74.4521549,123.4 74.4521549,123.4 L74.9485026,120.3 C74.9485026,120.2 75.1470416,120.2 75.3455807,120.2 L83.3864134,120.2 C83.5849525,120.2 83.7834916,120.3 83.7834916,120.3 L83.485683,123.4 C83.3864134,123.4 83.1878744,123.5 82.9893353,123.5 Z" id="Shape" fill="#52677A"></path>
                        <path d="M93.611176,123.5 L85.4710738,123.5 C85.2725347,123.5 85.0739956,123.4 85.0739956,123.4 L85.3718042,120.3 C85.3718042,120.2 85.5703433,120.2 85.7688824,120.2 L93.8097151,120.2 C94.0082542,120.2 94.2067933,120.3 94.2067933,120.3 L94.1075237,123.4 C94.0082542,123.4 93.8097151,123.5 93.611176,123.5 Z" id="Shape" fill="#52677A"></path>
                        <path d="M104.233017,123.5 L96.0929145,123.5 C95.8943755,123.5 95.6958364,123.4 95.6958364,123.4 L95.7951059,120.3 C95.7951059,120.2 95.993645,120.2 96.1921841,120.2 L104.233017,120.2 C104.431556,120.2 104.630095,120.3 104.630095,120.3 L104.630095,123.4 C104.630095,123.4 104.431556,123.5 104.233017,123.5 Z" id="Shape" fill="#52677A"></path>
                        <path d="M114.656318,123.5 L106.516216,123.5 C106.317677,123.5 106.119138,123.4 106.119138,123.4 L106.019869,120.3 C106.019869,120.2 106.218408,120.2 106.416947,120.2 L114.457779,120.2 C114.656318,120.2 114.854858,120.3 114.854858,120.3 L115.053397,123.4 C114.954127,123.4 114.854858,123.5 114.656318,123.5 Z" id="Shape" fill="#52677A"></path>
                        <path d="M125.377429,123.5 L117.237327,123.5 C117.038787,123.5 116.840248,123.4 116.840248,123.4 L116.641709,120.3 C116.641709,120.2 116.840248,120.2 117.038787,120.2 L125.07962,120.2 C125.278159,120.2 125.476698,120.3 125.476698,120.3 L125.873776,123.4 C125.774507,123.4 125.575968,123.5 125.377429,123.5 Z" id="Shape" fill="#52677A"></path>
                        <path d="M135.99927,123.5 L127.859167,123.5 C127.660628,123.5 127.462089,123.4 127.462089,123.4 L127.065011,120.3 C127.065011,120.2 127.16428,120.2 127.36282,120.2 L135.403652,120.2 C135.602191,120.2 135.80073,120.3 135.80073,120.3 L136.396348,123.4 C136.396348,123.4 136.197809,123.5 135.99927,123.5 Z" id="Shape" fill="#52677A"></path>
                        <path d="M146.422571,123.5 L138.282469,123.5 C138.08393,123.5 137.885391,123.4 137.885391,123.4 L137.289774,120.3 C137.289774,120.2 137.389043,120.2 137.587582,120.2 L145.628415,120.2 C145.826954,120.2 146.025493,120.3 146.025493,120.3 L146.72038,123.4 C146.819649,123.4 146.62111,123.5 146.422571,123.5 Z" id="Shape" fill="#52677A"></path>
                        <path d="M157.342221,123.5 L149.202118,123.5 C149.003579,123.5 148.80504,123.4 148.80504,123.4 L148.010884,120.3 C148.010884,120.2 148.110153,120.2 148.308692,120.2 L156.349525,120.2 C156.548064,120.2 156.746603,120.3 156.746603,120.3 L157.640029,123.4 C157.640029,123.4 157.54076,123.5 157.342221,123.5 Z" id="Shape" fill="#52677A"></path>
                        <path d="M167.765522,123.5 L159.62542,123.5 C159.426881,123.5 159.228342,123.4 159.228342,123.4 L158.334916,120.3 C158.334916,120.2 158.434186,120.2 158.632725,120.2 L166.673557,120.2 C166.872096,120.2 167.070636,120.3 167.070636,120.3 L168.1626,123.4 C168.063331,123.4 167.964061,123.5 167.765522,123.5 Z" id="Shape" fill="#52677A"></path>
                        <path d="M178.486633,123.5 L170.34653,123.5 C170.147991,123.5 169.949452,123.4 169.949452,123.4 L168.857487,120.3 C168.857487,120.2 168.956757,120.2 169.155296,120.2 L177.196129,120.2 C177.394668,120.2 177.593207,120.3 177.593207,120.3 L178.883711,123.4 C178.784441,123.4 178.685172,123.5 178.486633,123.5 Z" id="Shape" fill="#52677A"></path>
                        <path d="M46.8552228,119.6 L38.8143901,119.6 C38.615851,119.6 38.5165814,119.5 38.5165814,119.5 L39.5092768,116.5 C39.5092768,116.4 39.7078159,116.4 39.906355,116.4 L47.7486486,116.4 C47.9471877,116.4 48.0464573,116.5 48.0464573,116.5 L47.1530314,119.5 C47.2523009,119.5 47.0537619,119.6 46.8552228,119.6 Z" id="Shape" fill="#52677A"></path>
                        <path d="M57.0799854,119.6 L49.0391527,119.6 C48.8406136,119.6 48.741344,119.5 48.741344,119.5 L49.6347699,116.5 C49.6347699,116.4 49.833309,116.4 50.0318481,116.4 L57.8741417,116.4 C58.0726808,116.4 58.1719503,116.5 58.1719503,116.5 L57.4770636,119.5 C57.4770636,119.5 57.2785245,119.6 57.0799854,119.6 Z" id="Shape" fill="#52677A"></path>
                        <path d="M67.7018262,119.6 L59.6609934,119.6 C59.4624543,119.6 59.2639153,119.5 59.3631848,119.5 L60.0580716,116.5 C60.0580716,116.4 60.2566107,116.4 60.4551497,116.4 L68.2974434,116.4 C68.4959825,116.4 68.595252,116.5 68.595252,116.5 L67.9996348,119.5 C67.9996348,119.5 67.9003652,119.6 67.7018262,119.6 Z" id="Shape" fill="#52677A"></path>
                        <path d="M77.9265888,119.6 L69.885756,119.6 C69.6872169,119.6 69.4886779,119.5 69.5879474,119.5 L70.0842951,116.5 C70.0842951,116.4 70.2828342,116.4 70.4813733,116.4 L78.3236669,116.4 C78.522206,116.4 78.7207451,116.5 78.6214755,116.5 L78.2243974,119.5 C78.3236669,119.5 78.1251278,119.6 77.9265888,119.6 Z" id="Shape" fill="#52677A"></path>
                        <path d="M88.5484295,119.6 L80.5075968,119.6 C80.3090577,119.6 80.1105186,119.5 80.2097882,119.5 L80.6068663,116.5 C80.6068663,116.4 80.8054054,116.4 81.0039445,116.4 L88.8462381,116.4 C89.0447772,116.4 89.2433163,116.5 89.1440467,116.5 L88.9455077,119.5 C88.8462381,119.5 88.7469686,119.6 88.5484295,119.6 Z" id="Shape" fill="#52677A"></path>
                        <path d="M98.6739226,119.6 L90.6330898,119.6 C90.4345508,119.6 90.2360117,119.5 90.2360117,119.5 L90.4345508,116.5 C90.4345508,116.4 90.6330898,116.4 90.8316289,116.4 L98.6739226,116.4 C98.8724617,116.4 99.0710007,116.5 99.0710007,116.5 L98.9717312,119.5 C99.0710007,119.5 98.8724617,119.6 98.6739226,119.6 Z" id="Shape" fill="#52677A"></path>
                        <path d="M109.295763,119.6 L101.254931,119.6 C101.056392,119.6 100.857852,119.5 100.857852,119.5 L100.857852,116.5 C100.857852,116.4 101.056392,116.4 101.254931,116.4 L109.097224,116.4 C109.295763,116.4 109.494302,116.5 109.494302,116.5 L109.593572,119.5 C109.593572,119.5 109.494302,119.6 109.295763,119.6 Z" id="Shape" fill="#52677A"></path>
                        <path d="M119.520526,119.6 L111.479693,119.6 C111.281154,119.6 111.082615,119.5 111.082615,119.5 L110.983346,116.5 C110.983346,116.4 111.181885,116.4 111.380424,116.4 L119.222717,116.4 C119.421256,116.4 119.619795,116.5 119.619795,116.5 L119.917604,119.5 C119.917604,119.5 119.719065,119.6 119.520526,119.6 Z" id="Shape" fill="#52677A"></path>
                        <path d="M130.142367,119.6 L122.101534,119.6 C121.902995,119.6 121.704456,119.5 121.704456,119.5 L121.406647,116.5 C121.406647,116.4 121.505917,116.4 121.704456,116.4 L129.546749,116.4 C129.745289,116.4 129.943828,116.5 129.943828,116.5 L130.440175,119.5 C130.440175,119.5 130.340906,119.6 130.142367,119.6 Z" id="Shape" fill="#52677A"></path>
                        <path d="M140.664938,119.6 L132.624105,119.6 C132.425566,119.6 132.227027,119.5 132.227027,119.5 L131.730679,116.5 C131.730679,116.4 131.829949,116.4 132.028488,116.4 L139.870782,116.4 C140.069321,116.4 140.26786,116.5 140.26786,116.5 L140.863477,119.5 C140.962747,119.5 140.863477,119.6 140.664938,119.6 Z" id="Shape" fill="#52677A"></path>
                        <path d="M151.08824,119.6 L143.047407,119.6 C142.848868,119.6 142.650329,119.5 142.650329,119.5 L141.955442,116.5 C141.955442,116.4 142.054711,116.4 142.253251,116.4 L150.095544,116.4 C150.294083,116.4 150.492622,116.5 150.492622,116.5 L151.286779,119.5 C151.386048,119.5 151.286779,119.6 151.08824,119.6 Z" id="Shape" fill="#52677A"></path>
                        <path d="M161.114463,119.6 L153.07363,119.6 C152.875091,119.6 152.676552,119.5 152.676552,119.5 L151.882396,116.5 C151.882396,116.4 151.981665,116.4 152.180205,116.4 L160.022498,116.4 C160.221037,116.4 160.419576,116.5 160.419576,116.5 L161.412272,119.5 C161.412272,119.5 161.313002,119.6 161.114463,119.6 Z" id="Shape" fill="#52677A"></path>
                        <path d="M176.104164,119.6 L164.092549,119.6 C163.496932,119.6 163.000584,119.4 163.000584,119.2 L162.206428,116.7 C162.107159,116.5 162.504237,116.3 163.099854,116.3 L174.912929,116.3 C175.409277,116.3 176.004894,116.5 176.004894,116.7 L176.997589,119.2 C177.096859,119.4 176.699781,119.6 176.104164,119.6 Z" id="Shape" fill="#52677A"></path>
                        <path d="M39.6085464,123.5 L27.398393,123.5 C26.8027757,123.5 26.4056976,123.3 26.5049671,123.1 L27.4976625,120.5 C27.5969321,120.3 28.0932798,120.1 28.688897,120.1 L40.7005113,120.1 C41.2961286,120.1 41.6932067,120.3 41.5939372,120.5 L40.7997809,123.1 C40.6012418,123.3 40.1048941,123.5 39.6085464,123.5 Z" id="Shape" fill="#52677A"></path>
                        <rect id="Rectangle-path" fill="#52677A" x="32.7589481" y="102.6" width="23.9239591" height="4.2"></rect>
                        <rect id="Rectangle-path" fill="#52677A" x="147.713075" y="102.6" width="23.9239591" height="4.3"></rect>
                    </g>
                </g>
            </g>
            <g id="MASK" transform="translate(38.722425, 0.000000)">
                <g id="Group">
                    <g id="XMLID_50_-Clipped" transform="translate(0.000000, 2.000000)">
                        <mask id="mask-2" fill="white">
                            <use xlink:href="#path-1"></use>
                        </mask>
                        <g id="XMLID_1_"></g>
                        <g id="XMLID_50_" mask="url(#mask-2)" fill-rule="nonzero">
                            <g transform="translate(132.218749, 565.000000)">
                                <polygon id="XMLID_55_" fill="#FFFFFF" points="28.3739504 27.1 26.7332798 22.5 22.1007981 21.4 26.5402597 19.7 27.6018701 14.9 29.2425407 19.5 33.8750224 20.6 29.4355608 22.3"></polygon>
                                <path d="M49.5096482,25.4 C49.5096482,39.3 38.6040142,50.6 25.1891192,50.6 C11.7742243,50.6 0.868590319,39.3 0.868590319,25.4 C0.868590319,11.5 11.7742243,0.2 25.1891192,0.2 C38.6040142,0.2 49.5096482,11.5 49.5096482,25.4 Z" id="XMLID_54_" fill="#6A37A1" opacity="0.18"></path>
                                <ellipse id="XMLID_53_" fill="#6A37A1" opacity="0.18" cx="25.1891192" cy="25.4" rx="21.3287178" ry="22.1"></ellipse>
                                <path d="M42.5609256,25.4 C42.5609256,35.3 34.8401228,43.4 25.1891192,43.4 C15.6346257,43.4 7.81731287,35.4 7.81731287,25.4 C7.81731287,15.5 15.5381157,7.4 25.1891192,7.4 C34.8401228,7.5 42.5609256,15.5 42.5609256,25.4 Z" id="XMLID_52_" fill="#6A37A1"></path>
                                <path d="M32.0413318,36.3 C22.4868383,36.3 14.6695254,28.3 14.6695254,18.3 C14.6695254,15.2 15.4416057,12.2 16.7927462,9.7 C11.3881842,12.8 7.81731287,18.7 7.81731287,25.5 C7.81731287,35.4 15.5381157,43.5 25.1891192,43.5 C31.7518017,43.5 37.4458937,39.7 40.4377048,34.2 C37.9284439,35.5 35.1296529,36.3 32.0413318,36.3 Z" id="XMLID_51_" fill="#5B2D8C"></path>
                            </g>
                        </g>
                    </g>
                    <g id="Clipped" transform="translate(0.000000, 2.000000)">
                        <mask id="mask-4" fill="white">
                            <use xlink:href="#path-3"></use>
                        </mask>
                        <g id="XMLID_1_"></g>
                    </g>
                    <g id="Clipped" transform="translate(0.000000, 2.000000)">
                        <mask id="mask-6" fill="white">
                            <use xlink:href="#path-5"></use>
                        </mask>
                        <g id="XMLID_1_"></g>
                        <g id="Group" mask="url(#mask-6)">
                            <g transform="translate(300.146210, 83.000000)">
                                <g id="Group" stroke="none" stroke-width="1" fill="none" fill-rule="evenodd">
                                    <path d="M102.300638,66 C102.300638,88.3 84.8323211,106.4 63.3105832,106.4 C47.7724675,106.4 34.3575726,97 28.0844203,83.3 C27.7948902,82.6 27.4088501,81.9 27.21583,81.2 C25.9611995,77.9 24.9960992,74.4 24.610059,70.7 C24.610059,70.4 24.513549,70.2 24.513549,69.9 C24.417039,68.6 24.3205289,67.2 24.3205289,65.9 C24.3205289,65.1 24.3205289,64.4 24.417039,63.6 L24.513549,62.3 C24.7065691,60.2 24.9960992,58.2 25.4786493,56.3 C25.9611995,54.1 26.6367698,52 27.5053601,50 L27.6018701,49.9 C28.3739504,48 29.3390508,46.1 30.4971712,44.3 C31.5587816,42.5 32.813412,40.8 34.1645525,39.2 C34.1645525,39.2 34.2610626,39.1 34.2610626,39.1 C35.6122031,37.5 37.0598536,36 38.7005242,34.7 C40.2446848,33.4 41.7888453,32.3 43.4295159,31.2 C43.622536,31.1 43.719046,31 43.9120661,30.9 C45.6492467,29.8 47.5794475,28.9 49.5096482,28.1 C51.825889,27.2 54.1421299,26.5 56.6513908,26 C58.8711216,25.6 61.1873625,25.4 63.6001133,25.4 C64.1791735,25.4 64.6617237,25.4 65.2407839,25.4 C69.5837355,25.6 73.8301771,26.5 77.6905785,28.1 C91.9740637,34.2 102.300638,48.9 102.300638,66 Z" id="Shape" fill="#008ECE" fill-rule="nonzero"></path>
                                    <g opacity="0.2" fill="#3D6181" fill-rule="nonzero" id="Shape">
                                        <path d="M63.3105832,25.6 C63.8896434,25.6 64.3721936,25.6 64.9512538,25.6 C69.2942054,25.8 73.540647,26.7 77.4010484,28.3 C91.9740637,34.2 102.300638,48.8 102.300638,66 C102.300638,88.3 84.8323211,106.4 63.3105832,106.4 C47.7724675,106.4 34.3575726,97 28.0844203,83.3 C27.7948902,82.6 27.4088501,81.9 27.21583,81.2 C25.9611995,77.9 24.9960992,74.4 24.610059,70.7 C24.610059,70.4 24.513549,70.2 24.513549,69.9 C24.417039,68.6 24.3205289,67.2 24.3205289,65.9 C24.3205289,65.1 24.3205289,64.4 24.417039,63.6 L24.513549,62.3 C24.7065691,60.2 24.9960992,58.2 25.4786493,56.3 C25.9611995,54.1 26.6367698,52 27.5053601,50 L27.6018701,49.9 C28.3739504,48 29.3390508,46.1 30.4971712,44.3 C31.5587816,42.5 32.813412,40.8 34.1645525,39.2 C34.1645525,39.2 34.2610626,39.1 34.2610626,39.1 C35.6122031,37.5 37.0598536,36 38.7005242,34.7 C40.2446848,33.4 41.7888453,32.3 43.4295159,31.2 C43.622536,31.1 43.719046,31 43.9120661,30.9 C45.6492467,29.8 47.5794475,28.9 49.5096482,28.1 C51.825889,27.2 54.1421299,26.5 56.6513908,26 C58.6781015,25.8 60.9943424,25.6 63.3105832,25.6 Z M63.3105832,0.4 C60.4152822,0.4 57.4234711,0.6 54.52817,1 L54.2386399,1 L52.1154191,1.4 C49.7991783,1.8 47.4829374,2.4 45.2632066,3.1 L44.6841464,3.1 L40.4377048,4.8 C37.4458937,6 34.4540826,7.5 31.6552916,9.2 C31.2692515,9.4 30.9797214,9.6 30.8832113,9.7 L30.7867013,9.7 L30.6901913,9.8 C27.9879103,11.5 25.3821393,13.4 22.9693884,15.5 C20.5566375,17.6 18.2403967,19.9 16.1171759,22.3 C15.8276458,22.6 15.6346257,22.9 15.4416057,23.1 C13.4148949,25.6 11.4846942,28.2 9.74751358,31 C8.01033294,33.9 6.46617237,36.9 5.11503188,40.1 L5.01852184,40.2 C3.66738135,43.5 2.50926092,46.9 1.73718064,50.4 C0.965100354,53.6 0.482550177,56.9 0.193020071,60.2 L0.193020071,60.4 L0.193020071,60.6 L0.0965100354,61.9 L0.0965100354,62.1 L0.0965100354,62.3 C-1.70530257e-13,63.5 -1.70530257e-13,64.7 -1.70530257e-13,66.1 C-1.70530257e-13,68.2 0.0965100354,70.3 0.289530106,72.4 C0.289530106,72.9 0.386040142,73.4 0.482550177,73.9 C1.15812042,79.7 2.60577096,85.4 4.72899174,90.8 C5.21154191,92.1 5.69409209,93.2 6.2731523,94.4 C11.2916741,105.4 19.205497,114.7 29.1460307,121.3 C39.3760944,128.1 51.2468288,131.8 63.5036033,131.8 C98.4402361,131.8 126.910697,102.3 126.910697,66.1 C126.910697,52.6 122.953785,39.6 115.522512,28.6 C108.28426,17.8 98.247216,9.6 86.3764817,4.9 C79.9103093,2.3 73.0580968,0.8 66.1093743,0.5 C65.0477639,0.4 64.1791735,0.4 63.3105832,0.4 Z"></path>
                                    </g>
                                    <path d="M63.3105832,25.6 C63.8896434,25.6 64.3721936,25.6 64.9512538,25.6 C69.2942054,25.8 73.540647,26.7 77.4010484,28.3 C91.9740637,34.2 102.300638,48.8 102.300638,66 C102.300638,88.3 84.8323211,106.4 63.3105832,106.4 C47.7724675,106.4 34.3575726,97 28.0844203,83.3 C27.7948902,82.6 27.4088501,81.9 27.21583,81.2 C25.9611995,77.9 24.9960992,74.4 24.610059,70.7 C24.610059,70.4 24.513549,70.2 24.513549,69.9 C24.417039,68.6 24.3205289,67.2 24.3205289,65.9 C24.3205289,65.1 24.3205289,64.4 24.417039,63.6 L24.513549,62.3 C24.7065691,60.2 24.9960992,58.2 25.4786493,56.3 C25.9611995,54.1 26.6367698,52 27.5053601,50 L27.6018701,49.9 C28.3739504,48 29.3390508,46.1 30.4971712,44.3 C31.5587816,42.5 32.813412,40.8 34.1645525,39.2 C34.1645525,39.2 34.2610626,39.1 34.2610626,39.1 C35.6122031,37.5 37.0598536,36 38.7005242,34.7 C40.2446848,33.4 41.7888453,32.3 43.4295159,31.2 C43.622536,31.1 43.719046,31 43.9120661,30.9 C45.6492467,29.8 47.5794475,28.9 49.5096482,28.1 C51.825889,27.2 54.1421299,26.5 56.6513908,26 C58.6781015,25.8 60.9943424,25.6 63.3105832,25.6 Z M63.3105832,16.2 C60.7048123,16.2 58.1955514,16.4 55.5897804,16.8 L54.8177001,16.9 C52.4049492,17.3 49.9921983,18 47.6759575,18.8 L47.5794475,18.8 L46.0352869,19.4 C43.719046,20.3 41.4028052,21.5 39.2795844,22.8 C39.0865643,22.9 38.8935443,23 38.7970342,23.1 L38.7005242,23.1 L38.6040142,23.1 C36.5773034,24.4 34.5505927,25.8 32.716902,27.4 C30.7867013,29 29.0495207,30.8 27.4088501,32.7 C27.31234,32.8 27.21583,33 27.0228099,33.1 C25.3821393,35 23.9344888,37 22.6798583,39.2 C21.3287178,41.4 20.1705974,43.7 19.205497,46.1 L19.108987,46.3 C18.0473766,48.8 17.2752963,51.4 16.5997261,54.1 C16.0206659,56.5 15.6346257,59 15.4416057,61.5 L15.4416057,61.6 L15.4416057,61.7 L15.3450956,63 L15.3450956,63.1 L15.3450956,63.2 C15.2485856,64.1 15.2485856,65 15.2485856,66 C15.2485856,67.6 15.3450956,69.2 15.4416057,70.8 C15.4416057,71.1 15.5381157,71.5 15.5381157,71.8 C16.0206659,76.2 17.0822763,80.6 18.7229469,84.7 C19.108987,85.7 19.4950272,86.5 19.8810673,87.4 C27.7948902,104.7 44.8771665,115.8 63.3105832,115.8 C89.850843,115.8 111.469091,93.4 111.469091,65.9 C111.469091,55.6 108.47728,45.8 102.879698,37.4 C97.3786257,29.2 89.7543329,23 80.7788996,19.4 C75.8568878,17.4 70.6453459,16.3 65.337294,16.1 C64.6617237,16.2 63.9861535,16.2 63.3105832,16.2 Z" id="Shape" fill="#3D4A81" fill-rule="nonzero"></path>
                                </g>
                                <path d="M27.4088501,50.2 C26.5402597,52.2 25.8646895,54.3 25.3821393,56.5 C24.8995891,58.5 24.610059,60.5 24.417039,62.5 L24.3205289,63.8 L38.024954,75.6 L39.8586446,77.2 C41.016765,78.2 42.3679055,78.7 43.719046,78.7 C45.4562267,78.7 47.1934073,77.9 48.4480378,76.4 C50.5712586,73.7 50.2817284,69.7 47.6759575,67.5 L38.6040142,59.1 L38.024954,58.5 L27.5053601,50.1 L27.4088501,50.2 Z" id="Shape" stroke="none" fill="#32D5FC" fill-rule="nonzero"></path>
                                <path d="M69.8732656,46.1 C68.6186352,47.6 66.9779646,48.4 65.1442739,48.4 C64.8547438,48.4 64.6617237,48.4 64.3721936,48.3 C63.2140732,48.2 62.1524628,47.7 61.1873625,46.9 L43.2364959,31.4 C43.4295159,31.3 43.526026,31.2 43.719046,31.1 C45.4562267,30 47.3864274,29.1 49.3166281,28.3 C51.6328689,27.4 53.9491098,26.7 56.4583707,26.2 C56.4583707,26.2 56.4583707,26.2 56.5548808,26.2 L71.8034663,36.3 C74.2162172,38.6 71.9964864,43.4 69.8732656,46.1 Z" id="Shape" stroke="none" fill="#32D5FC" fill-rule="nonzero"></path>
                                <path d="M24.513549,62.5 L36.1912633,72.6 C37.1563636,73.4 37.8319339,74.5 38.121464,75.7 C38.7005242,77.7 38.3144841,79.8 36.9633436,81.5 C35.8052231,83 34.0680425,83.8 32.2343518,83.8 C30.8832113,83.8 29.4355608,83.3 28.3739504,82.3 L27.21583,81.3 C25.9611995,78 24.9960992,74.5 24.610059,70.8 C24.417039,69.2 24.3205289,67.7 24.3205289,66 C24.3205289,65.2 24.3205289,64.5 24.417039,63.7 L24.513549,62.5 Z" id="Shape" stroke="none" fill="#32D5FC" fill-rule="nonzero"></path>
                                <path d="M54.43166,97.8 C53.2735395,99.3 51.5363589,100.1 49.7026682,100.1 C48.3515277,100.1 46.9038772,99.6 45.8422668,98.6 L28.0844203,83.3 C27.7948902,82.6 27.4088501,81.9 27.21583,81.2 C25.9611995,77.9 24.9960992,74.4 24.610059,70.7 C24.610059,70.4 24.513549,70.2 24.513549,69.9 C26.7332798,68.2 29.8216009,68.3 31.9448217,70.2 L53.5630697,88.9 C56.1688406,91.2 56.5548808,95.2 54.43166,97.8 Z" id="Shape" stroke="none" fill="#008ECE" fill-rule="nonzero"></path>
                                <path d="M87.148562,44.1 C85.9904416,45.6 84.3497709,46.3 82.6125903,46.3 C81.3579599,46.3 80.1033294,45.9 78.945209,45 L56.3618607,26.3 C56.3618607,26.3 56.3618607,26.3 56.2653506,26.3 C58.4850815,25.9 60.8013223,25.7 63.2140732,25.7 C63.7931334,25.7 64.2756836,25.7 64.8547438,25.7 C69.1976954,25.9 73.4441369,26.8 77.3045384,28.4 L86.0869516,35.7 C88.6927225,37.7 89.1752727,41.5 87.148562,44.1 Z" id="Shape" stroke="none" fill="#32D5FC" fill-rule="nonzero"></path>
                                <path d="M80.5858796,61.7 L64.4687037,48.3 L43.8155561,31.1 C43.622536,31.2 43.526026,31.3 43.3330059,31.4 C41.6923353,32.4 40.0516647,33.6 38.6040142,34.9 C37.0598536,36.3 35.515693,37.7 34.1645525,39.3 L34.6471027,39.7 L34.0680425,39.4 C32.716902,41 31.4622715,42.7 30.4006612,44.5 C29.3390508,46.3 28.3739504,48.1 27.5053601,50.1 L27.4088501,50.2 L36.1912633,57.8 C36.4807934,58.1 36.8668335,58.3 37.2528737,58.5 C38.121464,59 39.0865643,59.2 40.1481747,59.2 C41.8853554,59.2 43.622536,58.4 44.8771665,56.9 C46.0352869,55.4 47.2899174,52.9 47.7724675,50.6 L72.9615868,71.5 C74.1197072,72.4 75.4708477,72.9 76.7254782,72.9 C78.4626588,72.9 80.2963495,72.1 81.4544699,70.5 C83.5776907,67.9 83.1916505,63.9 80.5858796,61.7 Z" id="Shape" stroke="none" fill="#32D5FC" fill-rule="nonzero"></path>
                                <path d="M62.4419929,38.5 L87.148562,59.5 L62.4419929,38.5 Z" id="Shape" stroke="#008ECE" stroke-width="12.5602" fill="#D30079" fill-rule="nonzero" stroke-linecap="round" stroke-linejoin="round"></path>
                                <path d="M42.3679055,54 L59.0641417,68.9 L42.3679055,54 Z" id="Shape" stroke="#008ECE" stroke-width="12.5602" fill="#D30079" fill-rule="nonzero" stroke-linecap="round" stroke-linejoin="round"></path>
                            </g>
                        </g>
                    </g>
                    <g id="XMLID_20_-Clipped" transform="translate(1.000000, 0.000000)">
                        <mask id="mask-8" fill="white">
                            <use xlink:href="#path-7"></use>
                        </mask>
                        <g id="XMLID_1_"></g>
                        <g id="XMLID_20_" mask="url(#mask-8)">
                            <g transform="translate(726.720567, 129.000000)">
                                <path d="M127.972307,11.3 C127.972307,10.3 127.875797,9.4 127.779287,8.4 L127.200227,0.7 L119.865464,2 C118.900364,2.2 118.031773,2.3 117.066673,2.5 C106.547079,4.7 96.4135254,8.9 86.8590319,14.5 L124.208416,44.5 C127.200227,33.7 128.551367,22.5 127.972307,11.3 Z" id="XMLID_49_" fill="#CF6F60" fill-rule="nonzero"></path>
                                <polygon id="XMLID_48_" fill="#CF6F60" fill-rule="nonzero" points="34.5505927 79.9 15.8276458 84.3 0.772080283 104.4 30.2076411 106.2"></polygon>
                                <polygon id="XMLID_47_" fill="#CF6F60" fill-rule="nonzero" points="76.339438 113.4 76.9184982 133.4 61.8629327 153.5 52.7909894 124.4"></polygon>
                                <path d="M88.2101724,21.6 C66.3989044,37 47.3864274,60.7 36.2877733,87.2 L26.2507296,111.2 L37.9284439,120.6 L49.6061582,130 L69.4872255,114 C91.4915136,96.3 108.95983,71.3 117.838753,45.6 L88.2101724,21.6 Z" id="XMLID_46_" fill="#CF6F60" fill-rule="nonzero"></path>
                                <path d="M86.9555419,14.6 C63.5036033,28.7 44.2981063,52.2 34.6471027,79.9 L25.8646895,104.9 L40.5342149,116.7 L55.2037403,128.5 L76.339438,113.5 C99.6948666,96.9 116.970163,71.8 124.304926,44.7 L86.9555419,14.6 Z" id="XMLID_45_" fill="#E9F8FF" fill-rule="nonzero"></path>
                                <rect id="XMLID_44_" fill="#CF6F60" fill-rule="nonzero" transform="translate(43.970527, 112.027375) rotate(37.769457) translate(-43.970527, -112.027375) " x="42.0885376" y="90.6268775" width="3.76397889" height="42.8009951"></rect>
                                <g id="XMLID_29_" stroke-width="1" fill="none" fill-rule="evenodd" transform="translate(69.487225, 31.000000)">
                                    <path d="M34.6471027,33.2 C28.0844203,41.9 16.0206659,43.5 7.52778276,36.8 C-0.868590319,30 -2.41275089,17.5 4.05342149,8.7 C10.6161039,-7.43849426e-15 22.6798583,-1.6 31.1727414,5.1 C39.5691145,12 41.1132751,24.5 34.6471027,33.2 Z" id="XMLID_43_" fill="#CF6F60" fill-rule="nonzero"></path>
                                    <path d="M16.6962361,6.5 C13.3183849,7.1 10.2300638,9 7.9138229,12 C3.08832113,18.5 4.14993152,27.9 10.5195939,32.9 C14.9590555,36.5 20.8461676,36.9 25.6716694,34.5 C22.9693884,31.1 20.5566375,27.2 18.7229469,22.8 C16.5997261,18 15.9241558,12.1 16.6962361,6.5 Z" id="XMLID_42_" fill="#1DAAEB" fill-rule="nonzero"></path>
                                    <path d="M28.0844203,9.3 C24.7065691,6.6 20.5566375,5.7 16.5997261,6.4 C15.8276458,12.1 16.5032161,17.9 18.5299268,22.8 C20.4601275,27.2 22.7763684,31 25.4786493,34.5 C27.4088501,33.5 29.1460307,32.1 30.5936812,30.2 C35.515693,23.7 34.3575726,14.4 28.0844203,9.3 Z" id="XMLID_41_" fill="#1DCCEB" fill-rule="nonzero"></path>
                                </g>
                            </g>
                        </g>
                    </g>
                </g>
            </g>
        </g>
    </g>
</svg>