<?xml version="1.0" encoding="UTF-8" standalone="no"?>
<svg width="112px" height="28px" viewBox="0 0 112 28" version="1.1" xmlns="http://www.w3.org/2000/svg" xmlns:xlink="http://www.w3.org/1999/xlink">
  <defs></defs>
  <g id="Page-1" stroke="none" stroke-width="1" fill="none" fill-rule="evenodd">
    <g id="1024" transform="translate(-36.000000, -5326.000000)" fill="#FFFFFF">
      <g id="Rodapé" transform="translate(0.000000, 5223.000000)">
        <path d="M127.518376,112.152078 C127.518376,110.872313 128.30346,110.01862 129.394106,110.01862 C130.356174,110.01862 130.9794,110.553147 131.109491,111.457968 C132.026178,110.444692 133.221199,109.857488 134.597743,109.857488 C136.163372,109.857488 137.49151,110.525258 138.47778,111.805023 C139.518508,110.579486 141.156746,109.857488 142.434965,109.857488 C145.478487,109.857488 147.559942,111.671779 147.559942,115.029224 L147.559942,122.388646 C147.559942,123.666861 146.779396,124.519005 145.685725,124.519005 C144.592054,124.519005 143.811508,123.666861 143.811508,122.388646 L143.811508,115.695446 C143.811508,114.149192 142.979531,113.05535 141.627191,113.05535 C140.246109,113.05535 139.414132,114.149192 139.414132,115.695446 L139.414132,122.387097 C139.414132,123.665312 138.635099,124.517456 137.542941,124.517456 C136.447757,124.517456 135.667211,123.665312 135.667211,122.387097 L135.667211,115.695446 C135.667211,114.149192 134.835234,113.05535 133.481381,113.05535 C131.946006,113.05535 131.269835,114.149192 131.269835,115.695446 L131.269835,122.387097 C131.269835,123.665312 130.487777,124.517456 129.394106,124.517456 C128.30346,124.517456 127.518376,123.665312 127.518376,122.387097 L127.518376,112.152078 L127.518376,112.152078 Z M49.4471817,123.237691 C49.4471817,127.851661 46.5080344,130.169492 42.2377242,130.169492 C40.7023487,130.169492 36.3322013,129.397914 36.3322013,127.293894 C36.3322013,126.573446 37.1142595,125.611298 37.8418611,125.611298 C39.038395,125.611298 40.3665326,126.813595 42.526647,126.813595 C44.34792,126.813595 45.7032859,125.722851 45.7032859,123.772217 L45.7032859,122.867396 L45.6473166,122.867396 C44.866771,124.040255 43.5930901,124.681687 41.8731671,124.681687 C37.9447237,124.680138 36.0962224,121.132122 36.0962224,117.320716 C36.0962224,113.456632 38.4923157,109.855938 42.2649525,109.855938 C43.5386334,109.855938 44.9953493,110.443143 45.7002605,111.617551 C45.9317014,110.604275 46.5307247,110.017071 47.5729648,110.017071 C48.6666362,110.017071 49.445669,110.870764 49.445669,112.150528 L49.445669,123.237691 L49.4471817,123.237691 Z M42.7596006,113.376066 C40.8082367,113.376066 39.8446562,115.455296 39.8446562,117.241699 C39.8446562,119.29459 40.8082367,121.161559 42.7596006,121.161559 C44.7623957,121.161559 45.7017732,119.243462 45.7017732,117.376493 C45.7017732,115.509523 44.8153397,113.376066 42.7596006,113.376066 L42.7596006,113.376066 Z M50.5968224,105.963966 C50.5968224,104.6873 51.3758553,103.830508 52.4695267,103.830508 C53.5631981,103.830508 54.3452563,104.6873 54.3452563,105.963966 L54.3452563,122.387097 C54.3452563,123.665312 53.5616854,124.517456 52.4695267,124.517456 C51.377368,124.517456 50.5968224,123.665312 50.5968224,122.387097 L50.5968224,105.963966 L50.5968224,105.963966 Z M68.5176037,117.294377 C68.5176037,121.293254 65.8386382,124.680138 61.8043069,124.680138 C57.7714882,124.680138 55.0894974,121.293254 55.0894974,117.294377 C55.0894974,113.402405 57.8486352,109.855938 61.8043069,109.855938 C65.7599786,109.855938 68.5176037,113.402405 68.5176037,117.294377 L68.5176037,117.294377 Z M58.8364186,117.294377 C58.8364186,119.135007 59.7727707,121.16001 61.8027942,121.16001 C63.8328177,121.16001 64.7691698,119.133458 64.7691698,117.294377 C64.7691698,115.455296 63.8585334,113.376066 61.8027942,113.376066 C59.7455424,113.376066 58.8364186,115.455296 58.8364186,117.294377 L58.8364186,117.294377 Z M69.2346165,105.963966 C69.2346165,104.6873 70.015162,103.830508 71.1088334,103.830508 C72.2025048,103.830508 72.9800249,104.6873 72.9800249,105.963966 L72.9800249,111.18993 C73.9708337,110.311448 75.2460273,109.855938 76.5469366,109.855938 C80.5812679,109.855938 82.5840631,113.72467 82.5840631,117.452411 C82.5840631,121.079444 80.1894825,124.680138 76.4168457,124.680138 C75.1446774,124.680138 73.6849362,124.092933 72.9815376,122.920074 C72.7485841,123.93335 72.1510735,124.517456 71.1103461,124.517456 C70.0166747,124.517456 69.2361291,123.665312 69.2361291,122.387097 L69.2361291,105.963966 L69.2346165,105.963966 Z M75.9206849,121.161559 C77.8735615,121.161559 78.8386546,119.083878 78.8386546,117.295926 C78.8386546,115.483184 77.8735615,113.377615 75.9206849,113.377615 C73.9178898,113.377615 72.9800249,115.295713 72.9800249,117.162682 C72.9800249,119.026552 73.8649458,121.161559 75.9206849,121.161559 L75.9206849,121.161559 Z M96.4054675,117.294377 C96.4054675,121.293254 93.7249894,124.680138 89.6891454,124.680138 C85.6563267,124.680138 82.9758486,121.293254 82.9758486,117.294377 C82.9758486,113.402405 85.7334736,109.855938 89.6891454,109.855938 C93.6448171,109.855938 96.4054675,113.402405 96.4054675,117.294377 L96.4054675,117.294377 Z M86.7242824,117.294377 C86.7242824,119.135007 87.6591219,121.16001 89.6891454,121.16001 C91.7206816,121.16001 92.655521,119.133458 92.655521,117.294377 C92.655521,115.455296 91.7448845,113.376066 89.6891454,113.376066 C87.6318935,113.376066 86.7242824,115.455296 86.7242824,117.294377 L86.7242824,117.294377 Z M99.4822692,120.518578 C100.600144,120.518578 101.513805,121.454387 101.513805,122.602457 C101.513805,123.745878 100.600144,124.680138 99.4822692,124.680138 C98.3643948,124.680138 97.4522457,123.745878 97.4522457,122.602457 C97.4522457,121.454387 98.3643948,120.518578 99.4822692,120.518578 L99.4822692,120.518578 Z M112.424804,114.122853 C111.483913,114.122853 110.653449,113.377615 109.455403,113.377615 C107.324029,113.377615 106.307505,115.322052 106.307505,117.295926 C106.307505,119.187685 107.426892,121.161559 109.455403,121.161559 C110.393267,121.161559 111.798552,120.362094 112.240256,120.362094 C113.125177,120.362094 113.854291,121.133671 113.854291,122.038493 C113.854291,124.015466 110.627734,124.680138 109.27388,124.680138 C105.238036,124.680138 102.559071,121.293254 102.559071,117.294377 C102.559071,113.402405 105.316696,109.855938 109.27388,109.855938 C110.756312,109.855938 113.854291,110.416804 113.854291,112.283773 C113.854291,113.083238 113.308212,114.122853 112.424804,114.122853 L112.424804,114.122853 Z M126.805901,117.294377 C126.805901,121.293254 124.123911,124.680138 120.088067,124.680138 C116.055248,124.680138 113.37477,121.293254 113.37477,117.294377 C113.37477,113.402405 116.133908,109.855938 120.088067,109.855938 C124.045251,109.855938 126.805901,113.402405 126.805901,117.294377 L126.805901,117.294377 Z M117.123204,117.294377 C117.123204,119.135007 118.059556,121.16001 120.086554,121.16001 C122.11809,121.16001 123.05293,119.133458 123.05293,117.294377 C123.05293,115.455296 122.143806,113.376066 120.086554,113.376066 C118.032327,113.376066 117.123204,115.455296 117.123204,117.294377 L117.123204,117.294377 Z" id="logo-globo.com"></path>
      </g>
    </g>
  </g>
</svg>