<?xml version="1.0" encoding="UTF-8"?>
<svg width="132px" height="132px" viewBox="0 0 132 132" version="1.1" xmlns="http://www.w3.org/2000/svg" xmlns:xlink="http://www.w3.org/1999/xlink">
    <!-- Generator: Sketch 51.3 (57544) - http://www.bohemiancoding.com/sketch -->
    <title>Moon</title>
    <desc>Created with Sketch.</desc>
    <defs></defs>
    <g id="Proposta-V01" stroke="none" stroke-width="1" fill="none" fill-rule="evenodd">
        <g id="Moon" fill-rule="nonzero">
            <g id="Group">
                <path d="M106.077542,66 C106.077542,88.3 87.9643014,106.4 65.6479883,106.4 C49.5362107,106.4 35.6260424,97 29.1212875,83.3 C28.821068,82.6 28.4207754,81.9 28.2206291,81.2 C26.9196781,77.9 25.9189466,74.4 25.518654,70.7 C25.518654,70.4 25.4185808,70.2 25.4185808,69.9 C25.3185077,68.6 25.2184345,67.2 25.2184345,65.9 C25.2184345,65.1 25.2184345,64.4 25.3185077,63.6 L25.4185808,62.3 C25.6187271,60.2 25.9189466,58.2 26.4193124,56.3 C26.9196781,54.1 27.6201902,52 28.5208486,50 L28.6209217,49.9 C29.4215069,48 30.4222385,46.1 31.6231163,44.3 C32.723921,42.5 34.024872,40.8 35.4258961,39.2 C35.4258961,39.2 35.5259693,39.1 35.5259693,39.1 C36.9269934,37.5 38.4280907,36 40.1293343,34.7 C41.7305048,33.4 43.3316752,32.3 45.0329188,31.2 C45.2330651,31.1 45.3331383,31 45.5332846,30.9 C47.3346013,29.8 49.3360644,28.9 51.3375274,28.1 C53.7392831,27.2 56.1410388,26.5 58.7429407,26 C61.0446233,25.6 63.4463789,25.4 65.9482078,25.4 C66.5486467,25.4 67.0490124,25.4 67.6494514,25.4 C72.1527432,25.6 76.555962,26.5 80.5588881,28.1 C95.3697147,34.2 106.077542,48.9 106.077542,66 Z" id="Shape" fill="#008ECE"></path>
                <g opacity="0.2" fill="#3D6181" id="Shape">
                    <path d="M65.6479883,25.6 C66.2484272,25.6 66.748793,25.6 67.3492319,25.6 C71.8525238,25.8 76.2557425,26.7 80.2586686,28.3 C95.3697147,34.2 106.077542,48.8 106.077542,66 C106.077542,88.3 87.9643014,106.4 65.6479883,106.4 C49.5362107,106.4 35.6260424,97 29.1212875,83.3 C28.821068,82.6 28.4207754,81.9 28.2206291,81.2 C26.9196781,77.9 25.9189466,74.4 25.518654,70.7 C25.518654,70.4 25.4185808,70.2 25.4185808,69.9 C25.3185077,68.6 25.2184345,67.2 25.2184345,65.9 C25.2184345,65.1 25.2184345,64.4 25.3185077,63.6 L25.4185808,62.3 C25.6187271,60.2 25.9189466,58.2 26.4193124,56.3 C26.9196781,54.1 27.6201902,52 28.5208486,50 L28.6209217,49.9 C29.4215069,48 30.4222385,46.1 31.6231163,44.3 C32.723921,42.5 34.024872,40.8 35.4258961,39.2 C35.4258961,39.2 35.5259693,39.1 35.5259693,39.1 C36.9269934,37.5 38.4280907,36 40.1293343,34.7 C41.7305048,33.4 43.3316752,32.3 45.0329188,31.2 C45.2330651,31.1 45.3331383,31 45.5332846,30.9 C47.3346013,29.8 49.3360644,28.9 51.3375274,28.1 C53.7392831,27.2 56.1410388,26.5 58.7429407,26 C60.844477,25.8 63.2462326,25.6 65.6479883,25.6 Z M65.6479883,0.4 C62.6457937,0.4 59.543526,0.6 56.5413314,1 L56.2411119,1 L54.0395026,1.4 C51.6377469,1.8 49.2359912,2.4 46.9343087,3.1 L46.3338698,3.1 L41.9306511,4.8 C38.8283833,6 35.7261156,7.5 32.8239941,9.2 C32.4237015,9.4 32.1234821,9.6 32.0234089,9.7 L31.9233358,9.7 L31.8232626,9.8 C29.0212143,11.5 26.3192392,13.4 23.8174104,15.5 C21.3155816,17.6 18.9138259,19.9 16.7122165,22.3 C16.4119971,22.6 16.2118508,22.9 16.0117045,23.1 C13.9101683,25.6 11.9087052,28.2 10.1073884,31 C8.30607169,33.9 6.70490124,36.9 5.3038771,40.1 L5.20380395,40.2 C3.80277981,43.5 2.60190198,46.9 1.80131675,50.4 C1.00073153,53.6 0.500365764,56.9 0.200146306,60.2 L0.200146306,60.4 L0.200146306,60.6 L0.100073153,61.9 L0.100073153,62.1 L0.100073153,62.3 C-1.70530257e-13,63.5 -1.70530257e-13,64.7 -1.70530257e-13,66.1 C-1.70530257e-13,68.2 0.100073153,70.3 0.300219459,72.4 C0.300219459,72.9 0.400292612,73.4 0.500365764,73.9 C1.20087783,79.7 2.70197513,85.4 4.90358449,90.8 C5.40395026,92.1 5.90431602,93.2 6.50475494,94.4 C11.7085589,105.4 19.9145574,114.7 30.2220922,121.3 C40.8298464,128.1 53.1388442,131.8 65.8481346,131.8 C102.074616,131.8 131.596196,102.3 131.596196,66.1 C131.596196,52.6 127.493197,39.6 119.787564,28.6 C112.282078,17.8 101.87447,9.6 89.5654718,4.9 C82.8605706,2.3 75.7553767,0.8 68.5501097,0.5 C67.449305,0.4 66.5486467,0.4 65.6479883,0.4 Z"></path>
                </g>
                <path d="M65.6479883,25.6 C66.2484272,25.6 66.748793,25.6 67.3492319,25.6 C71.8525238,25.8 76.2557425,26.7 80.2586686,28.3 C95.3697147,34.2 106.077542,48.8 106.077542,66 C106.077542,88.3 87.9643014,106.4 65.6479883,106.4 C49.5362107,106.4 35.6260424,97 29.1212875,83.3 C28.821068,82.6 28.4207754,81.9 28.2206291,81.2 C26.9196781,77.9 25.9189466,74.4 25.518654,70.7 C25.518654,70.4 25.4185808,70.2 25.4185808,69.9 C25.3185077,68.6 25.2184345,67.2 25.2184345,65.9 C25.2184345,65.1 25.2184345,64.4 25.3185077,63.6 L25.4185808,62.3 C25.6187271,60.2 25.9189466,58.2 26.4193124,56.3 C26.9196781,54.1 27.6201902,52 28.5208486,50 L28.6209217,49.9 C29.4215069,48 30.4222385,46.1 31.6231163,44.3 C32.723921,42.5 34.024872,40.8 35.4258961,39.2 C35.4258961,39.2 35.5259693,39.1 35.5259693,39.1 C36.9269934,37.5 38.4280907,36 40.1293343,34.7 C41.7305048,33.4 43.3316752,32.3 45.0329188,31.2 C45.2330651,31.1 45.3331383,31 45.5332846,30.9 C47.3346013,29.8 49.3360644,28.9 51.3375274,28.1 C53.7392831,27.2 56.1410388,26.5 58.7429407,26 C60.844477,25.8 63.2462326,25.6 65.6479883,25.6 Z M65.6479883,16.2 C62.9460132,16.2 60.3441112,16.4 57.6421361,16.8 L56.8415508,16.9 C54.339722,17.3 51.8378932,18 49.4361375,18.8 L49.3360644,18.8 L47.7348939,19.4 C45.3331383,20.3 42.9313826,21.5 40.7297732,22.8 C40.5296269,22.9 40.3294806,23 40.2294075,23.1 L40.1293343,23.1 L40.0292612,23.1 C37.9277249,24.4 35.8261887,25.8 33.9247988,27.4 C31.9233358,29 30.122019,30.8 28.4207754,32.7 C28.3207023,32.8 28.2206291,33 28.0204828,33.1 C26.3192392,35 24.8181419,37 23.5171909,39.2 C22.1161668,41.4 20.915289,43.7 19.9145574,46.1 L19.8144843,46.3 C18.7136796,48.8 17.9130944,51.4 17.2125823,54.1 C16.6121434,56.5 16.2118508,59 16.0117045,61.5 L16.0117045,61.6 L16.0117045,61.7 L15.9116313,63 L15.9116313,63.1 L15.9116313,63.2 C15.8115582,64.1 15.8115582,65 15.8115582,66 C15.8115582,67.6 15.9116313,69.2 16.0117045,70.8 C16.0117045,71.1 16.1117776,71.5 16.1117776,71.8 C16.6121434,76.2 17.7129481,80.6 19.4141917,84.7 C19.8144843,85.7 20.2147769,86.5 20.6150695,87.4 C28.821068,104.7 46.5340161,115.8 65.6479883,115.8 C93.1681053,115.8 115.584492,93.4 115.584492,65.9 C115.584492,55.6 112.482224,45.8 106.677981,37.4 C100.973811,29.2 93.0680322,23 83.761229,19.4 C78.6574982,17.4 73.2535479,16.3 67.7495245,16.1 C67.0490124,16.2 66.3485004,16.2 65.6479883,16.2 Z" id="Shape" fill="#3D4A81"></path>
            </g>
            <path d="M28.4207754,50.2 C27.520117,52.2 26.819605,54.3 26.3192392,56.5 C25.8188734,58.5 25.518654,60.5 25.3185077,62.5 L25.2184345,63.8 L39.4288222,75.6 L41.3302121,77.2 C42.53109,78.2 43.9321141,78.7 45.3331383,78.7 C47.134455,78.7 48.9357718,77.9 50.2367228,76.4 C52.4383321,73.7 52.1381127,69.7 49.4361375,67.5 L40.0292612,59.1 L39.4288222,58.5 L28.5208486,50.1 L28.4207754,50.2 Z" id="Shape" fill="#32D5FC"></path>
            <path d="M72.4529627,46.1 C71.1520117,47.6 69.4507681,48.4 67.5493782,48.4 C67.2491587,48.4 67.0490124,48.4 66.748793,48.3 C65.5479151,48.2 64.4471105,47.7 63.4463789,46.9 L44.8327725,31.4 C45.0329188,31.3 45.132992,31.2 45.3331383,31.1 C47.134455,30 49.1359181,29.1 51.1373811,28.3 C53.5391368,27.4 55.9408925,26.7 58.5427944,26.2 C58.5427944,26.2 58.5427944,26.2 58.6428676,26.2 L74.4544257,36.3 C76.9562546,38.6 74.6545721,43.4 72.4529627,46.1 Z" id="Shape" fill="#32D5FC"></path>
            <path d="M25.4185808,62.5 L37.5274323,72.6 C38.5281639,73.4 39.2286759,74.5 39.5288954,75.7 C40.1293343,77.7 39.7290417,79.8 38.3280176,81.5 C37.1271397,83 35.325823,83.8 33.4244331,83.8 C32.0234089,83.8 30.5223116,83.3 29.4215069,82.3 L28.2206291,81.3 C26.9196781,78 25.9189466,74.5 25.518654,70.8 C25.3185077,69.2 25.2184345,67.7 25.2184345,66 C25.2184345,65.2 25.2184345,64.5 25.3185077,63.7 L25.4185808,62.5 Z" id="Shape" fill="#32D5FC"></path>
            <path d="M56.4412582,97.8 C55.2403804,99.3 53.4390636,100.1 51.5376737,100.1 C50.1366496,100.1 48.6355523,99.6 47.5347476,98.6 L29.1212875,83.3 C28.821068,82.6 28.4207754,81.9 28.2206291,81.2 C26.9196781,77.9 25.9189466,74.4 25.518654,70.7 C25.518654,70.4 25.4185808,70.2 25.4185808,69.9 C27.7202634,68.2 30.9226042,68.3 33.1242136,70.2 L55.5405999,88.9 C58.242575,91.2 58.6428676,95.2 56.4412582,97.8 Z" id="Shape" fill="#008ECE"></path>
            <path d="M90.3660571,44.1 C89.1651792,45.6 87.4639356,46.3 85.6626189,46.3 C84.3616679,46.3 83.0607169,45.9 81.8598391,45 L58.4427213,26.3 C58.4427213,26.3 58.4427213,26.3 58.3426481,26.3 C60.6443307,25.9 63.0460863,25.7 65.5479151,25.7 C66.1483541,25.7 66.6487198,25.7 67.2491587,25.7 C71.7524506,25.9 76.1556693,26.8 80.1585955,28.4 L89.2652524,35.7 C91.9672275,37.7 92.4675933,41.5 90.3660571,44.1 Z" id="Shape" fill="#32D5FC"></path>
            <path d="M83.5610827,61.7 L66.8488661,48.3 L45.4332114,31.1 C45.2330651,31.2 45.132992,31.3 44.9328456,31.4 C43.231602,32.4 41.5303584,33.6 40.0292612,34.9 C38.4280907,36.3 36.8269203,37.7 35.4258961,39.3 L35.9262619,39.7 L35.325823,39.4 C33.9247988,41 32.6238478,42.7 31.5230432,44.5 C30.4222385,46.3 29.4215069,48.1 28.5208486,50.1 L28.4207754,50.2 L37.5274323,57.8 C37.8276518,58.1 38.2279444,58.3 38.628237,58.5 C39.5288954,59 40.5296269,59.2 41.6304316,59.2 C43.4317484,59.2 45.2330651,58.4 46.5340161,56.9 C47.7348939,55.4 49.0358449,52.9 49.5362107,50.6 L75.6553036,71.5 C76.8561814,72.4 78.2572056,72.9 79.5581565,72.9 C81.3594733,72.9 83.2608632,72.1 84.461741,70.5 C86.6633504,67.9 86.2630578,63.9 83.5610827,61.7 Z" id="Shape" fill="#32D5FC"></path>
            <path d="M64.7473299,38.5 L90.3660571,59.5 L64.7473299,38.5 Z" id="Shape" stroke="#008ECE" stroke-width="12.5602" fill="#D30079" stroke-linecap="round" stroke-linejoin="round"></path>
            <path d="M43.9321141,54 L61.2447696,68.9 L43.9321141,54 Z" id="Shape" stroke="#008ECE" stroke-width="12.5602" fill="#D30079" stroke-linecap="round" stroke-linejoin="round"></path>
        </g>
    </g>
</svg>