<?xml version="1.0" encoding="UTF-8"?>
<svg width="14px" height="17px" viewBox="0 0 14 17" version="1.1" xmlns="http://www.w3.org/2000/svg" xmlns:xlink="http://www.w3.org/1999/xlink">
    <!-- Generator: Sketch 51.3 (57544) - http://www.bohemiancoding.com/sketch -->
    <title>fork</title>
    <desc>Created with Sketch.</desc>
    <defs></defs>
    <g id="Proposta-V01" stroke="none" stroke-width="1" fill="none" fill-rule="evenodd">
        <g id="Project-Page---Desktop" transform="translate(-669.000000, -419.000000)" fill="#333333">
            <g id="Group-10" transform="translate(599.000000, 414.000000)">
                <g id="Group-9" transform="translate(3.000000, 0.000000)">
                    <g id="Group-3" transform="translate(67.000000, 1.000000)">
                        <g id="Page-1" transform="translate(0.000000, 4.000000)">
                            <path d="M11.7295165,4.2987041 C11.3132612,4.2987041 10.9726887,3.94688082 10.9726887,3.51687458 C10.9726887,3.08686835 11.3132612,2.73504506 11.7295165,2.73504506 C12.1457718,2.73504506 12.4863443,3.08686835 12.4863443,3.51687458 C12.4863443,3.94688082 12.1457718,4.2987041 11.7295165,4.2987041 M2.26916866,15.4397748 C1.85291335,15.4397748 1.51234083,15.0879515 1.51234083,14.6579453 C1.51234083,14.227939 1.85291335,13.8761157 2.26916866,13.8761157 C2.68542396,13.8761157 3.02599649,14.227939 3.02599649,14.6579453 C3.02599649,15.0879515 2.68542396,15.4397748 2.26916866,15.4397748 M2.26916866,1.56230078 C2.68542396,1.56230078 3.02599649,1.91412406 3.02599649,2.3441303 C3.02599649,2.77413654 2.68542396,3.12595982 2.26916866,3.12595982 C1.85291335,3.12595982 1.51234083,2.77413654 1.51234083,2.3441303 C1.51234083,1.91412406 1.85291335,1.56230078 2.26916866,1.56230078 M14,3.51687458 C14,2.22685587 12.9972031,1.17138602 11.7295165,1.17138602 C10.4807506,1.17138602 9.45903303,2.20731013 9.45903303,3.51687458 C9.45903303,4.45507001 9.98881251,5.31508248 10.8402438,5.66690576 L10.8402438,5.72554298 C10.8213231,5.82327167 10.8213231,5.92100036 10.8024024,6.01872905 C10.7267196,6.68328414 10.6699576,7.21101907 10.3483057,7.68011678 C10.1023367,8.03194007 9.68608138,8.18830597 8.89141216,8.24694318 C8.41839477,8.28603466 7.92645668,8.3055804 7.43451859,8.32512614 C6.9425805,8.34467187 6.43172172,8.36421761 5.90194224,8.40330909 C4.97482815,8.50103778 3.80174501,8.69649516 3.04491718,9.67378206 L3.02599649,9.71287354 L3.02599649,4.5527987 C4.19907962,4.12279246 4.82346258,2.77413654 4.40720727,1.56230078 C3.99095197,0.330919285 2.70434466,-0.294544332 1.51234083,0.135461904 C0.320337,0.565468141 -0.285125262,1.91412406 0.131130043,3.12595982 C0.358178392,3.79051491 0.869037176,4.31824984 1.51234083,4.5527987 L1.51234083,12.4492769 C0.339257696,12.8792831 -0.285125262,14.227939 0.131130043,15.4397748 C0.547385349,16.6516105 1.85291335,17.2966199 3.02599649,16.8666137 C4.19907962,16.4366074 4.82346258,15.0879515 4.40720727,13.8761157 C4.25584171,13.4265638 3.97203127,13.0551947 3.61253805,12.7620087 C3.68822084,11.9019962 3.82066571,11.1592581 4.21800032,10.6315232 C4.59641423,10.1428798 5.33432136,10.0256053 6.01546641,9.96696813 C6.5074045,9.92787665 6.99934259,9.90833092 7.49128068,9.88881572 C7.98321876,9.86923944 8.47515685,9.8496937 8.98601564,9.81060223 C9.7617346,9.75196501 10.8970059,9.55650763 11.5592303,8.57922073 C12.0890097,7.77784547 12.1836132,6.97647021 12.2782463,6.19464069 C12.2971374,6.096912 12.2971374,5.99918331 12.3160581,5.90145462 L12.3349788,5.76463445 L12.3160581,5.76463445 C13.318855,5.51053986 14,4.57234444 14,3.51687458" id="fork"></path>
                        </g>
                    </g>
                </g>
            </g>
        </g>
    </g>
</svg>