<?xml version="1.0" encoding="UTF-8"?>
<svg width="13px" height="13px" viewBox="0 0 13 13" version="1.1" xmlns="http://www.w3.org/2000/svg" xmlns:xlink="http://www.w3.org/1999/xlink">
    <!-- Generator: Sketch 51.3 (57544) - http://www.bohemiancoding.com/sketch -->
    <title>Fill 1</title>
    <desc>Created with Sketch.</desc>
    <defs></defs>
    <g id="Proposta-V01" stroke="none" stroke-width="1" fill="none" fill-rule="evenodd">
        <g id="Project-Page---Desktop" transform="translate(-794.000000, -421.000000)" fill="#333333">
            <g id="Group-10" transform="translate(599.000000, 414.000000)">
                <g id="Group-9" transform="translate(3.000000, 0.000000)">
                    <g id="Group-6" transform="translate(192.000000, 1.000000)">
                        <g id="issue" transform="translate(0.000000, 6.000000)">
                            <path d="M6.5,9.75 C6.053125,9.75 5.6875,9.384375 5.6875,8.9375 C5.6875,8.490625 6.053125,8.12493652 6.5,8.12493652 C6.946875,8.12493652 7.3125,8.490625 7.3125,8.9375 C7.3125,9.384375 6.946875,9.75 6.5,9.75 Z M6.09375,3.65625 C6.09375,3.4125 6.25625,3.25 6.5,3.25 C6.74375,3.25 6.90625,3.4125 6.90625,3.65625 L6.90625,6.90625 C6.90625,7.15 6.74375,7.3125 6.5,7.3125 C6.25625,7.3125 6.09375,7.15 6.09375,6.90625 L6.09375,3.65625 Z M6.5,0 C2.925,0 0,2.925 0,6.5 C0,10.075 2.925,13 6.5,13 C10.075,13 13,10.075 13,6.5 C13,2.925 10.075,0 6.5,0 Z" id="Fill-1"></path>
                        </g>
                    </g>
                </g>
            </g>
        </g>
    </g>
</svg>