<?xml version="1.0" encoding="UTF-8"?>
<svg width="133px" height="154px" viewBox="0 0 133 154" version="1.1" xmlns="http://www.w3.org/2000/svg" xmlns:xlink="http://www.w3.org/1999/xlink">
    <!-- Generator: Sketch 51.3 (57544) - http://www.bohemiancoding.com/sketch -->
    <title>Rocket</title>
    <desc>Created with Sketch.</desc>
    <defs></defs>
    <g id="Proposta-V01" stroke="none" stroke-width="1" fill="none" fill-rule="evenodd">
        <g id="Rocket" fill-rule="nonzero">
            <path d="M132.697001,11.3 C132.697001,10.3 132.596928,9.4 132.496854,8.4 L131.896416,0.7 L124.290856,2 C123.290124,2.2 122.389466,2.3 121.388734,2.5 C110.480761,4.7 99.9730797,8.9 90.0658376,14.5 L128.794148,44.5 C131.896416,33.7 133.29744,22.5 132.697001,11.3 Z" id="XMLID_49_" fill="#CF6F60"></path>
            <polygon id="XMLID_48_" fill="#CF6F60" points="35.8261887 79.9 16.4119971 84.3 0.800585223 104.4 31.3228969 106.2"></polygon>
            <polygon id="XMLID_47_" fill="#CF6F60" points="79.1578639 113.4 79.7583029 133.4 64.146891 153.5 54.7400146 124.4"></polygon>
            <path d="M91.4668617,21.6 C68.8503292,37 49.1359181,60.7 37.6275055,87.2 L27.2198976,111.2 L39.3287491,120.6 L51.4376006,130 L72.0526701,114 C94.8693489,96.3 112.98259,71.3 122.18932,45.6 L91.4668617,21.6 Z" id="XMLID_46_" fill="#CF6F60"></path>
            <path d="M90.1659108,14.6 C65.8481346,28.7 45.9335772,52.2 35.9262619,79.9 L26.819605,104.9 L42.0307242,116.7 L57.2418435,128.5 L79.1578639,113.5 C103.375567,96.9 121.288661,71.8 128.894221,44.7 L90.1659108,14.6 Z" id="XMLID_45_" fill="#E9F8FF"></path>
            <rect id="XMLID_44_" fill="#CF6F60" transform="translate(45.593904, 112.027375) rotate(37.769457) translate(-45.593904, -112.027375) " x="43.642432" y="90.6268775" width="3.9029437" height="42.8009951"></rect>
            <g id="XMLID_29_" transform="translate(72.052670, 31.000000)">
                <path d="M35.9262619,33.2 C29.1212875,41.9 16.6121434,43.5 7.80570593,36.8 C-0.900658376,30 -2.50182882,17.5 4.20307242,8.7 C11.0080468,0 23.5171909,-1.6 32.3236284,5.1 C41.0299927,12 42.6311631,24.5 35.9262619,33.2 Z" id="XMLID_43_" fill="#CF6F60"></path>
                <path d="M17.3126554,6.5 C13.8100951,7.1 10.6077542,9 8.20599854,12 C3.20234089,18.5 4.30314557,27.9 10.9079737,32.9 C15.5113387,36.5 21.615801,36.9 26.6194587,34.5 C23.8174104,31.1 21.3155816,27.2 19.4141917,22.8 C17.2125823,18 16.5120702,12.1 17.3126554,6.5 Z" id="XMLID_42_" fill="#1DAAEB"></path>
                <path d="M29.1212875,9.3 C25.6187271,6.6 21.3155816,5.7 17.2125823,6.4 C16.4119971,12.1 17.1125091,17.9 19.2140454,22.8 C21.2155084,27.2 23.6172641,31 26.4193124,34.5 C28.4207754,33.5 30.2220922,32.1 31.7231895,30.2 C36.8269203,23.7 35.6260424,14.4 29.1212875,9.3 Z" id="XMLID_41_" fill="#1DCCEB"></path>
            </g>
        </g>
    </g>
</svg>