<?xml version="1.0" encoding="UTF-8"?>
<svg width="112px" height="100px" viewBox="0 0 112 100" version="1.1" xmlns="http://www.w3.org/2000/svg" xmlns:xlink="http://www.w3.org/1999/xlink">
    <!-- Generator: Sketch 51.3 (57544) - http://www.bohemiancoding.com/sketch -->
    <title>Group</title>
    <desc>Created with Sketch.</desc>
    <defs>
        <path d="M88.4911628,81.6565445 C87.6781395,81.6565445 86.8651163,81.3560209 86.2232558,80.7979058 L1.58325581,6.3539267 C0.171162791,5.10890052 -5.93969318e-15,2.91937173 1.28372093,1.5026178 C2.56744186,0.0858638743 4.70697674,-0.0858638743 6.11906977,1.20209424 L90.8018605,75.6890052 C92.2139535,76.9340314 92.3851163,79.1235602 91.1013953,80.5403141 C90.3739535,81.2701571 89.4325581,81.6565445 88.4911628,81.6565445 Z" id="path-1"></path>
    </defs>
    <g id="Proposta-V01" stroke="none" stroke-width="1" fill="none" fill-rule="evenodd">
        <g id="Hacktober-Desktop" transform="translate(-259.000000, -138.000000)">
            <g id="Group" transform="translate(259.000000, 138.000000)">
                <g id="Clipped" transform="translate(10.000000, 9.000000)">
                    <mask id="mask-2" fill="white">
                        <use xlink:href="#path-1"></use>
                    </mask>
                    <g id="Shape"></g>
                    <polygon id="Shape" fill="#9286C4" fill-rule="nonzero" mask="url(#mask-2)" points="81.7302326 74.0146597 8.42976744 9.65968586 16.0893023 0.901570681 89.3897674 65.2136126"></polygon>
                </g>
                <g transform="translate(10.000000, 1.000000)" fill-rule="nonzero" id="Shape">
                    <g>
                        <path d="M21.6627273,52.9818182 C21.7909091,53.1527273 22.0045455,53.1954545 22.1754545,53.0672727 C22.3463636,52.9390909 22.3890909,52.7254545 22.2609091,52.5545455 C22.1327273,52.3836364 21.9190909,52.3409091 21.7481818,52.4690909 C21.5772727,52.5972727 21.5345455,52.8109091 21.6627273,52.9818182 Z" fill="#939598"></path>
                        <path d="M9.57090909,46.7436364 C9.35727273,46.8290909 9.14363636,46.7436364 9.05818182,46.53 C8.97272727,46.3163636 9.10090909,46.1027273 9.27181818,46.0172727 C9.48545455,45.9318182 9.69909091,46.06 9.78454545,46.2309091 C9.87,46.4445455 9.74181818,46.6581818 9.57090909,46.7436364 Z" fill="#231F20" opacity="0.3"></path>
                        <g>
                            <path d="M77.9772727,47.1709091 C77.9772727,54.6054545 75.3709091,61.3990909 71.0127273,66.74 C68.9618182,69.2181818 66.5690909,71.3972727 63.8345455,73.1918182 C62.8518182,73.8327273 61.8263636,74.3881818 60.8009091,74.9436364 C58.4936364,76.0972727 56.0154545,76.9518182 53.4090909,77.5072727 C51.3581818,77.9345455 49.2218182,78.1481818 47.0854545,78.1481818 C34.78,78.1481818 24.1836364,70.97 19.1845455,60.5872727 C17.6890909,57.4681818 16.7063636,54.0927273 16.3218182,50.5036364 C16.3218182,50.4609091 16.3218182,50.3754545 16.3218182,50.3327273 C16.2363636,49.3072727 16.1509091,48.2390909 16.1509091,47.2136364 C16.1509091,45.9318182 16.2363636,44.6927273 16.3645455,43.4536364 C16.8345455,39.6081818 17.9881818,35.9763636 19.74,32.6863636 C20.2954545,31.6181818 20.9363636,30.5927273 21.62,29.61 C22.2609091,28.67 22.9872727,27.73 23.7563636,26.8754545 C23.7563636,26.8754545 23.7563636,26.8754545 23.7563636,26.8754545 C23.9272727,26.6618182 24.0981818,26.4909091 24.2690909,26.2772727 C26.7472727,23.5427273 29.7381818,21.2781818 33.0709091,19.6118182 C33.1563636,19.5690909 33.2845455,19.4836364 33.2845455,19.4836364 C37.4290909,17.4327273 42.1290909,16.2790909 47.0427273,16.2790909 C50.8454545,16.2790909 54.52,16.9627273 57.8954545,18.2445455 C69.6027273,22.56 77.9772727,33.8827273 77.9772727,47.1709091 Z" fill="#F7941E"></path>
                            <g opacity="0.4" fill="#7A5593">
                                <path d="M47,16.1936364 C50.8027273,16.1936364 54.4772727,16.8772727 57.8527273,18.1590909 C69.6027273,22.56 77.9772727,33.8827273 77.9772727,47.1709091 C77.9772727,54.6054545 75.3709091,61.3990909 71.0127273,66.74 C68.9618182,69.2181818 66.5690909,71.3972727 63.8345455,73.1918182 C62.8518182,73.8327273 61.8263636,74.3881818 60.8009091,74.9436364 C58.4936364,76.0972727 56.0154545,76.9518182 53.4090909,77.5072727 C51.3581818,77.9345455 49.2218182,78.1481818 47.0854545,78.1481818 C34.78,78.1481818 24.1836364,70.97 19.1845455,60.5872727 C17.6890909,57.4681818 16.7063636,54.0927273 16.3218182,50.5036364 C16.3218182,50.4609091 16.3218182,50.3754545 16.3218182,50.3327273 C16.2363636,49.3072727 16.1509091,48.2390909 16.1509091,47.2136364 C16.1509091,45.9318182 16.2363636,44.6927273 16.3645455,43.4536364 C16.8345455,39.6081818 17.9881818,35.9763636 19.74,32.6863636 C20.2954545,31.6181818 20.9363636,30.5927273 21.62,29.61 C22.2609091,28.67 22.9872727,27.73 23.7563636,26.8754545 C23.7563636,26.8754545 23.7563636,26.8754545 23.7563636,26.8754545 C23.9272727,26.6618182 24.0981818,26.4909091 24.2690909,26.2772727 C26.7472727,23.5427273 29.7381818,21.2781818 33.0709091,19.6118182 C33.1563636,19.5690909 33.2845455,19.4836364 33.2845455,19.4836364 C37.3863636,17.39 42.0863636,16.1936364 47,16.1936364 Z M47,0.384545455 C39.6936364,0.384545455 32.6863636,2.00818182 26.1918182,5.25545455 L26.0636364,5.34090909 L25.9354545,5.42636364 L25.8927273,5.42636364 C20.8509091,7.99 16.4072727,11.3654545 12.5618182,15.51 C12.3909091,15.6809091 12.22,15.8518182 12.0918182,16.0654545 C11.9209091,16.2790909 11.75,16.45 11.5790909,16.6636364 C10.5109091,17.9027273 9.52818182,19.1845455 8.58818182,20.5090909 C7.56272727,22.0045455 6.58,23.5854545 5.72545455,25.1663636 C3.03363636,30.2509091 1.28181818,35.72 0.598181818,41.4881818 C0.384545455,43.3254545 0.256363636,45.2481818 0.256363636,47.1281818 C0.256363636,48.41 0.299090909,49.6918182 0.427272727,50.9736364 L0.427272727,51.2727273 L0.555454545,52.2127273 C1.11090909,57.5109091 2.56363636,62.5954545 4.87090909,67.3809091 C8.63090909,75.2 14.4845455,81.8227273 21.7909091,86.5227273 C29.3109091,91.3509091 38.07,93.9145455 47.0427273,93.9145455 C50.2472727,93.9145455 53.4518182,93.5727273 56.6136364,92.9318182 C60.5018182,92.12 64.3045455,90.8381818 67.8509091,89.0436364 C69.3890909,88.2745455 70.9272727,87.3772727 72.4227273,86.4372727 C76.5245455,83.7881818 80.1990909,80.4981818 83.2754545,76.7381818 C90.0690909,68.4063636 93.8290909,57.8954545 93.8290909,47.1709091 C93.8290909,37.4718182 90.8809091,28.1145455 85.2836364,20.21 C79.8145455,12.4763636 72.2945455,6.66545455 63.45,3.33272727 C58.1518182,1.36727273 52.64,0.384545455 47,0.384545455 Z"></path>
                            </g>
                            <g opacity="0.6" transform="translate(9.827273, 9.827273)" fill="#CC4B2E">
                                <path d="M37.1727273,6.36636364 C40.9754545,6.36636364 44.65,7.05 48.0254545,8.33181818 C59.7754545,12.7327273 68.15,24.0554545 68.15,37.3436364 C68.15,44.7781818 65.5436364,51.5718182 61.1854545,56.9127273 C59.1345455,59.3909091 56.7418182,61.57 54.0072727,63.3645455 C53.0245455,64.0054545 51.9990909,64.5609091 50.9736364,65.1163636 C48.6663636,66.27 46.1881818,67.1245455 43.5818182,67.68 C41.5309091,68.1072727 39.3945455,68.3209091 37.2581818,68.3209091 C24.9527273,68.3209091 14.3563636,61.1427273 9.35727273,50.76 C7.86181818,47.6409091 6.87909091,44.2654545 6.49454545,40.6763636 C6.49454545,40.6336364 6.49454545,40.5481818 6.49454545,40.5054545 C6.40909091,39.48 6.32363636,38.4118182 6.32363636,37.3863636 C6.32363636,36.1045455 6.40909091,34.8654545 6.53727273,33.6263636 C7.00727273,29.7809091 8.16090909,26.1490909 9.91272727,22.8590909 C10.4681818,21.7909091 11.1090909,20.7654545 11.7927273,19.7827273 C12.4336364,18.8427273 13.16,17.9027273 13.9290909,17.0481818 C13.9290909,17.0481818 13.9290909,17.0481818 13.9290909,17.0481818 C14.1,16.8345455 14.2709091,16.6636364 14.4418182,16.45 C16.92,13.7154545 19.9109091,11.4509091 23.2436364,9.78454545 C23.3290909,9.74181818 23.4572727,9.65636364 23.4572727,9.65636364 C27.5590909,7.56272727 32.2590909,6.36636364 37.1727273,6.36636364 Z M37.1727273,0.170909091 C31.3618182,0.170909091 25.8072727,1.45272727 20.6372727,4.05909091 L20.5945455,4.10181818 L20.5518182,4.14454545 C20.5518182,4.14454545 20.4663636,4.18727273 20.4236364,4.18727273 C16.45,6.19545455 12.8609091,8.88727273 9.87,12.22 C9.69909091,12.3909091 9.52818182,12.6045455 9.35727273,12.7754545 C9.27181818,12.8609091 9.18636364,12.9463636 9.14363636,13.0318182 C8.24636364,14.0572727 7.43454545,15.1254545 6.66545455,16.1936364 C5.85363636,17.39 5.08454545,18.6290909 4.40090909,19.8681818 C2.26454545,23.8845455 0.897272727,28.2427273 0.341818182,32.8145455 C0.170909091,34.2672727 0.0854545455,35.8054545 0.0854545455,37.3009091 C0.0854545455,38.4545455 0.128181818,39.6081818 0.256363636,40.7190909 L0.256363636,40.8045455 L0.299090909,41.1890909 L0.299090909,41.2318182 L0.299090909,41.2745455 C0.769090909,45.4618182 1.92272727,49.5636364 3.76,53.3663636 C6.75090909,59.5618182 11.4081818,64.8172727 17.2190909,68.5772727 C23.2009091,72.4227273 30.1227273,74.4309091 37.2581818,74.4309091 C39.8218182,74.4309091 42.3854545,74.1745455 44.8636364,73.6618182 C47.94,73.0209091 50.9309091,71.9954545 53.7509091,70.5854545 C54.99,69.9445455 56.2290909,69.2609091 57.3827273,68.4918182 C60.6727273,66.3554545 63.5354545,63.7918182 66.0136364,60.7581818 C71.3972727,54.1781818 74.3881818,45.8036364 74.3881818,37.2581818 C74.3881818,29.5245455 72.0381818,22.1327273 67.5945455,15.8518182 C63.2790909,9.69909091 57.2545455,5.08454545 50.2472727,2.43545455 C46.06,0.982727273 41.6590909,0.170909091 37.1727273,0.170909091 Z"></path>
                            </g>
                        </g>
                    </g>
                    <path d="M86.3945455,79.3172727 C86.6509091,79.2672727 86.8645455,79.1172727 86.9927273,78.9172727 L86.3945455,79.3172727 Z" fill="#8E3925"></path>
                </g>
                <g id="Clipped" fill="#9286C4" fill-rule="nonzero">
                    <path d="M101.914419,100.015707 C98.1060465,100.015707 93.655814,98.0837696 89.7618605,94.6921466 L7.64651163,23.5109948 C0.714418605,17.5005236 -1.33953488,9.30052356 2.81116279,4.44921466 C4.5655814,2.43141361 7.04744186,1.18638743 9.9144186,0.971727749 C13.5088372,0.714136126 17.3172093,2.08795812 20.3553488,4.79267016 L26.132093,9.85863874 L19.0716279,17.9727749 L92.7572093,81.8125654 L99.4753488,74.2565445 L105.466047,79.6230366 C111.285581,84.817801 112.783256,92.2020942 108.974884,96.8816754 C107.52,98.6848168 105.337674,99.7581152 102.855814,99.9727749 C102.513488,99.9727749 102.213953,100.015707 101.914419,100.015707 Z" id="Shape"></path>
                </g>
            </g>
        </g>
    </g>
</svg>