<?xml version="1.0" encoding="UTF-8"?>
<svg width="220px" height="220px" viewBox="0 0 220 220" version="1.1" xmlns="http://www.w3.org/2000/svg" xmlns:xlink="http://www.w3.org/1999/xlink">
    <!-- Generator: Sketch 51.3 (57544) - http://www.bohemiancoding.com/sketch -->
    <title>Group</title>
    <desc>Created with Sketch.</desc>
    <defs>
        <path d="M206.95128,190.2 C205.04989,190.2 203.1485,189.5 201.647403,188.2 L3.70270666,14.8 C0.400292612,11.9 3.55271368e-15,6.8 3.00219459,3.5 C6.00438917,0.2 11.0080468,-0.2 14.3104609,2.8 L212.35523,176.3 C215.657644,179.2 216.057937,184.3 213.055743,187.6 C211.354499,189.3 209.15289,190.2 206.95128,190.2 Z" id="path-1"></path>
        <path d="M206.95128,190.2 C205.04989,190.2 203.1485,189.5 201.647403,188.2 L3.70270666,14.8 C0.400292612,11.9 3.55271368e-15,6.8 3.00219459,3.5 C6.00438917,0.2 11.0080468,-0.2 14.3104609,2.8 L212.35523,176.3 C215.657644,179.2 216.057937,184.3 213.055743,187.6 C211.354499,189.3 209.15289,190.2 206.95128,190.2 Z" id="path-3"></path>
    </defs>
    <g id="Proposta-V01" stroke="none" stroke-width="1" fill="none" fill-rule="evenodd">
        <g id="Group">
            <g id="Clipped" transform="translate(1.000732, 19.000000)">
                <mask id="mask-2" fill="white">
                    <use xlink:href="#path-1"></use>
                </mask>
                <g id="Shape"></g>
                <polygon id="Shape" fill="#9286C4" fill-rule="nonzero" mask="url(#mask-2)" points="191.139722 172.4 19.7144111 22.5 37.6275055 2.1 209.052816 151.9"></polygon>
            </g>
            <g fill-rule="nonzero" id="Shape">
                <g>
                    <path d="M50.7370885,124 C51.037308,124.4 51.5376737,124.5 51.9379663,124.2 C52.338259,123.9 52.4383321,123.4 52.1381127,123 C51.8378932,122.6 51.3375274,122.5 50.9372348,122.8 C50.5369422,123.1 50.4368691,123.6 50.7370885,124 Z" fill="#939598"></path>
                    <path d="M22.4163862,109.4 C21.9160205,109.6 21.4156547,109.4 21.2155084,108.9 C21.0153621,108.4 21.3155816,107.9 21.7158742,107.7 C22.2162399,107.5 22.7166057,107.8 22.916752,108.2 C23.1168983,108.7 22.8166789,109.2 22.4163862,109.4 Z" fill="#231F20" opacity="0.3"></path>
                    <g>
                        <path d="M182.633504,110.4 C182.633504,127.8 176.529042,143.7 166.32158,156.2 C161.518069,162 155.913972,167.1 149.50929,171.3 C147.207608,172.8 144.805852,174.1 142.404097,175.4 C137.000146,178.1 131.195903,180.1 125.091441,181.4 C120.28793,182.4 115.284272,182.9 110.280614,182.9 C81.4595465,182.9 56.6414045,166.1 44.9328456,141.8 C41.4302853,134.5 39.1286028,126.6 38.2279444,118.2 C38.2279444,118.1 38.2279444,117.9 38.2279444,117.8 C38.0277981,115.4 37.8276518,112.9 37.8276518,110.5 C37.8276518,107.5 38.0277981,104.6 38.3280176,101.7 C39.4288222,92.7 42.1307974,84.2 46.2337966,76.5 C47.5347476,74 49.0358449,71.6 50.6370154,69.3 C52.1381127,67.1 53.8393563,64.9 55.640673,62.9 C55.640673,62.9 55.640673,62.9 55.640673,62.9 C56.0409656,62.4 56.4412582,62 56.8415508,61.5 C62.6457937,55.1 69.6509144,49.8 77.4566203,45.9 C77.6567666,45.8 77.9569861,45.6 77.9569861,45.6 C87.6640819,40.8 98.6721287,38.1 110.180541,38.1 C119.087052,38.1 127.693343,39.7 135.599122,42.7 C163.019166,52.8 182.633504,79.3 182.633504,110.4 Z" fill="#F7941E"></path>
                        <g opacity="0.4" fill="#7A5593">
                            <path d="M110.080468,37.9 C118.986979,37.9 127.59327,39.5 135.499049,42.5 C163.019166,52.8 182.633504,79.3 182.633504,110.4 C182.633504,127.8 176.529042,143.7 166.32158,156.2 C161.518069,162 155.913972,167.1 149.50929,171.3 C147.207608,172.8 144.805852,174.1 142.404097,175.4 C137.000146,178.1 131.195903,180.1 125.091441,181.4 C120.28793,182.4 115.284272,182.9 110.280614,182.9 C81.4595465,182.9 56.6414045,166.1 44.9328456,141.8 C41.4302853,134.5 39.1286028,126.6 38.2279444,118.2 C38.2279444,118.1 38.2279444,117.9 38.2279444,117.8 C38.0277981,115.4 37.8276518,112.9 37.8276518,110.5 C37.8276518,107.5 38.0277981,104.6 38.3280176,101.7 C39.4288222,92.7 42.1307974,84.2 46.2337966,76.5 C47.5347476,74 49.0358449,71.6 50.6370154,69.3 C52.1381127,67.1 53.8393563,64.9 55.640673,62.9 C55.640673,62.9 55.640673,62.9 55.640673,62.9 C56.0409656,62.4 56.4412582,62 56.8415508,61.5 C62.6457937,55.1 69.6509144,49.8 77.4566203,45.9 C77.6567666,45.8 77.9569861,45.6 77.9569861,45.6 C87.5640088,40.7 98.5720556,37.9 110.080468,37.9 Z M110.080468,0.9 C92.967959,0.9 76.555962,4.7 61.3448427,12.3 L61.0446233,12.5 L60.7444038,12.7 L60.6443307,12.7 C48.8356986,18.7 38.4280907,26.6 29.4215069,36.3 C29.0212143,36.7 28.6209217,37.1 28.3207023,37.6 C27.9204097,38.1 27.520117,38.5 27.1198244,39 C24.6179956,41.9 22.3163131,44.9 20.1147037,48 C17.7129481,51.5 15.4112655,55.2 13.4098025,58.9 C7.10519386,70.8 3.00219459,83.6 1.40102414,97.1 C0.900658376,101.4 0.600438917,105.9 0.600438917,110.3 C0.600438917,113.3 0.70051207,116.3 1.00073153,119.3 L1.00073153,120 L1.30095099,122.2 C2.60190198,134.6 6.00438917,146.5 11.4083394,157.7 C20.2147769,176 33.9247988,191.5 51.037308,202.5 C68.6501829,213.8 89.1651792,219.8 110.180541,219.8 C117.686028,219.8 125.191514,219 132.596928,217.5 C141.703584,215.6 150.610095,212.6 158.916167,208.4 C162.5188,206.6 166.121434,204.5 169.623994,202.3 C179.231017,196.1 187.837308,188.4 195.042575,179.6 C210.954206,160.1 219.760644,135.5 219.760644,110.4 C219.760644,87.7 212.855596,65.8 199.746013,47.3 C186.93665,29.2 169.323775,15.6 148.608632,7.8 C136.199561,3.2 123.290124,0.9 110.080468,0.9 Z"></path>
                        </g>
                        <g opacity="0.6" transform="translate(23.016825, 23.000000)" fill="#CC4B2E">
                            <path d="M87.063643,14.9 C95.9701536,14.9 104.576445,16.5 112.482224,19.5 C140.002341,29.8 159.616679,56.3 159.616679,87.4 C159.616679,104.8 153.512217,120.7 143.304755,133.2 C138.501244,139 132.897147,144.1 126.492465,148.3 C124.190783,149.8 121.789027,151.1 119.387271,152.4 C113.983321,155.1 108.179078,157.1 102.074616,158.4 C97.2711046,159.4 92.267447,159.9 87.2637893,159.9 C58.4427213,159.9 33.6245794,143.1 21.9160205,118.8 C18.4134601,111.5 16.1117776,103.6 15.2111192,95.2 C15.2111192,95.1 15.2111192,94.9 15.2111192,94.8 C15.0109729,92.4 14.8108266,89.9 14.8108266,87.5 C14.8108266,84.5 15.0109729,81.6 15.3111924,78.7 C16.4119971,69.7 19.1139722,61.2 23.2169715,53.5 C24.5179225,51 26.0190198,48.6 27.6201902,46.3 C29.1212875,44.1 30.8225311,41.9 32.6238478,39.9 C32.6238478,39.9 32.6238478,39.9 32.6238478,39.9 C33.0241405,39.4 33.4244331,39 33.8247257,38.5 C39.6289685,32.1 46.6340892,26.8 54.4397952,22.9 C54.6399415,22.8 54.9401609,22.6 54.9401609,22.6 C64.5471836,17.7 75.5552304,14.9 87.063643,14.9 Z M87.063643,0.4 C73.4536942,0.4 60.4441843,3.4 48.3353328,9.5 L48.2352597,9.6 L48.1351865,9.7 C48.1351865,9.7 47.9350402,9.8 47.8349671,9.8 C38.5281639,14.5 30.122019,20.8 23.1168983,28.6 C22.7166057,29 22.3163131,29.5 21.9160205,29.9 C21.7158742,30.1 21.5157279,30.3 21.4156547,30.5 C19.3141185,32.9 17.4127286,35.4 15.6114119,37.9 C13.7100219,40.7 11.9087052,43.6 10.3075347,46.5 C5.3038771,55.9 2.10153621,66.1 0.800585223,76.8 C0.400292612,80.2 0.200146306,83.8 0.200146306,87.3 C0.200146306,90 0.300219459,92.7 0.600438917,95.3 L0.600438917,95.5 L0.70051207,96.4 L0.70051207,96.5 L0.70051207,96.6 C1.80131675,106.4 4.50329188,116 8.80643745,124.9 C15.8115582,139.4 26.7195318,151.7 40.3294806,160.5 C54.339722,169.5 70.5515728,174.2 87.2637893,174.2 C93.2681785,174.2 99.2725677,173.6 105.076811,172.4 C112.282078,170.9 119.287198,168.5 125.892026,165.2 C128.794148,163.7 131.696269,162.1 134.398244,160.3 C142.103877,155.3 148.808778,149.3 154.613021,142.2 C167.222238,126.8 174.227359,107.2 174.227359,87.2 C174.227359,69.1 168.723336,51.8 158.315728,37.1 C148.208339,22.7 134.098025,11.9 117.686028,5.7 C107.878859,2.3 97.5713241,0.4 87.063643,0.4 Z"></path>
                        </g>
                    </g>
                </g>
                <path d="M202.347915,185.5 C202.948354,185.4 203.44872,185.1 203.748939,184.7 L202.347915,185.5 Z" fill="#8E3925"></path>
            </g>
            <g id="Clipped" transform="translate(1.000732, 19.000000)">
                <mask id="mask-4" fill="white">
                    <use xlink:href="#path-3"></use>
                </mask>
                <g id="Shape"></g>
                <path d="M214.957132,212 C206.050622,212 195.643014,207.5 186.536357,199.6 L-5.50402341,33.8 C-21.7158742,19.8 -26.5193855,0.7 -16.8122897,-10.6 C-12.7092904,-15.3 -6.90504755,-18.2 -0.200146306,-18.7 C8.20599854,-19.3 17.1125091,-16.1 24.217703,-9.8 L37.7275786,2 L21.2155084,20.9 L193.541478,169.6 L209.252963,152 L223.263204,164.5 C236.873153,176.6 240.375713,193.8 231.469203,204.7 C228.066715,208.9 222.962985,211.4 217.158742,211.9 C216.358157,211.9 215.657644,212 214.957132,212 Z" id="Shape" fill="#9286C4" fill-rule="nonzero" mask="url(#mask-4)"></path>
            </g>
        </g>
    </g>
</svg>