<?xml version="1.0" encoding="UTF-8"?>
<svg width="334px" height="436px" viewBox="0 0 334 436" version="1.1" xmlns="http://www.w3.org/2000/svg" xmlns:xlink="http://www.w3.org/1999/xlink">
    <!-- Generator: Sketch 51.3 (57544) - http://www.bohemiancoding.com/sketch -->
    <title>Group</title>
    <desc>Created with Sketch.</desc>
    <defs></defs>
    <g id="Proposta-V01" stroke="none" stroke-width="1" fill="none" fill-rule="evenodd">
        <g id="Group" fill="#FFFFFF" fill-rule="nonzero">
            <polygon id="XMLID_212_" points="255.9 166.1 254.8 162.6 251.2 161.5 254.8 160.4 255.9 156.8 257 160.4 260.5 161.5 257 162.6"></polygon>
            <polygon id="XMLID_209_" points="150.8 69.9 147.3 68.5 144.3 70.7 145.6 67.2 143.5 64.2 146.9 65.5 150 63.4 148.6 66.8"></polygon>
            <polygon id="XMLID_208_" points="307.3 245.9 303.8 244.5 300.7 246.7 302.1 243.2 299.9 240.2 303.4 241.5 306.5 239.4 305.1 242.8"></polygon>
            <polygon id="XMLID_203_" points="288 71.6 284.2 69.4 280.3 71.4 282.5 67.6 280.5 63.7 284.3 65.9 288.2 63.9 286.1 67.7"></polygon>
            <polygon id="XMLID_201_" points="242.6 435.9 241.5 432.3 237.9 431.2 241.5 430.2 242.6 426.6 243.7 430.2 247.2 431.2 243.7 432.3"></polygon>
            <polygon id="XMLID_200_" points="192.9 405.4 189.4 404.1 186.4 406.2 187.7 402.8 185.6 399.7 189 401.1 192.1 398.9 190.7 402.4"></polygon>
            <polygon id="XMLID_199_" points="333.9 382.4 325.9 382.4 321.5 389.1 321.5 381.1 314.8 376.7 322.8 376.6 327.2 369.9 327.2 378"></polygon>
            <polygon id="XMLID_144_" points="85.6 356.7 84.5 353.1 81 352 84.5 350.9 85.6 347.4 86.7 350.9 90.2 352 86.7 353.1"></polygon>
            <polygon id="XMLID_143_" points="146 286.8 151 292.2 157.4 288.6 152 293.6 155.6 300 150.6 294.6 144.2 298.2 149.6 293.2"></polygon>
            <polygon id="XMLID_139_" points="20 403.6 12 404.1 8 411.1 7.5 403.1 0.5 399.1 8.5 398.5 12.5 391.6 13 399.6"></polygon>
            <polygon id="XMLID_137_" points="146 172.8 151 178.2 157.4 174.6 152 179.6 155.6 186 150.6 180.6 144.2 184.2 149.6 179.2"></polygon>
            <polygon id="XMLID_135_" points="36.9 12.5 28.9 13 24.9 20 24.3 12 17.4 8 25.4 7.5 29.4 0.5 29.9 8.5"></polygon>
            <polygon id="XMLID_131_" points="28.3 262.5 27.2 258.9 23.6 257.8 27.2 256.8 28.3 253.2 29.4 256.8 32.9 257.8 29.4 258.9"></polygon>
        </g>
    </g>
</svg>