<?xml version="1.0" encoding="UTF-8"?>
<svg width="1313px" height="683px" viewBox="0 0 1313 683" version="1.1" xmlns="http://www.w3.org/2000/svg" xmlns:xlink="http://www.w3.org/1999/xlink">
    <!-- Generator: Sketch 51.3 (57544) - http://www.bohemiancoding.com/sketch -->
    <title>STARS</title>
    <desc>Created with Sketch.</desc>
    <defs></defs>
    <g id="Proposta-V01" stroke="none" stroke-width="1" fill="none" fill-rule="evenodd">
        <g id="Landing-Page-Desktop-2" transform="translate(-33.000000, 0.000000)" fill="#FFFFFF" fill-rule="nonzero">
            <g id="LANDING_BG" transform="translate(-4.000000, -17.000000)">
                <g id="STARS" transform="translate(37.000000, 0.000000)">
                    <g id="Group">
                        <polygon id="XMLID_214_" points="126.1 202.9 124.6 197.8 119.5 196.3 124.6 194.8 126.1 189.7 127.7 194.8 132.7 196.3 127.7 197.8"></polygon>
                        <polygon id="XMLID_213_" points="57 47.2 55.5 42.1 50.4 40.6 55.5 39.1 57 34 58.6 39.1 63.6 40.6 58.6 42.1"></polygon>
                        <polygon id="XMLID_212_" points="871.7 316.2 870.2 311.2 865.1 309.6 870.2 308.1 871.7 303 873.3 308.1 878.3 309.6 873.3 311.2"></polygon>
                        <polygon id="XMLID_211_" points="1122.7 47.2 1121.1 42.1 1116.1 40.6 1121.1 39.1 1122.7 34 1124.2 39.1 1129.3 40.6 1124.2 42.1"></polygon>
                        <polygon id="XMLID_210_" points="11.2 182.2 6.3 180.3 1.9 183.3 3.9 178.4 0.8 174.1 5.7 176 10.1 173 8.2 177.9"></polygon>
                        <polygon id="XMLID_209_" points="722.4 179.4 717.5 177.5 713.1 180.6 715 175.6 712 171.3 716.9 173.2 721.3 170.2 719.3 175.1"></polygon>
                        <polygon id="XMLID_208_" points="987.4 429.5 982.4 427.6 978.1 430.7 980 425.7 977 421.4 981.9 423.3 986.2 420.3 984.3 425.2"></polygon>
                        <polygon id="XMLID_207_" points="1285.3 534.5 1286.5 529.4 1282.8 525.5 1288 526.7 1291.8 523 1290.6 528.2 1294.3 532 1289.1 530.9"></polygon>
                        <polygon id="XMLID_206_" points="287.6 611.5 286.1 606.4 281 604.9 286.1 603.3 287.6 598.3 289.1 603.3 294.2 604.9 289.1 606.4"></polygon>
                        <polygon id="XMLID_204_" points="1146 614.2 1144.4 609.1 1139.4 607.6 1144.4 606 1146 601 1147.5 606 1152.6 607.6 1147.5 609.1"></polygon>
                        <polygon id="XMLID_203_" points="917.4 181.9 912 178.8 906.5 181.6 909.6 176.2 906.8 170.7 912.2 173.8 917.7 171 914.6 176.4"></polygon>
                        <polygon id="XMLID_202_" points="256 126.8 244.6 126.9 238.3 136.4 238.3 125 228.8 118.8 240.1 118.7 246.4 109.2 246.4 120.6"></polygon>
                        <polygon id="XMLID_201_" points="852.8 699.6 851.3 694.5 846.2 693 851.3 691.4 852.8 686.4 854.4 691.4 859.4 693 854.4 694.5"></polygon>
                        <polygon id="XMLID_200_" points="782.2 656.3 777.3 654.4 772.9 657.4 774.8 652.5 771.8 648.2 776.7 650.1 781.1 647 779.1 652"></polygon>
                        <polygon id="XMLID_199_" points="982.6 623.5 971.3 623.6 965 633.1 965 621.7 955.4 615.4 966.8 615.4 973.1 605.9 973.1 617.3"></polygon>
                        <polygon id="XMLID_149_" points="68.6 481.7 69.8 492 80.1 493.3 69.8 494.5 68.6 504.8 67.3 494.5 57 493.3 67.3 492"></polygon>
                        <polygon id="XMLID_145_" points="1041.3 205.7 1048.4 213.3 1057.5 208.3 1049.8 215.3 1054.8 224.4 1047.8 216.8 1038.7 221.8 1046.3 214.7"></polygon>
                        <polygon id="XMLID_144_" points="629.7 587 628.2 581.9 623.1 580.4 628.2 578.8 629.7 573.8 631.3 578.8 636.3 580.4 631.3 581.9"></polygon>
                        <polygon id="XMLID_143_" points="715.6 487.7 722.7 495.3 731.8 490.3 724.1 497.4 729.2 506.4 722.1 498.8 713 503.8 720.6 496.8"></polygon>
                        <polygon id="XMLID_142_" points="1296.9 325.7 1303.9 333.3 1313 328.3 1305.4 335.4 1310.4 344.4 1303.4 336.8 1294.3 341.8 1301.9 334.8"></polygon>
                        <polygon id="XMLID_141_" points="431.6 412.3 426.6 410.4 422.3 413.5 424.2 408.5 421.2 404.2 426.1 406.1 430.4 403.1 428.5 408"></polygon>
                        <polygon id="XMLID_139_" points="548.3 264.9 536.9 265.7 531.3 275.6 530.5 264.2 520.6 258.6 532 257.8 537.7 247.9 538.4 259.3"></polygon>
                        <polygon id="XMLID_138_" points="1184.6 380 1185.8 390.3 1196.1 391.5 1185.8 392.8 1184.6 403.1 1183.3 392.8 1173 391.5 1183.3 390.3"></polygon>
                        <polygon id="XMLID_137_" points="715.6 325.7 722.7 333.3 731.8 328.3 724.1 335.4 729.2 344.4 722.1 336.8 713 341.8 720.6 334.8"></polygon>
                        <polygon id="XMLID_135_" points="489.4 97.9 478.1 98.6 472.4 108.5 471.6 97.2 461.8 91.5 473.1 90.7 478.8 80.9 479.5 92.2"></polygon>
                        <polygon id="XMLID_134_" points="987.4 0.2 988.6 10.5 998.9 11.7 988.6 13 987.4 23.3 986.1 13 975.8 11.7 986.1 10.5"></polygon>
                        <polygon id="XMLID_132_" points="1205.9 664.3 1207.1 674.6 1217.4 675.8 1207.1 677.1 1205.9 687.4 1204.6 677.1 1194.3 675.8 1204.6 674.6"></polygon>
                        <polygon id="XMLID_131_" points="548.3 453.1 546.8 448.1 541.7 446.5 546.8 445 548.3 439.9 549.8 445 554.9 446.5 549.8 448.1"></polygon>
                        <polygon id="XMLID_130_" points="443.1 576.1 444.4 586.4 454.7 587.6 444.4 588.9 443.1 599.2 441.9 588.9 431.6 587.6 441.9 586.4"></polygon>
                        <polygon id="XMLID_129_" points="104.1 652.7 105.3 663 115.6 664.3 105.3 665.5 104.1 675.8 102.8 665.5 92.5 664.3 102.8 663"></polygon>
                    </g>
                </g>
            </g>
        </g>
    </g>
</svg>