<?xml version="1.0" encoding="UTF-8"?>
<svg width="509px" height="509px" viewBox="0 0 509 509" version="1.1" xmlns="http://www.w3.org/2000/svg" xmlns:xlink="http://www.w3.org/1999/xlink">
    <!-- Generator: Sketch 51.3 (57544) - http://www.bohemiancoding.com/sketch -->
    <title>Venus</title>
    <desc>Created with Sketch.</desc>
    <defs></defs>
    <g id="Proposta-V01" stroke="none" stroke-width="1" fill="none" fill-rule="evenodd">
        <g id="Venus" fill-rule="nonzero">
            <path d="M122.589612,285 C123.190051,285.9 124.390929,286.1 125.191514,285.5 C126.092173,284.9 126.292319,283.7 125.69188,282.9 C125.091441,282 123.890563,281.8 123.089978,282.4 C122.18932,283 121.989173,284.2 122.589612,285 Z" id="Shape" fill="#939598"></path>
            <g id="Group">
                <path d="M311.327579,103.7 C293.714704,97.1 274.700805,93.5 254.786247,93.5 C228.967374,93.5 204.649598,99.6 183.033797,110.3 C183.033797,110.3 182.233211,110.7 181.932992,110.9 C163.319386,120.3 146.807315,133.2 133.29744,148.8 C133.29744,148.8 133.197366,148.9 133.197366,148.9 C108.479298,177.2 93.4683248,214.3 93.4683248,254.8 C93.4683248,260.3 93.7685443,265.8 94.26891,271.2 C94.26891,271.5 94.3689832,271.8 94.3689832,272.1 C96.3704462,290.7 101.474177,308.5 109.279883,324.7 C135.298903,378.8 190.639356,416.2 254.786247,416.2 C343.951426,416.2 416.204243,344 416.204243,254.9 C416.10417,185.6 372.572348,126.6 311.327579,103.7 Z" id="Shape" fill="#FF4569"></path>
                <g opacity="0.4" fill="#7A5593" id="Shape">
                    <path d="M254.786247,93.5 C274.700805,93.5 293.714704,97.1 311.327579,103.7 C372.572348,126.6 416.10417,185.6 416.10417,254.8 C416.10417,343.9 343.851353,416.1 254.686174,416.1 C190.539283,416.1 135.19883,378.7 109.17981,324.6 C101.374104,308.4 96.2703731,290.7 94.26891,272 C94.26891,271.7 94.1688369,271.4 94.1688369,271.1 C93.6684711,265.7 93.3682516,260.3 93.3682516,254.7 C93.3682516,214.2 108.379225,177.1 133.097293,148.8 C133.097293,148.8 133.097293,148.7 133.197366,148.7 C146.807315,133.2 163.219312,120.2 181.832919,110.8 C182.233211,110.6 182.933723,110.2 182.933723,110.2 C204.549525,99.5 228.967374,93.5 254.786247,93.5 Z M254.786247,0.8 C215.657644,0.8 176.529042,10 141.603511,27.3 L141.403365,27.4 C141.403365,27.4 140.60278,27.8 139.802195,28.2 C110.981127,42.8 85.4624726,62.5 64.0468178,86.9 C63.7465984,87.3 63.4463789,87.6 63.0460863,88 C22.7166057,134.2 0.500365764,193.5 0.500365764,254.8 C0.500365764,261.7 0.800585223,268.5 1.30095099,275.3 L1.30095099,276 L1.80131675,280.9 L1.80131675,281.1 L1.9013899,281.9 C5.00365764,310.9 12.9094367,338.7 25.518654,364.9 C45.9335772,407.3 77.7568398,443.3 117.485881,468.7 C158.415801,495 205.850475,508.8 254.586101,508.8 C322.435699,508.8 386.28237,482.4 434.317484,434.4 C482.352597,386.4 508.771909,322.7 508.771909,254.8 C508.771909,202.1 492.760205,151.4 462.337966,108.5 C432.716313,66.5 391.68632,34.9 343.651207,17 C315.330505,6.2 285.408632,0.8 254.786247,0.8 Z"></path>
                </g>
                <g opacity="0.7" transform="translate(66.048281, 66.000000)" fill="#7A5593" id="Shape">
                    <path d="M188.737966,27.5 C208.652524,27.5 227.666423,31.1 245.279298,37.7 C306.524067,60.6 350.055889,119.6 350.055889,188.8 C350.055889,277.9 277.803072,350.1 188.637893,350.1 C124.491002,350.1 69.1505486,312.7 43.1315289,258.6 C35.325823,242.4 30.2220922,224.7 28.2206291,206 C28.2206291,205.7 28.120556,205.4 28.120556,205.1 C27.6201902,199.7 27.3199707,194.3 27.3199707,188.7 C27.3199707,148.2 42.3309437,111.1 67.0490124,82.8 C67.0490124,82.8 67.0490124,82.7 67.1490856,82.7 C80.7590344,67.2 97.1710315,54.2 115.784638,44.8 C116.184931,44.6 116.885443,44.2 116.885443,44.2 C138.501244,33.5 162.919093,27.5 188.737966,27.5 Z M188.737966,0.1 C159.216386,0.1 130.995757,6.7 104.776591,19.8 C104.776591,19.8 103.875933,20.2 103.375567,20.5 C81.9599122,31.4 62.9460132,46.1 47.0343819,64.2 C46.7341624,64.5 46.4339429,64.8 46.2337966,65.1 C16.4119971,99.4 -2.27373675e-13,143.3 -2.27373675e-13,188.7 C-2.27373675e-13,194.6 0.300219459,200.6 0.800585223,206.4 L0.800585223,206.5 L1.00073153,207.9 L1.00073153,208.3 L1.10080468,208.8 C3.4024872,230.3 9.30680322,251 18.6136064,270.3 C33.8247257,301.8 57.4419898,328.5 86.9635699,347.5 C117.385808,367 152.511485,377.3 188.737966,377.3 C292.814045,377.3 377.475933,292.7 377.475933,188.7 C377.475933,149.5 365.567228,112 343.050768,80 C321.034674,48.8 290.512363,25.3 254.88632,12 C233.770885,4.2 211.454572,0.1 188.737966,0.1 Z"></path>
                </g>
            </g>
            <path d="M166.821946,275.2 L220.761375,320.1 L166.821946,275.2 Z" id="Shape" stroke="#FF4569" stroke-width="13.4005" fill="#EF00DE" stroke-linecap="round" stroke-linejoin="round"></path>
            <path d="M190.13899,216.9 L244.07842,261.8 L190.13899,216.9 Z" id="Shape" stroke="#FF4569" stroke-width="14.1058" fill="#EF00DE" stroke-linecap="round" stroke-linejoin="round"></path>
            <path d="M252.484565,190.1 L314.029554,240.6 L252.484565,190.1 Z" id="Shape" stroke="#FF4569" stroke-width="14.1058" fill="#EF00DE" stroke-linecap="round" stroke-linejoin="round"></path>
            <path d="M298.117922,150.6 L359.662911,201.1 L298.117922,150.6 Z" id="Shape" stroke="#FF4569" stroke-width="14.1058" fill="#EF00DE" stroke-linecap="round" stroke-linejoin="round"></path>
        </g>
    </g>
</svg>