<?xml version="1.0" encoding="utf-8"?>
<!-- Generator: Adobe Illustrator 16.0.4, SVG Export Plug-In . SVG Version: 6.00 Build 0)  -->
<!DOCTYPE svg PUBLIC "-//W3C//DTD SVG 1.1//EN" "http://www.w3.org/Graphics/SVG/1.1/DTD/svg11.dtd">
<svg version="1.1" id="Layer_1" xmlns="http://www.w3.org/2000/svg" xmlns:xlink="http://www.w3.org/1999/xlink" x="0px" y="0px"
	 width="156px" height="41px" viewBox="-91.7 -31 360.6 95.8" enable-background="new -91.7 -31 360.6 95.8"
	 xml:space="preserve">
<title>thumbor</title>
<desc>Created with Sketch.</desc>
<rect x="-27.3" y="-24.5" fill="#12100B" width="7" height="53.7"/>
<rect x="102.1" y="1.4" fill="#12100B" width="7" height="63.4"/>
<rect x="-28.8" y="25.7" fill="#12100B" width="58.7" height="7"/>
<rect x="-0.4" y="-9.5" transform="matrix(0.3727 0.9279 -0.9279 0.3727 18.01 7.9927)" opacity="0.75" fill="#12100B" width="7" height="53.7"/>
<rect x="-6.3" y="-18.5" transform="matrix(0.7061 0.7082 -0.7082 0.7061 5.0963 4.4498)" opacity="0.5" fill="#12100B" width="7" height="53.7"/>
<rect x="-14.6" y="-24.2" transform="matrix(0.9171 0.3987 -0.3987 0.9171 0.1524 4.659)" opacity="0.25" fill="#12100B" width="7" height="53.7"/>
<path fill="#12100B" d="M-61.4,32.7c-16.7,0-30.4-13.6-30.4-30.4S-78.1-28-61.4-28c11.3,0,21.6,6.2,26.9,16.2l-6.2,3.3
	c-4.1-7.7-12-12.5-20.7-12.5c-12.9,0-23.4,10.5-23.4,23.4c0,12.9,10.5,23.4,23.4,23.4c7.8,0,15-3.9,19.4-10.3l5.8,3.9
	C-41.9,27.7-51.3,32.7-61.4,32.7z"/>
<path fill="#12100B" d="M132.4,31.6c-0.2,0-0.4,0-0.6,0l-0.4,0c-0.2,0-0.3,0-0.5,0c-0.3,0-0.5,0-0.8-0.1l-0.6-0.1
	c-0.3,0-0.7-0.1-1.1-0.1l-0.4-0.1c-0.4-0.1-0.7-0.1-1.1-0.2l-0.3-0.1c-0.4-0.1-0.7-0.2-1.1-0.2l-0.4-0.1c-0.3-0.1-0.7-0.2-1-0.3
	l-0.4-0.1c-0.3-0.1-0.6-0.2-0.9-0.3l-0.5-0.2c-0.3-0.1-0.6-0.2-0.8-0.3l-0.1,0c-0.2-0.1-0.3-0.1-0.5-0.2c-0.2-0.1-0.4-0.2-0.7-0.3
	l1.3-3.3L120,29c-0.2-0.1-0.4-0.2-0.6-0.3c-0.2-0.1-0.4-0.2-0.5-0.3l-0.1-0.1c-0.2-0.1-0.5-0.2-0.7-0.4c-0.2-0.1-0.3-0.2-0.5-0.3
	l-0.1-0.1c-0.2-0.1-0.5-0.3-0.7-0.4l-0.5-0.3c-0.3-0.2-0.5-0.3-0.7-0.5l-0.7-0.5c-0.2-0.1-0.4-0.3-0.5-0.4c-0.2-0.1-0.3-0.2-0.5-0.4
	l-0.3-0.2c-0.1-0.1-0.3-0.2-0.4-0.3c-0.2-0.2-0.5-0.4-0.7-0.6l-0.4-0.3c-0.8-0.8-1.7-1.6-2.4-2.5l-0.3-0.4c-0.4-0.4-0.7-0.9-1.1-1.3
	l-0.1-0.2c-0.4-0.5-0.7-1-1-1.5c-0.1-0.2-0.2-0.3-0.3-0.5c-0.2-0.4-0.5-0.8-0.7-1.2l-0.1-0.1c-0.1-0.1-0.1-0.2-0.2-0.3
	c-0.3-0.5-0.5-1-0.8-1.6l-0.2-0.4c-0.2-0.4-0.4-0.9-0.6-1.3L104,12c-0.4-1.2-0.8-2.4-1.1-3.6l-0.1-0.4c-0.1-0.5-0.2-1-0.3-1.6
	l-0.1-0.3c-0.1-0.6-0.2-1.3-0.3-1.9c-0.1-0.6-0.1-1.2-0.1-1.8l0-0.8c0-0.2,0-0.3,0-0.5c0-0.2,0-0.3,0-0.5l0-0.8
	c0-0.6,0.1-1.2,0.1-1.7c0.1-0.7,0.2-1.3,0.3-1.9l0-0.3c0.1-0.6,0.2-1.1,0.3-1.6l0.1-0.4c2.7-11.2,11.6-19.9,22.7-22.4l0,0l0.9-0.2
	c0.1,0,0.2,0,0.3,0c0.4-0.1,0.9-0.2,1.3-0.2l0.5-0.1c0.4,0,0.8-0.1,1.2-0.1l0.6,0c0.4,0,0.8,0,1.2,0l0.1,0c0.2,0,0.3,0,0.5,0l0.2,0
	c0.1,0,0.3,0,0.4,0c0.5,0,1,0,1.4,0.1c0.3,0,0.5,0,0.8,0.1c0.4,0,0.8,0.1,1.1,0.1c0.3,0,0.6,0.1,0.9,0.1c0.3,0.1,0.7,0.1,1,0.2
	l0.1,0c0.3,0,0.5,0.1,0.8,0.2c0.3,0.1,0.6,0.2,1,0.2l0.3,0.1c0.2,0.1,0.4,0.1,0.6,0.2c0.5,0.1,0.9,0.3,1.4,0.5l0.2,0.1
	c0.1,0,0.3,0.1,0.4,0.1c0.6,0.2,1.1,0.4,1.7,0.7c0.1,0.1,0.3,0.1,0.4,0.2l0.1,0.1c0.4,0.2,0.9,0.4,1.3,0.6c0.1,0.1,0.3,0.1,0.4,0.2
	l0.1,0.1c0.4,0.2,0.8,0.4,1.2,0.7c0.2,0.1,0.3,0.2,0.4,0.3l0.1,0.1c0.4,0.2,0.7,0.5,1.1,0.7c0.2,0.1,0.3,0.2,0.5,0.4l0.1,0.1
	c0.3,0.2,0.7,0.5,1,0.7c0.2,0.2,0.4,0.3,0.6,0.5c0.3,0.2,0.6,0.5,0.9,0.8c0.2,0.2,0.4,0.4,0.6,0.6l0.1,0.1c0.1,0.1,0.2,0.2,0.3,0.3
	c0.1,0.1,0.2,0.2,0.4,0.4l0.5,0.5c0.8,0.9,1.6,1.9,2.4,2.9l0.1,0.2c0.3,0.5,0.6,0.9,0.9,1.4l0.2,0.3c6,9.8,5.9,22.3-0.3,32l0,0
	l-0.6,0.9c-0.2,0.4-0.5,0.7-0.8,1.1l-0.2,0.3c-0.3,0.4-0.6,0.7-0.8,1l-0.4,0.4c-0.3,0.3-0.5,0.6-0.8,0.9l-0.1,0.1
	c-0.1,0.1-0.2,0.2-0.3,0.3c0,0-0.1,0.1-0.2,0.2c-0.3,0.3-0.6,0.5-0.9,0.8l-0.2,0.2c-0.4,0.4-0.9,0.8-1.3,1.1l-0.2,0.1
	c-0.4,0.3-0.8,0.6-1.2,0.9l-0.4,0.2c-0.4,0.2-0.7,0.5-1.1,0.7l-0.4,0.2c-0.4,0.2-0.8,0.5-1.1,0.7l-0.4,0.2c-0.5,0.2-0.9,0.5-1.4,0.7
	l-0.1,0.1c-0.5,0.2-1,0.5-1.6,0.7c-0.2,0.1-0.3,0.1-0.4,0.2l-0.1,0c-0.3,0.1-0.7,0.2-1,0.4c-0.2,0.1-0.5,0.2-0.7,0.2
	c-0.3,0.1-0.6,0.2-0.9,0.3l-0.1,0c-0.2,0.1-0.4,0.1-0.6,0.2c-0.4,0.1-0.8,0.2-1.2,0.3c-0.3,0.1-0.6,0.1-0.9,0.2
	c-0.4,0.1-0.7,0.1-1.1,0.2c-0.2,0-0.5,0.1-0.7,0.1c-0.4,0-0.7,0.1-1.1,0.1c-0.3,0-0.5,0-0.6,0c-0.5,0-1,0-1.5,0L132.4,31.6z
	 M128-21.7L128-21.7c-9,1.7-16.1,8.6-18.3,17.4l-0.1,0.2c-0.1,0.5-0.2,0.9-0.3,1.2l0,0.3c-0.1,0.5-0.1,1-0.2,1.5
	c0,0.5-0.1,0.9-0.1,1.4l0,0.9l0,1c0,0.5,0,0.9,0.1,1.4c0.1,0.5,0.1,1,0.2,1.5l0,0.3c0.1,0.4,0.2,0.8,0.2,1.2l0.1,0.3
	c0.2,0.9,0.5,1.9,0.9,2.8l0.1,0.3c0.2,0.4,0.3,0.8,0.5,1.1l0.2,0.3c0.2,0.4,0.4,0.8,0.6,1.2l0.2,0.3c0.2,0.3,0.3,0.6,0.5,0.9
	l0.3,0.4c0.3,0.4,0.5,0.8,0.8,1.1l0.1,0.1c0.3,0.4,0.5,0.7,0.8,1l0.2,0.3c0.6,0.7,1.2,1.3,1.9,1.9l0.3,0.2c0.2,0.2,0.4,0.4,0.6,0.5
	l0.6,0.5c0.1,0.1,0.2,0.2,0.3,0.2c0.1,0.1,0.2,0.2,0.4,0.3l0.6,0.4c0.1,0.1,0.3,0.2,0.5,0.3l0.5,0.3c0.2,0.1,0.4,0.2,0.6,0.3
	l0.4,0.2c0.2,0.1,0.3,0.2,0.5,0.3l0.2,0.1c0.1,0.1,0.2,0.1,0.4,0.2c0.1,0.1,0.3,0.1,0.4,0.2l0.1,0.1c0.2,0.1,0.3,0.1,0.5,0.2
	l0.4,0.2c0.2,0.1,0.4,0.2,0.7,0.2l0.4,0.1c0.2,0.1,0.5,0.2,0.7,0.2l0.3,0.1c0.3,0.1,0.5,0.1,0.8,0.2l0.3,0.1
	c0.3,0.1,0.6,0.1,0.8,0.2l0.3,0c0.3,0.1,0.6,0.1,0.9,0.1l0.3,0c0.3,0,0.6,0.1,0.8,0.1l0.5,0c0.2,0,0.4,0,0.6,0l0.7,0
	c0.1,0,0.2,0,0.4,0l0.2,0c0.4,0,0.8,0,1.2,0l0.5,0c0.3,0,0.6,0,0.8-0.1c0.2,0,0.4,0,0.6-0.1c0.3,0,0.6-0.1,0.8-0.1
	c0.2,0,0.5-0.1,0.7-0.1c0.3-0.1,0.6-0.1,1-0.2c0.1,0,0.3-0.1,0.4-0.1l0.1,0c0.2-0.1,0.5-0.1,0.7-0.2c0.2-0.1,0.4-0.1,0.5-0.2
	c0.3-0.1,0.5-0.2,0.8-0.3l0.4-0.2c0.4-0.1,0.8-0.3,1.1-0.5l0.1-0.1c0.4-0.2,0.7-0.4,1.1-0.6l0.3-0.2c0.3-0.2,0.6-0.3,0.9-0.5
	l0.3-0.2c0.3-0.2,0.6-0.4,0.8-0.6l0.3-0.2c0.3-0.2,0.6-0.5,0.9-0.7l0.1-0.1c0.4-0.3,0.7-0.6,1.1-0.9l0.2-0.2
	c0.2-0.2,0.5-0.4,0.7-0.6l0.4-0.4c0.2-0.2,0.4-0.4,0.6-0.7l0.3-0.3c0.2-0.2,0.4-0.5,0.6-0.7l0.2-0.3c0.2-0.3,0.4-0.6,0.6-0.9
	l0.1-0.1c5.1-7.5,5.3-17.4,0.6-25.2l-0.1-0.2c-0.2-0.3-0.5-0.7-0.7-1l-0.1-0.2c-0.6-0.8-1.2-1.5-1.8-2.2l-1-1
	c-0.2-0.2-0.3-0.3-0.5-0.5c-0.2-0.2-0.4-0.4-0.7-0.6c-0.2-0.1-0.3-0.3-0.5-0.4c-0.2-0.2-0.5-0.4-0.7-0.6l-0.5-0.3
	c-0.3-0.2-0.5-0.4-0.8-0.5l-0.4-0.3c-0.3-0.2-0.6-0.3-0.9-0.5l-0.4-0.2c-0.3-0.2-0.7-0.3-1-0.5l-0.4-0.2c-0.4-0.2-0.8-0.4-1.3-0.5
	l-0.5-0.2c-0.3-0.1-0.7-0.2-1.1-0.3c-0.1,0-0.3-0.1-0.4-0.1l-0.3-0.1c-0.3-0.1-0.6-0.1-0.8-0.2c-0.2,0-0.4-0.1-0.6-0.1l-0.1,0
	c-0.3-0.1-0.5-0.1-0.8-0.1c-0.2,0-0.5-0.1-0.7-0.1c-0.3,0-0.6-0.1-0.9-0.1c-0.2,0-0.4,0-0.6,0c-0.4,0-0.7,0-1,0l-0.3,0l-0.7,0
	c-0.3,0-0.6,0-0.9,0l-0.4,0c-0.3,0-0.6,0.1-0.9,0.1l-0.4,0c-0.4,0-0.7,0.1-1.1,0.2L128-21.7z"/>
<rect x="87" y="1.4" fill="#12100B" width="7" height="30.8"/>
<path fill="#12100B" d="M63.6,31.6c-0.2,0-0.4,0-0.6,0l-0.4,0c-0.2,0-0.3,0-0.5,0c-0.3,0-0.5,0-0.8-0.1l-0.6-0.1
	c-0.3,0-0.7-0.1-1.1-0.1l-0.4-0.1c-0.4-0.1-0.7-0.1-1.1-0.2l-0.3-0.1c-0.4-0.1-0.7-0.2-1.1-0.2l-0.4-0.1c-0.3-0.1-0.7-0.2-1-0.3
	l-0.4-0.1c-0.3-0.1-0.6-0.2-0.9-0.3l-0.5-0.2c-0.3-0.1-0.6-0.2-0.8-0.3l-0.1,0c-0.2-0.1-0.3-0.1-0.5-0.2c-0.2-0.1-0.4-0.2-0.7-0.3
	l1.3-3.3L51.2,29c-0.2-0.1-0.4-0.2-0.6-0.3c-0.2-0.1-0.4-0.2-0.5-0.3L50,28.4c-0.2-0.1-0.5-0.2-0.7-0.4c-0.2-0.1-0.3-0.2-0.5-0.3
	l-0.1-0.1c-0.2-0.1-0.5-0.3-0.7-0.4L47.5,27c-0.3-0.2-0.5-0.3-0.7-0.5L46.1,26c-0.2-0.1-0.4-0.3-0.5-0.4c-0.2-0.1-0.3-0.2-0.5-0.4
	l-0.3-0.2c-0.1-0.1-0.3-0.2-0.4-0.3c-0.2-0.2-0.5-0.4-0.7-0.6l-0.4-0.3c-0.8-0.8-1.7-1.6-2.4-2.5L40.5,21c-0.4-0.4-0.7-0.9-1.1-1.3
	l-0.1-0.2c-0.4-0.5-0.7-1-1-1.5c-0.1-0.2-0.2-0.3-0.3-0.5c-0.2-0.4-0.5-0.8-0.7-1.2l-0.1-0.1C37.1,16,37,15.9,37,15.8
	c-0.3-0.5-0.5-1-0.8-1.6L36,13.8c-0.2-0.4-0.4-0.9-0.6-1.3L35.2,12c-0.4-1.2-0.8-2.4-1.1-3.6L34,8.1c-0.1-0.5-0.2-1-0.3-1.6
	l-0.1-0.3c-0.1-0.6-0.2-1.3-0.3-1.9c-0.1-0.6-0.1-1.2-0.1-1.8l0-0.8c0-0.2,0-0.3,0-0.5c0-0.2,0-0.3,0-0.5l0-0.8
	c0-0.6,0.1-1.2,0.1-1.7c0.1-0.7,0.2-1.3,0.3-1.9l0-0.3C33.8-4.5,33.9-5,34-5.5l0.1-0.4c2.7-11.2,11.6-19.9,22.7-22.4l0,0l0.9-0.2
	c0.1,0,0.2,0,0.3,0c0.4-0.1,0.9-0.2,1.3-0.2l0.5-0.1c0.4,0,0.8-0.1,1.2-0.1l0.6,0c0.4,0,0.8,0,1.2,0l0.1,0c0.2,0,0.3,0,0.5,0l0.2,0
	c0.1,0,0.3,0,0.4,0c0.5,0,1,0,1.4,0.1c0.3,0,0.5,0,0.8,0.1c0.4,0,0.8,0.1,1.1,0.1c0.3,0,0.6,0.1,0.9,0.1c0.3,0.1,0.7,0.1,1,0.2
	l0.1,0c0.3,0,0.5,0.1,0.8,0.2c0.3,0.1,0.6,0.2,1,0.2l0.3,0.1c0.2,0.1,0.4,0.1,0.6,0.2c0.5,0.1,0.9,0.3,1.4,0.5l0.2,0.1
	c0.1,0,0.3,0.1,0.4,0.1c0.6,0.2,1.1,0.4,1.7,0.7c0.1,0.1,0.3,0.1,0.4,0.2l0.1,0.1c0.4,0.2,0.9,0.4,1.3,0.6c0.1,0.1,0.3,0.1,0.4,0.2
	l0.1,0.1c0.4,0.2,0.8,0.4,1.2,0.7c0.2,0.1,0.3,0.2,0.4,0.3l0.1,0.1c0.4,0.2,0.7,0.5,1.1,0.7c0.2,0.1,0.3,0.2,0.5,0.4l0.1,0.1
	c0.3,0.2,0.7,0.5,1,0.7c0.2,0.2,0.4,0.3,0.6,0.5c0.3,0.2,0.6,0.5,0.9,0.8c0.2,0.2,0.4,0.4,0.6,0.6l0.1,0.1c0.1,0.1,0.2,0.2,0.3,0.3
	c0.1,0.1,0.2,0.2,0.4,0.4l0.5,0.5c0.8,0.9,1.6,1.9,2.4,2.9l0.1,0.2c0.3,0.5,0.6,0.9,0.9,1.4l0.2,0.3c6,9.8,5.9,22.3-0.3,32l0,0
	l-0.6,0.9c-0.2,0.4-0.5,0.7-0.8,1.1l-0.2,0.3c-0.3,0.4-0.6,0.7-0.8,1l-0.4,0.4c-0.3,0.3-0.5,0.6-0.8,0.9l-0.1,0.1
	c-0.1,0.1-0.2,0.2-0.3,0.3c0,0-0.1,0.1-0.2,0.2c-0.3,0.3-0.6,0.5-0.9,0.8L84,23.8c-0.4,0.4-0.9,0.8-1.3,1.1L82.5,25
	c-0.4,0.3-0.8,0.6-1.2,0.9L81,26.2c-0.4,0.2-0.7,0.5-1.1,0.7l-0.4,0.2c-0.4,0.2-0.8,0.5-1.1,0.7L78,28c-0.5,0.2-0.9,0.5-1.4,0.7
	l-0.1,0.1c-0.5,0.2-1,0.5-1.6,0.7c-0.2,0.1-0.3,0.1-0.4,0.2l-0.1,0c-0.3,0.1-0.7,0.2-1,0.4c-0.2,0.1-0.5,0.2-0.7,0.2
	c-0.3,0.1-0.6,0.2-0.9,0.3l-0.1,0c-0.2,0.1-0.4,0.1-0.6,0.2c-0.4,0.1-0.8,0.2-1.2,0.3c-0.3,0.1-0.6,0.1-0.9,0.2
	c-0.4,0.1-0.7,0.1-1.1,0.2c-0.2,0-0.5,0.1-0.7,0.1c-0.4,0-0.7,0.1-1.1,0.1c-0.3,0-0.5,0-0.6,0c-0.5,0-1,0-1.5,0L63.6,31.6z
	 M59.2-21.7L59.2-21.7c-9,1.7-16.1,8.6-18.3,17.4l-0.1,0.2c-0.1,0.5-0.2,0.9-0.3,1.2l0,0.3c-0.1,0.5-0.1,1-0.2,1.5
	c0,0.5-0.1,0.9-0.1,1.4l0,0.9l0,1c0,0.5,0,0.9,0.1,1.4c0.1,0.5,0.1,1,0.2,1.5l0,0.3c0.1,0.4,0.2,0.8,0.2,1.2l0.1,0.3
	c0.2,0.9,0.5,1.9,0.9,2.8l0.1,0.3c0.2,0.4,0.3,0.8,0.5,1.1l0.2,0.3c0.2,0.4,0.4,0.8,0.6,1.2l0.2,0.3c0.2,0.3,0.3,0.6,0.5,0.9
	l0.3,0.4c0.3,0.4,0.5,0.8,0.8,1.1l0.1,0.1c0.3,0.4,0.5,0.7,0.8,1l0.2,0.3c0.6,0.7,1.2,1.3,1.9,1.9l0.3,0.2c0.2,0.2,0.4,0.4,0.6,0.5
	l0.6,0.5c0.1,0.1,0.2,0.2,0.3,0.2c0.1,0.1,0.2,0.2,0.4,0.3l0.6,0.4c0.1,0.1,0.3,0.2,0.5,0.3l0.5,0.3c0.2,0.1,0.4,0.2,0.6,0.3
	l0.4,0.2c0.2,0.1,0.3,0.2,0.5,0.3l0.2,0.1c0.1,0.1,0.2,0.1,0.4,0.2c0.1,0.1,0.3,0.1,0.4,0.2l0.1,0.1c0.2,0.1,0.3,0.1,0.5,0.2
	l0.4,0.2c0.2,0.1,0.4,0.2,0.7,0.2l0.4,0.1c0.2,0.1,0.5,0.2,0.7,0.2l0.3,0.1c0.3,0.1,0.5,0.1,0.8,0.2l0.3,0.1
	c0.3,0.1,0.6,0.1,0.8,0.2l0.3,0c0.3,0.1,0.6,0.1,0.9,0.1l0.3,0c0.3,0,0.6,0.1,0.8,0.1l0.5,0c0.2,0,0.4,0,0.6,0l0.7,0
	c0.1,0,0.2,0,0.4,0l0.2,0c0.4,0,0.8,0,1.2,0l0.5,0c0.3,0,0.6,0,0.8-0.1c0.2,0,0.4,0,0.6-0.1c0.3,0,0.6-0.1,0.8-0.1
	c0.2,0,0.5-0.1,0.7-0.1c0.3-0.1,0.6-0.1,1-0.2c0.1,0,0.3-0.1,0.4-0.1l0.1,0c0.2-0.1,0.5-0.1,0.7-0.2c0.2-0.1,0.4-0.1,0.5-0.2
	c0.3-0.1,0.5-0.2,0.8-0.3l0.4-0.2c0.4-0.1,0.8-0.3,1.1-0.5l0.1-0.1c0.4-0.2,0.7-0.4,1.1-0.6l0.3-0.2c0.3-0.2,0.6-0.3,0.9-0.5
	l0.3-0.2c0.3-0.2,0.6-0.4,0.8-0.6l0.3-0.2c0.3-0.2,0.6-0.5,0.9-0.7l0.1-0.1c0.4-0.3,0.7-0.6,1.1-0.9l0.2-0.2
	c0.2-0.2,0.5-0.4,0.7-0.6l0.4-0.4c0.2-0.2,0.4-0.4,0.6-0.7l0.3-0.3c0.2-0.2,0.4-0.5,0.6-0.7l0.2-0.3c0.2-0.3,0.4-0.6,0.6-0.9
	l0.1-0.1c5.1-7.5,5.3-17.4,0.6-25.2l-0.1-0.2c-0.2-0.3-0.4-0.7-0.7-1l-0.1-0.2c-0.6-0.8-1.2-1.5-1.8-2.2l-1-1
	c-0.2-0.2-0.3-0.3-0.5-0.5c-0.2-0.2-0.4-0.4-0.7-0.6c-0.2-0.1-0.3-0.3-0.5-0.4c-0.2-0.2-0.5-0.4-0.7-0.6L77-17.9
	c-0.3-0.2-0.5-0.4-0.8-0.5l-0.4-0.3c-0.3-0.2-0.6-0.3-0.9-0.5l-0.4-0.2c-0.3-0.2-0.7-0.3-1-0.5L73-20.1c-0.4-0.2-0.8-0.4-1.3-0.5
	l-0.5-0.2c-0.3-0.1-0.7-0.2-1.1-0.3c-0.1,0-0.3-0.1-0.4-0.1l-0.3-0.1c-0.3-0.1-0.6-0.1-0.8-0.2c-0.2,0-0.4-0.1-0.6-0.1l-0.1,0
	c-0.3-0.1-0.5-0.1-0.8-0.1c-0.2,0-0.5-0.1-0.7-0.1c-0.3,0-0.6-0.1-0.9-0.1c-0.2,0-0.4,0-0.6,0c-0.4,0-0.7,0-1,0l-0.3,0l-0.7,0
	c-0.3,0-0.6,0-0.9,0l-0.4,0c-0.3,0-0.6,0.1-0.9,0.1l-0.4,0c-0.4,0-0.7,0.1-1.1,0.2L59.2-21.7z"/>
<rect x="169" y="1.4" fill="#12100B" width="7" height="63.4"/>
<path fill="#12100B" d="M199.3,31.6c-0.2,0-0.4,0-0.6,0l-0.4,0c-0.2,0-0.3,0-0.5,0c-0.3,0-0.5,0-0.8-0.1l-0.6-0.1
	c-0.3,0-0.7-0.1-1.1-0.1l-0.4-0.1c-0.4-0.1-0.7-0.1-1.1-0.2l-0.3-0.1c-0.4-0.1-0.7-0.2-1.1-0.2l-0.4-0.1c-0.3-0.1-0.7-0.2-1-0.3
	l-0.4-0.1c-0.3-0.1-0.6-0.2-0.9-0.3l-0.5-0.2c-0.3-0.1-0.6-0.2-0.8-0.3l-0.1,0c-0.2-0.1-0.3-0.1-0.5-0.2c-0.2-0.1-0.4-0.2-0.7-0.3
	l1.3-3.3l-1.4,3.2c-0.2-0.1-0.4-0.2-0.6-0.3c-0.2-0.1-0.4-0.2-0.5-0.3l-0.1-0.1c-0.2-0.1-0.5-0.2-0.7-0.4c-0.2-0.1-0.3-0.2-0.5-0.3
	l-0.1-0.1c-0.2-0.1-0.5-0.3-0.7-0.4l-0.5-0.3c-0.3-0.2-0.5-0.3-0.7-0.5l-0.7-0.5c-0.2-0.1-0.4-0.3-0.5-0.4c-0.2-0.1-0.3-0.2-0.5-0.4
	l-0.3-0.2c-0.1-0.1-0.3-0.2-0.4-0.3c-0.2-0.2-0.5-0.4-0.7-0.6l-0.4-0.3c-0.8-0.8-1.7-1.6-2.4-2.5l-0.3-0.4c-0.4-0.4-0.7-0.9-1.1-1.3
	l-0.1-0.2c-0.4-0.5-0.7-1-1-1.5c-0.1-0.2-0.2-0.3-0.3-0.5c-0.2-0.4-0.5-0.8-0.7-1.2l-0.1-0.1c-0.1-0.1-0.1-0.2-0.2-0.3
	c-0.3-0.5-0.5-1-0.8-1.6l-0.2-0.4c-0.2-0.4-0.4-0.9-0.6-1.3l-0.2-0.4c-0.4-1.2-0.8-2.4-1.1-3.6l-0.1-0.4c-0.1-0.5-0.2-1-0.3-1.6
	l-0.1-0.3c-0.1-0.6-0.2-1.3-0.3-1.9c-0.1-0.6-0.1-1.2-0.1-1.8l0-0.8c0-0.2,0-0.3,0-0.5c0-0.2,0-0.3,0-0.5l0-0.8
	c0-0.6,0.1-1.2,0.1-1.7c0.1-0.7,0.2-1.3,0.3-1.9l0-0.3c0.1-0.6,0.2-1.1,0.3-1.6l0.1-0.4c2.7-11.2,11.6-19.9,22.7-22.4l0,0l0.9-0.2
	c0.1,0,0.2,0,0.3,0c0.4-0.1,0.9-0.2,1.3-0.2l0.5-0.1c0.4,0,0.8-0.1,1.2-0.1l0.6,0c0.4,0,0.8,0,1.2,0l0.1,0c0.2,0,0.3,0,0.5,0l0.2,0
	c0.1,0,0.3,0,0.4,0c0.5,0,1,0,1.4,0.1c0.3,0,0.5,0,0.8,0.1c0.4,0,0.8,0.1,1.1,0.1c0.3,0,0.6,0.1,0.9,0.1c0.3,0.1,0.7,0.1,1,0.2
	l0.1,0c0.3,0,0.5,0.1,0.8,0.2c0.3,0.1,0.6,0.2,1,0.2l0.3,0.1c0.2,0.1,0.4,0.1,0.6,0.2c0.5,0.1,0.9,0.3,1.4,0.5l0.2,0.1
	c0.1,0,0.3,0.1,0.4,0.1c0.6,0.2,1.1,0.4,1.7,0.7c0.1,0.1,0.3,0.1,0.4,0.2l0.1,0.1c0.4,0.2,0.9,0.4,1.3,0.6c0.1,0.1,0.3,0.1,0.4,0.2
	l0.1,0.1c0.4,0.2,0.8,0.4,1.2,0.7c0.2,0.1,0.3,0.2,0.4,0.3l0.1,0.1c0.4,0.2,0.7,0.5,1.1,0.7c0.2,0.1,0.3,0.2,0.5,0.4l0.1,0.1
	c0.3,0.2,0.7,0.5,1,0.7c0.2,0.2,0.4,0.3,0.6,0.5c0.3,0.2,0.6,0.5,0.9,0.8c0.2,0.2,0.4,0.4,0.6,0.6l0.1,0.1c0.1,0.1,0.2,0.2,0.3,0.3
	c0.1,0.1,0.2,0.2,0.4,0.4l0.5,0.5c0.8,0.9,1.6,1.9,2.4,2.9l0.1,0.2c0.3,0.5,0.6,0.9,0.9,1.4l0.2,0.3c6,9.8,5.9,22.3-0.3,32l0,0
	l-0.6,0.9c-0.2,0.4-0.5,0.7-0.8,1.1l-0.2,0.3c-0.3,0.4-0.6,0.7-0.8,1l-0.4,0.4c-0.3,0.3-0.5,0.6-0.8,0.9l-0.1,0.1
	c-0.1,0.1-0.2,0.2-0.3,0.3c0,0-0.1,0.1-0.2,0.2c-0.3,0.3-0.6,0.5-0.9,0.8l-0.2,0.2c-0.4,0.4-0.9,0.8-1.3,1.1l-0.2,0.1
	c-0.4,0.3-0.8,0.6-1.2,0.9l-0.4,0.2c-0.4,0.2-0.7,0.5-1.1,0.7l-0.4,0.2c-0.4,0.2-0.8,0.5-1.1,0.7l-0.4,0.2c-0.5,0.2-0.9,0.5-1.4,0.7
	l-0.1,0.1c-0.5,0.2-1,0.5-1.6,0.7c-0.2,0.1-0.3,0.1-0.4,0.2l-0.1,0c-0.3,0.1-0.7,0.2-1,0.4c-0.2,0.1-0.5,0.2-0.7,0.2
	c-0.3,0.1-0.6,0.2-0.9,0.3l-0.1,0c-0.2,0.1-0.4,0.1-0.6,0.2c-0.4,0.1-0.8,0.2-1.2,0.3c-0.3,0.1-0.6,0.1-0.9,0.2
	c-0.4,0.1-0.7,0.1-1.1,0.2c-0.2,0-0.5,0.1-0.7,0.1c-0.4,0-0.7,0.1-1.1,0.1c-0.3,0-0.5,0-0.6,0c-0.5,0-1,0-1.5,0L199.3,31.6z
	 M194.9-21.7L194.9-21.7c-9,1.7-16.1,8.6-18.3,17.4l-0.1,0.2c-0.1,0.5-0.2,0.9-0.3,1.2l0,0.3c-0.1,0.5-0.1,1-0.2,1.5
	c0,0.5-0.1,0.9-0.1,1.4l0,0.9l0,1c0,0.5,0,0.9,0.1,1.4c0.1,0.5,0.1,1,0.2,1.5l0,0.3c0.1,0.4,0.2,0.8,0.2,1.2l0.1,0.3
	c0.2,0.9,0.5,1.9,0.9,2.8l0.1,0.3c0.2,0.4,0.3,0.8,0.5,1.1l0.2,0.3c0.2,0.4,0.4,0.8,0.6,1.2l0.2,0.3c0.2,0.3,0.3,0.6,0.5,0.9
	l0.3,0.4c0.3,0.4,0.5,0.8,0.8,1.1l0.1,0.1c0.3,0.4,0.5,0.7,0.8,1l0.2,0.3c0.6,0.7,1.2,1.3,1.9,1.9l0.3,0.2c0.2,0.2,0.4,0.4,0.6,0.5
	l0.6,0.5c0.1,0.1,0.2,0.2,0.3,0.2c0.1,0.1,0.2,0.2,0.4,0.3l0.6,0.4c0.1,0.1,0.3,0.2,0.5,0.3l0.5,0.3c0.2,0.1,0.4,0.2,0.6,0.3
	l0.4,0.2c0.2,0.1,0.3,0.2,0.5,0.3l0.2,0.1c0.1,0.1,0.2,0.1,0.4,0.2c0.1,0.1,0.3,0.1,0.4,0.2l0.1,0.1c0.2,0.1,0.3,0.1,0.5,0.2
	l0.4,0.2c0.2,0.1,0.4,0.2,0.7,0.2l0.4,0.1c0.2,0.1,0.5,0.2,0.7,0.2l0.3,0.1c0.3,0.1,0.5,0.1,0.8,0.2L194,24c0.3,0.1,0.6,0.1,0.8,0.2
	l0.3,0c0.3,0.1,0.6,0.1,0.9,0.1l0.3,0c0.3,0,0.6,0.1,0.8,0.1l0.5,0c0.2,0,0.4,0,0.6,0l0.7,0c0.1,0,0.2,0,0.4,0l0.2,0
	c0.4,0,0.8,0,1.2,0l0.5,0c0.3,0,0.6,0,0.8-0.1c0.2,0,0.4,0,0.6-0.1c0.3,0,0.6-0.1,0.8-0.1c0.2,0,0.5-0.1,0.7-0.1
	c0.3-0.1,0.6-0.1,1-0.2c0.1,0,0.3-0.1,0.4-0.1l0.1,0c0.2-0.1,0.5-0.1,0.7-0.2c0.2-0.1,0.4-0.1,0.5-0.2c0.3-0.1,0.5-0.2,0.8-0.3
	L208,23c0.4-0.1,0.8-0.3,1.1-0.5l0.1-0.1c0.4-0.2,0.7-0.4,1.1-0.6l0.3-0.2c0.3-0.2,0.6-0.3,0.9-0.5l0.3-0.2c0.3-0.2,0.6-0.4,0.8-0.6
	l0.3-0.2c0.3-0.2,0.6-0.5,0.9-0.7l0.1-0.1c0.4-0.3,0.7-0.6,1.1-0.9l0.2-0.2c0.2-0.2,0.5-0.4,0.7-0.6l0.4-0.4
	c0.2-0.2,0.4-0.4,0.6-0.7l0.3-0.3c0.2-0.2,0.4-0.5,0.6-0.7l0.2-0.3c0.2-0.3,0.4-0.6,0.6-0.9l0.1-0.1c5.1-7.5,5.3-17.4,0.6-25.2
	l-0.1-0.2c-0.2-0.3-0.4-0.7-0.7-1l-0.1-0.2c-0.6-0.8-1.2-1.5-1.8-2.2l-1-1c-0.2-0.2-0.3-0.3-0.5-0.5c-0.2-0.2-0.4-0.4-0.7-0.6
	c-0.2-0.1-0.3-0.3-0.5-0.4c-0.2-0.2-0.5-0.4-0.7-0.6l-0.5-0.3c-0.3-0.2-0.5-0.4-0.8-0.5l-0.4-0.3c-0.3-0.2-0.6-0.3-0.9-0.5l-0.4-0.2
	c-0.3-0.2-0.7-0.3-1-0.5l-0.4-0.2c-0.4-0.2-0.8-0.4-1.3-0.5l-0.5-0.2c-0.3-0.1-0.7-0.2-1.1-0.3c-0.1,0-0.3-0.1-0.4-0.1l-0.3-0.1
	c-0.3-0.1-0.6-0.1-0.8-0.2c-0.2,0-0.4-0.1-0.6-0.1l-0.1,0c-0.3-0.1-0.5-0.1-0.8-0.1c-0.2,0-0.5-0.1-0.7-0.1c-0.3,0-0.6-0.1-0.9-0.1
	c-0.2,0-0.4,0-0.6,0c-0.4,0-0.7,0-1,0l-0.3,0l-0.7,0c-0.3,0-0.6,0-0.9,0l-0.4,0c-0.3,0-0.6,0.1-0.9,0.1l-0.4,0
	c-0.4,0-0.7,0.1-1.1,0.2L194.9-21.7z"/>
<path fill="#12100B" d="M243.7-1.6l-7-0.3c0-0.6,0.1-1.2,0.1-1.7c0.1-0.7,0.2-1.3,0.3-1.9l0-0.3c0.1-0.6,0.2-1.1,0.3-1.6l0.1-0.4
	c2.7-11.2,11.6-19.9,22.7-22.4l0,0l0.9-0.2c0.1,0,0.2,0,0.3,0c0.4-0.1,0.9-0.2,1.3-0.2l0.5-0.1c0.4,0,0.8-0.1,1.2-0.1l0.6,0
	c0.4,0,0.8,0,1.2,0l0.1,0c0.2,0,0.3,0,0.5,0l0.2,0c0.1,0,0.3,0,0.4,0c0.5,0,1,0,1.4,0.1l-0.4,7c-0.3,0-0.7,0-1,0l-0.3,0l-0.7,0
	c-0.3,0-0.6,0-0.9,0l-0.4,0c-0.3,0-0.6,0.1-0.9,0.1l-0.4,0c-0.4,0-0.7,0.1-1.1,0.2l-0.2,0c-8.9,1.7-16.1,8.6-18.2,17.4L244.3-6
	c-0.1,0.5-0.2,0.9-0.3,1.2l0,0.3c-0.1,0.5-0.1,1-0.2,1.5C243.8-2.5,243.7-2.1,243.7-1.6z"/>
<rect x="236.7" y="-2.5" fill="#12100B" width="7" height="31.7"/>
<path fill="none" stroke="#12100B" stroke-width="7" stroke-miterlimit="10" d="M240.2,29.2"/>
<path fill="none" d="M237.5,47.9"/>
<polygon fill="#12100B" points="-28.8,15 -28.8,34.1 -10,34.1 -10,28.9 -23.9,15 "/>
</svg>
