<?xml version="1.0" encoding="utf-8"?>
<!-- Generator: Adobe Illustrator 16.0.4, SVG Export Plug-In . SVG Version: 6.00 Build 0)  -->
<!DOCTYPE svg PUBLIC "-//W3C//DTD SVG 1.1//EN" "http://www.w3.org/Graphics/SVG/1.1/DTD/svg11.dtd">
<svg version="1.1" id="Layer_1" xmlns="http://www.w3.org/2000/svg" xmlns:xlink="http://www.w3.org/1999/xlink" x="0px" y="0px"
	 width="65px" height="63px" viewBox="0 0 65 63" enable-background="new 0 0 65 63" xml:space="preserve">
<title>megadraft</title>
<desc>Created with Sketch.</desc>
<g id="Proposta-V00">
	<g id="Landing-Page" transform="translate(-518.000000, -886.000000)">
		<g id="NOSSOS-PROJETOS" transform="translate(168.000000, 766.000000)">
			<g id="megadraft" transform="translate(350.000000, 120.000000)">
				<polygon id="Fill-1" fill="#020303" points="51,22 53,21.6 52.3,14 				"/>
				<g id="Group-4" transform="translate(23.000000, 35.000000)">
					<g id="Clip-3">
					</g>
					<defs>
						<filter id="Adobe_OpacityMaskFilter" filterUnits="userSpaceOnUse" x="-2" y="-1.6" width="7.9" height="8.2">
							<feColorMatrix  type="matrix" values="1 0 0 0 0  0 1 0 0 0  0 0 1 0 0  0 0 0 1 0"/>
						</filter>
					</defs>
					<mask maskUnits="userSpaceOnUse" x="-2" y="-1.6" width="7.9" height="8.2" id="mask-2">
						<g filter="url(#Adobe_OpacityMaskFilter)">
							<path id="path-1" fill="#FFFFFF" d="M2,0.3L0.5,0.5L0.2,4.8l1.4-0.2c1-0.2,1.4-0.3,1.7-0.7c0.1-0.1,0.1-0.3,0.2-0.4
								c0.1-0.3,0.1-0.5,0.2-1.2l0.1-1V0.9C3.6,0.4,3.3,0.2,2.7,0.2C2.5,0.2,2.3,0.2,2,0.3z"/>
						</g>
					</mask>
					<polygon id="Fill-2" mask="url(#mask-2)" fill="#020303" points="-2,6.6 5.9,6.6 5.9,-1.6 -2,-1.6 					"/>
				</g>
				<polygon id="Fill-5" fill="#020303" points="33,43 35,42.6 34.3,35 				"/>
				<g id="Group-8" transform="translate(11.000000, 37.000000)">
					<g id="Clip-7">
					</g>
					<defs>
						<filter id="Adobe_OpacityMaskFilter_1_" filterUnits="userSpaceOnUse" x="-1.9" y="-1.7" width="7.7" height="16.5">
							<feColorMatrix  type="matrix" values="1 0 0 0 0  0 1 0 0 0  0 0 1 0 0  0 0 0 1 0"/>
						</filter>
					</defs>
					<mask maskUnits="userSpaceOnUse" x="-1.9" y="-1.7" width="7.7" height="16.5" id="mask-4">
						<g filter="url(#Adobe_OpacityMaskFilter_1_)">
							<path id="path-3" fill="#FFFFFF" d="M1.8,0.3l-1,0.2L0.1,12.9l1.1-0.2c0.8-0.1,1.1-0.3,1.4-0.5c0.4-0.3,0.6-0.8,0.6-1.9
								L3.7,2c0-0.4,0-0.7,0-0.9C3.6,0.5,3.3,0.2,2.6,0.2C2.4,0.2,2.1,0.3,1.8,0.3z"/>
						</g>
					</mask>
					<polygon id="Fill-6" mask="url(#mask-4)" fill="#020303" points="-1.9,14.8 5.7,14.8 5.7,-1.7 -1.9,-1.7 					"/>
				</g>
				<g id="Group-11">
					<g id="Clip-10">
					</g>
					<defs>
						<filter id="Adobe_OpacityMaskFilter_2_" filterUnits="userSpaceOnUse" x="-1.9" y="-1.8" width="68.6" height="66.6">
							<feColorMatrix  type="matrix" values="1 0 0 0 0  0 1 0 0 0  0 0 1 0 0  0 0 0 1 0"/>
						</filter>
					</defs>
					<mask maskUnits="userSpaceOnUse" x="-1.9" y="-1.8" width="68.6" height="66.6" id="mask-6">
						<g filter="url(#Adobe_OpacityMaskFilter_2_)">
							<path id="path-5" fill="#FFFFFF" d="M26.5,0.7c1.9-0.4,3.8-0.5,5.8-0.5c1.5,0,3,0.1,4.5,0.2c0,0,0,0,0.2,0
								c0.1,0.1,0.1,0.1,0.3,0.1c0,0,0.1,0.1,0.3,0.1c0.1,0,0.2,0,0.4,0.1c0.1,0,0.2,0,0.2,0c0,0,0,0,0.1-0.2c0.1,0,0.2,0,0.3,0
								c0,0,0.1,0,0.2,0c0,0,0.1,0,0.3,0.1c0.1,0,0.2,0,0.2,0.1c0,0,0.1,0,0.2,0.1c0,0,0.1,0,0.2,0.1c0.1,0,0.2,0,0.3,0.1
								c0,0,0,0,0.2,0C40.5,1,40.6,1,40.7,1c0.1,0,0.2,0,0.2,0c0,0,0.1,0,0.2,0c0,0,0.1,0,0.3,0h0.3h0.3c0.1,0,0.1,0,0.2,0
								c0.1,0,0.1,0,0.4,0c0,0,0.1,0,0.2,0c-0.1,0-0.1,0.1-0.2,0.2c0,0,0,0.1,0.1,0.2h0.2c0,0,0.1,0,0.3,0h0.2h0.2c0,0,0,0,0.2,0
								c0,0,0.1,0,0.2,0.1c-0.1,0-0.1,0-0.3,0.1c0,0-0.1,0-0.3,0c0,0,0.1,0.1,0.2,0.1c0,0,0.1,0,0.2,0H44c0.1,0,0.1,0,0.2,0.1v0
								c0,0,0,0,0,0c0,0,0,0,0.1,0.1c0.1,0,0.2,0,0.2,0.1s0.2,0,0.2,0.1s0.1,0,0.2,0.1c0.1,0,0.2,0.1,0.2,0.2c0.1,0,0.1,0,0.1,0.2
								c-0.1,0-0.1,0.1-0.3,0.1v0.2c0,0-0.1,0-0.3,0.1c3.6,1.5,6.8,3.7,9.5,6.3l-2.8,0.5l-3.9,18.1l3.2-0.6l0.6-2.9l2.9-0.5l0.3,2.8
								l3.1-0.5l-2.4-15.8c2.4,2.6,4.5,5.6,5.9,8.8c0,0,0,0,0.2,0c0,0,0,0,0.2,0.1c0,0,0,0,0.2,0c0,0,0,0,0,0.2c0,0,0.1,0.1,0.2,0
								c0,0,0,0,0.2,0.4c0,0,0,0.1-0.1,0.3c-0.1,0-0.1,0.1-0.2,0.1c0,0.1-0.1,0.2-0.1,0.4c0.1,0.1,0.1,0.2,0.1,0.3
								c0.2,0.7,0.5,1.3,0.7,2.1c0.1,0.1,0.1,0.2,0.2,0.3c0.1,0,0.2,0.1,0.2,0.2c0-0.2,0-0.4,0.2-0.3c0.2,0.3,0.3,0.6,0.4,1
								c0,0.1,0,0.2,0,0.3c0.1,0.3,0.1,0.7,0.1,1.1c0,0.1,0.1,0.2,0.1,0.3c0.3,1.2,0.5,2.6,0.4,4.3c0.2,0.2,0.2,0.4,0.3,0.6
								c0,0.1,0,0.3,0.1,0.4c0,0.1,0,0.1,0.1,0.3c0,0,0,0.1,0,0.2c0,0.3,0,0.5,0,0.8c0,0.1,0,0.2,0,0.3c0,0.1,0,0.2-0.1,0.3
								c0,0.1,0,0.3,0,0.3c0,0.1-0.1,0.2-0.2,0.2c0,0.1,0,0.2-0.1,0.2c0.2,1.8-0.6,3.3-0.6,3.3s-0.1,1-0.6,2.2
								c-0.4,1.5-0.9,3-1.5,4.4c0.1,0.9,0,2.3-0.6,3.5c-1,1.9-2.2,3.5-4.6,4.9c-0.3,0.3-0.6,0.6-0.9,1c0.4,0.4,0.3,0.9,0,1.3
								c-0.2,0.3-0.5,0.7-0.8,1c-0.1,0.1-0.2,0.2-0.2,0.3c-0.2,0.2-0.4,0.4-0.6,0.5c0,0.1-0.1,0.2-0.2,0.2c-0.1,0.2-0.3,0.3-0.5,0.4
								c-0.1,0.1-0.1,0.1-0.3,0.2c-0.1,0-0.1,0-0.2,0.1c-0.1,0.1-0.2,0.2-0.3,0.2c-0.2,0.2-0.4,0.3-0.8,0.3
								c-0.2,0.1-0.3,0.2-0.6,0.3c-0.3,0.2-0.7,0.3-1.1,0.4c-0.1,0.1-0.2,0.1-0.3,0.1c-0.1,0.2-0.2,0.2-0.3,0.3
								c-0.1,0-0.2,0.1-0.3,0.2c-0.1,0.1-0.3,0.1-0.5,0c-0.2,0.2-0.5,0.3-0.9,0.4c-0.2,0-0.3,0.1-0.5,0.1c-0.3,0.1-0.6,0.4-0.9,0.5
								c-0.1,0.1-0.2,0.2-0.4,0.1c0,0-0.1,0-0.2,0.1c-0.2,0-0.3,0.1-0.6,0.2c-0.1,0-0.2,0-0.2,0.1c-0.1,0.1-0.2,0.1-0.3,0.2
								c0,0-0.1,0-0.3,0.2c0.1-0.1,0.1-0.1,0.2-0.2c0-0.1,0.1-0.1,0.1-0.2c0,0,0,0-0.2,0.1c-0.2,0.1-0.6,0.3-1,0.4
								c-3.4,1.2-7.1,1.9-10.9,1.9c-1.6,0-3.1-0.1-4.7-0.3l-0.1,0.2c-0.1,0-0.1,0-0.2,0.1c-0.1,0-0.2,0-0.3,0c0,0-0.1-0.1-0.2,0
								c-0.1,0-0.1,0-0.3-0.1c-0.1,0.1-0.1,0.2-0.3,0.2c0,0-0.1,0.1-0.2,0c0,0,0.1,0,0.2-0.1c0,0,0.1,0,0.2-0.2c0,0,0-0.1-0.1-0.2
								c-0.1,0-0.1,0-0.2-0.1c0,0-0.1,0-0.3-0.1c-0.1,0-0.1,0-0.2,0c-0.1,0-0.1,0.1-0.1,0.2c0,0.1-0.1,0.1-0.1,0.3
								c0,0,0,0.1,0.1,0.2c0,0-0.1,0-0.2-0.1v-0.2c0.1,0,0.1-0.1,0.2-0.2c0,0,0-0.1,0-0.2c-1.1-0.2-2.2-0.5-3.3-0.9
								c-0.3,0-0.7-0.1-1-0.1c-0.1,0-0.2-0.1-0.3-0.1c-0.3-0.1-0.6-0.3-1.1-0.4c-0.2,0-0.3-0.1-0.4-0.2c-0.1-0.1-0.3-0.1-0.4-0.2
								c-0.1-0.1-0.3-0.1-0.4-0.2S18.4,60,18.3,60c-0.1-0.1-0.2-0.2-0.4-0.2c-0.1,0-0.2-0.1-0.2-0.1c-0.1-0.1-0.3-0.2-0.5-0.3
								c0,0,0,0-0.2,0.1c-0.1,0-0.1-0.1-0.2-0.1c-0.1-0.2-0.2-0.2-0.4-0.3c-0.1,0-0.3-0.1-0.4-0.2c-0.1,0-0.2,0-0.3,0
								c-0.3,0-0.4,0-0.6-0.1c-0.2-0.1-0.3-0.1-0.4-0.2c-0.1,0-0.1-0.1-0.3-0.1c0,0-0.1,0-0.2-0.1c-0.2-0.2-0.4-0.3-0.7-0.4
								c-0.1-0.1-0.2-0.1-0.2-0.2c-0.1,0-0.2,0-0.3-0.2c-0.1,0-0.2-0.1-0.3-0.2c-0.1-0.1-0.1-0.2-0.1-0.3c-0.1-0.1-0.1-0.1-0.1-0.2
								c0-0.1,0-0.2-0.1-0.3c-0.1-0.1-0.2-0.2-0.4-0.3c-0.2-0.1-0.2-0.1-0.2-0.3c0-0.1,0.1-0.2,0.1-0.2c-0.1-0.2-0.3-0.2-0.5-0.4
								c0.1,0,0.2,0,0.4-0.1c0-0.1,0.1-0.1,0.1-0.2c-0.9-0.8-1.8-1.6-2.6-2.5l3.1-0.5c2.1-0.4,2.7-0.5,3.4-1
								c0.5-0.3,0.8-0.7,1.1-1.2c0.4-0.6,0.6-1.3,0.7-2.5c0-0.4,0-0.7,0.1-0.9l0-7.9c0.1-1.1,0-1.8,0-2.2c-0.3-2-1.8-2.7-4.3-2.3
								l-4.8,0.8L7.8,51.3c-1-1.2-1.9-2.5-2.7-3.8c0,0.1,0,0.2-0.1,0.3c0,0,0,0.1-0.1,0.2c0,0,0,0-0.2,0.2c0,0-0.1,0-0.2,0
								C4.4,48.1,4.3,48,4.3,48c0-0.1-0.1-0.2-0.1-0.3C4.1,47.6,4,47.5,4,47.3c0,0,0-0.1-0.1-0.3c0-0.1-0.1-0.2-0.1-0.2
								c0-0.1-0.1-0.2-0.2-0.4c0-0.1,0-0.2-0.1-0.4c0-0.1-0.1-0.2-0.1-0.3c-0.1-0.1-0.1-0.3-0.2-0.6c0-0.1,0-0.2,0-0.4
								c0,0,0,0-0.1-0.2c-0.1-0.2-0.1-0.4-0.1-0.5c0-0.1,0-0.2-0.1-0.5c0,0,0-0.1-0.1-0.2c0-0.1,0-0.1-0.1-0.2
								c-0.1,0-0.1-0.1-0.1-0.2c0-0.1,0-0.1-0.1-0.2c0,0-0.1-0.1,0-0.2c-1.2-3.3-1.9-6.8-2-10.7c0-0.1,0-0.2,0-0.4
								c0-0.1-0.1-0.2-0.1-0.2c0-0.1-0.1-0.2,0-0.2c0.1,0.1,0.1,0.2,0.2,0.3c0-0.4,0-0.8,0-1.3c0-0.1,0-0.1-0.2-0.2
								c0,0,0-0.1-0.2-0.2c0,0.1,0,0.1-0.2,0.1c0-0.1,0.1-0.1,0.2-0.1c0.1-0.1,0.2-0.2,0.3-0.2c-0.1-0.1-0.1-0.2-0.1-0.3
								c0-0.1,0-0.2,0-0.2c0-0.1,0-0.1-0.1-0.3c0-0.1,0-0.2,0.1-0.2c0,0.1,0,0.2,0,0.2c0,0.2,0.1,0.2,0.2,0.5c0-0.2,0-0.3-0.1-0.5
								c0-0.1,0-0.2,0-0.3c0-0.2,0.1-0.4,0-0.6c0-0.1,0-0.3,0-0.4c0-0.4,0-0.7,0-1.2v-0.4c0-0.1,0.2-0.2,0.2-0.4c0,0,0,0,0,0
								c0-0.1,0-0.1,0-0.2c0,0,0,0,0,0c0,0,0,0.1,0,0.1c0,0,0,0,0,0c0-0.1,0-0.1,0-0.1c0,0,0-0.1,0-0.1c0-0.1,0-0.2,0.1-0.2
								c0-0.1,0-0.1,0-0.2c0-0.1,0-0.3,0.1-0.4c0-0.2,0-0.4,0.1-0.7c0-0.1,0-0.2,0-0.3c0.1-0.2,0.1-0.3,0.1-0.6
								c0-0.2,0.3-0.4,0.5-0.5c0,0.1,0.1,0.2,0.1,0.4c0.1,0.1,0,0.1,0,0.2c0,0.1,0,0.1,0,0.2c0,0,0,0.1,0.2,0.2
								c1.2-4.1,3.2-7.8,5.8-11.1c0.1-0.1,0.1-0.1,0.2-0.2c0.1-0.1,0.2-0.2,0.2-0.3c0-0.1,0.1-0.1,0.1-0.2c0.1-0.1,0.1-0.1,0.2-0.3
								c0-0.1,0.1-0.1,0.2-0.3C8.9,10.2,8.9,10.2,9,10c0-0.1,0.1-0.2,0.2-0.3c0,0,0-0.1,0.1-0.2c0.1-0.1,0.2-0.3,0.3-0.4
								C9.7,9,9.7,8.9,9.8,8.8C9.9,8.7,9.9,8.7,10,8.6c0.1-0.1,0.1-0.2,0.3-0.5c0-0.1,0.1-0.1,0.2-0.3c0.1-0.1,0.1-0.2,0.3-0.3
								c0-0.1,0.1-0.2,0.1-0.2c0-0.1,0.1-0.1,0.1-0.2C11,7.1,11,7,11.2,7c0.1-0.1,0.2-0.2,0.2-0.3c0.1-0.1,0.2-0.1,0.3,0
								c0,0,0,0,0.1,0.2c0,0.1-0.1,0.1-0.1,0.2c0,0.1,0,0.2,0,0.3c0,0,0,0.1-0.1,0.2c0,0.1,0,0.1,0,0.2c2.1-1.9,4.5-3.4,7.2-4.8
								c0,0-0.1-0.1-0.1-0.2c0.1-0.1,0.2-0.2,0.3-0.3c0.1-0.2,0.3-0.3,0.5-0.4c0.7-0.5,1.6-0.8,2-0.9c1-0.2,2-0.5,3.1-0.6
								C25.1,0.6,25.9,0.5,26.5,0.7z M43.3,1.9C43.3,1.9,43.3,1.9,43.3,1.9c-0.1,0-0.1,0-0.1,0c0,0,0,0.1,0,0.3c0-0.1,0-0.2,0-0.2
								C43.2,2,43.2,1.9,43.3,1.9L43.3,1.9z M36.6,27.2c0.3,1.5,1.2,2.3,2.7,2.3c0.3,0,0.5,0,0.8-0.1c0.9-0.1,1.7-0.5,2.3-1.1
								c0.2-0.2,0.3-0.4,0.6-0.8l-0.1,1l2.7-0.5l0.5-9.5l-5.1,0.9L40.9,22l1.9-0.3l-0.1,2.7c-0.1,1.4-0.5,2.1-1.5,2.3
								c-0.8,0.1-1.4-0.2-1.5-0.9c0-0.2,0-0.5,0-1l0.4-8.8c0.1-1.7,0.4-2.3,1.5-2.5c0.9-0.1,1.4,0.2,1.5,0.9c0,0.2,0,0.4,0,0.7
								l-0.1,1.7l3.1-0.5l0.1-1.9c0-0.6,0-1,0-1.4c-0.3-1.7-1.9-2.4-4.7-1.9c-3.3,0.6-4.5,2-4.7,5.5l-0.5,8.8
								C36.4,26,36.5,26.6,36.6,27.2z M27,13.9l-0.9,17.6l8.5-1.5l0.1-2.7l-5.3,0.9l0.3-5.4l4.8-0.8l0.1-2.7l-4.8,0.8l0.2-4.1
								l5.1-0.9l0.1-2.7L27,13.9z M19.1,15.2l-2.7,12.6L15.1,16L10,16.9L9,34.4l3.1-0.5l0.5-15.2l2,14.7l2.9-0.5l3.5-15.7l-1.1,15.3
								l3.1-0.5l0.9-17.6L19.1,15.2z M40.8,29.9l-1,17.5l3.2-0.5l0.4-7.8l4.9-0.8l0.1-2.6l-4.9,0.8l0.2-4.4l4.5-0.8l3.1-0.5
								l-0.8,14.9l3.2-0.5l0.8-14.8l3.2-0.6l0.1-2.7l-9.4,1.6L40.8,29.9z M33.1,31.3l-3.8,17.4l-2.4-7.1c1.6-0.6,2.2-1.4,2.3-3.4
								l0.1-2.5c0-0.4,0-0.7-0.1-1.1c-0.2-0.9-0.5-1.5-1.2-1.9c-0.5-0.3-1.2-0.4-2-0.3c-0.4,0-0.9,0.1-1.7,0.3l-4.2,0.7l-0.9,17.6
								l3.1-0.5l0.4-7.8l1.2-0.2l2.3,7.3l3.2-0.6l2.9-0.5l0.6-2.9l2.9-0.5l0.3,2.8l3.2-0.6l-2.5-16.9L33.1,31.3z M0.8,31.5
								C0.8,31.6,0.9,31.6,0.8,31.5L0.8,31.5L0.8,31.5z M4.1,45.4C4.1,45.4,4.1,45.4,4.1,45.4L4.1,45.4C4.1,45.4,4.1,45.4,4.1,45.4z
								 M4.1,45.5C4.1,45.5,4.2,45.6,4.1,45.5L4.1,45.5L4.1,45.5z M44.3,1.9L44.3,1.9C44.3,1.9,44.3,1.9,44.3,1.9
								C44.3,1.9,44.3,1.9,44.3,1.9z"/>
						</g>
					</mask>
					<polygon id="Fill-9" mask="url(#mask-6)" fill="#020303" points="-1.9,64.9 66.7,64.9 66.7,-1.8 -1.9,-1.8 					"/>
				</g>
			</g>
		</g>
	</g>
</g>
</svg>
