<?xml version="1.0" encoding="utf-8"?>
<!-- Generator: Adobe Illustrator 16.0.4, SVG Export Plug-In . SVG Version: 6.00 Build 0)  -->
<!DOCTYPE svg PUBLIC "-//W3C//DTD SVG 1.1//EN" "http://www.w3.org/Graphics/SVG/1.1/DTD/svg11.dtd">
<svg version="1.1" id="Layer_1" xmlns="http://www.w3.org/2000/svg" xmlns:xlink="http://www.w3.org/1999/xlink" x="0px" y="0px"
	 width="177px" height="33px" viewBox="0 0 177 33" enable-background="new 0 0 177 33" xml:space="preserve">
<title>thumbor</title>
<desc>Created with Sketch.</desc>
<g id="Proposta-V00">
	<g id="Landing-Page" transform="translate(-728.000000, -901.000000)">
		<g id="NOSSOS-PROJETOS" transform="translate(168.000000, 766.000000)">
			<g id="thumbor" transform="translate(560.000000, 135.000000)">
				<path id="Fill-1" fill="#3B3835" d="M9.3,5v5.4h3.9v4.2H9.3v11.3c0,0.9,0.2,1.5,0.5,1.8c0.4,0.4,0.8,0.6,1.5,0.6
					c0.4,0,0.8,0,1.1-0.1c0.3,0,0.7-0.1,1-0.2l0.5,4.3c-0.7,0.2-1.4,0.4-2,0.5c-0.7,0.1-1.4,0.2-2.2,0.2c-2.1,0-3.7-0.6-4.8-1.7
					c-1.1-1.1-1.7-2.9-1.7-5.4V14.6H0v-4.2h3.3V5H9.3z"/>
				<path id="Fill-3" fill="#3B3835" d="M15.3,28.4l2.8-0.6V4.2L15,3.6V0h9v12.6c0.7-1,1.5-1.8,2.5-2.4c1-0.6,2.1-0.9,3.3-0.9
					c2.3,0,4.1,0.8,5.4,2.3c1.3,1.5,1.9,3.9,1.9,7.1v9l2.8,0.6V32H28.7v-3.6l2.5-0.6v-9c0-1.7-0.3-2.9-0.9-3.7
					c-0.6-0.7-1.5-1.1-2.7-1.1c-0.8,0-1.5,0.2-2.1,0.5c-0.6,0.3-1.1,0.7-1.5,1.3v12l2.5,0.6V32H15.3V28.4z"/>
				<g id="Group-7" transform="translate(40.000000, 10.000000)">
					<g id="Clip-6">
					</g>
					<defs>
						<filter id="Adobe_OpacityMaskFilter" filterUnits="userSpaceOnUse" x="0" y="0.3" width="24.7" height="22.7">
							<feColorMatrix  type="matrix" values="1 0 0 0 0  0 1 0 0 0  0 0 1 0 0  0 0 0 1 0"/>
						</filter>
					</defs>
					<mask maskUnits="userSpaceOnUse" x="0" y="0.3" width="24.7" height="22.7" id="mask-2">
						<g filter="url(#Adobe_OpacityMaskFilter)">
							<polygon id="path-1" fill="#FFFFFF" points="0,23 24.8,23 24.8,0.3 0,0.3 							"/>
						</g>
					</mask>
					<path id="Fill-5" mask="url(#mask-2)" fill="#3B3835" d="M16.3,19.7c-0.7,1-1.6,1.8-2.7,2.4c-1.1,0.6-2.3,0.8-3.6,0.8
						c-2.4,0-4.2-0.8-5.6-2.3c-1.3-1.5-2-3.8-2-7V4.5L0,3.9V0.3h2.5h6v13.5c0,1.6,0.3,2.8,0.8,3.5c0.5,0.7,1.4,1.1,2.4,1.1
						c1,0,1.8-0.2,2.5-0.5c0.7-0.3,1.3-0.8,1.7-1.3v-12l-2.7-0.6V0.3H16H22v18.1l2.7,0.6v3.6h-8L16.3,19.7z"/>
				</g>
				<path id="Fill-8" fill="#3B3835" d="M65,13.1V9.4h8.8l0.2,3c0.7-1.1,1.6-1.9,2.7-2.5C77.8,9.3,79.1,9,80.5,9
					c1.4,0,2.7,0.3,3.7,1c1,0.6,1.8,1.6,2.3,2.9c0.7-1.2,1.6-2.2,2.7-2.8c1.1-0.7,2.4-1,3.9-1c2.2,0,3.9,0.8,5.2,2.3
					c1.3,1.5,1.9,3.9,1.9,7v9.4l2.9,0.6V32H91.5v-3.7l2.6-0.6v-9.4c0-1.7-0.3-2.9-0.8-3.6c-0.5-0.7-1.4-1-2.5-1
					c-0.9,0-1.6,0.2-2.2,0.6c-0.6,0.4-1.1,0.9-1.5,1.6c0,0.3,0,0.5,0,0.7s0,0.4,0,0.6v10.6l2.4,0.6V32H78.7v-3.7l2.4-0.6v-9.4
					c0-1.7-0.3-2.8-0.8-3.5c-0.5-0.7-1.4-1-2.5-1c-0.8,0-1.5,0.2-2.1,0.5c-0.6,0.3-1.1,0.8-1.5,1.3v12.2l2.6,0.6V32H65.3v-3.7
					l2.9-0.6v-14L65,13.1z"/>
				<path id="Fill-10" fill="#3B3835" d="M120.1,21.5c0-2.2-0.3-3.9-0.9-5.2c-0.6-1.3-1.7-1.9-3.2-1.9c-0.9,0-1.7,0.2-2.3,0.6
					c-0.6,0.4-1.1,1-1.5,1.7v9.5c0.4,0.7,0.9,1.2,1.5,1.6c0.6,0.4,1.4,0.5,2.4,0.5c1.5,0,2.6-0.6,3.2-1.7c0.6-1.1,0.9-2.7,0.9-4.7
					V21.5z M126,21.9c0,3.4-0.7,6.1-2.2,8.1c-1.5,2-3.6,3-6.3,3c-1.3,0-2.4-0.3-3.4-0.8c-0.9-0.6-1.8-1.3-2.4-2.4l-0.4,2.8h-5.1V4.3
					L103,3.7V0h9.1v12.4c0.6-0.9,1.4-1.6,2.3-2.1c0.9-0.5,1.9-0.7,3.1-0.7c2.8,0,4.9,1.1,6.4,3.2s2.2,5,2.2,8.7V21.9z"/>
				<path id="Fill-12" fill="#3B3835" d="M134.3,20.7c0,2,0.4,3.6,1.1,4.9c0.7,1.2,2,1.8,3.6,1.8c1.6,0,2.8-0.6,3.6-1.8
					s1.1-2.8,1.1-4.9v-0.4c0-2-0.4-3.6-1.1-4.8c-0.8-1.2-2-1.9-3.6-1.9c-1.6,0-2.8,0.6-3.6,1.9c-0.7,1.2-1.1,2.8-1.1,4.8V20.7z
					 M128,20.3c0-3.3,1-6,2.9-8.1c1.9-2.1,4.6-3.2,8.1-3.2c3.4,0,6.1,1.1,8.1,3.2c1.9,2.1,2.9,4.8,2.9,8.1v0.4c0,3.3-1,6-2.9,8.1
					c-1.9,2.1-4.6,3.1-8,3.1c-3.5,0-6.2-1-8.1-3.1c-1.9-2.1-2.9-4.8-2.9-8.1V20.3z"/>
				<path id="Fill-14" fill="#3B3835" d="M150.3,28.3l2.9-0.6v-14l-3.2-0.6V9.4h8.9l0.3,3.3c0.5-1.2,1.2-2.1,2-2.7s1.8-1,2.9-1
					c0.3,0,0.7,0,1,0.1c0.4,0,0.6,0.1,0.9,0.2l-0.6,5.6l-2.5-0.1c-0.9,0-1.6,0.2-2.2,0.5c-0.6,0.3-1,0.8-1.3,1.5v11l2.9,0.6V32
					h-11.9V28.3z"/>
				<g id="Clip-17">
				</g>
				<defs>
					<filter id="Adobe_OpacityMaskFilter_1_" filterUnits="userSpaceOnUse" x="168" y="26" width="9" height="6">
						<feColorMatrix  type="matrix" values="1 0 0 0 0  0 1 0 0 0  0 0 1 0 0  0 0 0 1 0"/>
					</filter>
				</defs>
				<mask maskUnits="userSpaceOnUse" x="168" y="26" width="9" height="6" id="mask-4">
					<g filter="url(#Adobe_OpacityMaskFilter_1_)">
						<polygon id="path-3" fill="#FFFFFF" points="0,33 177,33 177,0 0,0 						"/>
					</g>
				</mask>
				<polygon id="Fill-16" mask="url(#mask-4)" fill="#0067B0" points="168,32 177,32 177,26 168,26 				"/>
			</g>
		</g>
	</g>
</g>
</svg>
